<?xml version="1.0" encoding="utf-8"?>
<!-- Generator: Adobe Illustrator 25.1.0, SVG Export Plug-In . SVG Version: 6.00 Build 0)  -->
<svg version="1.1" id="Layer_1" xmlns="http://www.w3.org/2000/svg" xmlns:xlink="http://www.w3.org/1999/xlink" x="0px" y="0px"
	 viewBox="0 0 592 318" style="enable-background:new 0 0 592 318;" xml:space="preserve">
<style type="text/css">
	.st0{fill:#FFFFFF;stroke:#E84E27;stroke-miterlimit:10;}
	.st1{fill:#E84E27;stroke:#FFFFFF;stroke-miterlimit:10;}
	.st2{fill:#FFFFFF;stroke:#1BB1A3;stroke-miterlimit:10;}
	.st3{fill:#1BB1A3;stroke:#FFFFFF;stroke-miterlimit:10;}
	.st4{fill:#FFFFFF;stroke:#153156;stroke-miterlimit:10;}
	.st5{fill:#153156;stroke:#FFFFFF;stroke-miterlimit:10;}
	.st6{fill:#E84E27;}
	.st7{fill:#153156;}
	.st8{fill:none;stroke:#A6A6A5;stroke-miterlimit:10;}
</style>
<g>
	<g>
		<g>
			<g>
				<g>
					<path class="st0" d="M90.6,202.1l14.5,14.5l2.6,2.6H90.6V202.1z M47,282.1v-4.8v-77.4h40.3v22.6h22.6v59.7H47V282.1z"/>
				</g>
			</g>
			<g>
				<g>
					<path class="st0" d="M80.3,211.1l14.5,14.5l2.6,2.6H80.3V211.1z M36.8,291.1v-4.8v-77.4h40.3v22.6h22.6v59.7H36.8V291.1z"/>
				</g>
			</g>
			<g>
				<g>
					<path class="st0" d="M70.1,220.1l14.5,14.5l2.6,2.6H70.1V220.1z M26.6,300v-4.8v-77.4h40.3v22.6h22.6V300H26.6z"/>
				</g>
			</g>
			<g>
				<g>
					<path class="st1" d="M59.9,229l14.5,14.5l2.6,2.6H59.9V229z M16.3,309v-4.8v-77.4h40.3v22.6h22.6V309H16.3z"/>
				</g>
			</g>
		</g>
		<g>
			<g>
				<path class="st2" d="M207.5,202.1l14.5,14.5l2.6,2.6h-17.1V202.1z M164,282.1v-4.8v-77.4h40.3v22.6h22.6v59.7H164V282.1z"/>
			</g>
			<g>
				<path class="st2" d="M197.3,211.1l14.5,14.5l2.6,2.6h-17.1V211.1z M153.7,291.1v-4.8v-77.4H194v22.6h22.6v59.7h-62.9V291.1z"/>
			</g>
			<g>
				<path class="st2" d="M187,220.1l14.5,14.5l2.6,2.6H187V220.1z M143.5,300v-4.8v-77.4h40.3v22.6h22.6V300H143.5z"/>
			</g>
			<g>
				<path class="st3" d="M176.8,229l14.5,14.5l2.6,2.6h-17.1V229z M133.3,309v-4.8v-77.4h40.3v22.6h22.6V309H133.3z"/>
			</g>
		</g>
		<g>
			<g>
				<path class="st4" d="M324.5,202.1l14.5,14.5l2.6,2.6h-17.1V202.1z M280.9,282.1v-4.8v-77.4h40.3v22.6h22.6v59.7h-62.9V282.1z"/>
			</g>
			<g>
				<path class="st4" d="M314.2,211.1l14.5,14.5l2.6,2.6h-17.1V211.1z M270.7,291.1v-4.8v-77.4H311v22.6h22.6v59.7h-62.9V291.1z"/>
			</g>
			<g>
				<path class="st4" d="M304,220.1l14.5,14.5l2.6,2.6H304V220.1z M260.4,300v-4.8v-77.4h40.3v22.6h22.6V300H260.4z"/>
			</g>
			<g>
				<path class="st5" d="M293.8,229l14.5,14.5l2.6,2.6h-17.1V229z M250.2,309v-4.8v-77.4h40.3v22.6h22.6V309H250.2z"/>
			</g>
		</g>
	</g>
	<g>
		<path class="st4" d="M464,117.9l7.4,7.6l1.3,1.3l-8.8-0.1L464,117.9z M440.8,158.9l0-2.5l0.7-40.1l20.9,0.3l-0.2,11.7l11.7,0.2
			l-0.5,30.9L440.8,158.9L440.8,158.9z"/>
	</g>
	<g>
		<path class="st4" d="M433.4,97.6l11.4,11.8l2,2.1l-13.6-0.2L433.4,97.6L433.4,97.6z M397.5,160.9l0.1-3.8l1-61.8l32.2,0.5
			l-0.3,18.1l18.1,0.3l-0.8,47.7L397.5,160.9L397.5,160.9z"/>
	</g>
	<g>
		<path class="st4" d="M341.4,17.9L354,31l2.3,2.3L341.1,33L341.4,17.9z M301.7,88.1l0.1-4.2l1.1-68.6l35.7,0.6l-0.3,20l20,0.3
			L357.4,89L301.7,88.1z"/>
	</g>
	<g>
		<path class="st6" d="M315,77.7l11.2,11.6l2,2.1l-13.4-0.2C314.8,91.1,315,77.7,315,77.7z M279.7,140l0.1-3.8l1-61l31.7,0.5
			l-0.3,17.8l17.8,0.3l-0.8,47L279.7,140z"/>
	</g>
	<g>
		<path class="st0" d="M452.3,16.2l15,15.5l2.6,2.7L452,34.1L452.3,16.2z M405.4,99.2l0.1-5l1.3-81.1l42.2,0.7l-0.4,23.6l23.6,0.4
			l-1,62.5L405.4,99.2z"/>
	</g>
	<g>
		<path class="st3" d="M407.8,45.3l14.9,15.4l2.6,2.7l-17.8-0.3L407.8,45.3z M361,128l0.1-5l1.3-80.8l42.1,0.7l-0.4,23.5l23.5,0.4
			l-1,62.3L361,128z"/>
	</g>
	<g>
		<path class="st0" d="M387.2,104.2l11.2,11.6l2,2.1l-13.4-0.2L387.2,104.2z M351.9,166.5l0.1-3.8l1-60.9l31.7,0.5l-0.3,17.8
			l17.8,0.3l-0.8,47L351.9,166.5L351.9,166.5z"/>
	</g>
	<g>
		<path class="st2" d="M348.1,106.7l8.8,9.1l1.6,1.6l-10.5-0.2L348.1,106.7L348.1,106.7z M320.4,155.5l0-3l0.8-47.7l24.9,0.4
			l-0.2,13.9l13.9,0.2l-0.6,36.7L320.4,155.5L320.4,155.5z"/>
	</g>
	<g>
		<path class="st7" d="M488.6,58.8l10.2,10.5l1.8,1.9L488.4,71L488.6,58.8L488.6,58.8z M456.6,115.3l0.1-3.5l0.9-55.3l28.8,0.5
			l-0.3,16.1l16.1,0.3l-0.7,42.6L456.6,115.3z"/>
	</g>
	<polygon class="st8" points="418.9,308 24.1,131.8 416.4,194.4 582.4,122.5 	"/>
</g>
</svg>
