<?xml version="1.0" encoding="utf-8"?>
<!-- Generator: Adobe Illustrator 25.1.0, SVG Export Plug-In . SVG Version: 6.00 Build 0)  -->
<svg version="1.1" id="Layer_1" xmlns="http://www.w3.org/2000/svg" xmlns:xlink="http://www.w3.org/1999/xlink" x="0px" y="0px"
	 viewBox="0 0 592 318" style="enable-background:new 0 0 592 318;" xml:space="preserve">
<style type="text/css">
	.st0{fill:#FFFFFF;}
	.st1{fill:none;stroke:#AFB0AF;stroke-miterlimit:10;}
	.st2{fill:#1A3156;}
	.st3{fill:#15B09F;}
	.st4{fill:#7B7D7E;}
	.st5{fill:#E84E0F;}
	.st6{fill:#D3D9DE;}
	.st7{fill:#9F9D9D;}
	.st8{fill:#BCBEBF;}
</style>
<rect x="8.3" y="102.8" class="st0" width="409.3" height="50.4"/>
<rect x="9" y="207.3" class="st0" width="409.8" height="39.4"/>
<path class="st0" d="M400.5,291.7H24.9c-8.8,0-15.9-7.1-15.9-15.9v-19.5h409.8v17C418.8,283.4,410.6,291.7,400.5,291.7z"/>
<rect x="9" y="160.7" class="st0" width="409.8" height="38.6"/>
<g>
	<path class="st1" d="M9,271.9c0,17.3,14.1,31.5,31.5,31.5H387c17.3,0,31.5-14.2,31.5-31.5v-169H9V271.9z"/>
	<path class="st1" d="M387,28.4H40.6C23.3,28.4,9,42.5,9,59.9v42.9h409.5V59.9C418.6,42.6,404.5,28.4,387,28.4z"/>
</g>
<g>
	<rect x="439.6" y="232.7" class="st2" width="115.1" height="30"/>
	<g>
		<path class="st0" d="M463.8,252.7h6.7v0.9h-7.8v-13.5h1.1V252.7z"/>
		<path class="st0" d="M471.7,248.5c0-0.9,0.2-1.8,0.6-2.6c0.4-0.8,0.9-1.4,1.6-1.8c0.7-0.4,1.4-0.6,2.3-0.6c1.3,0,2.4,0.5,3.2,1.4
			s1.2,2.1,1.2,3.7v0.2c0,1-0.2,1.8-0.6,2.6c-0.4,0.8-0.9,1.4-1.6,1.8c-0.7,0.4-1.4,0.6-2.3,0.6c-1.3,0-2.4-0.5-3.2-1.4
			s-1.2-2.1-1.2-3.7V248.5z M472.8,248.8c0,1.2,0.3,2.1,0.9,2.9s1.4,1.1,2.4,1.1s1.8-0.4,2.4-1.1c0.6-0.7,0.9-1.8,0.9-3v-0.2
			c0-0.8-0.1-1.4-0.4-2.1c-0.3-0.6-0.7-1.1-1.2-1.5c-0.5-0.3-1.1-0.5-1.7-0.5c-1,0-1.8,0.4-2.4,1.1c-0.6,0.8-0.9,1.8-0.9,3
			C472.8,248.5,472.8,248.8,472.8,248.8z"/>
		<path class="st0" d="M486.6,252.9c0.8,0,1.4-0.2,1.9-0.6s0.8-1,0.8-1.7h1c0,0.6-0.2,1.2-0.6,1.6c-0.3,0.5-0.8,0.9-1.4,1.2
			c-0.6,0.3-1.2,0.4-1.8,0.4c-1.3,0-2.3-0.5-3.1-1.4c-0.8-0.9-1.1-2.1-1.1-3.6v-0.3c0-1,0.2-1.8,0.5-2.6c0.3-0.7,0.8-1.3,1.5-1.7
			c0.6-0.4,1.4-0.6,2.2-0.6c1.1,0,2,0.3,2.7,1c0.7,0.6,1.1,1.5,1.1,2.5h-1c0-0.8-0.3-1.4-0.8-1.9s-1.1-0.7-1.9-0.7
			c-1,0-1.8,0.4-2.3,1.1s-0.8,1.7-0.8,3v0.3c0,1.3,0.3,2.2,0.8,2.9C484.8,252.6,485.6,252.9,486.6,252.9z"/>
		<path class="st0" d="M499,253.7c-0.1-0.3-0.2-0.8-0.2-1.4c-0.4,0.5-0.9,0.9-1.5,1.2c-0.6,0.3-1.2,0.4-1.9,0.4
			c-0.9,0-1.7-0.3-2.3-0.8s-0.9-1.2-0.9-2c0-1,0.4-1.7,1.2-2.3c0.8-0.6,1.9-0.8,3.3-0.8h2v-1.1c0-0.7-0.2-1.3-0.7-1.7
			c-0.4-0.4-1.1-0.6-1.9-0.6c-0.8,0-1.4,0.2-1.9,0.6s-0.7,0.9-0.7,1.4h-1.1c0-0.8,0.4-1.5,1.1-2c0.7-0.6,1.6-0.9,2.7-0.9
			c1.1,0,2,0.3,2.6,0.8c0.6,0.6,1,1.3,1,2.3v4.8c0,1,0.1,1.7,0.3,2.1v0.1L499,253.7L499,253.7z M495.4,252.9c0.7,0,1.4-0.2,2-0.5
			c0.6-0.4,1-0.8,1.3-1.4v-2.2h-2c-1.1,0-1.9,0.2-2.6,0.6c-0.6,0.4-0.9,0.9-0.9,1.6c0,0.6,0.2,1,0.6,1.4
			C494.2,252.7,494.8,252.9,495.4,252.9z"/>
		<path class="st0" d="M504.4,241.2v2.5h2v0.9h-2v6.7c0,0.5,0.1,1,0.3,1.2c0.2,0.3,0.5,0.4,1,0.4c0.2,0,0.5,0,0.9-0.1v0.9
			c-0.3,0.1-0.7,0.2-1.2,0.2c-0.7,0-1.3-0.2-1.6-0.7c-0.3-0.4-0.5-1.1-0.5-1.9v-6.7h-1.8v-0.9h1.8v-2.5H504.4z"/>
		<path class="st0" d="M508.8,240.9c0-0.2,0.1-0.4,0.2-0.5s0.3-0.2,0.5-0.2c0.2,0,0.4,0.1,0.6,0.2c0.1,0.1,0.2,0.3,0.2,0.5
			s-0.1,0.4-0.2,0.5s-0.3,0.2-0.6,0.2c-0.2,0-0.4-0.1-0.5-0.2C508.9,241.2,508.8,241.1,508.8,240.9z M510.1,253.7H509v-10h1.1V253.7
			z"/>
		<path class="st0" d="M512.4,248.5c0-0.9,0.2-1.8,0.6-2.6c0.4-0.8,0.9-1.4,1.6-1.8c0.7-0.4,1.4-0.6,2.3-0.6c1.3,0,2.4,0.5,3.2,1.4
			c0.8,0.9,1.2,2.1,1.2,3.7v0.2c0,1-0.2,1.8-0.6,2.6c-0.4,0.8-0.9,1.4-1.6,1.8c-0.7,0.4-1.4,0.6-2.3,0.6c-1.3,0-2.4-0.5-3.2-1.4
			c-0.8-0.9-1.2-2.1-1.2-3.7V248.5z M513.5,248.8c0,1.2,0.3,2.1,0.9,2.9c0.6,0.8,1.4,1.1,2.4,1.1s1.8-0.4,2.4-1.1s0.9-1.8,0.9-3
			v-0.2c0-0.8-0.1-1.4-0.4-2.1c-0.3-0.6-0.7-1.1-1.2-1.5c-0.5-0.3-1.1-0.5-1.7-0.5c-1,0-1.8,0.4-2.4,1.1c-0.6,0.8-0.9,1.8-0.9,3
			C513.5,248.5,513.5,248.8,513.5,248.8z"/>
		<path class="st0" d="M524.8,243.7v1.7c0.4-0.6,0.8-1.1,1.4-1.4s1.2-0.5,1.8-0.5c1.1,0,1.8,0.3,2.4,0.9c0.5,0.6,0.8,1.5,0.8,2.7
			v6.6h-1.1v-6.6c0-0.9-0.2-1.5-0.6-2c-0.4-0.4-1-0.6-1.8-0.6c-0.7,0-1.3,0.2-1.8,0.6s-0.9,1-1.2,1.7v6.9h-1.1v-10L524.8,243.7
			L524.8,243.7z"/>
	</g>
</g>
<g>
	<rect x="439.6" y="198.7" class="st3" width="101.5" height="30"/>
	<g>
		<path class="st0" d="M463.7,214.2v5.5h-1.1v-13.5h4.6c1.4,0,2.5,0.4,3.3,1.1c0.8,0.7,1.2,1.7,1.2,2.9c0,1.2-0.4,2.2-1.2,2.9
			c-0.8,0.7-1.9,1-3.3,1h-3.5V214.2z M463.7,213.2h3.4c1.1,0,1.9-0.3,2.5-0.8s0.9-1.2,0.9-2.2c0-0.9-0.3-1.7-0.9-2.2
			c-0.6-0.5-1.4-0.8-2.4-0.8h-3.5V213.2z"/>
		<path class="st0" d="M477.7,219.9c-0.8,0-1.6-0.2-2.3-0.6c-0.7-0.4-1.2-1-1.6-1.7c-0.4-0.7-0.6-1.6-0.6-2.5v-0.4
			c0-0.9,0.2-1.8,0.6-2.6c0.4-0.8,0.9-1.4,1.5-1.8c0.7-0.4,1.4-0.7,2.1-0.7c1.2,0,2.1,0.4,2.9,1.2s1.1,1.9,1.1,3.4v0.6h-7.1v0.2
			c0,1.1,0.3,2.1,1,2.8c0.6,0.7,1.4,1.1,2.4,1.1c0.6,0,1.1-0.1,1.5-0.3c0.4-0.2,0.9-0.6,1.2-1l0.7,0.5
			C480.5,219.3,479.3,219.9,477.7,219.9z M477.5,210.5c-0.8,0-1.5,0.3-2.1,0.9s-0.9,1.4-1,2.4h6v-0.1c0-0.9-0.3-1.7-0.8-2.3
			C479,210.7,478.4,210.5,477.5,210.5z"/>
		<path class="st0" d="M488.2,210.6c-0.2,0-0.5-0.1-0.7-0.1c-0.7,0-1.3,0.2-1.7,0.6c-0.5,0.4-0.8,0.9-1,1.7v6.9h-1.1v-10h1.1v1.6
			c0.6-1.2,1.5-1.8,2.8-1.8c0.3,0,0.5,0,0.7,0.1L488.2,210.6z"/>
		<path class="st0" d="M496,217.2c0-0.5-0.2-1-0.7-1.3c-0.4-0.3-1.1-0.6-2-0.8c-0.9-0.2-1.6-0.4-2-0.6c-0.5-0.2-0.8-0.5-1.1-0.9
			c-0.2-0.3-0.4-0.8-0.4-1.3c0-0.8,0.3-1.4,1-1.9c0.7-0.5,1.5-0.8,2.5-0.8c1.1,0,2,0.3,2.7,0.8c0.7,0.5,1,1.3,1,2.1h-1.1
			c0-0.6-0.2-1.1-0.7-1.4c-0.5-0.4-1.1-0.6-1.8-0.6c-0.7,0-1.3,0.2-1.7,0.5s-0.7,0.7-0.7,1.2s0.2,0.9,0.5,1.1c0.4,0.3,1,0.5,2,0.7
			s1.7,0.5,2.2,0.7c0.5,0.3,0.8,0.6,1.1,0.9c0.2,0.4,0.3,0.8,0.3,1.3c0,0.8-0.3,1.5-1,2c-0.7,0.5-1.6,0.7-2.6,0.7
			c-1.2,0-2.1-0.3-2.8-0.8c-0.7-0.6-1.1-1.3-1.1-2.1h1.1c0,0.6,0.3,1.1,0.8,1.5s1.2,0.5,2,0.5c0.8,0,1.4-0.2,1.8-0.5
			C495.7,218.1,496,217.7,496,217.2z"/>
		<path class="st0" d="M499,214.5c0-0.9,0.2-1.8,0.6-2.6c0.4-0.8,0.9-1.4,1.6-1.8s1.4-0.6,2.3-0.6c1.3,0,2.4,0.5,3.2,1.4
			c0.8,0.9,1.2,2.1,1.2,3.7v0.2c0,1-0.2,1.8-0.6,2.6c-0.4,0.8-0.9,1.4-1.6,1.8s-1.4,0.6-2.3,0.6c-1.3,0-2.4-0.5-3.2-1.4
			c-0.8-0.9-1.2-2.1-1.2-3.7V214.5z M500.1,214.8c0,1.2,0.3,2.1,0.9,2.9s1.4,1.1,2.4,1.1s1.8-0.4,2.4-1.1c0.6-0.8,0.9-1.8,0.9-3
			v-0.2c0-0.8-0.1-1.4-0.4-2.1c-0.3-0.6-0.7-1.1-1.2-1.5c-0.5-0.3-1.1-0.5-1.7-0.5c-1,0-1.8,0.4-2.4,1.1c-0.6,0.8-0.9,1.8-0.9,3
			V214.8z"/>
		<path class="st0" d="M511.2,209.7v1.7c0.4-0.6,0.8-1.1,1.4-1.4c0.6-0.3,1.2-0.5,1.8-0.5c1.1,0,1.8,0.3,2.4,0.9
			c0.5,0.6,0.8,1.5,0.8,2.7v6.6h-1.1v-6.6c0-0.9-0.2-1.5-0.6-2c-0.4-0.4-1-0.6-1.8-0.6c-0.7,0-1.3,0.2-1.8,0.6s-0.9,1-1.2,1.7v6.9
			h-0.9v-10L511.2,209.7L511.2,209.7z"/>
	</g>
</g>
<g>
	<rect x="439.6" y="163.3" class="st4" width="93.1" height="30"/>
	<g>
		<path class="st0" d="M473.1,177.8c0,1.3-0.2,2.4-0.7,3.3s-1.1,1.7-1.9,2.1l2.4,2.1l-0.8,0.7l-2.7-2.3c-0.5,0.1-1,0.2-1.5,0.2
			c-1,0-1.9-0.2-2.7-0.7c-0.8-0.5-1.4-1.2-1.8-2.1s-0.7-2-0.7-3.2v-1.5c0-1.2,0.2-2.3,0.6-3.2c0.4-0.9,1-1.7,1.8-2.2
			c0.8-0.5,1.7-0.8,2.7-0.8s1.9,0.2,2.7,0.7s1.4,1.2,1.8,2.1s0.6,2,0.6,3.2v1.6L473.1,177.8L473.1,177.8z M472,176.4
			c0-1.6-0.4-2.9-1.1-3.8c-0.7-0.9-1.7-1.4-3-1.4c-1.2,0-2.2,0.5-2.9,1.4s-1.1,2.2-1.1,3.8v1.4c0,1.6,0.4,2.8,1.1,3.7
			c0.7,0.9,1.7,1.4,3,1.4s2.3-0.5,3-1.4s1.1-2.2,1.1-3.8v-1.3L472,176.4L472,176.4z"/>
		<path class="st0" d="M482.1,182.6c-0.7,1-1.7,1.4-3.1,1.4c-1.1,0-1.9-0.3-2.4-0.9s-0.8-1.5-0.8-2.7v-6.5h1.1v6.4
			c0,1.9,0.8,2.8,2.3,2.8c1.6,0,2.6-0.7,3-2v-7.2h1.1v10h-1.1L482.1,182.6z"/>
		<path class="st0" d="M485.6,178.7c0-0.9,0.2-1.8,0.6-2.6c0.4-0.8,0.9-1.4,1.6-1.8c0.7-0.4,1.4-0.6,2.3-0.6c1.3,0,2.4,0.5,3.2,1.4
			c0.8,0.9,1.2,2.1,1.2,3.7v0.2c0,1-0.2,1.8-0.6,2.6c-0.4,0.8-0.9,1.4-1.6,1.8c-0.7,0.4-1.4,0.6-2.3,0.6c-1.3,0-2.4-0.5-3.2-1.4
			c-0.8-0.9-1.2-2.1-1.2-3.7V178.7z M486.7,179c0,1.2,0.3,2.1,0.9,2.9s1.4,1.1,2.4,1.1s1.8-0.4,2.4-1.1c0.6-0.7,0.9-1.8,0.9-3v-0.2
			c0-0.8-0.1-1.4-0.4-2.1c-0.3-0.6-0.7-1.1-1.2-1.5c-0.5-0.3-1.1-0.5-1.7-0.5c-1,0-1.8,0.4-2.4,1.1c-0.6,0.8-0.9,1.8-0.9,3
			C486.7,178.7,486.7,179,486.7,179z"/>
		<path class="st0" d="M498.4,171.4v2.5h2v0.9h-2v6.7c0,0.5,0.1,1,0.3,1.2c0.2,0.3,0.5,0.4,1,0.4c0.2,0,0.5,0,0.9-0.1v0.9
			c-0.3,0.1-0.7,0.2-1.2,0.2c-0.7,0-1.3-0.2-1.6-0.7c-0.3-0.4-0.5-1.1-0.5-1.9v-6.7h-1.8v-0.9h1.8v-2.5H498.4z"/>
		<path class="st0" d="M506.7,184.1c-0.8,0-1.6-0.2-2.3-0.6c-0.7-0.4-1.2-1-1.6-1.7c-0.4-0.7-0.6-1.6-0.6-2.5v-0.4
			c0-0.9,0.2-1.8,0.6-2.6c0.4-0.8,0.9-1.4,1.5-1.8c0.7-0.4,1.4-0.7,2.1-0.7c1.2,0,2.1,0.4,2.9,1.2c0.7,0.8,1.1,1.9,1.1,3.4v0.6h-7.1
			v0.2c0,1.1,0.3,2.1,1,2.8c0.6,0.7,1.4,1.1,2.4,1.1c0.6,0,1.1-0.1,1.5-0.3c0.4-0.2,0.9-0.6,1.2-1l0.7,0.5
			C509.3,183.5,508.2,184.1,506.7,184.1z M506.5,174.6c-0.8,0-1.5,0.3-2.1,0.9c-0.6,0.6-0.9,1.4-1,2.4h6v-0.1c0-0.9-0.3-1.7-0.8-2.3
			C508,174.9,507.3,174.6,506.5,174.6z"/>
	</g>
</g>
<g>
	<rect x="439.6" y="267.7" class="st5" width="148.1" height="30"/>
	<g>
		<path class="st0" d="M473.2,282.2c0,1.2-0.2,2.3-0.6,3.2c-0.4,0.9-1,1.6-1.8,2.1c-0.8,0.5-1.7,0.7-2.7,0.7c-1.6,0-2.8-0.6-3.8-1.7
			s-1.4-2.6-1.4-4.6v-1.4c0-1.2,0.2-2.3,0.6-3.2c0.4-0.9,1-1.7,1.8-2.2c0.8-0.5,1.7-0.8,2.7-0.8s1.9,0.2,2.7,0.7
			c0.8,0.5,1.4,1.2,1.8,2.1s0.6,1.9,0.7,3.1V282.2z M472.1,280.8c0-1.6-0.4-2.9-1.1-3.8s-1.7-1.4-3-1.4c-1.2,0-2.2,0.5-3,1.4
			c-0.7,0.9-1.1,2.2-1.1,3.8v1.4c0,1.6,0.4,2.8,1.1,3.7c0.7,0.9,1.7,1.4,3,1.4c1.3,0,2.3-0.5,3-1.4c0.7-0.9,1.1-2.2,1.1-3.8V280.8z"
			/>
		<path class="st0" d="M480.5,279.2c-0.2,0-0.5-0.1-0.7-0.1c-0.7,0-1.3,0.2-1.7,0.6c-0.5,0.4-0.8,0.9-1,1.7v6.9H476v-10h1.1v1.6
			c0.6-1.2,1.5-1.8,2.8-1.8c0.3,0,0.5,0,0.7,0.1L480.5,279.2z"/>
		<path class="st0" d="M481.8,283.1c0-1.5,0.3-2.8,1-3.7c0.7-0.9,1.6-1.4,2.8-1.4c1.3,0,2.4,0.5,3.1,1.6l0.1-1.4h1v9.8
			c0,1.3-0.4,2.3-1.1,3s-1.7,1.1-2.9,1.1c-0.7,0-1.3-0.2-2-0.5c-0.6-0.3-1.1-0.7-1.5-1.2l0.6-0.7c0.8,0.9,1.7,1.4,2.8,1.4
			c0.9,0,1.6-0.3,2.1-0.8s0.8-1.3,0.8-2.2V287c-0.7,1-1.7,1.5-3.1,1.5c-1.1,0-2.1-0.5-2.8-1.4c-0.7-0.9-1-2.1-1-3.7L481.8,283.1
			L481.8,283.1z M482.9,283.3c0,1.3,0.3,2.3,0.8,3s1.2,1.1,2.1,1.1c1.3,0,2.3-0.6,2.9-1.8v-4.7c-0.3-0.6-0.6-1.1-1.1-1.4
			s-1.1-0.5-1.7-0.5c-0.9,0-1.6,0.4-2.1,1.1C483.1,280.9,482.9,281.9,482.9,283.3z"/>
		<path class="st0" d="M499,288.3c-0.1-0.3-0.2-0.8-0.2-1.4c-0.4,0.5-0.9,0.9-1.5,1.2c-0.6,0.3-1.2,0.4-1.9,0.4
			c-0.9,0-1.7-0.3-2.3-0.8s-0.9-1.2-0.9-2c0-1,0.4-1.7,1.2-2.3c0.8-0.6,1.9-0.8,3.3-0.8h2v-1.1c0-0.7-0.2-1.3-0.7-1.7
			c-0.4-0.4-1.1-0.6-1.9-0.6s-1.4,0.2-1.9,0.6s-0.7,0.9-0.7,1.4h-1.1c0-0.8,0.4-1.5,1.1-2c0.7-0.6,1.6-0.9,2.7-0.9
			c1.1,0,2,0.3,2.6,0.8c0.6,0.6,1,1.3,1,2.3v4.8c0,1,0.1,1.7,0.3,2.1v0.1L499,288.3L499,288.3z M495.5,287.5c0.7,0,1.4-0.2,2-0.5
			c0.6-0.4,1-0.8,1.3-1.4v-2.2h-2c-1.1,0-1.9,0.2-2.6,0.6c-0.6,0.4-0.9,0.9-0.9,1.6c0,0.6,0.2,1,0.6,1.4
			C494.3,287.3,494.8,287.5,495.5,287.5z"/>
		<path class="st0" d="M503.8,278.3v1.7c0.4-0.6,0.8-1.1,1.4-1.4c0.6-0.3,1.2-0.5,1.8-0.5c1.1,0,1.8,0.3,2.4,0.9
			c0.5,0.6,0.8,1.5,0.8,2.7v6.6h-1.1v-6.6c0-0.9-0.2-1.5-0.6-2c-0.4-0.4-1-0.6-1.8-0.6c-0.7,0-1.3,0.2-1.8,0.6s-0.9,1-1.2,1.7v6.9
			h-1.1v-10L503.8,278.3L503.8,278.3z"/>
		<path class="st0" d="M513.1,275.4c0-0.2,0.1-0.4,0.2-0.5c0.1-0.1,0.3-0.2,0.5-0.2c0.2,0,0.4,0.1,0.6,0.2c0.1,0.1,0.2,0.3,0.2,0.5
			s-0.1,0.4-0.2,0.5s-0.3,0.2-0.6,0.2c-0.2,0-0.4-0.1-0.5-0.2C513.1,275.8,513.1,275.6,513.1,275.4z M514.5,288.3h-1.1v-10h1.1
			V288.3z"/>
		<path class="st0" d="M518.1,287.3h6.5v0.9h-7.9v-0.8l6.1-8.2h-5.9v-0.9h7.3v0.8L518.1,287.3z"/>
		<path class="st0" d="M532.9,288.3c-0.1-0.3-0.2-0.8-0.2-1.4c-0.4,0.5-0.9,0.9-1.5,1.2c-0.6,0.3-1.2,0.4-1.9,0.4
			c-0.9,0-1.7-0.3-2.3-0.8c-0.6-0.5-0.9-1.2-0.9-2c0-1,0.4-1.7,1.2-2.3c0.8-0.6,1.9-0.8,3.3-0.8h2v-1.1c0-0.7-0.2-1.3-0.7-1.7
			c-0.4-0.4-1.1-0.6-1.9-0.6s-1.4,0.2-1.9,0.6s-0.7,0.9-0.7,1.4h-1.1c0-0.8,0.4-1.5,1.1-2c0.7-0.6,1.6-0.9,2.7-0.9
			c1.1,0,2,0.3,2.6,0.8c0.6,0.6,1,1.3,1,2.3v4.8c0,1,0.1,1.7,0.3,2.1v0.1L532.9,288.3L532.9,288.3z M529.4,287.5
			c0.7,0,1.4-0.2,2-0.5c0.6-0.4,1-0.8,1.3-1.4v-2.2h-2c-1.1,0-1.9,0.2-2.6,0.6c-0.6,0.4-0.9,0.9-0.9,1.6c0,0.6,0.2,1,0.6,1.4
			C528.2,287.3,528.8,287.5,529.4,287.5z"/>
		<path class="st0" d="M538.4,275.8v2.5h2v0.9h-2v6.7c0,0.5,0.1,1,0.3,1.2c0.2,0.3,0.5,0.4,1,0.4c0.2,0,0.5,0,0.9-0.1v0.9
			c-0.3,0.1-0.7,0.2-1.2,0.2c-0.7,0-1.3-0.2-1.6-0.7c-0.3-0.5-0.5-1.1-0.5-1.9v-6.7h-1.8v-0.9h1.8v-2.5H538.4z"/>
		<path class="st0" d="M542.8,275.4c0-0.2,0.1-0.4,0.2-0.5c0.1-0.1,0.3-0.2,0.5-0.2s0.4,0.1,0.6,0.2c0.1,0.1,0.2,0.3,0.2,0.5
			s-0.1,0.4-0.2,0.5c-0.1,0.1-0.3,0.2-0.6,0.2c-0.3,0-0.4-0.1-0.5-0.2C542.8,275.8,542.8,275.6,542.8,275.4z M544.1,288.3H543v-10
			h1.1V288.3z"/>
		<path class="st0" d="M546.4,283.1c0-0.9,0.2-1.8,0.6-2.6c0.4-0.8,0.9-1.4,1.6-1.8s1.4-0.6,2.3-0.6c1.3,0,2.4,0.5,3.2,1.4
			c0.8,0.9,1.2,2.1,1.2,3.7v0.2c0,1-0.2,1.8-0.6,2.6c-0.4,0.8-0.9,1.4-1.6,1.8s-1.4,0.6-2.3,0.6c-1.3,0-2.4-0.5-3.2-1.4
			s-1.2-2.1-1.2-3.7V283.1z M547.5,283.4c0,1.2,0.3,2.1,0.9,2.9c0.6,0.8,1.4,1.1,2.4,1.1s1.8-0.4,2.4-1.1c0.6-0.8,0.9-1.8,0.9-3
			v-0.2c0-0.8-0.1-1.4-0.4-2.1c-0.3-0.6-0.7-1.1-1.2-1.5c-0.5-0.3-1.1-0.5-1.7-0.5c-1,0-1.8,0.4-2.4,1.1c-0.6,0.8-0.9,1.8-0.9,3
			V283.4L547.5,283.4z"/>
		<path class="st0" d="M558.7,278.3v1.7c0.4-0.6,0.8-1.1,1.4-1.4c0.6-0.3,1.2-0.5,1.8-0.5c1.1,0,1.8,0.3,2.4,0.9
			c0.5,0.6,0.8,1.5,0.8,2.7v6.6H564v-6.6c0-0.9-0.2-1.5-0.6-2c-0.4-0.4-1-0.6-1.8-0.6c-0.7,0-1.3,0.2-1.8,0.6s-0.9,1-1.2,1.7v6.9h-1
			v-10L558.7,278.3L558.7,278.3z"/>
	</g>
</g>
<g>
	<rect x="439.6" y="125.8" class="st6" width="80" height="30"/>
	<g>
		<path class="st0" d="M467.9,141.1H464v5.6h-1.2v-13.5h4.3c1.4,0,2.5,0.3,3.3,1s1.2,1.6,1.2,2.9c0,0.9-0.2,1.6-0.7,2.3
			c-0.5,0.7-1.2,1.1-2,1.3l3.3,5.8v0.1H471L467.9,141.1z M463.9,140.2h3.4c0.9,0,1.7-0.3,2.3-0.8c0.6-0.5,0.9-1.2,0.9-2.1
			s-0.3-1.7-0.9-2.2s-1.4-0.8-2.5-0.8h-3.2L463.9,140.2L463.9,140.2z"/>
		<path class="st0" d="M473.9,141.6c0-0.9,0.2-1.8,0.6-2.6c0.4-0.8,0.9-1.4,1.6-1.8s1.4-0.6,2.3-0.6c1.3,0,2.4,0.5,3.2,1.4
			c0.8,0.9,1.2,2.1,1.2,3.7v0.2c0,1-0.2,1.8-0.6,2.6c-0.4,0.8-0.9,1.4-1.6,1.8s-1.4,0.6-2.3,0.6c-1.3,0-2.4-0.5-3.2-1.4
			c-0.8-0.9-1.2-2.1-1.2-3.7V141.6z M475,141.9c0,1.2,0.3,2.1,0.9,2.9s1.4,1.1,2.4,1.1s1.8-0.4,2.4-1.1s0.9-1.8,0.9-3v-0.2
			c0-0.8-0.1-1.4-0.4-2.1c-0.3-0.6-0.7-1.1-1.2-1.5c-0.5-0.3-1.1-0.5-1.7-0.5c-1,0-1.8,0.4-2.4,1.1c-0.6,0.8-0.9,1.8-0.9,3
			L475,141.9L475,141.9z"/>
		<path class="st0" d="M486.4,146.8h-1.1v-14.2h1.1V146.8z"/>
		<path class="st0" d="M493.2,147c-0.8,0-1.6-0.2-2.3-0.6c-0.7-0.4-1.2-1-1.6-1.7s-0.6-1.6-0.6-2.5v-0.4c0-0.9,0.2-1.8,0.6-2.6
			c0.4-0.8,0.9-1.4,1.5-1.8s1.4-0.7,2.1-0.7c1.2,0,2.1,0.4,2.9,1.2c0.7,0.8,1.1,1.9,1.1,3.4v0.6h-7.1v0.2c0,1.1,0.3,2.1,1,2.8
			c0.6,0.7,1.4,1.1,2.4,1.1c0.6,0,1.1-0.1,1.5-0.3c0.4-0.2,0.9-0.6,1.2-1l0.7,0.5C496,146.4,494.8,147,493.2,147z M493,137.6
			c-0.8,0-1.5,0.3-2.1,0.9s-0.9,1.4-1,2.4h6v-0.1c0-0.9-0.3-1.7-0.8-2.3C494.6,137.8,493.9,137.6,493,137.6z"/>
	</g>
</g>
<g>
	<g>
		<path class="st7" d="M43.2,116.9l1,0.7c-0.8,1.1-1.2,2.2-1.3,3.5v1.9h-1.7v-1.5c0-0.9,0.2-1.7,0.6-2.4
			C42.1,118.3,42.7,117.5,43.2,116.9z"/>
		<path class="st7" d="M45.4,123.3l-1-0.7c0.8-1.1,1.2-2.3,1.3-3.5v-1.8h1.7v1.4C47.3,120.6,46.8,122.1,45.4,123.3z"/>
		<path class="st7" d="M54.9,133l0.7,3.1l0.8-3l4.3-14.9h1.5l4.4,14.9l0.8,3L68,133l3.6-14.7h1.8l-5.1,20.1h-1.7l-4.5-15.8l-0.7-1.9
			l-0.4,2l-4.6,15.7h-1.7l-5.4-20.2h1.8L54.9,133z"/>
		<path class="st7" d="M81.9,138.8c-1.2,0-2.4-0.3-3.4-0.9c-1-0.6-1.8-1.4-2.4-2.6c-0.6-1.1-0.9-2.3-0.9-3.7v-0.6
			c0-1.4,0.2-2.8,0.9-3.9c0.6-1.1,1.3-2,2.3-2.6s2.1-1,3.2-1c1.8,0,3.2,0.7,4.3,1.9c1.1,1.2,1.5,2.9,1.5,5.2v0.9H76.7v0.3
			c0,1.7,0.4,3.1,1.4,4.2c1,1.1,2.2,1.7,3.6,1.7c0.9,0,1.7-0.1,2.3-0.4c0.7-0.3,1.3-0.9,1.9-1.5l1,0.8
			C86.1,137.9,84.4,138.8,81.9,138.8z M81.6,124.7c-1.2,0-2.3,0.4-3.1,1.3c-0.9,0.9-1.3,2.1-1.5,3.6h9v-0.2c0-1.4-0.4-2.5-1.2-3.5
			C84,125.1,82.9,124.7,81.6,124.7z"/>
		<path class="st7" d="M99.3,126.1c0.6-0.9,1.2-1.5,2.1-2.1c0.9-0.4,1.8-0.8,2.8-0.8c1.5,0,2.8,0.4,3.5,1.3c0.8,0.9,1.2,2.2,1.2,4.1
			v9.8h-1.5v-9.8c0-1.3-0.3-2.3-0.9-3c-0.6-0.7-1.4-1-2.6-1c-1,0-1.9,0.3-2.6,1c-0.8,0.7-1.3,1.5-1.8,2.5v10.3h-1.7v-21.2h1.7
			C99.3,117.3,99.3,126.1,99.3,126.1z"/>
		<path class="st7" d="M122.8,138.4c-0.1-0.4-0.2-1.1-0.3-2.1c-0.6,0.8-1.3,1.3-2.2,1.8c-0.9,0.4-1.9,0.7-2.9,0.7
			c-1.4,0-2.5-0.4-3.4-1.2c-0.9-0.8-1.3-1.8-1.3-3c0-1.4,0.6-2.5,1.8-3.4s2.9-1.2,5.2-1.2h3v-1.7c0-1.1-0.3-1.9-1-2.5
			s-1.7-0.9-2.9-0.9c-1.1,0-2.1,0.3-2.9,0.9c-0.8,0.6-1.1,1.3-1.1,2.1h-1.9c0-1.2,0.6-2.2,1.7-3.1c1.1-0.9,2.4-1.3,4.1-1.3
			s3,0.4,3.9,1.2c1,0.8,1.4,2,1.4,3.4v7.1c0,1.4,0.1,2.5,0.4,3.2v0.1H122.8z M117.5,137.3c1.1,0,2.1-0.2,3-0.8
			c0.9-0.6,1.5-1.2,1.9-2.1v-3.3h-3c-1.7,0-2.9,0.3-3.9,0.9c-0.9,0.6-1.4,1.3-1.4,2.4c0,0.9,0.3,1.5,0.9,2.1
			C115.8,137,116.6,137.3,117.5,137.3z"/>
		<path class="st7" d="M133,136.2l4.5-12.7h1.7l-5.6,15h-1.3l-5.6-15h1.7L133,136.2z"/>
		<path class="st7" d="M147.8,138.8c-1.2,0-2.4-0.3-3.4-0.9c-1-0.7-1.8-1.4-2.4-2.6c-0.6-1.1-0.9-2.3-0.9-3.7v-0.6
			c0-1.4,0.2-2.8,0.9-3.9c0.6-1.1,1.3-2,2.3-2.6c1-0.7,2.1-1,3.2-1c1.8,0,3.2,0.7,4.3,1.9c1.1,1.2,1.5,2.9,1.5,5.2v0.9h-10.6v0.3
			c0,1.7,0.4,3.1,1.4,4.2c1,1.1,2.2,1.7,3.6,1.7c0.9,0,1.7-0.1,2.3-0.4c0.7-0.3,1.3-0.9,1.9-1.5l1,0.8
			C151.7,137.9,150,138.8,147.8,138.8z M147.4,124.7c-1.2,0-2.3,0.4-3.1,1.3c-0.9,0.9-1.3,2.1-1.5,3.6h9v-0.2c0-1.4-0.4-2.5-1.2-3.5
			C149.6,125.1,148.6,124.7,147.4,124.7z"/>
		<path class="st7" d="M165,123.6v2.4c0.6-0.9,1.2-1.5,2.1-2c0.8-0.4,1.8-0.7,2.8-0.7c2.3,0,3.9,1,4.4,2.9c0.6-0.9,1.2-1.7,2.1-2.1
			c0.9-0.6,1.9-0.8,3-0.8c3.2,0,4.9,1.8,4.9,5.3v10h-1.7v-9.9c0-1.3-0.3-2.3-0.9-3c-0.6-0.7-1.4-1-2.8-1c-1.2,0-2.2,0.4-3,1.1
			c-0.8,0.8-1.2,1.7-1.3,2.8v9.9h-1.7v-10c0-1.3-0.3-2.2-0.9-2.9s-1.5-1-2.8-1c-1,0-1.9,0.3-2.6,0.9c-0.8,0.6-1.3,1.4-1.7,2.6v10.3
			h-1.7v-14.9H165z"/>
		<path class="st7" d="M198,138.4c-0.1-0.4-0.2-1.1-0.3-2.1c-0.6,0.8-1.3,1.3-2.2,1.8c-0.9,0.4-1.9,0.7-2.9,0.7
			c-1.4,0-2.5-0.4-3.4-1.2c-0.9-0.8-1.3-1.8-1.3-3c0-1.4,0.6-2.5,1.8-3.4s2.9-1.2,5.2-1.2h3v-1.7c0-1.1-0.3-1.9-1-2.5
			s-1.7-0.9-2.9-0.9c-1.1,0-2.1,0.3-2.9,0.9c-0.8,0.6-1.1,1.3-1.1,2.1h-1.7c0-1.2,0.6-2.2,1.7-3.1c1.1-0.9,2.4-1.3,4.1-1.3
			c1.7,0,3,0.4,3.9,1.2c1,0.8,1.4,2,1.4,3.4v7.1c0,1.4,0.1,2.5,0.4,3.2v0.1H198z M192.9,137.3c1.1,0,2.1-0.2,3-0.8s1.5-1.2,1.9-2.1
			v-3.3h-3c-1.7,0-2.9,0.3-3.9,0.9c-0.9,0.6-1.4,1.3-1.4,2.4c0,0.9,0.3,1.5,0.9,2.1C191,137,191.9,137.3,192.9,137.3z"/>
		<path class="st7" d="M203.1,130.9c0-2.3,0.6-4.1,1.5-5.6c1-1.3,2.4-2.1,4.2-2.1c2,0,3.5,0.8,4.5,2.3v-8.4h1.7v21.3h-1.5l-0.1-2
			c-1.1,1.5-2.6,2.2-4.6,2.2c-1.7,0-3.1-0.7-4.1-2.1C203.7,135.2,203.1,133.4,203.1,130.9L203.1,130.9L203.1,130.9z M204.9,131.2
			c0,1.9,0.3,3.4,1.1,4.5c0.8,1.1,1.9,1.7,3.2,1.7c2,0,3.4-0.9,4.3-2.6v-7.1c-0.9-1.9-2.3-2.9-4.3-2.9c-1.4,0-2.4,0.6-3.2,1.7
			C205.2,127.4,204.9,129,204.9,131.2z"/>
		<path class="st7" d="M225.4,138.8c-1.2,0-2.4-0.3-3.4-0.9s-1.8-1.4-2.4-2.6c-0.6-1.1-0.9-2.3-0.9-3.7v-0.6c0-1.4,0.2-2.8,0.9-3.9
			c0.6-1.1,1.3-2,2.3-2.6s2.1-1,3.2-1c1.8,0,3.2,0.7,4.3,1.9c1.1,1.2,1.5,2.9,1.5,5.2v0.9h-10.7v0.3c0,1.7,0.4,3.1,1.4,4.2
			c1,1.1,2.2,1.7,3.6,1.7c0.9,0,1.7-0.1,2.3-0.4c0.7-0.3,1.3-0.9,1.9-1.5l1,0.8C229.4,137.9,227.7,138.8,225.4,138.8z M225.1,124.7
			c-1.2,0-2.3,0.4-3.1,1.3c-0.9,0.9-1.3,2.1-1.5,3.6h9v-0.2c0-1.4-0.4-2.5-1.2-3.5C227.3,125.1,226.3,124.7,225.1,124.7z"/>
		<path class="st7" d="M250.5,138.4c-0.1-0.4-0.2-1.1-0.3-2.1c-0.6,0.8-1.3,1.3-2.2,1.8c-0.9,0.4-1.9,0.7-2.9,0.7
			c-1.4,0-2.5-0.4-3.4-1.2c-0.9-0.8-1.3-1.8-1.3-3c0-1.4,0.6-2.5,1.8-3.4c1.2-0.9,2.9-1.2,5.2-1.2h3v-1.7c0-1.1-0.3-1.9-1-2.5
			s-1.7-0.9-2.9-0.9c-1.1,0-2.1,0.3-2.9,0.9c-0.8,0.6-1.1,1.3-1.1,2.1h-1.7c0-1.2,0.6-2.2,1.7-3.1c1.1-0.9,2.4-1.3,4.1-1.3
			s3,0.4,3.9,1.2c1,0.8,1.4,2,1.4,3.4v7.1c0,1.4,0.1,2.5,0.4,3.2v0.1H250.5z M245.3,137.3c1.1,0,2.1-0.2,3-0.8s1.5-1.2,1.9-2.1v-3.3
			h-3c-1.7,0-2.9,0.3-3.9,0.9c-0.9,0.6-1.4,1.3-1.4,2.4c0,0.9,0.3,1.5,0.9,2.1C243.6,137,244.3,137.3,245.3,137.3z"/>
		<path class="st7" d="M257.8,123.6v2.5c0.6-0.9,1.2-1.7,2.1-2.1s1.8-0.8,2.8-0.8c1.5,0,2.8,0.4,3.5,1.3c0.8,0.9,1.2,2.2,1.2,4.1
			v9.8h-1.7v-9.8c0-1.3-0.3-2.3-0.9-3s-1.4-1-2.6-1c-1,0-1.9,0.3-2.6,1c-0.8,0.7-1.3,1.5-1.8,2.5v10.3h-1.7v-14.9H257.8z"/>
		<path class="st7" d="M277.9,130.8c0-1.4,0.2-2.8,0.9-3.9c0.6-1.1,1.3-2,2.3-2.6s2.2-1,3.4-1c2,0,3.5,0.7,4.7,2.1s1.9,3.2,1.9,5.6
			v0.3c0,1.4-0.3,2.8-0.9,3.9c-0.6,1.1-1.3,2-2.3,2.6c-1,0.7-2.2,0.9-3.4,0.9c-2,0-3.5-0.7-4.7-2.1c-1.2-1.4-1.9-3.2-1.9-5.6V130.8
			L277.9,130.8z M279.4,131.3c0,1.8,0.4,3.2,1.3,4.4c0.9,1.1,2.1,1.7,3.6,1.7c1.4,0,2.6-0.6,3.6-1.7c0.9-1.1,1.3-2.6,1.3-4.5v-0.3
			c0-1.1-0.2-2.2-0.7-3.1c-0.4-1-1-1.7-1.8-2.2c-0.8-0.6-1.7-0.8-2.6-0.8c-1.4,0-2.6,0.6-3.5,1.8c-0.9,1.1-1.4,2.6-1.4,4.5v0.2
			C279.3,131.3,279.4,131.3,279.4,131.3z"/>
		<path class="st7" d="M295.8,138.4v-13.6h-2.4v-1.3h2.4v-1.8c0-1.5,0.3-2.6,1.2-3.5c0.8-0.8,1.9-1.2,3.2-1.2c0.7,0,1.2,0.1,1.8,0.2
			l-0.1,1.3c-0.4-0.1-1-0.1-1.5-0.1c-0.9,0-1.7,0.3-2.1,0.9c-0.6,0.6-0.8,1.3-0.8,2.4v1.9h3.5v1.3h-3.5v13.6h-1.7V138.4z"/>
		<path class="st7" d="M305.2,138.4v-13.6h-2.4v-1.3h2.4v-1.8c0-1.5,0.3-2.6,1.1-3.5c0.8-0.8,1.9-1.2,3.2-1.2c0.7,0,1.2,0.1,1.8,0.2
			l-0.1,1.3c-0.4-0.1-1-0.1-1.5-0.1c-0.9,0-1.7,0.3-2.1,0.9c-0.6,0.6-0.8,1.3-0.8,2.4v1.9h3.5v1.3h-3.5v13.6h-1.5V138.4z"/>
		<path class="st7" d="M319.2,138.8c-1.2,0-2.4-0.3-3.4-0.9c-1-0.7-1.8-1.4-2.4-2.6c-0.6-1.1-0.9-2.3-0.9-3.7v-0.6
			c0-1.4,0.2-2.8,0.9-3.9c0.6-1.1,1.3-2,2.3-2.6c1-0.7,2.1-1,3.2-1c1.8,0,3.2,0.7,4.3,1.9c1.1,1.2,1.5,2.9,1.5,5.2v0.9H314v0.3
			c0,1.7,0.4,3.1,1.4,4.2c1,1.1,2.2,1.7,3.6,1.7c0.9,0,1.7-0.1,2.3-0.4c0.7-0.3,1.3-0.9,1.9-1.5l1,0.8
			C323.3,137.9,321.5,138.8,319.2,138.8z M318.9,124.7c-1.2,0-2.3,0.4-3.1,1.3c-0.9,0.9-1.3,2.1-1.5,3.6h9v-0.2
			c0-1.4-0.4-2.5-1.2-3.5C321.2,125.1,320.2,124.7,318.9,124.7z"/>
		<path class="st7" d="M335,125c-0.3-0.1-0.7-0.1-1.1-0.1c-1,0-1.9,0.3-2.6,0.9c-0.7,0.6-1.2,1.4-1.5,2.5v10.3h-1.8v-15h1.7v2.3
			c0.9-1.8,2.3-2.6,4.2-2.6c0.4,0,0.8,0.1,1.1,0.2v1.5H335z"/>
		<path class="st7" d="M43.3,184.5V171h-2.4v-1.3h2.4v-1.8c0-1.5,0.3-2.6,1.1-3.5c0.8-0.8,1.9-1.2,3.2-1.2c0.7,0,1.2,0.1,1.8,0.2
			l-0.1,1.3c-0.4-0.1-1-0.1-1.5-0.1c-0.9,0-1.7,0.3-2.1,0.9c-0.6,0.6-0.8,1.3-0.8,2.4v1.9h3.5v1.3h-3.5v13.6h-1.5
			C43.3,184.6,43.3,184.5,43.3,184.5z"/>
		<path class="st7" d="M50.6,176.8c0-1.4,0.2-2.8,0.9-3.9c0.6-1.1,1.3-2,2.3-2.6s2.2-1,3.4-1c2,0,3.5,0.7,4.7,2.1
			c1.2,1.4,1.9,3.2,1.9,5.6v0.3c0,1.4-0.3,2.8-0.9,3.9c-0.6,1.1-1.3,2-2.3,2.6c-1,0.7-2.2,0.9-3.4,0.9c-2,0-3.5-0.7-4.7-2.1
			c-1.2-1.4-1.9-3.2-1.9-5.6V176.8z M52.3,177.3c0,1.8,0.4,3.2,1.3,4.4c0.9,1.2,2.1,1.7,3.6,1.7c1.4,0,2.6-0.6,3.6-1.7
			c0.9-1.1,1.3-2.6,1.3-4.5v-0.3c0-1.1-0.2-2.2-0.7-3.1c-0.4-1-1-1.7-1.8-2.2c-0.8-0.6-1.7-0.8-2.6-0.8c-1.4,0-2.6,0.6-3.5,1.8
			c-0.9,1.1-1.4,2.6-1.4,4.5v0.2H52.3z"/>
		<path class="st7" d="M74.4,171c-0.3-0.1-0.8-0.1-1.1-0.1c-1,0-1.9,0.3-2.6,0.9c-0.7,0.6-1.2,1.4-1.5,2.5v10.3h-1.7v-15h1.7v2.3
			c0.9-1.8,2.2-2.6,4.2-2.6c0.4,0,0.8,0.1,1.1,0.2V171z"/>
		<path class="st7" d="M95.2,178.8H86l-2.1,5.7H82l7.6-20.2h1.7l7.6,20.2h-1.8L95.2,178.8z M86.6,177.4h8.2l-4-10.9L86.6,177.4z"/>
		<path class="st7" d="M103.4,184.5h-1.5v-21.3h1.7v21.3H103.4z"/>
		<path class="st7" d="M107.8,165.2c0-0.3,0.1-0.6,0.3-0.8c0.2-0.2,0.4-0.3,0.8-0.3s0.7,0.1,0.9,0.3c0.2,0.2,0.3,0.4,0.3,0.8
			s-0.1,0.6-0.3,0.8c-0.2,0.2-0.4,0.3-0.9,0.3c-0.3,0-0.7-0.1-0.8-0.3C107.9,165.8,107.8,165.6,107.8,165.2z M109.7,184.5h-1.7v-15
			h1.7V184.5z"/>
		<path class="st7" d="M116.9,165.7v3.7h3.1v1.3h-3.1v10c0,0.8,0.1,1.4,0.4,1.9c0.3,0.4,0.8,0.6,1.4,0.6c0.2,0,0.7,0,1.3-0.1
			l0.1,1.3c-0.4,0.1-1,0.2-1.8,0.2c-1.1,0-2-0.3-2.4-1c-0.6-0.7-0.8-1.7-0.8-2.9v-10h-2.8v-1.3h2.8v-3.7L116.9,165.7L116.9,165.7z"
			/>
		<path class="st7" d="M132.9,184.5c-0.1-0.4-0.2-1.1-0.3-2.1c-0.6,0.8-1.3,1.3-2.2,1.8c-0.9,0.4-1.9,0.7-2.9,0.7
			c-1.4,0-2.5-0.4-3.4-1.2c-0.9-0.8-1.3-1.8-1.3-3c0-1.4,0.6-2.5,1.8-3.4c1.2-0.9,2.9-1.2,5.2-1.2h3v-1.7c0-1.1-0.3-1.9-1-2.5
			c-0.7-0.7-1.7-0.9-2.9-0.9c-1.1,0-2.1,0.3-2.9,0.9c-0.8,0.6-1.1,1.3-1.1,2.1h-1.7c0-1.2,0.6-2.2,1.7-3.1s2.4-1.3,4.1-1.3
			c1.7,0,3,0.4,3.9,1.2c1,0.8,1.4,2,1.4,3.4v7.2c0,1.4,0.1,2.5,0.4,3.2v0.1h-1.8V184.5z M127.7,183.3c1.1,0,2.1-0.2,3-0.8
			c0.9-0.6,1.5-1.2,1.9-2.1v-3.3h-3c-1.7,0-2.9,0.3-3.9,0.9c-0.9,0.6-1.4,1.3-1.4,2.4c0,0.9,0.3,1.5,0.9,2.1
			C125.8,183.1,126.7,183.3,127.7,183.3z"/>
		<path class="st7" d="M140.4,184.5h-1.7v-21.3h1.7V184.5z"/>
		<path class="st7" d="M144.9,165.2c0-0.3,0.1-0.6,0.3-0.8c0.2-0.2,0.4-0.3,0.8-0.3c0.3,0,0.7,0.1,0.9,0.3c0.2,0.2,0.3,0.4,0.3,0.8
			s-0.1,0.6-0.3,0.8c-0.2,0.2-0.4,0.3-0.9,0.3c-0.3,0-0.7-0.1-0.8-0.3C145,165.8,144.9,165.6,144.9,165.2z M146.8,184.5h-1.7v-15
			h1.7V184.5z"/>
		<path class="st7" d="M160.8,184.5c-0.1-0.4-0.2-1.1-0.3-2.1c-0.6,0.8-1.3,1.3-2.2,1.8c-0.9,0.4-1.9,0.7-2.9,0.7
			c-1.4,0-2.5-0.4-3.4-1.2c-0.9-0.8-1.3-1.8-1.3-3c0-1.4,0.6-2.5,1.8-3.4c1.2-0.9,2.9-1.2,5.2-1.2h3v-1.7c0-1.1-0.3-1.9-1-2.5
			c-0.7-0.7-1.7-0.9-2.9-0.9c-1.1,0-2.1,0.3-2.9,0.9c-0.8,0.6-1.1,1.3-1.1,2.1h-1.7c0-1.2,0.6-2.2,1.7-3.1c1.1-0.9,2.4-1.3,4.1-1.3
			c1.7,0,3,0.4,3.9,1.2c1,0.8,1.4,2,1.4,3.4v7.2c0,1.4,0.1,2.5,0.4,3.2v0.1h-1.8V184.5z M155.6,183.3c1.1,0,2.1-0.2,3-0.8
			c0.9-0.6,1.5-1.2,1.9-2.1v-3.3h-3c-1.7,0-2.9,0.3-3.9,0.9c-0.9,0.6-1.4,1.3-1.4,2.4c0,0.9,0.3,1.5,0.9,2.1
			C153.8,183.1,154.6,183.3,155.6,183.3z"/>
		<path class="st7" d="M165.3,169.3l-1-0.7c0.8-1.1,1.2-2.3,1.3-3.5v-1.8h1.7v1.4C167.2,166.6,166.5,168.1,165.3,169.3z"/>
		<path class="st7" d="M168.8,169.3l-1-0.7c0.8-1.1,1.2-2.3,1.3-3.5v-1.8h1.7v1.4C170.7,166.6,170,168.1,168.8,169.3z"/>
		<path class="st7" d="M173.9,188.3l-1-0.7c0.9-1.1,1.2-2.3,1.3-3.4v-2.1h1.7v1.8C175.8,185.5,175.1,187.1,173.9,188.3z"/>
		<path class="st7" d="M189.1,164.3l7.5,17.9l7.5-17.9h2.2v20.2h-1.7v-8.8l0.1-9l-7.5,17.8h-1.3l-7.5-17.8l0.1,8.9v8.8h-1.7v-20.2
			h2.2L189.1,164.3L189.1,164.3z"/>
		<path class="st7" d="M210.9,165.2c0-0.3,0.1-0.6,0.3-0.8c0.2-0.2,0.4-0.3,0.8-0.3c0.3,0,0.7,0.1,0.9,0.3c0.2,0.2,0.3,0.4,0.3,0.8
			s-0.1,0.6-0.3,0.8c-0.2,0.2-0.4,0.3-0.9,0.3c-0.3,0-0.7-0.1-0.8-0.3C210.9,165.8,210.9,165.6,210.9,165.2z M212.9,184.5h-1.7v-15
			h1.7V184.5z"/>
		<path class="st7" d="M223,183.4c1.1,0,2.1-0.3,2.9-1c0.8-0.7,1.2-1.4,1.2-2.5h1.5c0,0.9-0.3,1.8-0.9,2.4c-0.6,0.8-1.2,1.3-2.1,1.8
			s-1.8,0.7-2.8,0.7c-2,0-3.5-0.7-4.6-2c-1.1-1.3-1.7-3.2-1.7-5.5v-0.4c0-1.4,0.2-2.8,0.8-3.9c0.6-1.1,1.2-2,2.2-2.6
			c1-0.7,2.1-0.9,3.3-0.9c1.7,0,3,0.4,4,1.4c1.1,1,1.7,2.2,1.7,3.9h-1.5c-0.1-1.2-0.4-2.1-1.2-2.8c-0.8-0.7-1.8-1.1-2.9-1.1
			c-1.4,0-2.6,0.6-3.4,1.7c-0.8,1.1-1.2,2.5-1.2,4.5v0.4c0,1.9,0.4,3.4,1.2,4.4C220.2,182.9,221.5,183.4,223,183.4z"/>
		<path class="st7" d="M233.7,172.1c0.6-0.9,1.2-1.5,2.1-2.1c0.9-0.4,1.8-0.8,2.8-0.8c1.5,0,2.8,0.4,3.5,1.3
			c0.8,0.9,1.2,2.2,1.2,4.1v9.8h-1.7v-9.8c0-1.3-0.3-2.3-0.9-3c-0.6-0.7-1.4-1-2.6-1c-1,0-1.9,0.3-2.6,1c-0.8,0.7-1.3,1.5-1.8,2.5
			v10.3H232v-21.3h1.7V172.1z"/>
		<path class="st7" d="M257,184.5c-0.1-0.4-0.2-1.1-0.3-2.1c-0.6,0.8-1.3,1.3-2.2,1.8c-0.9,0.4-1.9,0.7-2.9,0.7
			c-1.4,0-2.5-0.4-3.4-1.2c-0.9-0.8-1.3-1.8-1.3-3c0-1.4,0.6-2.5,1.8-3.4c1.2-0.9,2.9-1.2,5.2-1.2h3v-1.7c0-1.1-0.3-1.9-1-2.5
			c-0.7-0.7-1.7-0.9-2.9-0.9c-1.1,0-2.1,0.3-2.9,0.9c-0.8,0.6-1.1,1.3-1.1,2.1h-1.7c0-1.2,0.6-2.2,1.7-3.1c1.1-0.9,2.4-1.3,4.1-1.3
			c1.7,0,3,0.4,3.9,1.2c1,0.8,1.4,2,1.4,3.4v7.2c0,1.4,0.1,2.5,0.4,3.2v0.1H257V184.5z M251.8,183.3c1.1,0,2.1-0.2,3-0.8
			c0.9-0.6,1.5-1.2,1.9-2.1v-3.3h-3c-1.7,0-2.9,0.3-3.9,0.9c-0.9,0.6-1.4,1.3-1.4,2.4c0,0.9,0.3,1.5,0.9,2.1
			C250,183.1,250.7,183.3,251.8,183.3z"/>
		<path class="st7" d="M268.5,184.9c-1.2,0-2.4-0.3-3.4-0.9c-1-0.7-1.8-1.4-2.4-2.6c-0.6-1.1-0.9-2.3-0.9-3.7v-0.7
			c0-1.4,0.2-2.8,0.9-3.9c0.6-1.1,1.3-2,2.3-2.6c1-0.7,2.1-1,3.2-1c1.8,0,3.2,0.7,4.3,1.9c1.1,1.2,1.5,2.9,1.5,5.2v0.9h-10.6v0.3
			c0,1.7,0.4,3.1,1.4,4.2c1,1.1,2.2,1.7,3.6,1.7c0.9,0,1.7-0.1,2.3-0.4c0.7-0.3,1.3-0.9,1.9-1.5l1,0.8
			C272.7,184,270.9,184.9,268.5,184.9z M268.3,170.7c-1.2,0-2.3,0.4-3.1,1.3c-0.9,0.9-1.3,2.1-1.5,3.6h9v-0.2c0-1.4-0.4-2.5-1.2-3.5
			C270.5,171.2,269.5,170.7,268.3,170.7z"/>
		<path class="st7" d="M279.2,184.5h-1.7v-21.3h1.7V184.5z"/>
		<path class="st7" d="M306,175.5c0,1.9-0.3,3.4-1,4.9c-0.7,1.4-1.5,2.4-2.8,3.2c-1.2,0.8-2.5,1.1-4.1,1.1c-2.3,0-4.2-0.9-5.7-2.5
			c-1.4-1.7-2.1-3.9-2.1-6.8v-2.1c0-1.8,0.3-3.4,1-4.9c0.7-1.4,1.5-2.4,2.8-3.2c1.2-0.8,2.5-1.1,4.1-1.1c1.5,0,2.9,0.3,4.1,1.1
			c1.2,0.8,2.1,1.8,2.8,3.1c0.7,1.3,1,2.9,1,4.7v2.4l0,0V175.5z M304.2,173.4c0-2.4-0.6-4.3-1.7-5.7c-1.1-1.3-2.5-2.1-4.4-2.1
			c-1.9,0-3.3,0.7-4.4,2.1c-1.1,1.3-1.7,3.3-1.7,5.8v2.1c0,2.3,0.6,4.2,1.7,5.7c1.1,1.5,2.5,2.1,4.4,2.1c1.9,0,3.4-0.7,4.4-2.1
			c1.1-1.3,1.7-3.3,1.7-5.8V173.4z"/>
		<path class="st7" d="M309.5,169.3l-1-0.7c0.8-1.1,1.2-2.3,1.3-3.5v-1.8h1.7v1.4C311.5,166.6,310.8,168.1,309.5,169.3z"/>
		<path class="st7" d="M317,183.1h9.9v1.4h-11.7v-20.2h1.7v18.7H317z"/>
		<path class="st7" d="M335.6,184.9c-1.2,0-2.4-0.3-3.4-0.9c-1-0.7-1.8-1.4-2.4-2.6c-0.6-1.1-0.9-2.3-0.9-3.7v-0.7
			c0-1.4,0.2-2.8,0.9-3.9c0.6-1.1,1.3-2,2.3-2.6c1-0.7,2.1-1,3.2-1c1.8,0,3.2,0.7,4.3,1.9c1.1,1.2,1.5,2.9,1.5,5.2v0.9h-10.7v0.3
			c0,1.7,0.4,3.1,1.4,4.2c1,1.1,2.2,1.7,3.6,1.7c0.9,0,1.7-0.1,2.3-0.4c0.7-0.3,1.3-0.9,1.9-1.5l1,0.8
			C339.6,184,338,184.9,335.6,184.9z M335.3,170.7c-1.2,0-2.3,0.4-3.1,1.3c-0.9,0.9-1.3,2.1-1.5,3.6h9v-0.2c0-1.4-0.4-2.5-1.2-3.5
			C337.5,171.2,336.5,170.7,335.3,170.7z"/>
		<path class="st7" d="M354,184.5c-0.1-0.4-0.2-1.1-0.3-2.1c-0.6,0.8-1.3,1.3-2.2,1.8c-0.9,0.4-1.9,0.7-2.9,0.7
			c-1.4,0-2.5-0.4-3.4-1.2c-0.9-0.8-1.3-1.8-1.3-3c0-1.4,0.6-2.5,1.8-3.4c1.2-0.9,2.9-1.2,5.2-1.2h3v-1.7c0-1.1-0.3-1.9-1-2.5
			c-0.7-0.7-1.7-0.9-2.9-0.9c-1.1,0-2.1,0.3-2.9,0.9c-0.8,0.6-1.1,1.3-1.1,2.1h-1.7c0-1.2,0.6-2.2,1.7-3.1s2.4-1.3,4.1-1.3
			s3,0.4,3.9,1.2c1,0.8,1.4,2,1.4,3.4v7.2c0,1.4,0.1,2.5,0.4,3.2v0.1H354V184.5z M348.7,183.3c1.1,0,2.1-0.2,3-0.8
			c0.9-0.6,1.5-1.2,1.9-2.1v-3.3h-3c-1.7,0-2.9,0.3-3.9,0.9c-0.9,0.6-1.4,1.3-1.4,2.4c0,0.9,0.3,1.5,0.9,2.1
			C346.9,183.1,347.7,183.3,348.7,183.3z"/>
		<path class="st7" d="M366.5,171c-0.3-0.1-0.7-0.1-1.1-0.1c-1,0-1.9,0.3-2.6,0.9c-0.7,0.6-1.2,1.4-1.5,2.5v10.3h-1.7v-15h1.7v2.3
			c0.9-1.8,2.3-2.6,4.2-2.6c0.4,0,0.8,0.1,1.1,0.2V171z"/>
		<path class="st7" d="M374,182.2l4.3-12.6h1.8l-6.4,17.5l-0.3,0.8c-0.8,1.8-2.1,2.6-3.7,2.6c-0.4,0-0.8-0.1-1.2-0.2V189l0.9,0.1
			c0.8,0,1.4-0.2,2-0.6c0.6-0.4,0.9-1.1,1.2-2.1l0.8-2l-5.7-14.9h1.8L374,182.2z"/>
		<path class="st7" d="M382.4,188.3l-1-0.7c0.9-1.1,1.2-2.3,1.3-3.4v-2.1h1.7v1.8C384.3,185.5,383.6,187.1,382.4,188.3z"/>
		<path class="st7" d="M47.7,229.5c1.1,0,2.1-0.3,2.9-1s1.2-1.4,1.2-2.5h1.5c0,0.9-0.3,1.8-0.9,2.4c-0.6,0.8-1.2,1.3-2.1,1.8
			c-0.9,0.4-1.8,0.7-2.8,0.7c-2,0-3.5-0.7-4.6-2c-1.1-1.3-1.8-3.3-1.8-5.5v-0.4c0-1.4,0.2-2.8,0.8-3.9c0.6-1.1,1.2-2,2.2-2.6
			c1-0.7,2.1-0.9,3.3-0.9c1.7,0,3,0.4,4,1.4c1.1,1,1.7,2.2,1.7,3.9h-1.5c-0.1-1.2-0.4-2.1-1.2-2.8s-1.8-1.1-2.9-1.1
			c-1.4,0-2.6,0.6-3.4,1.7c-0.8,1.1-1.2,2.5-1.2,4.5v0.4c0,1.9,0.4,3.4,1.2,4.4C45.1,229,46.2,229.5,47.7,229.5z"/>
		<path class="st7" d="M58.4,218c0.6-0.9,1.2-1.5,2.1-2.1c0.9-0.4,1.8-0.8,2.8-0.8c1.5,0,2.8,0.4,3.5,1.3s1.2,2.2,1.2,4.1v9.8h-1.7
			v-9.8c0-1.3-0.3-2.3-0.9-3c-0.6-0.7-1.4-1-2.6-1c-1,0-1.9,0.3-2.6,1c-0.8,0.7-1.3,1.5-1.8,2.5v10.3h-1.7v-21.3h1.7V218z"/>
		<path class="st7" d="M72.2,211.3c0-0.3,0.1-0.6,0.3-0.8c0.2-0.2,0.4-0.3,0.8-0.3s0.7,0.1,0.9,0.3c0.2,0.2,0.3,0.4,0.3,0.8
			c0,0.3-0.1,0.6-0.3,0.8c-0.2,0.2-0.4,0.3-0.9,0.3c-0.3,0-0.7-0.1-0.8-0.3C72.3,211.9,72.2,211.5,72.2,211.3z M74.2,230.6h-1.7v-15
			h1.7V230.6z"/>
		<path class="st7" d="M84.6,230.8c-1.2,0-2.4-0.3-3.4-0.9s-1.8-1.4-2.4-2.6c-0.6-1.1-0.9-2.3-0.9-3.7V223c0-1.4,0.2-2.8,0.9-3.9
			c0.7-1.1,1.3-2,2.3-2.6c1-0.7,2.1-1,3.2-1c1.8,0,3.2,0.7,4.3,1.9c1.1,1.2,1.5,2.9,1.5,5.2v0.9H79.4v0.3c0,1.7,0.4,3.1,1.4,4.2
			c1,1.1,2.2,1.7,3.6,1.7c0.9,0,1.7-0.1,2.3-0.4c0.7-0.3,1.3-0.9,1.9-1.5l1,0.8C88.5,230,86.8,230.8,84.6,230.8z M84.2,216.7
			c-1.2,0-2.3,0.4-3.1,1.3c-0.9,0.9-1.3,2.1-1.5,3.6h8.9v-0.2c0-1.4-0.4-2.5-1.2-3.5C86.4,217.2,85.5,216.7,84.2,216.7z"/>
		<path class="st7" d="M94.6,230.6v-13.6h-2.4v-1.4h2.4v-1.8c0-1.5,0.3-2.6,1.1-3.5c0.8-0.8,1.9-1.2,3.2-1.2c0.7,0,1.2,0.1,1.8,0.2
			l-0.1,1.3c-0.4-0.1-1-0.1-1.5-0.1c-0.9,0-1.7,0.3-2.1,0.9c-0.6,0.6-0.8,1.3-0.8,2.4v1.9h3.5v1.3h-3.4v13.6L94.6,230.6L94.6,230.6z
			"/>
		<path class="st7" d="M115.4,230.8c-1.2,0-2.4-0.3-3.4-0.9c-1-0.6-1.8-1.4-2.4-2.6c-0.6-1.1-0.9-2.3-0.9-3.7V223
			c0-1.4,0.2-2.8,0.9-3.9c0.6-1.1,1.3-2,2.3-2.6s2.1-1,3.2-1c1.8,0,3.2,0.7,4.3,1.9c1.1,1.2,1.5,2.9,1.5,5.2v0.9h-10.7v0.3
			c0,1.7,0.4,3.1,1.4,4.2c1,1.1,2.2,1.7,3.6,1.7c0.9,0,1.7-0.1,2.3-0.4c0.7-0.3,1.3-0.9,1.9-1.5l1,0.8
			C119.5,230,117.8,230.8,115.4,230.8z M115.1,216.7c-1.2,0-2.3,0.4-3.1,1.3c-0.9,0.9-1.3,2.1-1.5,3.6h9v-0.2c0-1.4-0.4-2.5-1.2-3.5
			C117.4,217.2,116.4,216.7,115.1,216.7z"/>
		<path class="st7" d="M129,221.7l4-6.2h2l-5.2,7.4l5.4,7.6h-2l-4.2-6.4l-4.2,6.4h-2l5.3-7.6l-5.2-7.4h2L129,221.7z"/>
		<path class="st7" d="M143.9,230.8c-1.2,0-2.4-0.3-3.4-0.9c-1-0.7-1.8-1.4-2.4-2.6c-0.6-1.1-0.9-2.3-0.9-3.7V223
			c0-1.4,0.2-2.8,0.9-3.9c0.6-1.1,1.3-2,2.3-2.6c1-0.7,2.1-1,3.2-1c1.8,0,3.2,0.7,4.3,1.9c1.1,1.2,1.5,2.9,1.5,5.2v0.9h-10.7v0.3
			c0,1.7,0.4,3.1,1.4,4.2c1,1.1,2.2,1.7,3.6,1.7c0.9,0,1.7-0.1,2.3-0.4c0.7-0.3,1.3-0.9,1.9-1.5l1,0.8
			C148,230,146.2,230.8,143.9,230.8z M143.6,216.7c-1.2,0-2.3,0.4-3.1,1.3c-0.9,0.9-1.3,2.1-1.5,3.6h9v-0.2c0-1.4-0.4-2.5-1.2-3.5
			C145.9,217.2,144.9,216.7,143.6,216.7z"/>
		<path class="st7" d="M158.2,229.5c1.1,0,2.1-0.3,2.9-1c0.8-0.7,1.2-1.4,1.2-2.5h1.5c0,0.9-0.3,1.8-0.9,2.4
			c-0.6,0.8-1.2,1.3-2.1,1.8s-1.8,0.7-2.8,0.7c-2,0-3.5-0.7-4.6-2c-1.1-1.3-1.7-3.2-1.7-5.5v-0.4c0-1.4,0.2-2.8,0.8-3.9
			s1.2-2,2.2-2.6c1-0.7,2.1-0.9,3.3-0.9c1.7,0,3,0.4,4,1.4c1.1,1,1.7,2.2,1.7,3.9h-1.5c-0.1-1.2-0.4-2.1-1.2-2.8
			c-0.8-0.7-1.8-1.1-2.9-1.1c-1.4,0-2.6,0.6-3.4,1.7s-1.2,2.5-1.2,4.5v0.4c0,1.9,0.4,3.4,1.2,4.4C155.6,229,156.8,229.5,158.2,229.5
			z"/>
		<path class="st7" d="M177,228.7c-1,1.4-2.5,2.1-4.7,2.1c-1.5,0-2.8-0.4-3.6-1.3c-0.8-0.9-1.2-2.3-1.2-4.1v-9.8h1.7v9.6
			c0,2.9,1.1,4.2,3.4,4.2c2.4,0,3.9-1,4.5-3v-10.8h1.7v15h-1.5L177,228.7z"/>
		<path class="st7" d="M185.5,211.8v3.7h3.1v1.3h-3.1v10c0,0.8,0.1,1.4,0.4,1.9c0.3,0.4,0.8,0.6,1.4,0.6c0.2,0,0.7,0,1.3-0.1
			l0.1,1.3c-0.4,0.1-1,0.2-1.8,0.2c-1.1,0-2-0.3-2.4-1c-0.6-0.7-0.8-1.7-0.8-2.9v-10h-2.8v-1.3h2.8v-3.7L185.5,211.8L185.5,211.8z"
			/>
		<path class="st7" d="M192,211.3c0-0.3,0.1-0.6,0.3-0.8c0.2-0.2,0.4-0.3,0.8-0.3c0.3,0,0.7,0.1,0.9,0.3c0.2,0.2,0.3,0.4,0.3,0.8
			c0,0.3-0.1,0.6-0.3,0.8c-0.2,0.2-0.4,0.3-0.9,0.3c-0.3,0-0.7-0.1-0.8-0.3C192.1,211.9,192,211.5,192,211.3z M194,230.6h-1.7v-15
			h1.7V230.6z"/>
		<path class="st7" d="M203.1,228.2l4.5-12.7h1.7l-5.6,15h-1.3l-5.6-15h1.7L203.1,228.2z"/>
		<path class="st7" d="M217.8,230.8c-1.2,0-2.4-0.3-3.4-0.9c-1-0.7-1.8-1.4-2.4-2.6c-0.6-1.1-0.9-2.3-0.9-3.7V223
			c0-1.4,0.2-2.8,0.9-3.9c0.7-1.1,1.3-2,2.3-2.6c1-0.7,2.1-1,3.2-1c1.8,0,3.2,0.7,4.3,1.9c1.1,1.2,1.5,2.9,1.5,5.2v0.9h-10.7v0.3
			c0,1.7,0.4,3.1,1.4,4.2c1,1.1,2.2,1.7,3.6,1.7c0.9,0,1.7-0.1,2.3-0.4c0.7-0.3,1.3-0.9,1.9-1.5l1,0.8
			C222,230,220.1,230.8,217.8,230.8z M217.6,216.7c-1.2,0-2.3,0.4-3.1,1.3c-0.9,0.9-1.3,2.1-1.5,3.6h9v-0.2c0-1.4-0.4-2.5-1.2-3.5
			C219.8,217.2,218.8,216.7,217.6,216.7z"/>
		<path class="st7" d="M232.7,222.9c0-1.4,0.2-2.8,0.9-3.9c0.7-1.1,1.3-2,2.3-2.6c1-0.7,2.2-1,3.4-1c2,0,3.5,0.7,4.7,2.1
			c1.2,1.4,1.9,3.2,1.9,5.6v0.3c0,1.4-0.3,2.8-0.9,3.9c-0.6,1.1-1.3,2-2.3,2.6c-1,0.7-2.2,0.9-3.4,0.9c-2,0-3.5-0.7-4.7-2.1
			c-1.2-1.4-1.9-3.2-1.9-5.6V222.9z M234.3,223.3c0,1.8,0.4,3.2,1.3,4.4s2.1,1.7,3.6,1.7c1.4,0,2.6-0.6,3.6-1.7s1.3-2.6,1.3-4.5
			v-0.3c0-1.1-0.2-2.2-0.7-3.1c-0.4-1-1-1.7-1.8-2.2c-0.8-0.6-1.7-0.8-2.6-0.8c-1.4,0-2.6,0.6-3.5,1.8c-0.9,1.1-1.4,2.6-1.4,4.5v0.2
			H234.3z"/>
		<path class="st7" d="M250.6,230.6v-13.6h-2.4v-1.4h2.4v-1.8c0-1.5,0.3-2.6,1.1-3.5c0.8-0.8,1.9-1.2,3.2-1.2c0.7,0,1.2,0.1,1.8,0.2
			l-0.1,1.3c-0.4-0.1-1-0.1-1.5-0.1c-0.9,0-1.7,0.3-2.1,0.9c-0.6,0.6-0.8,1.3-0.8,2.4v1.9h3.5v1.3h-3.5v13.6L250.6,230.6
			L250.6,230.6L250.6,230.6z"/>
		<path class="st7" d="M268.2,230.6h-1.7v-20.2h1.7V230.6z"/>
		<path class="st7" d="M275.9,211.8v3.7h3.1v1.3h-3.1v10c0,0.8,0.1,1.4,0.4,1.9c0.3,0.4,0.8,0.6,1.4,0.6c0.2,0,0.7,0,1.3-0.1
			l0.1,1.3c-0.4,0.1-1,0.2-1.8,0.2c-1.1,0-2-0.3-2.4-1c-0.6-0.7-0.8-1.7-0.8-2.9v-10h-2.8v-1.3h2.8v-3.7L275.9,211.8L275.9,211.8z"
			/>
		<path class="st7" d="M291.9,230.6c-0.1-0.4-0.2-1.1-0.3-2.1c-0.6,0.8-1.3,1.3-2.2,1.8c-0.9,0.4-1.9,0.7-2.9,0.7
			c-1.4,0-2.5-0.4-3.4-1.2s-1.3-1.8-1.3-3c0-1.4,0.6-2.5,1.8-3.4c1.2-0.9,2.9-1.2,5.2-1.2h3v-1.7c0-1.1-0.3-1.9-1-2.5
			c-0.7-0.7-1.7-0.9-2.9-0.9c-1.1,0-2.1,0.3-2.9,0.9s-1.1,1.3-1.1,2.1h-1.7c0-1.2,0.6-2.2,1.7-3.1s2.4-1.3,4.1-1.3
			c1.7,0,3,0.4,3.9,1.2c1,0.8,1.4,2,1.4,3.4v7.2c0,1.4,0.1,2.5,0.4,3.2v0.1h-1.8V230.6z M286.6,229.4c1.1,0,2.1-0.2,3-0.8
			c0.9-0.6,1.5-1.2,1.9-2.1v-3.3h-3c-1.7,0-2.9,0.3-3.9,0.9c-0.9,0.6-1.4,1.3-1.4,2.4c0,0.9,0.3,1.5,0.9,2.1
			C284.8,229.2,285.7,229.4,286.6,229.4z"/>
		<path class="st7" d="M299.4,230.6h-1.7v-21.3h1.7V230.6z"/>
		<path class="st7" d="M308.6,228.1l4.3-12.6h1.8l-6.4,17.5l-0.3,0.8c-0.8,1.8-2.1,2.6-3.7,2.6c-0.4,0-0.8-0.1-1.2-0.2v-1.3l0.9,0.1
			c0.8,0,1.4-0.2,2-0.6c0.6-0.4,0.9-1.1,1.2-2.1l0.8-2l-5.7-14.9h1.8L308.6,228.1z"/>
		<path class="st7" d="M317.1,215.3l-1-0.7c0.8-1.1,1.2-2.3,1.3-3.5v-1.8h1.7v1.4C319,212.6,318.3,214.2,317.1,215.3z"/>
		<path class="st7" d="M329.8,226.8c0-0.8-0.3-1.4-1-2c-0.7-0.4-1.7-0.9-3-1.1c-1.3-0.2-2.3-0.6-3.1-1c-0.8-0.3-1.2-0.8-1.7-1.3
			c-0.3-0.6-0.6-1.1-0.6-1.9c0-1.2,0.4-2.1,1.4-2.9c1-0.8,2.2-1.1,3.7-1.1c1.7,0,3,0.4,4,1.2c1,0.8,1.5,1.9,1.5,3.2h-1.7
			c0-0.9-0.3-1.5-1.1-2.2c-0.8-0.6-1.7-0.9-2.8-0.9s-2,0.2-2.6,0.8c-0.7,0.4-1,1.1-1,1.9s0.2,1.3,0.8,1.8c0.6,0.4,1.5,0.8,3,1.1
			c1.4,0.3,2.5,0.7,3.2,1.1c0.8,0.3,1.2,0.9,1.5,1.4s0.6,1.2,0.6,2c0,1.2-0.6,2.2-1.5,3c-1,0.8-2.3,1.1-4,1.1
			c-1.8,0-3.1-0.4-4.2-1.2c-1.1-0.9-1.7-1.9-1.7-3.2h1.7c0.1,1,0.4,1.7,1.2,2.2c0.8,0.6,1.8,0.8,3,0.8c1.1,0,2.1-0.2,2.8-0.8
			C329.5,228.1,329.8,227.5,329.8,226.8z"/>
		<path class="st7" d="M44.1,276.6h-1.8v-21.3H44v21.3H44.1z"/>
		<path class="st7" d="M58,276.6c-0.1-0.4-0.2-1.1-0.3-2.1c-0.6,0.8-1.3,1.3-2.2,1.8c-0.9,0.4-1.9,0.7-2.9,0.7
			c-1.4,0-2.5-0.4-3.4-1.2s-1.3-1.8-1.3-3c0-1.4,0.6-2.5,1.8-3.4c1.2-0.9,2.9-1.2,5.2-1.2h3v-1.8c0-1.1-0.3-1.9-1-2.5
			c-0.7-0.7-1.7-0.9-2.9-0.9c-1.1,0-2.1,0.3-2.9,0.9c-0.8,0.6-1.1,1.3-1.1,2.1h-1.7c0-1.2,0.6-2.2,1.7-3.1c1.1-0.9,2.4-1.3,4.1-1.3
			s3,0.4,3.9,1.2c1,0.8,1.4,2,1.4,3.4v7.2c0,1.4,0.1,2.5,0.4,3.2v0.1H58z M52.7,275.4c1.1,0,2.1-0.2,3-0.8c0.9-0.6,1.5-1.2,1.9-2.1
			v-3.3h-3c-1.7,0-2.9,0.3-3.9,0.9c-0.9,0.6-1.4,1.3-1.4,2.4c0,0.9,0.3,1.5,0.9,2.1C50.9,275.1,51.7,275.4,52.7,275.4z"/>
		<path class="st7" d="M70.6,263c-0.3-0.1-0.8-0.1-1.1-0.1c-1,0-1.9,0.3-2.6,0.9c-0.7,0.6-1.2,1.4-1.5,2.5v10.3h-1.7v-15.1h1.7v2.3
			c0.9-1.8,2.2-2.6,4.2-2.6c0.4,0,0.8,0.1,1.1,0.2L70.6,263z"/>
		<path class="st7" d="M72.6,269c0-2.3,0.6-4.2,1.5-5.6c1-1.4,2.4-2,4.2-2c2,0,3.5,0.8,4.6,2.4l0.1-2.1h1.5v14.7
			c0,1.9-0.6,3.4-1.7,4.5c-1.1,1.1-2.5,1.7-4.3,1.7c-1,0-2-0.2-3-0.7c-0.9-0.4-1.7-1.1-2.2-1.9l0.9-1c1.2,1.4,2.5,2.1,4.2,2.1
			c1.3,0,2.4-0.4,3.2-1.2c0.8-0.8,1.2-1.9,1.2-3.3v-1.9c-1.1,1.4-2.5,2.2-4.6,2.2c-1.8,0-3.1-0.7-4.2-2.1c-1-1.3-1.5-3.2-1.5-5.6
			C72.6,269.3,72.6,269,72.6,269z M74.3,269.3c0,1.9,0.3,3.4,1.1,4.5c0.8,1.1,1.9,1.7,3.2,1.7c2,0,3.4-0.9,4.3-2.8v-6.9
			c-0.3-1-0.9-1.7-1.7-2.2c-0.8-0.6-1.5-0.8-2.6-0.8c-1.4,0-2.4,0.6-3.2,1.7C74.6,265.5,74.3,267.1,74.3,269.3z"/>
		<path class="st7" d="M94.8,276.8c-1.2,0-2.4-0.3-3.4-0.9c-1-0.6-1.8-1.4-2.4-2.6c-0.6-1.1-0.9-2.3-0.9-3.7V269
			c0-1.4,0.2-2.8,0.9-3.9c0.6-1.1,1.3-2,2.3-2.6s2.1-1,3.2-1c1.8,0,3.2,0.7,4.3,1.9c1.1,1.2,1.5,2.9,1.5,5.2v0.9H89.6v0.3
			c0,1.7,0.4,3.1,1.4,4.2s2.2,1.7,3.6,1.7c0.9,0,1.7-0.1,2.3-0.4c0.7-0.3,1.3-0.9,1.9-1.5l1,0.8C98.8,275.9,97.1,276.8,94.8,276.8z
			 M94.5,262.7c-1.2,0-2.3,0.4-3.1,1.3c-0.9,0.9-1.3,2.1-1.5,3.6h9v-0.2c0-1.4-0.4-2.5-1.2-3.5C96.7,263.3,95.7,262.7,94.5,262.7z"
			/>
		<path class="st7" d="M112.7,272.7c0-0.8-0.3-1.4-1-2c-0.7-0.4-1.7-0.9-3-1.1c-1.3-0.3-2.3-0.6-3.1-1c-0.8-0.3-1.2-0.8-1.7-1.3
			c-0.3-0.6-0.6-1.1-0.6-1.9c0-1.2,0.4-2.1,1.4-2.9c1-0.8,2.2-1.1,3.7-1.1c1.7,0,3,0.4,4,1.2s1.5,1.9,1.5,3.2h-1.7
			c0-0.9-0.3-1.5-1.1-2.2c-0.8-0.6-1.7-0.9-2.8-0.9s-2,0.2-2.6,0.8c-0.7,0.4-1,1.1-1,1.9s0.2,1.3,0.8,1.8c0.6,0.4,1.5,0.8,3,1.1
			c1.4,0.3,2.5,0.7,3.2,1.1c0.7,0.4,1.2,0.9,1.5,1.4c0.3,0.6,0.6,1.2,0.6,2c0,1.2-0.6,2.2-1.5,3c-1,0.8-2.3,1.1-4,1.1
			c-1.8,0-3.1-0.4-4.2-1.2c-1.1-0.9-1.7-1.9-1.7-3.2h1.7c0.1,1,0.4,1.7,1.2,2.2c0.8,0.6,1.8,0.8,3,0.8c1.1,0,2.1-0.2,2.8-0.8
			C112.1,274.2,112.7,273.5,112.7,272.7z"/>
		<path class="st7" d="M120.5,257.7v3.7h3.1v1.3h-3.1v10c0,0.8,0.1,1.4,0.4,1.9c0.3,0.4,0.8,0.6,1.4,0.6c0.2,0,0.7,0,1.3-0.1
			l0.1,1.3c-0.4,0.1-1,0.2-1.8,0.2c-1.1,0-2-0.3-2.4-1c-0.6-0.7-0.8-1.7-0.8-2.9v-10h-2.8v-1.3h2.8v-3.7L120.5,257.7L120.5,257.7z"
			/>
		<path class="st7" d="M143.5,276.6c-0.1-0.4-0.2-1.1-0.3-2.1c-0.6,0.8-1.3,1.3-2.2,1.8c-0.9,0.4-1.9,0.7-2.9,0.7
			c-1.4,0-2.5-0.4-3.4-1.2c-0.9-0.8-1.3-1.8-1.3-3c0-1.4,0.6-2.5,1.8-3.4c1.2-0.9,2.9-1.2,5.2-1.2h3v-1.8c0-1.1-0.3-1.9-1-2.5
			c-0.7-0.7-1.7-0.9-2.9-0.9c-1.1,0-2.1,0.3-2.9,0.9c-0.8,0.6-1.1,1.3-1.1,2.1h-1.7c0-1.2,0.6-2.2,1.7-3.1c1.1-0.9,2.4-1.3,4.1-1.3
			c1.7,0,3,0.4,3.9,1.2c1,0.8,1.4,2,1.4,3.4v7.2c0,1.4,0.1,2.5,0.4,3.2v0.1H143.5z M138.3,275.4c1.1,0,2.1-0.2,3-0.8
			s1.5-1.2,1.9-2.1v-3.3h-3c-1.7,0-2.9,0.3-3.9,0.9c-0.9,0.6-1.4,1.3-1.4,2.4c0,0.9,0.3,1.5,0.9,2.1
			C136.4,275.1,137.3,275.4,138.3,275.4z"/>
		<path class="st7" d="M149.1,257.2c0-0.3,0.1-0.6,0.3-0.8c0.2-0.2,0.4-0.3,0.8-0.3c0.3,0,0.7,0.1,0.9,0.3c0.2,0.2,0.3,0.4,0.3,0.8
			c0,0.3-0.1,0.6-0.3,0.8c-0.2,0.2-0.4,0.3-0.9,0.3c-0.3,0-0.7-0.1-0.8-0.3C149.2,257.9,149.1,257.5,149.1,257.2z M151,276.6h-1.7
			v-15.1h1.7V276.6z"/>
		<path class="st7" d="M162.5,263c-0.3-0.1-0.8-0.1-1.1-0.1c-1,0-1.9,0.3-2.6,0.9c-0.7,0.6-1.2,1.4-1.5,2.5v10.3h-1.7v-15.1h1.7v2.3
			c0.9-1.8,2.2-2.6,4.2-2.6c0.4,0,0.8,0.1,1.1,0.2L162.5,263z"/>
		<path class="st7" d="M166.9,276.6h-1.7v-21.3h1.7V276.6z"/>
		<path class="st7" d="M171.2,257.2c0-0.3,0.1-0.6,0.3-0.8c0.2-0.2,0.4-0.3,0.8-0.3c0.3,0,0.7,0.1,0.9,0.3c0.2,0.2,0.3,0.4,0.3,0.8
			c0,0.3-0.1,0.6-0.3,0.8c-0.2,0.2-0.4,0.3-0.9,0.3c-0.3,0-0.7-0.1-0.8-0.3C171.4,257.9,171.2,257.5,171.2,257.2z M173.3,276.6h-1.7
			v-15.1h1.7V276.6z"/>
		<path class="st7" d="M179.4,261.6v2.5c0.6-0.9,1.2-1.7,2.1-2.1c0.9-0.4,1.8-0.8,2.8-0.8c1.5,0,2.8,0.4,3.5,1.3
			c0.8,0.9,1.2,2.2,1.2,4.1v9.8h-1.7v-9.8c0-1.3-0.3-2.3-0.9-3c-0.6-0.7-1.4-1-2.6-1c-1,0-1.9,0.3-2.6,1c-0.8,0.7-1.3,1.5-1.8,2.5
			v10.3h-1.7v-15h1.7V261.6z"/>
		<path class="st7" d="M199.1,276.8c-1.2,0-2.4-0.3-3.4-0.9c-1-0.7-1.8-1.4-2.4-2.6c-0.6-1.1-0.9-2.3-0.9-3.7V269
			c0-1.4,0.2-2.8,0.9-3.9s1.3-2,2.3-2.6c1-0.7,2.1-1,3.2-1c1.8,0,3.2,0.7,4.3,1.9c1.1,1.2,1.5,2.9,1.5,5.2v0.9H194v0.3
			c0,1.7,0.4,3.1,1.4,4.2c1,1.1,2.2,1.7,3.6,1.7c0.9,0,1.7-0.1,2.3-0.4c0.7-0.3,1.3-0.9,1.9-1.5l1,0.8
			C203.3,275.9,201.6,276.8,199.1,276.8z M198.8,262.7c-1.2,0-2.3,0.4-3.1,1.3c-0.9,0.9-1.3,2.1-1.5,3.6h9v-0.2
			c0-1.4-0.4-2.5-1.2-3.5C201.1,263.3,200.1,262.7,198.8,262.7z"/>
		<path class="st7" d="M215,263c-0.3-0.1-0.8-0.1-1.1-0.1c-1,0-1.9,0.3-2.6,0.9c-0.7,0.6-1.2,1.4-1.5,2.5v10.3h-1.7v-15.1h1.7v2.3
			c0.9-1.8,2.2-2.6,4.2-2.6c0.4,0,0.8,0.1,1.1,0.2L215,263z"/>
		<path class="st7" d="M232.4,268.1h-6v8.4h-1.7v-20.2h6.6c2.1,0,3.7,0.6,5.1,1.5s1.8,2.4,1.8,4.3c0,1.3-0.3,2.4-1.1,3.4
			c-0.8,1-1.8,1.7-3,2l5.1,8.6v0.2h-1.8L232.4,268.1z M226.5,266.7h5.3c1.4,0,2.5-0.4,3.4-1.2c0.9-0.8,1.3-1.9,1.3-3.1
			c0-1.4-0.4-2.5-1.3-3.3c-0.9-0.8-2.2-1.2-3.7-1.2h-4.7v8.9h-0.2V266.7z"/>
		<path class="st7" d="M247.2,274.2l4.3-12.6h1.8l-6.4,17.5l-0.3,0.8c-0.8,1.8-2.1,2.6-3.7,2.6c-0.4,0-0.8-0.1-1.2-0.2V281l0.9,0.1
			c0.8,0,1.4-0.2,2-0.6c0.6-0.4,0.9-1.1,1.2-2.1l0.8-2l-5.7-14.9h1.8L247.2,274.2z"/>
		<path class="st7" d="M265.4,276.6c-0.1-0.4-0.2-1.1-0.3-2.1c-0.6,0.8-1.3,1.3-2.2,1.8c-0.9,0.4-1.9,0.7-2.9,0.7
			c-1.4,0-2.5-0.4-3.4-1.2c-0.9-0.8-1.3-1.8-1.3-3c0-1.4,0.6-2.5,1.8-3.4c1.2-0.9,2.9-1.2,5.2-1.2h3v-1.8c0-1.1-0.3-1.9-1-2.5
			c-0.7-0.7-1.7-0.9-2.9-0.9c-1.1,0-2.1,0.3-2.9,0.9c-0.8,0.6-1.1,1.3-1.1,2.1h-1.7c0-1.2,0.6-2.2,1.7-3.1c1.1-0.9,2.4-1.3,4.1-1.3
			s3,0.4,3.9,1.2c1,0.8,1.4,2,1.4,3.4v7.2c0,1.4,0.1,2.5,0.4,3.2v0.1H265.4z M260.1,275.4c1.1,0,2.1-0.2,3-0.8
			c0.9-0.6,1.5-1.2,1.9-2.1v-3.3h-3c-1.7,0-2.9,0.3-3.9,0.9c-0.9,0.6-1.4,1.3-1.4,2.4c0,0.9,0.3,1.5,0.9,2.1
			C258.4,275.1,259.1,275.4,260.1,275.4z"/>
		<path class="st7" d="M272.8,261.6v2.5c0.6-0.9,1.2-1.7,2.1-2.1c0.9-0.4,1.8-0.8,2.8-0.8c1.5,0,2.8,0.4,3.5,1.3
			c0.8,0.9,1.2,2.2,1.2,4.1v9.8h-1.7v-9.8c0-1.3-0.3-2.3-0.9-3c-0.6-0.7-1.4-1-2.6-1c-1,0-1.9,0.3-2.6,1s-1.3,1.5-1.8,2.5v10.3h-1.7
			v-15h1.7V261.6z"/>
		<path class="st7" d="M296.2,276.6c-0.1-0.4-0.2-1.1-0.3-2.1c-0.6,0.8-1.3,1.3-2.2,1.8c-0.9,0.4-1.9,0.7-2.9,0.7
			c-1.4,0-2.5-0.4-3.4-1.2c-0.9-0.8-1.3-1.8-1.3-3c0-1.4,0.6-2.5,1.8-3.4c1.2-0.9,2.9-1.2,5.2-1.2h3v-1.8c0-1.1-0.3-1.9-1-2.5
			c-0.7-0.7-1.7-0.9-2.9-0.9c-1.1,0-2.1,0.3-2.9,0.9c-0.8,0.6-1.1,1.3-1.1,2.1h-1.7c0-1.2,0.6-2.2,1.7-3.1c1.1-0.9,2.4-1.3,4.1-1.3
			c1.7,0,3,0.4,3.9,1.2c1,0.8,1.4,2,1.4,3.4v7.2c0,1.4,0.1,2.5,0.4,3.2v0.1H296.2z M291,275.4c1.1,0,2.1-0.2,3-0.8
			c0.9-0.6,1.5-1.2,1.9-2.1v-3.3h-3c-1.7,0-2.9,0.3-3.9,0.9c-0.9,0.6-1.4,1.3-1.4,2.4c0,0.9,0.3,1.5,0.9,2.1
			C289.1,275.1,289.9,275.4,291,275.4z"/>
		<path class="st7" d="M301.8,257.2c0-0.3,0.1-0.6,0.3-0.8c0.2-0.2,0.4-0.3,0.8-0.3c0.3,0,0.7,0.1,0.9,0.3c0.2,0.2,0.3,0.4,0.3,0.8
			c0,0.3-0.1,0.6-0.3,0.8c-0.2,0.2-0.4,0.3-0.9,0.3c-0.3,0-0.7-0.1-0.8-0.3C301.9,257.9,301.8,257.5,301.8,257.2z M303.8,276.6h-1.7
			v-15.1h1.7V276.6z"/>
		<path class="st7" d="M315.1,263c-0.3-0.1-0.7-0.1-1.1-0.1c-1,0-1.9,0.3-2.6,0.9c-0.7,0.6-1.2,1.4-1.5,2.5v10.3h-1.8v-15.1h1.7v2.3
			c0.9-1.8,2.3-2.6,4.2-2.6c0.4,0,0.8,0.1,1.1,0.2v1.7H315.1z"/>
		<path class="st7" d="M315.7,280.3l-1-0.7c0.9-1.1,1.2-2.3,1.3-3.4v-2.2h1.7v1.8C317.7,277.6,317,279.2,315.7,280.3z"/>
		<path class="st7" d="M337.4,272.7c0-0.8-0.3-1.4-1-2c-0.7-0.4-1.7-0.9-3-1.1c-1.3-0.2-2.3-0.6-3.1-1c-0.8-0.3-1.2-0.8-1.7-1.3
			c-0.3-0.6-0.6-1.1-0.6-1.9c0-1.2,0.4-2.1,1.4-2.9c1-0.8,2.2-1.1,3.7-1.1c1.7,0,3,0.4,4,1.2s1.5,1.9,1.5,3.2h-1.7
			c0-0.9-0.3-1.5-1.1-2.2c-0.8-0.6-1.7-0.9-2.8-0.9s-2,0.2-2.6,0.8c-0.7,0.4-1,1.1-1,1.9s0.2,1.3,0.8,1.8c0.6,0.4,1.5,0.8,3,1.1
			c1.4,0.3,2.5,0.7,3.2,1.1c0.8,0.3,1.2,0.9,1.5,1.4c0.3,0.6,0.6,1.2,0.6,2c0,1.2-0.6,2.2-1.5,3c-1,0.8-2.3,1.1-4,1.1
			c-1.8,0-3.1-0.4-4.2-1.2c-1.1-0.9-1.7-1.9-1.7-3.2h1.7c0.1,1,0.4,1.7,1.2,2.2c0.8,0.6,1.8,0.8,3,0.8c1.1,0,2.1-0.2,2.8-0.8
			C337,274.2,337.4,273.5,337.4,272.7z"/>
		<path class="st7" d="M352.3,276.6c-0.1-0.4-0.2-1.1-0.3-2.1c-0.6,0.8-1.3,1.3-2.2,1.8c-0.9,0.4-1.9,0.7-2.9,0.7
			c-1.4,0-2.5-0.4-3.4-1.2c-0.9-0.8-1.3-1.8-1.3-3c0-1.4,0.6-2.5,1.8-3.4c1.2-0.9,2.9-1.2,5.2-1.2h3v-1.8c0-1.1-0.3-1.9-1-2.5
			c-0.7-0.7-1.7-0.9-2.9-0.9c-1.1,0-2.1,0.3-2.9,0.9c-0.8,0.6-1.1,1.3-1.1,2.1h-1.7c0-1.2,0.6-2.2,1.7-3.1c1.1-0.9,2.4-1.3,4.1-1.3
			c1.7,0,3,0.4,3.9,1.2c1,0.8,1.4,2,1.4,3.4v7.2c0,1.4,0.1,2.5,0.4,3.2v0.1H352.3z M347,275.4c1.1,0,2.1-0.2,3-0.8
			c0.9-0.6,1.5-1.2,1.9-2.1v-3.3h-3c-1.7,0-2.9,0.3-3.9,0.9c-0.9,0.6-1.4,1.3-1.4,2.4c0,0.9,0.3,1.5,0.9,2.1
			C345.2,275.1,346,275.4,347,275.4z"/>
		<path class="st7" d="M357.8,257.2c0-0.3,0.1-0.6,0.3-0.8c0.2-0.2,0.4-0.3,0.8-0.3c0.3,0,0.7,0.1,0.9,0.3c0.2,0.2,0.3,0.4,0.3,0.8
			c0,0.3-0.1,0.6-0.3,0.8c-0.2,0.2-0.4,0.3-0.9,0.3c-0.3,0-0.7-0.1-0.8-0.3C357.9,257.9,357.8,257.5,357.8,257.2z M359.9,276.6h-1.7
			v-15.1h1.7V276.6z"/>
		<path class="st7" d="M363.7,269c0-2.3,0.6-4.1,1.5-5.6c1-1.3,2.4-2.1,4.2-2.1c2,0,3.5,0.8,4.5,2.3v-8.4h1.7v21.3H374l-0.1-2
			c-1.1,1.5-2.6,2.2-4.6,2.2c-1.7,0-3.1-0.7-4.1-2.1C364.2,273.3,363.7,271.4,363.7,269L363.7,269L363.7,269z M365.3,269.3
			c0,1.9,0.3,3.4,1.1,4.5c0.8,1.1,1.9,1.7,3.2,1.7c2,0,3.4-0.9,4.3-2.6v-7.1c-0.9-1.9-2.3-2.9-4.3-2.9c-1.3,0-2.4,0.6-3.2,1.7
			C365.6,265.7,365.3,267.1,365.3,269.3z"/>
		<path class="st7" d="M380,275.6c0-0.3,0.1-0.6,0.3-0.8c0.2-0.2,0.4-0.3,0.9-0.3c0.4,0,0.7,0.1,0.9,0.3c0.2,0.2,0.3,0.4,0.3,0.8
			c0,0.3-0.1,0.6-0.3,0.8c-0.2,0.2-0.6,0.3-0.9,0.3c-0.3,0-0.7-0.1-0.9-0.3C380.1,276.2,380,275.9,380,275.6z"/>
	</g>
</g>
<g>
	<g>
		<path class="st8" d="M74.1,95.8h-4L43,55.6v40.1h-4V48.9h4L70,89V48.9h3.9v46.9H74.1z"/>
		<path class="st8" d="M103.9,96.4c-3,0-5.7-0.8-8-2.2c-2.3-1.4-4.2-3.4-5.6-6.2c-1.3-2.5-2-5.6-2-8.8v-1.3c0-3.3,0.7-6.4,1.9-9
			c1.3-2.6,3.1-4.7,5.5-6.4c2.3-1.5,4.7-2.3,7.6-2.3c4.2,0,7.6,1.4,10,4.3c2.4,2.9,3.6,6.8,3.6,11.8v2.1H92v0.8
			c0,3.9,1.1,7.3,3.3,9.8c2.2,2.6,5.2,3.9,8.6,3.9c2,0,3.9-0.3,5.5-1.1s3-2,4.3-3.5l2.4,1.8C113.4,94.4,109.2,96.4,103.9,96.4z
			 M103.1,63.7c-2.9,0-5.4,1.1-7.4,3.2c-2,2.1-3.2,5.1-3.5,8.6H113V75c-0.1-3.3-1.1-6.1-2.9-8.2C108.4,64.7,106,63.7,103.1,63.7z"/>
		<path class="st8" d="M137.9,87.7l0.6,3l0.8-3.1l8.4-26.7h3.2l8.3,26.5L160,91l0.8-3.3l7.2-26.8h4l-10.1,34.8h-3.2l-8.9-27.7
			l-0.4-1.9l-0.4,1.9l-8.8,27.6h-3.2l-10.1-34.8h4L137.9,87.7z"/>
		<path class="st8" d="M205.4,86.9c0-1.9-0.8-3.4-2.3-4.5c-1.5-1.1-3.7-2.1-6.9-2.6c-3.1-0.7-5.5-1.4-7.3-2.2
			c-1.7-0.9-3-1.9-3.7-3.1c-0.8-1.2-1.2-2.6-1.2-4.4c0-2.8,1.1-5.1,3.4-6.8c2.3-1.8,5.3-2.6,8.8-2.6c3.9,0,7.1,1,9.4,2.9
			c2.3,1.9,3.5,4.4,3.5,7.5h-3.9c0-2-0.9-3.6-2.5-5.2c-1.7-1.5-3.9-2-6.5-2c-2.5,0-4.5,0.6-6.2,1.7c-1.7,1.1-2.3,2.5-2.3,4.3
			c0,1.8,0.7,3.1,1.9,4c1.2,1,3.5,1.8,7.1,2.6c3.3,0.8,6,1.7,7.6,2.5c1.7,0.9,2.9,2,3.7,3.2c0.8,1.2,1.2,2.8,1.2,4.5
			c0,2.9-1.2,5.3-3.5,7.1c-2.3,1.8-5.5,2.6-9.3,2.6c-4,0-7.4-1-9.8-2.9c-2.5-2-3.7-4.4-3.7-7.5h3.9c0.1,2.2,1.1,4,2.9,5.3
			s4,1.9,6.9,1.9c2.6,0,4.9-0.6,6.5-1.8C204.7,90.1,205.4,88.7,205.4,86.9z"/>
	</g>
</g>
<rect x="43.3" y="144.2" class="st4" width="287.9" height="3.2"/>
<rect x="42.3" y="190.7" class="st4" width="120" height="3.2"/>
<rect x="77.7" y="195.9" class="st5" width="84.7" height="3.2"/>
<rect x="224.9" y="288.1" class="st5" width="87.1" height="3.2"/>
<rect x="264.7" y="242.9" class="st2" width="53" height="3.2"/>
<rect x="184.1" y="195.9" class="st3" width="195.7" height="3.2"/>
<rect x="184.1" y="190.7" class="st6" width="195.7" height="3.2"/>
<rect x="41.6" y="237.2" class="st6" width="289.1" height="3.2"/>
<rect x="40.5" y="282.9" class="st6" width="271.4" height="3.2"/>
</svg>
