<?xml version="1.0" encoding="utf-8"?>
<!-- Generator: Adobe Illustrator 24.3.0, SVG Export Plug-In . SVG Version: 6.00 Build 0)  -->
<svg version="1.1" id="Layer_1" xmlns="http://www.w3.org/2000/svg" xmlns:xlink="http://www.w3.org/1999/xlink" x="0px" y="0px"
	 viewBox="0 0 334.2 132.4" style="enable-background:new 0 0 334.2 132.4;" xml:space="preserve">
<style type="text/css">
	.st0{fill:#FFFFFF;stroke:#C2C2C2;stroke-width:0.5;stroke-miterlimit:10;}
	.st1{fill:#FFFFFF;}
	.st2{fill:#153156;}
	.st3{fill:#E0E0E0;}
	.st4{fill:#6D6D6C;}
	.st5{fill:#08AD9D;}
	.st6{fill:#EF4F24;stroke:#FFFFFF;stroke-width:0.25;stroke-miterlimit:10;}
	.st7{fill:#858585;}
	.st8{fill:#EF4F24;}
	.st9{fill:#E94F0E;}
	.st10{fill:#323657;}
	.st11{fill:none;stroke:#858585;stroke-width:0.2;stroke-miterlimit:10;}
	.st12{fill:#FFFFFF;stroke:#858585;stroke-width:0.25;stroke-miterlimit:10;}
	.st13{fill:#E94F0E;stroke:#FFFFFF;stroke-width:0.5;stroke-miterlimit:10;}
	.st14{fill:#153156;stroke:#FFFFFF;stroke-width:0.5;stroke-miterlimit:10;}
	.st15{fill:#08AD9D;stroke:#FFFFFF;stroke-width:0.5;stroke-miterlimit:10;}
	.st16{fill:none;stroke:#FFFFFF;stroke-width:0.5;stroke-miterlimit:10;}
	.st17{fill:#FFFFFF;stroke:#858585;stroke-width:0.5;stroke-miterlimit:10;}
	.st18{fill:none;stroke:#EF4F24;stroke-width:0.5;stroke-miterlimit:10;}
	.st19{fill:none;stroke:#9F9E9E;stroke-width:0.25;stroke-miterlimit:10;}
	.st20{fill:none;stroke:#858585;stroke-width:0.25;stroke-miterlimit:10;}
	.st21{fill:none;stroke:#FFFFFF;stroke-width:0.25;stroke-miterlimit:10;}
	.st22{fill:none;}
	.st23{fill:none;stroke:#08AD9D;stroke-width:0.5;stroke-miterlimit:10;}
	.st24{fill:none;stroke:#153156;stroke-width:0.5;stroke-miterlimit:10;}
	.st25{fill:none;stroke:#E94F0E;stroke-miterlimit:10;}
	.st26{fill:none;stroke:#08AD9D;stroke-miterlimit:10;}
	.st27{fill:none;stroke:#153156;stroke-miterlimit:10;}
	.st28{fill:none;stroke:#858585;stroke-miterlimit:10;}
</style>
<polyline class="st0" points="110.4,121.6 110.4,128.7 10.8,128.7 10.8,4.9 110.4,4.9 110.4,26.3 "/>
<g>
	<polygon class="st1" points="105,123.7 15.4,123.8 15.4,12 105,11.8 	"/>
	<g>
		<polygon class="st2" points="20.3,17.6 38,17.5 38,20.1 20.3,20.2 		"/>
	</g>
	<g>
		<polygon class="st3" points="42.8,36.9 55.6,36.8 55.5,39.4 42.8,39.4 		"/>
	</g>
	<g>
		<polygon class="st2" points="57.5,36.8 66,36.8 66,39.4 57.5,39.4 		"/>
	</g>
	<g>
		<polygon class="st2" points="74.3,114.5 82.8,114.5 82.8,117 74.3,117 		"/>
	</g>
	<g>
		<polygon class="st2" points="20,85.6 28.5,85.6 28.5,88.1 20,88.2 		"/>
	</g>
	<g>
		<polygon class="st3" points="67.7,36.8 88.1,36.8 88.1,39.3 67.7,39.4 		"/>
	</g>
	<g>
		<polygon class="st4" points="20.1,75.8 33.2,75.8 33.2,78.4 20.1,78.4 		"/>
	</g>
	<g>
		<polygon class="st4" points="54.4,75.8 67.5,75.8 67.5,78.4 54.3,78.4 		"/>
	</g>
	<g>
		<polygon class="st3" points="55.3,95.2 68.4,95.1 68.4,97.7 55.2,97.7 		"/>
	</g>
	<g>
		<polygon class="st3" points="38.3,95.2 46.3,95.2 46.3,97.8 38.3,97.8 		"/>
	</g>
	<g>
		<polygon class="st5" points="20,95.2 35.9,95.2 35.8,97.8 19.9,97.8 		"/>
	</g>
	<g>
		<polygon class="st3" points="19.9,104.9 28.7,104.9 28.6,107.5 19.9,107.5 		"/>
	</g>
	<g>
		<polygon class="st5" points="41.4,17.5 53.9,17.5 53.9,20.1 41.4,20.1 		"/>
	</g>
	<g>
		<polygon class="st2" points="41.2,46.5 53.8,46.5 53.7,49.1 41.2,49.1 		"/>
	</g>
	<g>
		<polygon class="st3" points="34.9,56.2 40.2,56.2 40.2,58.8 34.9,58.8 		"/>
	</g>
	<g>
		<polygon class="st5" points="29.5,66.1 41.5,66 41.5,68.6 29.4,68.6 		"/>
	</g>
	<g>
		<polygon class="st2" points="43.3,66 59.9,66 59.9,68.6 43.3,68.6 		"/>
	</g>
	<g>
		<polygon class="st2" points="20.2,56.3 32.8,56.3 32.8,58.9 20.2,58.9 		"/>
	</g>
	<g>
		<polygon class="st2" points="20.2,66.1 27.6,66.1 27.6,68.6 20.1,68.6 		"/>
	</g>
	<g>
		<polygon class="st6" points="42.7,56.3 49.8,56.3 49.8,58.8 42.7,58.9 		"/>
	</g>
	<g>
		<polygon class="st6" points="20,114.6 27.1,114.6 27,117.1 20,117.2 		"/>
	</g>
	<g>
		<polygon class="st5" points="20.3,36.9 32.9,36.9 32.8,39.5 20.3,39.5 		"/>
	</g>
	<g>
		<polygon class="st5" points="31.1,85.6 43.6,85.5 43.6,88.1 31.1,88.1 		"/>
	</g>
	<g>
		<polygon class="st5" points="31.1,104.9 43.6,104.9 43.6,107.4 31.1,107.5 		"/>
	</g>
	<g>
		<polygon class="st5" points="53.4,104.8 65.9,104.8 65.9,107.4 53.4,107.4 		"/>
	</g>
	<g>
		<polygon class="st5" points="20.2,46.6 38.1,46.5 38.1,49.1 20.2,49.2 		"/>
	</g>
	<g>
		<polygon class="st5" points="52.4,56.1 70.3,56 70.3,58.6 52.4,58.7 		"/>
	</g>
	<g>
		<polygon class="st5" points="58.9,114.5 71.4,114.5 71.4,117 58.9,117.1 		"/>
	</g>
	<g>
		<polygon class="st2" points="57.3,17.5 73.3,17.5 73.3,20 57.3,20.1 		"/>
	</g>
	<g>
		<polygon class="st2" points="29.7,114.6 45.7,114.5 45.7,117.1 29.7,117.1 		"/>
	</g>
	<g>
		<polygon class="st4" points="85.5,114.5 96.7,114.4 96.7,117 85.4,117 		"/>
	</g>
	<g>
		<polygon class="st2" points="79,46.5 81.3,46.4 81.3,49 79,49 		"/>
	</g>
	<g>
		<polygon class="st6" points="48.8,95.2 52.3,95.2 52.2,97.7 48.8,97.8 		"/>
	</g>
	<g>
		<polygon class="st6" points="85.2,17.4 101.1,17.4 101.1,20 85.1,20 		"/>
	</g>
	<g>
		<polygon class="st6" points="66.7,46.5 76.1,46.5 76.1,49 66.7,49.1 		"/>
	</g>
	<g>
		<polygon class="st6" points="59.1,85.6 68.5,85.6 68.4,88.2 59.1,88.2 		"/>
	</g>
	<g>
		<polygon class="st3" points="76.3,17.5 82.1,17.4 82.1,20 76.3,20 		"/>
	</g>
	<g>
		<polygon class="st7" points="72.3,56.2 75.9,56.2 75.9,58.8 72.3,58.8 		"/>
	</g>
	<g>
		<polygon class="st3" points="57.1,46.5 63,46.5 63,49.1 57.1,49.1 		"/>
	</g>
	<g>
		<polygon class="st2" points="20.2,27.3 29.4,27.2 29.4,29.8 20.2,29.8 		"/>
	</g>
	<g>
		<polygon class="st2" points="44.3,75.9 51.5,75.8 51.5,78.4 44.3,78.4 		"/>
	</g>
	<g>
		<polygon class="st2" points="31.6,27.2 34.6,27.2 34.6,29.8 31.6,29.8 		"/>
	</g>
	<g>
		<polygon class="st8" points="68.3,104.8 85,104.8 85,107.3 68.3,107.4 		"/>
	</g>
	<g>
		<polygon class="st6" points="36.8,27.2 39.8,27.2 39.8,29.8 36.7,29.8 		"/>
	</g>
	<g>
		<polygon class="st2" points="82.1,27.1 90.1,27.1 90,29.7 82.1,29.7 		"/>
	</g>
	<g>
		<polygon class="st6" points="71.7,95.1 78.6,95.1 78.6,97.7 71.7,97.7 		"/>
	</g>
	<g>
		<polygon class="st6" points="48.3,114.5 56.4,114.5 56.3,117.1 48.3,117.1 		"/>
	</g>
	<g>
		<polygon class="st2" points="62.9,27.2 79.9,27.1 79.9,29.7 62.9,29.7 		"/>
	</g>
	<g>
		<polygon class="st2" points="46.7,85.7 56.6,85.6 56.6,88.2 46.7,88.2 		"/>
	</g>
	<g>
		<polygon class="st2" points="45.9,104.9 50.9,104.8 50.9,107.4 45.9,107.4 		"/>
	</g>
	<g>
		<polygon class="st5" points="54.7,27.2 60.5,27.2 60.5,29.7 54.7,29.8 		"/>
	</g>
	<g>
		<polygon class="st5" points="94.7,27.2 100.6,27.2 100.6,29.7 94.7,29.8 		"/>
	</g>
	<g>
		<polygon class="st9" points="70.7,85.4 76.6,85.4 76.6,88 70.7,88 		"/>
	</g>
	<g>
		<polygon class="st5" points="70.1,65.8 76,65.8 76,68.3 70.1,68.4 		"/>
	</g>
	<g>
		<polygon class="st6" points="34.9,36.9 40.8,36.9 40.7,39.4 34.9,39.5 		"/>
	</g>
	<g>
		<polygon class="st6" points="35.8,75.9 41.7,75.9 41.6,78.4 35.8,78.4 		"/>
	</g>
	<g>
		<polygon class="st6" points="62,65.8 67.9,65.8 67.8,68.4 62,68.4 		"/>
	</g>
	<g>
		<polygon class="st6" points="70,75.8 75.9,75.8 75.9,78.4 70,78.4 		"/>
	</g>
	<g>
		<polygon class="st2" points="42.3,27.2 52.5,27.2 52.4,29.8 42.2,29.8 		"/>
	</g>
	<g>
		<g>
			<g>
				<path class="st10" d="M40.3,95.4L40.3,95.4C40.3,95.4,40.3,95.4,40.3,95.4z"/>
			</g>
		</g>
	</g>
</g>
<line class="st11" x1="199.8" y1="54.3" x2="226.9" y2="54.3"/>
<g>
	<path class="st9" d="M168,88.5l0.1-4c0-1.3-1.1-2.3-2.3-2.3h-7.5c-1.3,0-2.3,1.1-2.3,2.3v5.5c0,1.3,1,2.3,2.3,2.3h6.3
		c0.1,0,0.2,0,0.3,0c0.1,0,0.2,0,0.2,0l0,0l0,0c0,0,0.1,0.1,0.2,0.2c0,0,0,0,0,0l1.8,1.7c0.1,0.1,0.3,0.2,0.5,0.1
		c0.1,0,0.3-0.2,0.3-0.4V88.5"/>
</g>
<g>
	<g>
		<g>
			<path class="st12" d="M252.7,31.1v6.6c0,0.2,0.1,0.4,0.4,0.5c0.2,0.1,0.4,0,0.6-0.1l2.2-2c0,0,0.1-0.1,0.1-0.1
				c0.2-0.1,0.3-0.2,0.3-0.3l0,0l0,0c0,0,0.1,0,0.3,0c0.1,0,0.2,0,0.4,0h7.5c1.5,0,2.7-1.2,2.7-2.8v-6.5c0-1.5-1.2-2.7-2.7-2.7h-8.8
				c-1.5,0-2.8,1.2-2.8,2.7V31.1"/>
		</g>
	</g>
</g>
<path class="st11" d="M195.9,77.1c-0.3,0.3-0.7,0.4-1.1,0.4c-0.2,0-0.4,0-0.6-0.1c-0.6-0.3-0.9-0.8-0.9-1.4"/>
<path class="st11" d="M193.1,53v23c0,0.7,0.4,1.4,1.1,1.6c0.2,0.1,0.4,0.1,0.7,0.1c0.4,0,0.8-0.2,1.2-0.5l7.2-6.6h23.3
	c4.5,0,8.1-3.6,8.1-8.1V43.9c0-4.5-3.7-8.1-8.1-8.1h-15.4"/>
<path class="st11" d="M234.5,43.9"/>
<g>
	<path class="st13" d="M209.1,38.1l0-13.4c0-4.3-3.6-7.8-8-7.8h-25.4c-4.3,0-7.8,3.5-7.8,7.8v18.7c0,4.4,3.5,7.9,7.8,7.9h21.5
		c0.4,0,0.8,0,1.1,0c0.4,0,0.7,0,0.8,0h0l0,0c0.1,0.1,0.4,0.4,0.8,0.7c0,0.1,0.1,0.1,0.2,0.2l6.3,5.7c0.4,0.4,1.1,0.5,1.7,0.3
		c0.6-0.3,1-0.8,1-1.4V38.1"/>
</g>
<g>
	<path class="st11" d="M240.6,26.3l0-6.8c0-2.2-1.8-4-4.1-4h-12.9c-2.2,0-4,1.8-4,4V29c0,2.2,1.8,4,4,4h10.9c0.2,0,0.4,0,0.5,0
		c0.2,0,0.4,0,0.4,0l0,0l0,0c0,0,0.2,0.2,0.4,0.4c0,0,0.1,0,0.1,0.1l3.2,2.9c0.2,0.2,0.6,0.3,0.8,0.1c0.3-0.1,0.5-0.4,0.5-0.7V26.3"
		/>
</g>
<g>
	<path class="st12" d="M248.7,66.5l0-6.8c0-2.2-1.8-4-4.1-4h-12.9c-2.2,0-4,1.8-4,4v9.5c0,2.2,1.8,4,4,4h10.9c0.2,0,0.4,0,0.5,0
		c0.2,0,0.4,0,0.4,0l0,0l0,0c0,0,0.2,0.2,0.4,0.4c0,0,0.1,0,0.1,0.1l3.2,2.9c0.2,0.2,0.6,0.3,0.8,0.1c0.3-0.1,0.5-0.4,0.5-0.7V66.5"
		/>
</g>
<g>
	<path class="st12" d="M191.1,77.8l0-6.8c0-2.2-1.8-4-4.1-4h-12.9c-2.2,0-4,1.8-4,4v9.5c0,2.2,1.8,4,4,4h10.9c0.2,0,0.4,0,0.5,0
		c0.2,0,0.4,0,0.4,0l0,0l0,0c0.1,0,0.2,0.2,0.4,0.4c0,0,0.1,0,0.1,0.1l3.2,2.9c0.2,0.2,0.6,0.3,0.8,0.1c0.3-0.1,0.5-0.4,0.5-0.7
		V77.8"/>
</g>
<g>
	<path class="st14" d="M171,46.7v-4.1c0-1.3-1.1-2.4-2.5-2.4h-7.8c-1.3,0-2.4,1.1-2.4,2.4v5.8c0,1.3,1.1,2.4,2.4,2.4h6.6
		c0.1,0,0.2,0,0.3,0c0.1,0,0.2,0,0.3,0l0,0l0,0c0,0,0.1,0.1,0.3,0.2c0,0,0.1,0,0.1,0l1.9,1.8c0.1,0.1,0.4,0.2,0.5,0.1
		c0.2-0.1,0.3-0.3,0.3-0.4L171,46.7"/>
</g>
<g>
	<path class="st5" d="M208.2,85.1l0-6.6c0-2.2-1.8-3.9-4-3.9h-12.6c-2.2,0-3.9,1.8-3.9,3.9v9.3c0,2.2,1.8,3.9,3.9,3.9h10.7
		c0.2,0,0.4,0,0.5,0c0.2,0,0.4,0,0.4,0l0,0l0,0c0,0,0.2,0.2,0.4,0.4c0,0,0.1,0,0.1,0.1l3.1,2.9c0.2,0.2,0.6,0.3,0.8,0.1
		c0.3-0.1,0.5-0.4,0.5-0.7V85.1"/>
</g>
<g>
	<g>
		<path class="st15" d="M250.7,59l0,18.6c0,0.6,0.4,1.1,1,1.4c0.6,0.3,1.2,0.1,1.7-0.3l6.3-5.7c0.1-0.1,0.1-0.2,0.2-0.2
			c0.4-0.4,0.7-0.6,0.8-0.7l0,0h0c0.1,0,0.4,0,0.8,0c0.3,0,0.7,0,1.1,0H284c4.3,0,7.8-3.5,7.8-7.9V45.7c0-4.3-3.5-7.8-7.8-7.8h-25.4
			c-4.4,0-8,3.5-8,7.8V59"/>
	</g>
</g>
<g>
	<g>
		<g>
			<path class="st12" d="M262.9,80l0,11.2c0,0.4,0.2,0.7,0.6,0.8c0.4,0.1,0.7,0.1,1-0.2l3.7-3.4c0,0,0.1-0.1,0.1-0.1
				c0.2-0.2,0.4-0.4,0.5-0.4l0,0l0,0c0.1,0,0.2,0,0.5,0c0.2,0,0.4,0,0.6,0h12.8c2.6,0,4.7-2.1,4.7-4.7V72.1c0-2.6-2.1-4.7-4.7-4.7
				h-15.1c-2.6,0-4.8,2.1-4.8,4.7V80"/>
		</g>
	</g>
</g>
<line class="st16" x1="257.9" y1="45.5" x2="285" y2="45.5"/>
<line class="st11" x1="199.8" y1="64.3" x2="226.9" y2="64.3"/>
<line class="st11" x1="199.8" y1="59.3" x2="226.9" y2="59.3"/>
<line class="st11" x1="209.1" y1="49.3" x2="226.9" y2="49.3"/>
<line class="st16" x1="257.9" y1="51.3" x2="285" y2="51.3"/>
<line class="st16" x1="257.9" y1="57.1" x2="285" y2="57.1"/>
<line class="st16" x1="257.9" y1="62.8" x2="285" y2="62.8"/>
<line class="st16" x1="175" y1="26" x2="202.1" y2="26"/>
<line class="st16" x1="175" y1="31.7" x2="202.1" y2="31.7"/>
<line class="st16" x1="175" y1="37.5" x2="202.1" y2="37.5"/>
<line class="st16" x1="175" y1="43.3" x2="202.1" y2="43.3"/>
<line class="st17" x1="171.1" y1="68.4" x2="132.7" y2="53"/>
<line class="st18" x1="142.2" y1="97.8" x2="157.2" y2="89.9"/>
<g>
	<path class="st19" d="M88.7,45.2c0.4,0.3,0.9,0.2,1.2-0.1c2.5-3.1,5.4-5.8,8.7-7.9c0.4-0.2,0.5-0.8,0.3-1.1
		c-0.2-0.4-0.8-0.5-1.1-0.3c-3.4,2.2-6.5,5-9.1,8.2C88.3,44.4,88.3,45,88.7,45.2z"/>
	<path class="st19" d="M85.7,48c1.5,0.3,3,0.8,4.4,1.4c0.4,0.1,0.8,0,1-0.3c3.7-5.3,8.5-9.2,14.4-11.7c3.7-1.5,7.7-2.3,11.7-2.4
		c0.5,0,0.8-0.4,0.8-0.8c0-0.5-0.4-0.8-0.8-0.8c0,0,0,0,0,0c-4.2,0.1-8.4,0.9-12.3,2.5c-6,2.5-10.9,6.4-14.7,11.7
		c-1.3-0.5-2.7-0.9-4.1-1.2c-0.5-0.1-0.9,0.2-1,0.6C84.9,47.4,85.2,47.9,85.7,48z"/>
	<path class="st19" d="M83.9,51c2.6,0.5,5,1.3,7.4,2.5c0.4,0.2,0.9,0.1,1.1-0.3c3.5-6,8.3-10.2,14.4-12.8c7-2.9,15-2.9,22.2,0.1
		c0.5,0.2,0.9,0.4,1.3,0.6c0.4,0.2,0.9,0,1.1-0.4c0.2-0.4,0-0.9-0.4-1.1c-0.4-0.2-0.9-0.4-1.4-0.6c-7.4-3.1-15.8-3.3-23.4-0.1
		c-6.2,2.6-11.2,6.9-14.8,12.8c-2.3-1.1-4.7-1.9-7.1-2.3c-0.4-0.1-0.9,0.2-1,0.7C83.2,50.5,83.5,50.9,83.9,51z"/>
	<path class="st19" d="M121.5,113.6c-1.8-0.6-3.6-1.3-5.3-2.2c-0.1-0.1-0.3-0.1-0.4-0.1c-0.1,0-0.2,0-0.3,0.1
		c-4,1.6-8.2,2.5-12.5,2.8c-0.5,0-0.8,0.4-0.8,0.9c0,0.5,0.4,0.8,0.9,0.8c4.3-0.3,8.6-1.2,12.6-2.8c1.7,0.8,3.4,1.6,5.2,2.2
		c0.4,0.1,0.9-0.1,1-0.5C122.2,114.2,122,113.7,121.5,113.6z"/>
	<path class="st19" d="M82.5,54.1c3.6,0.5,7,1.9,9.9,4c0.2,0.1,0.5,0.2,0.7,0.1c0.2-0.1,0.4-0.2,0.5-0.5l0-0.1
		c3.1-6.8,7.9-11.6,14.3-14.2c6.1-2.5,13.1-2.6,19.6,0.1c4.2,1.8,8.1,4.8,11,8.6c0.3,0.4,0.8,0.4,1.2,0.2c0.4-0.3,0.4-0.8,0.2-1.2
		c-3-4-7.2-7.3-11.7-9.2c-6.8-2.8-14.2-2.9-20.9-0.1c-6.5,2.7-11.4,7.5-14.8,14.3c-2.9-2-6.3-3.3-9.8-3.8c-0.5-0.1-0.9,0.2-0.9,0.7
		C81.8,53.6,82.1,54.1,82.5,54.1z"/>
	<path class="st19" d="M126.3,111.4c-3.4-0.7-6.7-1.9-9.8-3.7c-0.1-0.1-0.3-0.1-0.4-0.1c-0.1,0-0.2,0-0.3,0.1l-0.2,0.1
		c-4.8,2.1-9.9,3.2-15.2,3.2c-1.7,0-3.5-0.1-5.3-0.4c-0.5-0.1-0.9,0.3-0.9,0.7c-0.1,0.5,0.3,0.9,0.7,0.9c1.8,0.2,3.7,0.4,5.5,0.4
		c5.4,0,10.7-1.1,15.6-3.2c3.2,1.8,6.5,3,9.9,3.7c0.4,0.1,0.9-0.2,1-0.7C127,111.9,126.7,111.5,126.3,111.4z"/>
	<path class="st19" d="M81.5,57.3c4.7,0.5,9,2.8,12.1,6.4c0.2,0.2,0.5,0.3,0.8,0.3c0.3-0.1,0.5-0.3,0.6-0.5c0.5-1.4,1.1-2.9,1.7-4.3
		c2.8-6.1,7-10.3,12.5-12.6c5.3-2.2,11.4-2.2,17,0.1c5.6,2.4,10.3,7.1,12.6,12.8c0.8,2.1,1.4,4.2,1.6,6.4c0.1,0.5,0.5,0.8,0.9,0.7
		c0.5-0.1,0.8-0.5,0.7-0.9c-0.3-2.3-0.9-4.6-1.7-6.8c-2.4-6-7.5-11.2-13.5-13.7c-5.9-2.5-12.5-2.5-18.3-0.1
		c-5.9,2.4-10.4,7-13.4,13.4c-0.5,1-0.9,2.1-1.3,3.1c-3.3-3.3-7.6-5.4-12.2-5.9c-0.5-0.1-0.9,0.3-0.9,0.7
		C80.8,56.9,81.1,57.3,81.5,57.3z"/>
	<path class="st19" d="M130.3,108.6c-4.7-0.3-9.4-1.9-13.6-4.7c-0.1-0.1-0.3-0.1-0.5-0.1c-0.1,0-0.3,0-0.4,0.1
		c-0.5,0.3-1.1,0.5-1.6,0.8c-4.4,1.9-9.1,2.9-13.9,2.9c-3.7,0-7.3-0.6-10.9-1.7c-0.4-0.1-0.9,0.1-1,0.5s0.1,0.9,0.5,1
		c3.7,1.2,7.6,1.8,11.4,1.8c5,0,9.9-1,14.5-3c0.4-0.2,0.9-0.4,1.3-0.6c4.3,2.7,9.2,4.3,14,4.7c0.5,0,0.9-0.3,0.9-0.8
		C131.1,109,130.8,108.6,130.3,108.6z"/>
	<path class="st19" d="M80.9,60.6c2.7,0.3,5.4,1.3,7.6,2.9c2.7,1.9,4.7,4.6,5.7,7.8c0.1,0.4,0.4,0.9,0.6,1.3
		c0.2,0.3,0.5,0.4,0.9,0.4c0.3-0.1,0.6-0.4,0.7-0.7c0.6-4.1,1.7-8,3.4-11.7c2.4-5.3,6-8.9,10.8-10.9c4.7-1.9,9.9-1.8,14.5,0.1
		c4.8,2,8.9,6.1,10.8,11c1.2,2.9,1.7,5.9,1.5,9.1c0,0.3,0.1,0.5,0.3,0.7c0.2,0.2,0.5,0.2,0.8,0.1c1.1-0.4,2.3-0.6,3.5-0.7
		c0.5,0,0.8-0.4,0.8-0.9c0-0.5-0.4-0.8-0.9-0.8c-0.9,0.1-1.9,0.2-2.8,0.5c0-3-0.6-5.9-1.7-8.6c-2.1-5.2-6.5-9.7-11.7-11.9
		c-5.1-2.1-10.7-2.2-15.8-0.1c-5.1,2.1-9,6.1-11.6,11.7c-1.4,3-2.4,6.1-3,9.4C94,66.4,92,64,89.5,62.1c-2.5-1.8-5.4-2.9-8.4-3.2
		c-0.5,0-0.9,0.3-0.9,0.7C80.1,60.2,80.4,60.6,80.9,60.6z"/>
	<path class="st19" d="M133.8,105.3c-0.4,0-0.9,0.1-1.3,0.1c-0.2,0-0.3,0-0.5,0c-5.2,0-10.5-1.9-15-5.3c-0.1-0.1-0.3-0.2-0.5-0.2
		c-0.2,0-0.3,0-0.5,0.1c-1,0.6-2,1.2-3.1,1.6c-4,1.7-8.2,2.6-12.5,2.6c-4.6,0-9.1-1-13.5-2.9c-0.5-0.2-0.9-0.4-1.3-0.6
		c-0.4-0.2-0.9,0-1.1,0.4c-0.2,0.4,0,0.9,0.4,1.1c0.4,0.2,0.9,0.4,1.4,0.7c4.6,2,9.3,3.1,14.2,3.1c4.6,0,9-0.9,13.2-2.7
		c1-0.4,1.9-0.9,2.8-1.5c4.7,3.4,10.2,5.3,15.6,5.3c0.2,0,0.3,0,0.5,0c0.5,0,1,0,1.4-0.1c0.5,0,0.8-0.4,0.8-0.9
		C134.7,105.6,134.3,105.2,133.8,105.3z"/>
	<path class="st19" d="M80.6,63.9c4.8,0.5,8.9,3.8,10.5,8.4c0.9,2.7,3.1,5,5.9,6.3c0.4,0.2,0.9,0.4,1.3,0.5c0.3,0.1,0.5,0,0.7-0.1
		c0.2-0.2,0.3-0.4,0.3-0.7c-0.1-5.7,1.1-11.3,3.5-16.3c2.1-4.5,5.1-7.6,9-9.2c3.8-1.6,8-1.5,11.9,0.1c4,1.7,7.4,5.1,9,9.1
		c1.8,4.4,1.8,9.2-0.1,14.4c-0.1,0.4,0,0.8,0.4,1c0.3,0.2,0.8,0.1,1-0.1c2.1-2.2,4.9-3.6,7.9-3.9c0.5,0,0.8-0.5,0.7-0.9
		c0-0.5-0.5-0.8-0.9-0.7c-2.4,0.3-4.7,1.1-6.7,2.5c1.1-4.5,0.8-8.8-0.8-12.8c-1.8-4.4-5.5-8.2-9.9-10c-4.3-1.8-9.1-1.8-13.2-0.1
		c-4.3,1.8-7.7,5.2-9.9,10c-2.3,4.9-3.5,10.4-3.6,15.9c0,0,0,0,0,0c-2.4-1-4.2-3-5-5.3c-1.8-5.2-6.4-9-11.9-9.5
		c-0.5,0-0.9,0.3-0.9,0.7C79.8,63.5,80.1,63.9,80.6,63.9z"/>
	<path class="st19" d="M136.7,101.4c-1.4,0.3-2.8,0.5-4.3,0.6c-0.1,0-0.3,0-0.4,0c-5.2,0-10.6-2.2-14.9-6.1c-0.3-0.3-0.8-0.3-1.1,0
		c-1.3,1.1-2.8,2-4.4,2.8c-3.6,1.5-7.3,2.3-11.2,2.3c-4.1,0-8.2-0.9-12.1-2.6c-1.8-0.8-3.5-1.8-5.2-2.9c-0.1-0.1-0.3-0.1-0.5-0.1
		c-0.3,0-0.5,0.1-0.7,0.4c-0.3,0.4-0.2,0.9,0.2,1.2c1.7,1.2,3.6,2.2,5.5,3.1c4.1,1.8,8.5,2.8,12.8,2.8c4.1,0,8.1-0.8,11.9-2.5
		c1.5-0.7,3-1.5,4.3-2.6c4.4,3.9,10,6.1,15.4,6.1c0.1,0,0.3,0,0.4,0c1.6,0,3.1-0.2,4.6-0.6c0.4-0.1,0.7-0.6,0.6-1
		C137.5,101.6,137.1,101.3,136.7,101.4z"/>
	<path class="st19" d="M80.6,67.2c3.5,0.5,6.3,2.8,7.4,6.1c1.2,3.6,4.1,6.6,7.7,8.2c1.6,0.7,3.2,1.1,4.7,1.1c0.6,0,1.2-0.1,1.8-0.2
		c0.4-0.1,0.7-0.5,0.7-0.9c-0.7-6.2,0.4-12.7,2.9-18.3c1.7-3.7,4.2-6.2,7.3-7.5c3.1-1.3,6.4-1.2,9.4,0.1c3.2,1.4,5.9,4.1,7.2,7.3
		c1.6,4,1.4,8.9-0.7,13.5c-0.5,1.2-1.2,2.7-0.6,4.3c0.5,1.3,1.9,2.7,3.5,2.7c1.6,0,2.7-1.5,3.5-2.8c1.4-2.3,3.9-3.9,6.6-4.3
		c0.5-0.1,0.8-0.5,0.7-0.9c-0.1-0.5-0.5-0.8-0.9-0.7c-3.2,0.4-6.1,2.4-7.8,5.1c-0.3,0.5-1.2,2-2.1,2c-0.8,0-1.6-0.8-1.9-1.6
		c-0.4-0.9,0-1.8,0.5-3.1c2.2-5,2.5-10.4,0.7-14.8c-1.5-3.6-4.5-6.7-8.1-8.2c-3.4-1.4-7.2-1.5-10.7-0.1c-3.5,1.5-6.3,4.3-8.1,8.4
		c-2.6,5.7-3.7,12.1-3.2,18.4c-1.6,0.1-3.2-0.2-4.8-0.9c-3.2-1.4-5.7-4.1-6.8-7.3c-1.3-3.9-4.7-6.7-8.8-7.2
		c-0.4-0.1-0.9,0.3-0.9,0.7C79.8,66.8,80.1,67.2,80.6,67.2z"/>
	<path class="st19" d="M138.9,97.1c-2.1,1-4.3,1.5-6.6,1.5c-0.1,0-0.2,0-0.3,0c-5.3,0-10.7-2.7-14.5-7.3c-0.1-0.1-0.2-0.2-0.2-0.3
		c-0.2-0.2-0.4-0.3-0.7-0.3c-0.3,0-0.5,0.1-0.7,0.3c-1.4,1.9-3.3,3.4-5.6,4.4c-3.1,1.4-6.5,2.1-9.9,2.1c-3.7,0-7.3-0.8-10.8-2.3
		c-2.9-1.3-5.5-3-7.9-5.2c-0.2-0.1-0.4-0.2-0.6-0.2c-0.2,0-0.4,0.1-0.6,0.3c-0.3,0.3-0.3,0.9,0.1,1.2c2.5,2.3,5.3,4.1,8.4,5.5
		c3.7,1.6,7.6,2.5,11.5,2.5c3.6,0,7.2-0.7,10.5-2.2c2.2-1,4.2-2.4,5.7-4.1c4.1,4.6,9.8,7.4,15.4,7.4c0.1,0,0.2,0,0.4,0
		c2.5-0.1,4.9-0.6,7.2-1.7c0.4-0.2,0.6-0.7,0.4-1.1C139.8,97.1,139.3,97,138.9,97.1z"/>
	<path class="st19" d="M141.7,78.3c-2,0.4-3.8,1.7-4.9,3.4c-0.6,0.9-2.7,3.6-4.8,3.7H132c-1.3,0-3.1-1-4.3-2.5
		c-1.1-1.3-1.6-2.7-1.4-3.6c0.1-0.6,0.5-1.5,0.8-2.3c0.3-0.7,0.6-1.4,0.9-2.2c1.4-4,1.5-7.7,0.2-11c-1.1-2.8-3.5-5.2-6.3-6.4
		c-2.6-1.1-5.6-1.1-8.1-0.1c-4.1,1.7-5.8,5.5-6.4,6.7c-2.6,5.7-3.6,12.2-2.7,18.4c0,0.2,0.1,0.5,0.1,0.7c0.1,0.8,0-0.2,0,0.3
		c-1.4,0.6-2.9,0.9-4.4,0.9c-1.8,0-3.6-0.4-5.4-1.2c-4-1.8-7.2-5.2-8.6-9.2c-0.8-2.5-3-4.4-5.5-4.9c-0.4-0.1-0.9,0.2-1,0.6
		c-0.1,0.4,0.2,0.9,0.6,1c2,0.4,3.7,1.9,4.3,3.8c1.5,4.4,5,8.2,9.5,10.2c2,0.9,4.1,1.3,6.1,1.3c1.8,0,3.6-0.4,5.2-1.1
		c0.5-0.2,1-0.5,0.9-1.1c0-0.3-0.1-0.6-0.1-0.9c0-0.3-0.1-0.5-0.1-0.7c-0.8-5.9,0.1-12.1,2.5-17.5c0.5-1.1,2-4.4,5.5-5.8
		c2.1-0.9,4.6-0.9,6.8,0.1c2.4,1,4.4,3.1,5.4,5.5c1.2,2.9,1.1,6.2-0.2,9.8c-0.3,0.8-0.6,1.5-0.8,2.1c-0.4,1.1-0.8,1.9-0.9,2.6
		c-0.3,1.5,0.3,3.4,1.7,5c1.6,1.9,3.7,3.1,5.6,3.1l0.1,0c3.5-0.1,6.2-4.5,6.2-4.5c0.8-1.4,2.2-2.3,3.8-2.7c0.4-0.1,0.7-0.5,0.6-1
		C142.6,78.5,142.2,78.2,141.7,78.3z"/>
	<path class="st19" d="M86,91.4c0.4,0.3,0.9,0.2,1.2-0.2c0.3-0.4,0.2-0.9-0.2-1.2c-2.1-1.4-4-3.2-5.6-5.1c-0.2-0.2-0.4-0.3-0.6-0.3
		c-0.2,0-0.4,0.1-0.5,0.2c-0.4,0.3-0.4,0.8-0.1,1.2C81.7,88,83.7,89.9,86,91.4z"/>
	<path class="st19" d="M109.6,94c2.4-1,4.3-2.6,5.5-4.7c0.2-0.4,0.1-0.9-0.3-1.1c-0.1-0.1-0.3-0.1-0.4-0.1c-0.3,0-0.6,0.1-0.7,0.4
		c-1,1.7-2.7,3.1-4.7,4c-5.6,2.5-12,2.4-18-0.3c-0.4-0.2-0.9,0-1.1,0.4c-0.2,0.4,0,0.9,0.4,1.1C96.7,96.6,103.5,96.7,109.6,94z"/>
	<path class="st19" d="M140.9,92.2c-0.2,0-0.4,0.1-0.5,0.2c-2.5,1.9-5.3,2.9-8.2,3c-4.4,0.1-9-2.2-12.2-6.1c-3-3.6-4.3-8-3.5-12
		c0.3-1.5,0.9-2.8,1.3-4l0,0c0.3-0.6,0.5-1.2,0.7-1.8c0.2-0.4-0.1-0.9-0.5-1.1c-0.1,0-0.2,0-0.3,0c-0.3,0-0.7,0.2-0.8,0.6
		c-0.2,0.5-0.4,1.1-0.7,1.7l0,0c-0.5,1.3-1.1,2.7-1.4,4.3c-0.9,4.5,0.5,9.4,3.8,13.4c3.6,4.3,8.6,6.8,13.5,6.7
		c3.2-0.1,6.3-1.2,9.2-3.4c0.2-0.2,0.4-0.5,0.3-0.8C141.7,92.5,141.3,92.2,140.9,92.2z"/>
	<path class="st19" d="M141.6,81.8c-0.8,0.3-1.4,0.9-1.9,1.6c0,0.1-3.1,5.2-7.6,5.3c-2.4,0.1-5-1.4-7-3.7c-1.7-2.1-2.5-4.4-2.1-6.4
		c0.2-0.9,0.6-1.9,1-2.9c0.3-0.7,0.5-1.3,0.8-2c1.1-3.2,1.2-6.1,0.2-8.6c-0.8-2-2.5-3.7-4.5-4.6c-1.9-0.8-3.8-0.8-5.6-0.1
		c-2.6,1.1-3.9,3.4-4.7,5c-2.3,5.1-3.2,11-2.4,16.6c0,0.2,0.1,0.5,0.1,0.7c0.1,0.7,0.2,1.5,0.2,2c-0.1,0.5-0.8,1.3-1.9,1.8
		c-3.9,1.7-8.4,1.6-12.7-0.3C88.8,84,84.9,79.8,83.2,75c-0.4-1.1-1.2-2-2.2-2.5c-0.4-0.2-0.9,0-1.1,0.4c-0.2,0.4,0,0.9,0.4,1.1
		c0.6,0.3,1.1,0.8,1.3,1.5c1.8,5.3,6,9.9,11.3,12.2c4.7,2.1,9.6,2.2,14,0.3c1.6-0.7,2.7-1.9,2.9-3.1c0.1-0.7,0-1.6-0.2-2.5
		c0-0.2-0.1-0.4-0.1-0.7c-0.8-5.3,0.1-10.8,2.3-15.6c0.6-1.4,1.7-3.3,3.8-4.2c1.3-0.6,2.9-0.5,4.3,0.1c1.6,0.7,3,2.1,3.6,3.7
		c0.8,2.1,0.8,4.6-0.2,7.5c-0.2,0.7-0.5,1.3-0.8,2c-0.4,1-0.9,2.1-1.1,3.2c-0.5,2.5,0.4,5.4,2.4,7.8c2.3,2.7,5.4,4.4,8.3,4.3
		c5.4-0.1,8.8-5.9,9-6.1c0.3-0.4,0.7-0.8,1.1-1c0.4-0.2,0.6-0.7,0.4-1.1C142.5,81.8,142,81.6,141.6,81.8z"/>
	<path class="st19" d="M141.2,87c-1.5,1.8-4.7,4.9-9,5c-3.4,0.1-7-1.8-9.6-4.9c-2.4-2.9-3.4-6.2-2.8-9.2c0.2-1.2,0.7-2.3,1.2-3.4
		c0.3-0.6,0.5-1.3,0.8-1.9c0.9-2.5,1-4.5,0.3-6.3c-0.5-1.2-1.5-2.3-2.7-2.8c-2.7-1.1-4.7,0.6-5.9,3.3c-2.1,4.5-2.8,9.8-2.1,14.7
		c0,0.2,0.1,0.5,0.1,0.7c0.2,1.1,0.3,2,0.2,3c-0.3,2.1-2.2,3.6-3.9,4.3C97.2,94,85.9,87.6,81.4,79.1c-0.2-0.4-0.7-0.6-1.1-0.3
		c-0.4,0.2-0.6,0.7-0.3,1.1c2.6,4.9,6.9,8.9,12,11c5.4,2.3,11.2,2.3,16.3,0.1c2.6-1.1,4.4-3.3,4.8-5.6c0.2-1.2,0-2.4-0.2-3.5
		c0-0.2-0.1-0.4-0.1-0.7c-0.7-4.6,0.1-9.5,2-13.8c0.8-1.8,1.9-3.2,3.8-2.4c0.8,0.3,1.5,1.1,1.8,1.9c0.5,1.3,0.4,3-0.3,5.1
		c-0.2,0.6-0.5,1.2-0.7,1.8c-0.5,1.2-1,2.4-1.3,3.7c-0.7,3.5,0.4,7.4,3.1,10.6c2.9,3.5,7.1,5.6,10.9,5.5c5-0.1,8.6-3.6,10.3-5.6
		c0.3-0.4,0.2-0.9-0.1-1.2C142,86.6,141.5,86.7,141.2,87z"/>
</g>
<circle class="st8" cx="141" cy="97.9" r="2.4"/>
<circle class="st7" cx="132.7" cy="53" r="2.4"/>
<circle class="st2" cx="111.3" cy="36.8" r="2.4"/>
<circle class="st5" cx="120.8" cy="68.6" r="2.4"/>
<line class="st20" x1="175" y1="71.8" x2="185.9" y2="71.8"/>
<line class="st20" x1="175" y1="75.8" x2="185.9" y2="75.8"/>
<line class="st20" x1="175" y1="79.8" x2="185.9" y2="79.8"/>
<line class="st21" x1="191.8" y1="80.4" x2="202.7" y2="80.4"/>
<line class="st21" x1="191.8" y1="83.8" x2="202.7" y2="83.8"/>
<line class="st21" x1="191.8" y1="87.1" x2="202.7" y2="87.1"/>
<line class="st20" x1="233" y1="60.7" x2="243.9" y2="60.7"/>
<line class="st20" x1="233" y1="64.6" x2="243.9" y2="64.6"/>
<line class="st20" x1="233" y1="68.6" x2="243.9" y2="68.6"/>
<line class="st20" x1="224.4" y1="19.6" x2="235.3" y2="19.6"/>
<line class="st20" x1="224.4" y1="23.6" x2="235.3" y2="23.6"/>
<line class="st20" x1="224.4" y1="27.6" x2="235.3" y2="27.6"/>
<line class="st20" x1="270.4" y1="74.1" x2="281.3" y2="74.1"/>
<line class="st20" x1="270.4" y1="78.1" x2="281.3" y2="78.1"/>
<line class="st20" x1="256.4" y1="27.8" x2="262.9" y2="27.8"/>
<line class="st20" x1="256.4" y1="30.6" x2="262.9" y2="30.6"/>
<line class="st21" x1="158.2" y1="85.7" x2="164.7" y2="85.7"/>
<line class="st21" x1="158.2" y1="88.5" x2="164.7" y2="88.5"/>
<line class="st21" x1="161.3" y1="44" x2="167.8" y2="44"/>
<line class="st21" x1="161.3" y1="46.8" x2="167.8" y2="46.8"/>
<line class="st20" x1="270.4" y1="82.1" x2="281.3" y2="82.1"/>
<g>
	<g>
		<g>
			<path class="st14" d="M231.8,37l0,8.5c0,0.3,0.2,0.5,0.4,0.7c0.3,0.1,0.6,0,0.8-0.1l2.9-2.6c0,0,0,0,0.1-0.1
				c0.2-0.2,0.4-0.3,0.4-0.3l0,0l0,0c0,0,0.2,0,0.4,0c0.1,0,0.3,0,0.5,0h9.9c2,0,3.6-1.6,3.6-3.6v-8.6c0-2-1.6-3.6-3.6-3.6h-11.7
				c-2,0-3.7,1.6-3.7,3.6V37"/>
		</g>
	</g>
</g>
<line class="st21" x1="235.9" y1="32.1" x2="246.4" y2="32.1"/>
<line class="st21" x1="235.9" y1="35" x2="246.4" y2="35"/>
<line class="st21" x1="235.9" y1="37.8" x2="246.4" y2="37.8"/>
<g>
	<g>
		<g>
			<path class="st2" d="M282,36.3v12.3c0,0.4,0.2,0.7,0.6,0.9c0.4,0.2,0.8,0.1,1.1-0.2l4.1-3.8c0,0,0.1-0.1,0.1-0.1
				c0.3-0.3,0.4-0.4,0.5-0.5l0,0h0c0.1,0,0.3,0,0.5,0c0.2,0,0.4,0,0.7,0h14.1c2.8,0,5.2-2.3,5.2-5.2V27.5c0-2.8-2.3-5.2-5.2-5.2
				h-16.7c-2.9,0-5.2,2.3-5.2,5.2V36.3"/>
		</g>
	</g>
	<g>
		<path class="st22" d="M293.9,39c0-0.6,0.5-1.1,1.1-1.1c0.7,0,1.1,0.5,1.1,1.2c0,0.6-0.5,1.1-1.1,1.1
			C294.4,40.2,293.9,39.6,293.9,39z"/>
	</g>
</g>
<line class="st21" x1="288.5" y1="29.4" x2="303.9" y2="29.4"/>
<line class="st21" x1="288.5" y1="33.4" x2="303.9" y2="33.4"/>
<line class="st21" x1="288.5" y1="37.4" x2="303.9" y2="37.4"/>
<line class="st23" x1="189.8" y1="77.5" x2="120.8" y2="68.6"/>
<line class="st24" x1="159.5" y1="44" x2="112.2" y2="36.9"/>
<path class="st25" d="M140.1,98.8c0,0-13.1,5.9-23.5-5.8c0,0-14,15.7-36-1.6l-4.7-4.2"/>
<path class="st26" d="M120.8,69c0,0-2.4-9-6.6,0c-0.5,1-0.7,2.1-1,3.2c-0.6,2.3-0.9,4.8-0.8,7.2c0.1,1,0.2,2,0.4,2.9
	c0.5,1.9,0.1,3.8-0.8,5.5c-0.9,1.6-2.3,2.8-3.9,3.6c-1.3,0.6-2.6,0.8-4,1.1c-1.5,0.3-3.2,0.5-4.7,0.4c-3.2,0-6.3-0.9-9.1-2.4
	C86,88,82.6,84.1,79.9,79.8l-6.6-12"/>
<path class="st27" d="M110.2,37.5c0,0-10.8,1.1-18.9,14.1l-10.5-3.9"/>
<path class="st28" d="M75.2,57.3c0,0,17.6,4,20.1,11.8c0,0,1.6-18.2,17-21.9c0,0,11.6-3.4,20.5,5.7"/>
</svg>
