<?xml version="1.0" encoding="UTF-8"?> <svg xmlns="http://www.w3.org/2000/svg" width="768" height="398" viewBox="0 0 768 398" fill="none"><g filter="url(#filter0_dd_232_3216)"><rect x="79.1504" y="24" width="426.182" height="290.578" rx="8" fill="white"></rect></g><path d="M100.137 192.743H160.45H248.857H337.275H425.682H482.372" stroke="#D0D6DD" stroke-width="0.484297" stroke-linecap="round" stroke-linejoin="round"></path><path d="M100.137 157.408H160.45H248.857H337.275H425.682H482.372" stroke="#D0D6DD" stroke-width="0.484297" stroke-linecap="round" stroke-linejoin="round"></path><path d="M100.137 122.076H482.372" stroke="#D0D6DD" stroke-width="0.484297" stroke-linecap="round" stroke-linejoin="round"></path><path d="M100.137 86.7429H482.372" stroke="#D0D6DD" stroke-width="0.484297" stroke-linecap="round" stroke-linejoin="round"></path><path d="M100.137 51.4099H482.372" stroke="#D0D6DD" stroke-width="0.484297" stroke-linecap="round" stroke-linejoin="round"></path><path d="M100.137 224.862H160.45H248.857H337.275H425.682H482.372" stroke="#D0D6DD" stroke-width="0.484297" stroke-linecap="round" stroke-linejoin="round"></path><path d="M100.137 260.195H160.45H248.857H337.275H425.682H482.372" stroke="#D0D6DD" stroke-width="0.484297" stroke-linecap="round" stroke-linejoin="round"></path><path d="M263.953 44.9863V131.331V172.376V213.436V254.482V295.527" stroke="#D0D6DD" stroke-width="0.484297" stroke-linecap="round" stroke-linejoin="round"></path><path d="M427.77 44.9863V131.331V172.376V213.436V254.482V295.527" stroke="#D0D6DD" stroke-width="0.484297" stroke-linecap="round" stroke-linejoin="round"></path><path d="M318.557 44.9863V131.331V172.376V213.436V254.482V295.527" stroke="#D0D6DD" stroke-width="0.484297" stroke-linecap="round" stroke-linejoin="round"></path><path d="M482.367 44.9863V131.331V172.376V213.436V254.482V295.527" stroke="#D0D6DD" stroke-width="0.484297" stroke-linecap="round" stroke-linejoin="round"></path><path d="M209.344 44.9863V131.331V172.376V213.436V254.482V295.527" stroke="#D0D6DD" stroke-width="0.484297" stroke-linecap="round" stroke-linejoin="round"></path><path d="M373.164 44.9863V131.331V172.376V213.436V254.482V295.527" stroke="#D0D6DD" stroke-width="0.484297" stroke-linecap="round" stroke-linejoin="round"></path><path d="M154.74 44.9863V131.331V172.376V213.436V254.482V295.527" stroke="#D0D6DD" stroke-width="0.484297" stroke-linecap="round" stroke-linejoin="round"></path><path d="M100.137 44.9863V295.527H482.372" stroke="#F04E23" stroke-width="0.484297" stroke-linecap="round" stroke-linejoin="round"></path><path d="M133.286 232.29C136.295 232.29 138.735 229.851 138.735 226.842C138.735 223.833 136.295 221.394 133.286 221.394C130.277 221.394 127.838 223.833 127.838 226.842C127.838 229.851 130.277 232.29 133.286 232.29Z" fill="#163156"></path><path d="M193.507 227.113C196.516 227.113 198.955 224.674 198.955 221.665C198.955 218.656 196.516 216.217 193.507 216.217C190.498 216.217 188.059 218.656 188.059 221.665C188.059 224.674 190.498 227.113 193.507 227.113Z" fill="#163156"></path><path d="M193.417 203.129C196.426 203.129 198.865 200.69 198.865 197.681C198.865 194.672 196.426 192.233 193.417 192.233C190.408 192.233 187.969 194.672 187.969 197.681C187.969 200.69 190.408 203.129 193.417 203.129Z" fill="#F04E23" stroke="white" stroke-width="0.302686" stroke-miterlimit="10"></path><path d="M211.364 202.438C214.373 202.438 216.813 199.999 216.813 196.99C216.813 193.981 214.373 191.542 211.364 191.542C208.355 191.542 205.916 193.981 205.916 196.99C205.916 199.999 208.355 202.438 211.364 202.438Z" fill="#1CACA5" stroke="white" stroke-width="0.302686" stroke-miterlimit="10"></path><path d="M206.36 169.739C209.369 169.739 211.809 167.3 211.809 164.291C211.809 161.282 209.369 158.843 206.36 158.843C203.351 158.843 200.912 161.282 200.912 164.291C200.912 167.3 203.351 169.739 206.36 169.739Z" fill="#A4DEDB"></path><path d="M210.673 169.739C213.682 169.739 216.121 167.3 216.121 164.291C216.121 161.282 213.682 158.843 210.673 158.843C207.664 158.843 205.225 161.282 205.225 164.291C205.225 167.3 207.664 169.739 210.673 169.739Z" fill="#1CACA5" stroke="white" stroke-width="0.302686" stroke-miterlimit="10"></path><path d="M219.388 164.65C222.397 164.65 224.836 162.21 224.836 159.201C224.836 156.192 222.397 153.753 219.388 153.753C216.379 153.753 213.939 156.192 213.939 159.201C213.939 162.21 216.379 164.65 219.388 164.65Z" fill="#A4DEDB"></path><path d="M219.388 160.336C222.397 160.336 224.836 157.897 224.836 154.888C224.836 151.879 222.397 149.439 219.388 149.439C216.379 149.439 213.939 151.879 213.939 154.888C213.939 157.897 216.379 160.336 219.388 160.336Z" fill="#163156"></path><path d="M212.27 146.126C216.67 151.948 210.07 158.54 204.24 154.146C199.84 148.213 206.44 141.731 212.27 146.126Z" fill="#F04E23" stroke="white" stroke-width="0.302686" stroke-miterlimit="10"></path><path d="M239.232 166.376C242.241 166.376 244.68 163.937 244.68 160.928C244.68 157.919 242.241 155.479 239.232 155.479C236.223 155.479 233.783 157.919 233.783 160.928C233.783 163.937 236.223 166.376 239.232 166.376Z" fill="#A4DEDB"></path><path d="M249.239 153.607C252.248 153.607 254.688 151.168 254.688 148.159C254.688 145.15 252.248 142.71 249.239 142.71C246.23 142.71 243.791 145.15 243.791 148.159C243.791 151.168 246.23 153.607 249.239 153.607Z" fill="#A4DEDB"></path><path d="M271.066 160.853C274.075 160.853 276.514 158.414 276.514 155.405C276.514 152.396 274.075 149.957 271.066 149.957C268.056 149.957 265.617 152.396 265.617 155.405C265.617 158.414 268.056 160.853 271.066 160.853Z" fill="#1CACA5" stroke="white" stroke-width="0.302686" stroke-miterlimit="10"></path><path d="M290.737 121.943C293.746 121.943 296.186 119.504 296.186 116.495C296.186 113.486 293.746 111.047 290.737 111.047C287.728 111.047 285.289 113.486 285.289 116.495C285.289 119.504 287.728 121.943 290.737 121.943Z" fill="#163156"></path><path d="M202.132 176.987C205.141 176.987 207.58 174.547 207.58 171.538C207.58 168.529 205.141 166.09 202.132 166.09C199.123 166.09 196.684 168.529 196.684 171.538C196.684 174.547 199.123 176.987 202.132 176.987Z" fill="#163156"></path><path d="M300.833 125.826C303.842 125.826 306.281 123.386 306.281 120.377C306.281 117.368 303.842 114.929 300.833 114.929C297.824 114.929 295.385 117.368 295.385 120.377C295.385 123.386 297.824 125.826 300.833 125.826Z" fill="#A4DEDB"></path><path d="M369.511 117.284C372.52 117.284 374.959 114.845 374.959 111.836C374.959 108.827 372.52 106.387 369.511 106.387C366.502 106.387 364.062 108.827 364.062 111.836C364.062 114.845 366.502 117.284 369.511 117.284Z" fill="#A4DEDB"></path><path d="M338.103 157.834C341.112 157.834 343.551 155.395 343.551 152.386C343.551 149.377 341.112 146.937 338.103 146.937C335.094 146.937 332.654 149.377 332.654 152.386C332.654 155.395 335.094 157.834 338.103 157.834Z" fill="#163156"></path><path d="M358.984 133.418C361.993 133.418 364.432 130.978 364.432 127.969C364.432 124.96 361.993 122.521 358.984 122.521C355.974 122.521 353.535 124.96 353.535 127.969C353.535 130.978 355.974 133.418 358.984 133.418Z" fill="#F04E23" stroke="white" stroke-width="0.302686" stroke-miterlimit="10"></path><path d="M419.632 105.119C422.641 105.119 425.08 102.68 425.08 99.671C425.08 96.662 422.641 94.2227 419.632 94.2227C416.623 94.2227 414.184 96.662 414.184 99.671C414.184 102.68 416.623 105.119 419.632 105.119Z" fill="#1CACA5" stroke="white" stroke-width="0.302686" stroke-miterlimit="10"></path><path d="M461.993 105.119C465.002 105.119 467.442 102.68 467.442 99.671C467.442 96.662 465.002 94.2227 461.993 94.2227C458.984 94.2227 456.545 96.662 456.545 99.671C456.545 102.68 458.984 105.119 461.993 105.119Z" fill="#F04E23" stroke="white" stroke-width="0.302686" stroke-miterlimit="10"></path><path d="M129.226 257.656C132.235 257.656 134.674 255.217 134.674 252.208C134.674 249.199 132.235 246.759 129.226 246.759C126.217 246.759 123.777 249.199 123.777 252.208C123.777 255.217 126.217 257.656 129.226 257.656Z" fill="#F04E23" stroke="white" stroke-width="0.302686" stroke-miterlimit="10"></path><path d="M122.327 270.597C125.336 270.597 127.776 268.158 127.776 265.149C127.776 262.14 125.336 259.7 122.327 259.7C119.318 259.7 116.879 262.14 116.879 265.149C116.879 268.158 119.318 270.597 122.327 270.597Z" fill="#F04E23" stroke="white" stroke-width="0.302686" stroke-miterlimit="10"></path><path d="M465.372 80.4676C462.363 80.4676 459.924 82.9069 459.924 85.9159C459.924 88.9249 462.363 91.3643 465.372 91.3643C468.381 91.3643 470.82 88.925 470.82 85.9159C470.82 82.9069 468.381 80.4676 465.372 80.4676Z" fill="#163156"></path><path d="M405.149 85.6446C402.14 85.6446 399.701 88.0839 399.701 91.0929C399.701 94.102 402.14 96.5413 405.149 96.5413C408.158 96.5413 410.598 94.102 410.598 91.0929C410.598 88.0839 408.158 85.6446 405.149 85.6446Z" fill="#163156"></path><path d="M405.241 109.629C402.232 109.629 399.793 112.068 399.793 115.077C399.793 118.086 402.232 120.525 405.241 120.525C408.25 120.525 410.689 118.086 410.689 115.077C410.689 112.068 408.25 109.629 405.241 109.629Z" fill="#F04E23" stroke="white" stroke-width="0.302686" stroke-miterlimit="10"></path><path d="M387.292 110.319C384.283 110.319 381.844 112.758 381.844 115.767C381.844 118.777 384.283 121.216 387.292 121.216C390.301 121.216 392.74 118.777 392.74 115.767C392.74 112.758 390.301 110.319 387.292 110.319Z" fill="#1CACA5" stroke="white" stroke-width="0.302686" stroke-miterlimit="10"></path><path d="M392.298 143.018C389.289 143.018 386.849 145.458 386.849 148.467C386.849 151.476 389.289 153.915 392.298 153.915C395.307 153.915 397.746 151.476 397.746 148.467C397.746 145.458 395.307 143.018 392.298 143.018Z" fill="#A4DEDB"></path><path d="M387.985 143.018C384.976 143.018 382.537 145.458 382.537 148.467C382.537 151.476 384.976 153.915 387.985 153.915C390.994 153.915 393.434 151.476 393.434 148.467C393.434 145.458 390.994 143.018 387.985 143.018Z" fill="#1CACA5" stroke="white" stroke-width="0.302686" stroke-miterlimit="10"></path><path d="M379.27 148.108C376.261 148.108 373.822 150.547 373.822 153.557C373.822 156.566 376.261 159.005 379.27 159.005C382.279 159.005 384.719 156.566 384.719 153.557C384.719 150.547 382.279 148.108 379.27 148.108Z" fill="#A4DEDB"></path><path d="M379.27 152.422C376.261 152.422 373.822 154.861 373.822 157.87C373.822 160.879 376.261 163.319 379.27 163.319C382.279 163.319 384.719 160.879 384.719 157.87C384.719 154.861 382.279 152.422 379.27 152.422Z" fill="#163156"></path><path d="M386.386 166.632C381.987 160.81 388.586 154.218 394.416 158.613C398.816 164.545 392.216 171.027 386.386 166.632Z" fill="#F04E23" stroke="white" stroke-width="0.302686" stroke-miterlimit="10"></path><path d="M359.427 146.382C356.418 146.382 353.978 148.821 353.978 151.83C353.978 154.839 356.418 157.279 359.427 157.279C362.436 157.279 364.875 154.839 364.875 151.83C364.875 148.821 362.436 146.382 359.427 146.382Z" fill="#A4DEDB"></path><path d="M349.417 159.151C346.408 159.151 343.969 161.59 343.969 164.599C343.969 167.608 346.408 170.048 349.417 170.048C352.426 170.048 354.865 167.608 354.865 164.599C354.865 161.59 352.426 159.151 349.417 159.151Z" fill="#A4DEDB"></path><path d="M327.593 151.904C324.584 151.904 322.144 154.343 322.144 157.352C322.144 160.361 324.584 162.801 327.593 162.801C330.602 162.801 333.041 160.361 333.041 157.352C333.041 154.343 330.602 151.904 327.593 151.904Z" fill="#1CACA5" stroke="white" stroke-width="0.302686" stroke-miterlimit="10"></path><path d="M307.919 190.815C304.91 190.815 302.47 193.254 302.47 196.263C302.47 199.272 304.91 201.711 307.919 201.711C310.928 201.711 313.367 199.272 313.367 196.263C313.367 193.254 310.928 190.815 307.919 190.815Z" fill="#163156"></path><path d="M396.526 135.772C393.517 135.772 391.078 138.211 391.078 141.22C391.078 144.229 393.517 146.668 396.526 146.668C399.535 146.668 401.975 144.229 401.975 141.22C401.975 138.211 399.535 135.772 396.526 135.772Z" fill="#163156"></path><path d="M297.823 186.932C294.814 186.932 292.375 189.372 292.375 192.381C292.375 195.39 294.814 197.829 297.823 197.829C300.832 197.829 303.271 195.39 303.271 192.381C303.271 189.372 300.832 186.932 297.823 186.932Z" fill="#A4DEDB"></path><path d="M229.147 195.474C226.138 195.474 223.699 197.913 223.699 200.922C223.699 203.931 226.138 206.371 229.147 206.371C232.156 206.371 234.596 203.931 234.596 200.922C234.596 197.913 232.156 195.474 229.147 195.474Z" fill="#A4DEDB"></path><path d="M260.554 154.924C257.545 154.924 255.105 157.363 255.105 160.372C255.105 163.381 257.545 165.821 260.554 165.821C263.563 165.821 266.002 163.381 266.002 160.372C266.002 157.363 263.563 154.924 260.554 154.924Z" fill="#163156"></path><path d="M239.675 179.34C236.666 179.34 234.226 181.78 234.226 184.789C234.226 187.798 236.666 190.237 239.675 190.237C242.684 190.237 245.123 187.798 245.123 184.789C245.123 181.78 242.684 179.34 239.675 179.34Z" fill="#F04E23" stroke="white" stroke-width="0.302686" stroke-miterlimit="10"></path><path d="M179.024 207.639C176.015 207.639 173.576 210.078 173.576 213.087C173.576 216.096 176.015 218.535 179.024 218.535C182.033 218.535 184.473 216.096 184.473 213.087C184.473 210.078 182.033 207.639 179.024 207.639Z" fill="#1CACA5" stroke="white" stroke-width="0.302686" stroke-miterlimit="10"></path><path d="M136.665 207.639C133.656 207.639 131.217 210.078 131.217 213.087C131.217 216.096 133.656 218.535 136.665 218.535C139.674 218.535 142.113 216.096 142.113 213.087C142.113 210.078 139.674 207.639 136.665 207.639Z" fill="#F04E23" stroke="white" stroke-width="0.302686" stroke-miterlimit="10"></path><path d="M99.7344 313.731L510.297 130.545" stroke="#1CACA5" stroke-width="2" stroke-miterlimit="10"></path><g filter="url(#filter1_dd_232_3216)"><path d="M551.118 339.556C554.281 342.256 554.528 347.015 551.828 350.177C549.128 353.338 544.367 353.584 541.205 350.884C538.042 348.184 537.795 343.424 540.495 340.263C543.357 337.146 547.956 336.856 551.118 339.556Z" fill="#F04E23"></path><path d="M632.564 339.137C635.726 341.837 635.973 346.596 633.273 349.758C630.573 352.919 625.813 353.164 622.65 350.464C619.487 347.764 619.24 343.005 621.94 339.844C624.757 336.889 629.459 336.54 632.564 339.137Z" fill="#163156"></path><path d="M641.327 320.02C644.49 322.72 644.737 327.479 642.037 330.641C639.337 333.802 634.576 334.047 631.414 331.347C628.251 328.647 628.004 323.888 630.704 320.727C633.507 317.507 638.268 317.262 641.327 320.02Z" fill="#F3714F"></path><path d="M652.394 309.271C655.557 311.971 655.803 316.73 653.103 319.891C650.403 323.053 645.643 323.298 642.48 320.598C639.317 317.898 639.071 313.139 641.771 309.978C644.69 306.964 649.392 306.616 652.394 309.271Z" fill="#77CDC9"></path><path d="M663.954 290.755C667.117 293.455 667.364 298.214 664.664 301.376C661.964 304.537 657.203 304.782 654.041 302.082C650.878 299.382 650.631 294.623 653.331 291.462C656.09 288.403 660.895 287.997 663.954 290.755Z" fill="#163156"></path><path d="M671.196 280.251C674.359 282.951 674.606 287.711 671.906 290.872C669.206 294.033 664.446 294.279 661.283 291.579C658.12 288.879 657.873 284.119 660.573 280.958C663.376 277.738 668.137 277.493 671.196 280.251Z" fill="#49BDB7"></path><path d="M679.603 269.376C682.766 272.076 683.012 276.836 680.312 279.997C677.612 283.158 672.852 283.404 669.689 280.704C666.526 278.004 666.28 273.244 668.98 270.083C671.783 266.863 676.485 266.515 679.603 269.376Z" fill="#F04E23"></path><path d="M673.2 258.572C676.363 261.272 676.61 266.031 673.91 269.192C671.21 272.354 666.449 272.599 663.287 269.899C660.124 267.199 659.877 262.44 662.577 259.278C665.277 256.117 670.038 255.872 673.2 258.572Z" fill="#49BDB7"></path><path d="M676.398 245.471C679.56 248.171 679.807 252.93 677.107 256.092C674.407 259.253 669.647 259.498 666.484 256.798C663.321 254.098 663.074 249.339 665.774 246.178C668.636 243.061 673.338 242.713 676.398 245.471Z" fill="#F04E23"></path><path d="M664.695 237.538C667.857 240.238 668.104 244.997 665.404 248.159C662.704 251.32 657.944 251.566 654.781 248.865C651.618 246.165 651.371 241.406 654.071 238.245C656.991 235.231 661.59 234.941 664.695 237.538Z" fill="#49BDB7"></path><path d="M655.234 216.763C658.396 219.463 658.643 224.222 655.943 227.383C653.243 230.545 648.483 230.79 645.32 228.09C642.157 225.39 641.91 220.631 644.61 217.47C647.369 214.411 652.071 214.063 655.234 216.763Z" fill="#49BDB7"></path><path d="M617.128 182.407C620.291 185.107 620.538 189.866 617.837 193.027C615.137 196.189 610.377 196.434 607.214 193.734C604.052 191.034 603.805 186.275 606.505 183.114C609.308 179.894 614.068 179.648 617.128 182.407Z" fill="#163156"></path><path d="M499.027 338.117C502.189 340.817 502.436 345.577 499.736 348.738C497.036 351.899 492.276 352.145 489.113 349.445C485.95 346.744 485.703 341.985 488.403 338.824C491.206 335.604 495.864 335.417 499.027 338.117Z" fill="#163156"></path><path d="M491.073 315.678C494.236 318.378 494.483 323.137 491.783 326.298C489.083 329.46 484.322 329.705 481.16 327.005C477.997 324.305 477.75 319.546 480.45 316.384C483.15 313.223 487.808 313.036 491.073 315.678Z" fill="#163156"></path><path d="M488.364 292.861C491.527 295.561 491.774 300.32 489.074 303.482C486.374 306.643 481.614 306.889 478.451 304.188C475.288 301.488 475.041 296.729 477.741 293.568C480.5 290.51 485.202 290.161 488.364 292.861Z" fill="#F3714F"></path><path d="M507.015 252.77C509.824 255.807 509.645 260.535 506.609 263.342C503.572 266.15 498.843 265.97 496.034 262.933C493.225 259.897 493.404 255.169 496.44 252.361C499.477 249.554 504.265 249.837 507.015 252.77Z" fill="#49BDB7"></path><path d="M498.314 243.409C501.123 246.446 500.944 251.174 497.907 253.981C494.871 256.789 490.141 256.608 487.332 253.572C484.523 250.536 484.703 245.807 487.739 243C490.776 240.192 495.564 240.476 498.314 243.409Z" fill="#163156"></path><path d="M495.291 227.977C498.1 231.013 497.92 235.741 494.884 238.549C491.847 241.356 487.118 241.176 484.309 238.14C481.5 235.103 481.679 230.375 484.716 227.568C487.694 224.657 492.585 224.882 495.291 227.977Z" fill="#163156"></path><path d="M478.654 217.118C481.463 220.154 481.284 224.882 478.247 227.69C475.211 230.497 470.481 230.317 467.672 227.28C464.863 224.244 465.043 219.516 468.079 216.708C471.116 213.901 475.845 214.081 478.654 217.118Z" fill="#F04E23"></path><path d="M494.22 211.435C497.029 214.472 496.85 219.2 493.814 222.008C490.777 224.815 486.048 224.635 483.239 221.598C480.43 218.562 480.609 213.834 483.645 211.026C486.843 208.263 491.573 208.444 494.22 211.435Z" fill="#163156"></path><path d="M479.42 205.254C482.229 208.29 482.049 213.019 479.013 215.826C475.976 218.634 471.247 218.453 468.438 215.417C465.629 212.38 465.808 207.652 468.845 204.845C471.881 202.037 476.611 202.218 479.42 205.254Z" fill="#77CDC9"></path><path d="M500.039 196.98C502.848 200.016 502.669 204.744 499.632 207.552C496.595 210.36 491.866 210.179 489.057 207.143C486.248 204.106 486.427 199.378 489.464 196.571C492.5 193.763 497.288 194.047 500.039 196.98Z" fill="#163156"></path><path d="M484.799 193.367C487.608 196.404 487.428 201.132 484.392 203.939C481.355 206.747 476.626 206.566 473.817 203.53C471.008 200.494 471.187 195.765 474.224 192.958C477.319 190.253 481.99 190.331 484.799 193.367Z" fill="#49BDB7"></path><path d="M491.679 181.983C494.488 185.019 494.309 189.748 491.273 192.555C488.236 195.363 483.507 195.182 480.698 192.146C477.889 189.109 478.068 184.381 481.105 181.574C484.141 178.766 488.973 178.888 491.679 181.983Z" fill="#163156"></path><path d="M503.367 180.267C506.176 183.303 505.997 188.031 502.96 190.839C499.924 193.646 495.194 193.466 492.385 190.429C489.576 187.393 489.755 182.665 492.792 179.857C495.932 176.991 500.558 177.23 503.367 180.267Z" fill="#77CDC9"></path><path d="M515.343 187.232C518.152 190.268 517.973 194.996 514.937 197.804C511.9 200.611 507.171 200.431 504.362 197.395C501.553 194.358 501.732 189.63 504.769 186.823C507.805 184.015 512.431 184.254 515.343 187.232Z" fill="#163156"></path><path d="M532.957 184.203C535.766 187.239 535.586 191.967 532.55 194.775C529.513 197.582 524.784 197.402 521.975 194.365C519.166 191.329 519.345 186.601 522.382 183.793C525.36 180.883 530.251 181.108 532.957 184.203Z" fill="#49BDB7"></path><path d="M523.814 172.637C526.623 175.674 526.444 180.402 523.407 183.209C520.371 186.017 515.641 185.837 512.832 182.8C510.023 179.764 510.203 175.036 513.239 172.228C516.217 169.318 521.005 169.601 523.814 172.637Z" fill="#163156"></path><path d="M510.56 168.709C513.369 171.745 513.19 176.473 510.153 179.281C507.117 182.089 502.388 181.908 499.579 178.872C496.77 175.835 496.949 171.107 499.985 168.3C502.964 165.389 507.913 165.717 510.56 168.709Z" fill="#F04E23"></path><path d="M553.588 189.394C556.397 192.43 556.217 197.158 553.181 199.966C550.144 202.773 545.415 202.593 542.606 199.557C539.797 196.52 539.976 191.792 543.013 188.984C546.005 186.338 550.676 186.416 553.588 189.394Z" fill="#77CDC9"></path><path d="M548.183 177.213C550.992 180.249 550.813 184.977 547.776 187.785C544.74 190.592 540.011 190.412 537.202 187.376C534.393 184.339 534.572 179.611 537.608 176.804C540.645 173.996 545.477 174.118 548.183 177.213Z" fill="#49BDB7"></path><path d="M536.441 166.579C539.25 169.615 539.071 174.344 536.034 177.151C532.998 179.959 528.268 179.778 525.459 176.742C522.65 173.705 522.83 168.977 525.866 166.17C528.903 163.362 533.632 163.543 536.441 166.579Z" fill="#163156"></path><path d="M485.209 244.295C488.018 247.331 487.838 252.059 484.802 254.867C481.765 257.674 477.036 257.494 474.227 254.458C471.418 251.421 471.597 246.693 474.634 243.886C477.67 241.078 482.4 241.258 485.209 244.295Z" fill="#77CDC9"></path><path d="M479.564 230.486C482.373 233.522 482.194 238.251 479.157 241.058C476.121 243.866 471.391 243.685 468.582 240.649C465.773 237.612 465.953 232.884 468.989 230.077C472.026 227.269 476.858 227.391 479.564 230.486Z" fill="#77CDC9"></path><path d="M528.715 308.119L529.11 308.575L498.648 338.883L498.311 338.529L528.715 308.119Z" fill="#163156"></path><path d="M524.793 294.007L525.026 294.419L491.845 317.285L491.509 316.931L524.793 294.007Z" fill="#163156"></path><path d="M521.211 279.026L521.444 279.438L490.359 295.674L490.023 295.32L521.211 279.026Z" fill="#163156"></path><path d="M522.26 231.622L506.739 253.471L506.3 253.176L521.82 231.327L522.26 231.622Z" fill="#163156"></path><path d="M522.021 231.215L522.255 231.627L499.674 244.137L499.485 243.564L522.021 231.215Z" fill="#163156"></path><path d="M520.502 228.535L520.793 229.05L484.818 245.061L484.526 244.546L520.502 228.535Z" fill="#163156"></path><path d="M520.27 227.168L520.4 227.638L496.172 232.917L495.983 232.343L520.27 227.168Z" fill="#163156"></path><path d="M520.683 225.715L520.607 226.302L480.53 223.543L480.605 222.956L520.683 225.715Z" fill="#163156"></path><path d="M521.003 224.851L520.972 225.277L496.348 218.805L496.482 218.321L521.003 224.851Z" fill="#163156"></path><path d="M521.095 224.526L520.961 225.01L495.989 216.966L496.226 216.423L521.095 224.526Z" fill="#163156"></path><path d="M521.837 223.428L521.586 223.706L496.963 209.07L497.2 208.527L521.837 223.428Z" fill="#163156"></path><path d="M522.222 222.932L522.029 223.313L500.161 206.572L500.398 206.03L522.222 222.932Z" fill="#163156"></path><path d="M491.152 192.746L522.801 222.708L523.126 222.364L491.478 192.402L491.152 192.746Z" fill="#163156"></path><path d="M507.438 199.463L524.058 221.352L523.704 221.688L507.026 199.696L507.438 199.463Z" fill="#163156"></path><path d="M513.885 199.077L524.965 221.517L524.656 221.692L513.415 199.208L513.885 199.077Z" fill="#163156"></path><path d="M508.544 179.79L526.518 220.643L526.105 220.877L508.132 180.023L508.544 179.79Z" fill="#163156"></path><path d="M518.689 184.247L527.775 221.423L527.201 221.612L518.219 184.377L518.689 184.247Z" fill="#163156"></path><path d="M527.585 196.356L527.874 221.367L527.448 221.336L527.115 196.487L527.585 196.356Z" fill="#163156"></path><path d="M530.62 178.173L528.68 221.591L528.254 221.56L530.15 178.304L530.62 178.173Z" fill="#163156"></path><path d="M540.817 188.731L528.266 221.826L527.84 221.795L540.333 188.597L540.817 188.731Z" fill="#163156"></path><path d="M544.807 201.035L530.434 222.507L529.891 222.27L544.471 200.681L544.807 201.035Z" fill="#163156"></path><path d="M561.88 225.659L567.063 249.941L566.592 250.071L561.409 225.789L561.88 225.659Z" fill="#163156"></path><path d="M558.918 173.587L560.533 212.951L559.946 212.875L558.389 173.614L558.918 173.587Z" fill="#163156"></path><path d="M569.537 249.963L570.008 250.013L573.163 220.224L572.692 220.174L569.537 249.963Z" fill="#163156"></path><path d="M579.029 165.607L574.452 207.252L573.967 207.117L578.603 165.576L579.029 165.607Z" fill="#163156"></path><path d="M586.096 223.244L574.356 251.526L573.813 251.289L585.553 223.007L586.096 223.244Z" fill="#163156"></path><path d="M600.788 171.109L588.665 211.446L588.284 211.254L600.245 170.872L600.788 171.109Z" fill="#163156"></path><path d="M589.055 237.353L574.72 256.49L574.384 256.136L588.616 237.057L589.055 237.353Z" fill="#163156"></path><path d="M605.173 227.829L605.509 228.183L575.738 258.507L575.401 258.154L605.173 227.829Z" fill="#163156"></path><path d="M609.677 194.246L595.79 227.145L595.351 226.85L609.135 194.009L609.677 194.246Z" fill="#163156"></path><path d="M629.785 183.134L613.174 217.711L612.632 217.474L629.449 182.78L629.785 183.134Z" fill="#163156"></path><path d="M614.261 218.935L614.617 219.247L638.021 192.527L637.664 192.215L614.261 218.935Z" fill="#163156"></path><path d="M646.423 202.162L646.657 202.574L615.184 220.527L614.892 220.011L646.423 202.162Z" fill="#163156"></path><path d="M603.75 250.803L603.939 251.377L577.024 260.081L576.997 259.552L603.75 250.803Z" fill="#163156"></path><path d="M643.927 225.619L644.219 226.134L614.589 245.901L614.253 245.547L643.927 225.619Z" fill="#163156"></path><path d="M618.177 267.132L618.204 267.661L581.125 264.429L581.098 263.9L618.177 267.132Z" fill="#163156"></path><path d="M652.607 246.964L652.841 247.376L629.507 264.803L629.171 264.449L652.607 246.964Z" fill="#163156"></path><path d="M664.683 253.865L664.872 254.439L629.838 266.107L629.604 265.695L664.683 253.865Z" fill="#163156"></path><path d="M630.481 268.197L630.557 267.61L661.52 264.37" fill="#163156"></path><path d="M667.437 274.087L667.303 274.571L630.966 269.287L631.042 268.699L667.437 274.087Z" fill="#163156"></path><path d="M659.378 282.452L659.141 282.995L629.822 270.88L630.015 270.499L659.378 282.452Z" fill="#163156"></path><path d="M629.105 272.046L653.902 292.607L654.205 292.243L629.407 271.681L629.105 272.046Z" fill="#163156"></path><path d="M531.025 306.258L531.381 306.571L558.736 274.71L558.38 274.397L531.025 306.258Z" fill="#163156"></path><path d="M556.234 272.397L556.571 272.751L535.117 286.529L534.722 286.072L556.234 272.397Z" fill="#163156"></path><path d="M554.291 267.513L554.525 267.925L532.526 274.255L532.395 273.785L554.291 267.513Z" fill="#163156"></path><path d="M568.5 263.28L531.738 230.341L531.93 229.96L568.854 262.944L568.5 263.28Z" fill="#163156"></path><path d="M566.066 277.72L560.674 301.592L560.087 301.516L565.582 277.586L566.066 277.72Z" fill="#163156"></path><path d="M561.247 276.908L549.687 296.379L549.247 296.084L560.807 276.613L561.247 276.908Z" fill="#163156"></path><path d="M602.165 306.133L623.915 338.998L623.4 339.289L601.812 306.469L602.165 306.133Z" fill="#163156"></path><path d="M577.9 273.876L595.179 296.208L594.825 296.545L577.385 274.168L577.9 273.876Z" fill="#163156"></path><path d="M602.958 284.461L602.663 284.9L580.004 271.329L580.299 270.889L602.958 284.461Z" fill="#163156"></path><path d="M612.897 293.121L632.481 320L632.068 320.234L612.382 293.413L612.897 293.121Z" fill="#163156"></path><path d="M641.68 310.301L641.326 310.638L613.677 291.862L613.914 291.32L641.68 310.301Z" fill="#163156"></path><path d="M556.994 313.645L549.304 339.226L548.923 339.034L556.554 313.349L556.994 313.645Z" fill="#163156"></path><path d="M542.255 307.527L519.933 337.308L519.597 336.955L541.919 307.173L542.255 307.527Z" fill="#163156"></path><path d="M589.392 253.081C583.525 242.725 570.372 239.082 560.015 244.946C549.657 250.809 546.017 263.958 551.884 274.314C557.751 284.67 570.904 288.313 581.262 282.449C591.62 276.586 595.26 263.437 589.392 253.081Z" fill="#F04E23"></path><path d="M522.425 337.027C525.588 339.727 525.834 344.486 523.134 347.648C520.434 350.809 515.674 351.054 512.511 348.354C509.348 345.654 509.102 340.895 511.802 337.734C514.56 334.675 519.262 334.327 522.425 337.027Z" fill="#F3714F"></path><path d="M607.829 158.552C610.992 161.252 611.239 166.011 608.539 169.172C605.839 172.334 601.078 172.579 597.916 169.879C594.753 167.179 594.506 162.42 597.206 159.258C600.126 156.245 604.828 155.896 607.829 158.552Z" fill="#49BDB7"></path><path d="M584.698 153.276C587.861 155.976 588.108 160.735 585.408 163.897C582.708 167.058 577.947 167.304 574.785 164.604C571.622 161.903 571.375 157.144 574.075 153.983C576.937 150.866 581.594 150.679 584.698 153.276Z" fill="#F04E23"></path><path d="M564.124 160.436C567.287 163.137 567.534 167.896 564.834 171.057C562.134 174.218 557.373 174.464 554.21 171.764C551.048 169.064 550.801 164.304 553.501 161.143C556.201 157.982 560.961 157.736 564.124 160.436Z" fill="#77CDC9"></path><path d="M657.208 192.378C660.371 195.078 660.618 199.837 657.918 202.999C655.218 206.16 650.457 206.405 647.294 203.705C644.132 201.005 643.885 196.246 646.585 193.085C649.446 189.968 654.104 189.781 657.208 192.378Z" fill="#F04E23"></path><path d="M646.698 182C649.861 184.7 650.108 189.459 647.408 192.62C644.708 195.782 639.947 196.027 636.785 193.327C633.622 190.627 633.375 185.868 636.075 182.706C638.834 179.648 643.594 179.403 646.698 182Z" fill="#77CDC9"></path><path d="M635.652 171.379C638.814 174.079 639.061 178.838 636.361 182C633.661 185.161 628.901 185.406 625.738 182.706C622.575 180.006 622.328 175.247 625.028 172.086C627.787 169.027 632.489 168.679 635.652 171.379Z" fill="#F04E23"></path><path d="M614.263 218.563C617.247 221.117 617.487 225.611 614.948 228.592C612.408 231.573 607.923 231.797 604.938 229.243C601.953 226.689 601.714 222.194 604.253 219.214C606.945 216.275 611.333 216.106 614.263 218.563Z" fill="white" stroke="#163156" stroke-width="0.817489"></path><path d="M592.333 212.428C595.318 214.983 595.558 219.477 593.018 222.457C590.479 225.438 585.993 225.663 583.008 223.108C580.024 220.554 579.784 216.06 582.323 213.079C585.015 210.141 589.404 209.971 592.333 212.428Z" fill="white" stroke="#163156" stroke-width="0.817489"></path><path d="M579.171 208.085C582.156 210.639 582.395 215.133 579.856 218.114C577.317 221.095 572.831 221.319 569.846 218.765C566.862 216.21 566.622 211.716 569.161 208.736C571.853 205.797 576.241 205.628 579.171 208.085Z" fill="white" stroke="#163156" stroke-width="0.817489"></path><path d="M565.521 213.915C568.505 216.47 568.745 220.964 566.206 223.944C563.666 226.925 559.181 227.15 556.196 224.595C553.211 222.041 552.971 217.547 555.511 214.566C558.203 211.628 562.591 211.458 565.521 213.915Z" fill="white" stroke="#163156" stroke-width="0.817489"></path><path d="M530.991 221.372C533.976 223.927 534.216 228.421 531.676 231.402C529.137 234.382 524.651 234.607 521.667 232.052C518.682 229.498 518.442 225.004 520.982 222.023C523.673 219.085 528.062 218.915 530.991 221.372Z" fill="white" stroke="#163156" stroke-width="0.817489"></path><path d="M596.698 227.93C599.683 230.485 599.923 234.979 597.383 237.96C594.844 240.94 590.358 241.165 587.374 238.61C584.389 236.056 584.149 231.562 586.689 228.581C589.38 225.643 593.769 225.473 596.698 227.93Z" fill="white" stroke="#163156" stroke-width="0.817489"></path><path d="M613.957 244.774C616.693 247.115 616.912 251.235 614.585 253.967C612.257 256.7 608.145 256.905 605.409 254.564C602.673 252.222 602.453 248.103 604.781 245.37C607.248 242.677 611.271 242.521 613.957 244.774Z" fill="white" stroke="#163156" stroke-width="0.817489"></path><path d="M628.9 264.081C631.636 266.422 631.856 270.542 629.528 273.274C627.2 276.007 623.088 276.212 620.352 273.871C617.616 271.529 617.397 267.41 619.725 264.677C622.192 261.984 626.215 261.829 628.9 264.081Z" fill="white" stroke="#163156" stroke-width="0.817489"></path><path d="M612.576 282.872C615.312 285.213 615.532 289.333 613.204 292.065C610.876 294.798 606.764 295.003 604.028 292.662C601.292 290.32 601.072 286.201 603.4 283.468C605.868 280.775 609.89 280.619 612.576 282.872Z" fill="white" stroke="#163156" stroke-width="0.817489"></path><path d="M603.248 296.625C605.984 298.966 606.203 303.086 603.876 305.818C601.548 308.551 597.436 308.756 594.7 306.415C591.964 304.073 591.744 299.954 594.072 297.221C596.539 294.528 600.562 294.372 603.248 296.625Z" fill="white" stroke="#163156" stroke-width="0.817489"></path><path d="M563.521 303.011C566.257 305.353 566.477 309.472 564.149 312.205C561.821 314.937 557.71 315.143 554.974 312.801C552.238 310.46 552.018 306.34 554.346 303.608C556.813 300.914 560.836 300.759 563.521 303.011Z" fill="white" stroke="#163156" stroke-width="0.817489"></path><path d="M534.353 284.544C537.089 286.886 537.309 291.005 534.981 293.738C532.653 296.47 528.542 296.676 525.806 294.334C523.07 291.993 522.85 287.873 525.178 285.141C527.645 282.447 531.668 282.292 534.353 284.544Z" fill="white" stroke="#163156" stroke-width="0.817489"></path><path d="M550.164 297.006C552.9 299.347 553.119 303.467 550.792 306.199C548.464 308.932 544.352 309.137 541.616 306.796C538.88 304.454 538.66 300.335 540.988 297.602C543.456 294.909 547.478 294.753 550.164 297.006Z" fill="white" stroke="#163156" stroke-width="0.817489"></path><path d="M532.466 304.159C535.202 306.5 535.422 310.62 533.094 313.352C530.767 316.085 526.655 316.29 523.919 313.949C521.183 311.607 520.963 307.488 523.291 304.755C525.758 302.062 529.781 301.906 532.466 304.159Z" fill="white" stroke="#163156" stroke-width="0.817489"></path><path d="M531.113 271.44C533.849 273.781 534.069 277.901 531.741 280.633C529.413 283.366 525.301 283.571 522.565 281.23C519.829 278.888 519.61 274.769 521.937 272.036C524.405 269.343 528.428 269.188 531.113 271.44Z" fill="white" stroke="#163156" stroke-width="0.817489"></path></g><path d="M573.849 130.902L579.319 139.137L579.438 139.106L579.937 129.227L582.231 128.594L581.336 141.218L578.762 141.926L571.549 131.531L573.849 130.902Z" fill="#163156"></path><path d="M586.14 129.87C585.824 129.922 585.5 129.847 585.238 129.661C585.11 129.577 585.002 129.467 584.92 129.339C584.838 129.21 584.784 129.065 584.762 128.914C584.739 128.763 584.749 128.609 584.791 128.462C584.832 128.315 584.904 128.179 585.002 128.062C585.204 127.813 585.491 127.649 585.807 127.603C586.124 127.556 586.446 127.629 586.711 127.809C586.837 127.894 586.945 128.005 587.026 128.134C587.107 128.263 587.16 128.407 587.183 128.558C587.205 128.709 587.195 128.863 587.155 129.01C587.114 129.157 587.043 129.294 586.947 129.412C586.748 129.663 586.458 129.828 586.14 129.87ZM586.581 140.125L585.275 131.268L587.361 130.96L588.67 139.814L586.581 140.125Z" fill="#163156"></path><path d="M597.3 132.615L595.389 132.916C595.322 132.719 595.216 132.538 595.078 132.382C594.926 132.21 594.735 132.076 594.521 131.993C594.255 131.894 593.97 131.854 593.687 131.876C593.299 131.884 592.922 132.002 592.6 132.218C592.469 132.297 592.363 132.409 592.291 132.543C592.219 132.677 592.186 132.829 592.193 132.981C592.195 133.101 592.224 133.22 592.279 133.327C592.334 133.435 592.414 133.528 592.511 133.599C592.813 133.786 593.153 133.902 593.506 133.941L595.047 134.194C595.749 134.273 596.416 134.543 596.975 134.973C597.189 135.166 597.36 135.401 597.478 135.664C597.596 135.926 597.657 136.21 597.659 136.498C597.69 137.034 597.542 137.566 597.239 138.009C596.909 138.474 596.46 138.842 595.94 139.075C595.322 139.356 594.655 139.511 593.977 139.53C593.049 139.618 592.115 139.421 591.301 138.966C590.966 138.765 590.678 138.494 590.456 138.172C590.234 137.85 590.084 137.485 590.016 137.1L592.067 136.806C592.155 137.172 592.383 137.49 592.702 137.691C593.067 137.894 593.484 137.981 593.899 137.941C594.324 137.942 594.74 137.814 595.092 137.575C595.224 137.492 595.331 137.376 595.405 137.239C595.479 137.102 595.516 136.948 595.512 136.792C595.507 136.67 595.473 136.55 595.414 136.443C595.354 136.335 595.271 136.243 595.17 136.173C594.894 135.984 594.574 135.867 594.241 135.831L592.702 135.582C591.987 135.512 591.31 135.228 590.757 134.768C590.543 134.564 590.371 134.318 590.254 134.045C590.136 133.772 590.075 133.479 590.074 133.182C590.035 132.668 590.169 132.155 590.457 131.726C590.767 131.286 591.193 130.939 591.687 130.724C592.278 130.461 592.914 130.316 593.56 130.297C594.435 130.208 595.314 130.402 596.069 130.851C596.696 131.254 597.138 131.888 597.3 132.615Z" fill="#163156"></path><path d="M605.193 135.988L605.675 130.823L607.773 131.022L606.96 139.933L604.909 139.742L605.059 138.159H604.964C604.719 138.638 604.335 139.032 603.863 139.291C603.332 139.576 602.724 139.687 602.126 139.608C601.584 139.569 601.062 139.385 600.615 139.075C600.188 138.762 599.861 138.331 599.675 137.834C599.462 137.24 599.391 136.605 599.467 135.978L599.997 130.307L602.096 130.502L601.6 135.852C601.527 136.341 601.65 136.84 601.942 137.24C602.081 137.419 602.258 137.567 602.46 137.673C602.661 137.778 602.883 137.839 603.111 137.851C603.426 137.882 603.743 137.832 604.034 137.708C604.344 137.58 604.614 137.37 604.813 137.099C605.043 136.773 605.175 136.387 605.193 135.988Z" fill="#163156"></path><path d="M611.145 141.027C610.632 140.911 610.151 140.686 609.733 140.368C609.351 140.079 609.064 139.684 608.906 139.233C608.744 138.738 608.733 138.206 608.872 137.705C608.958 137.278 609.154 136.881 609.439 136.553C609.693 136.279 610.013 136.076 610.369 135.961C610.747 135.843 611.142 135.783 611.538 135.784C611.966 135.778 612.393 135.804 612.816 135.862C613.339 135.934 613.763 135.985 614.092 136.019C614.339 136.057 614.591 136.046 614.833 135.985C614.919 135.959 614.997 135.91 615.057 135.843C615.117 135.776 615.158 135.694 615.175 135.606V135.572C615.231 135.392 615.248 135.202 615.224 135.015C615.201 134.828 615.137 134.648 615.038 134.488C614.794 134.16 614.433 133.938 614.03 133.869C613.613 133.744 613.166 133.759 612.758 133.91C612.44 134.035 612.168 134.254 611.979 134.539L610.13 133.804C610.386 133.338 610.755 132.943 611.203 132.656C611.648 132.382 612.149 132.213 612.669 132.164C613.25 132.109 613.835 132.155 614.399 132.3C614.821 132.403 615.229 132.554 615.616 132.751C616 132.942 616.347 133.199 616.642 133.51C616.933 133.827 617.141 134.211 617.247 134.628C617.362 135.13 617.349 135.653 617.209 136.149L615.794 141.96L613.825 141.482L614.115 140.289L614.047 140.272C613.62 140.75 613.03 141.052 612.393 141.12C611.975 141.164 611.552 141.133 611.145 141.027ZM612.044 139.66C612.415 139.755 612.804 139.755 613.175 139.66C613.5 139.58 613.796 139.414 614.033 139.178C614.261 138.949 614.42 138.661 614.495 138.347L614.744 137.322C614.629 137.368 614.506 137.391 614.382 137.39C614.202 137.4 614.022 137.4 613.842 137.39C613.644 137.39 613.449 137.363 613.261 137.342L612.762 137.294C612.472 137.26 612.18 137.26 611.89 137.294C611.643 137.316 611.407 137.405 611.206 137.551C611.016 137.698 610.886 137.909 610.841 138.146C610.79 138.309 610.783 138.483 610.819 138.651C610.855 138.818 610.933 138.974 611.046 139.103C611.312 139.386 611.662 139.578 612.044 139.65V139.66Z" fill="#163156"></path><path d="M623.49 132.092L619.488 143.331L617.498 142.624L621.501 131.384L623.49 132.092Z" fill="#163156"></path><path d="M635.921 142.473C635.995 142.168 636.022 141.853 636.003 141.54C635.984 141.244 635.917 140.953 635.805 140.679C635.687 140.398 635.521 140.141 635.312 139.92C635.082 139.677 634.817 139.47 634.526 139.304C634.012 138.992 633.418 138.837 632.817 138.857C632.191 138.895 631.589 139.113 631.084 139.486C630.457 139.952 629.939 140.549 629.566 141.236C629.15 141.902 628.881 142.649 628.776 143.427C628.688 144.048 628.792 144.681 629.074 145.241C629.355 145.801 629.802 146.262 630.352 146.561C630.818 146.848 631.346 147.016 631.891 147.054C632.377 147.081 632.86 146.962 633.278 146.712C633.729 146.438 634.1 146.051 634.355 145.591L634.738 145.902L631.942 144.268L632.793 142.808L636.974 145.252L636.252 146.49C635.806 147.301 635.149 147.978 634.352 148.448C633.617 148.869 632.777 149.07 631.932 149.03C630.975 148.955 630.05 148.653 629.234 148.148C628.418 147.643 627.735 146.95 627.242 146.127C626.772 145.27 626.56 144.296 626.633 143.321C626.722 142.2 627.073 141.115 627.659 140.156C628.089 139.389 628.65 138.704 629.317 138.132C629.894 137.642 630.563 137.272 631.286 137.045C631.968 136.838 632.688 136.781 633.395 136.877C634.13 136.98 634.838 137.229 635.476 137.609C636.021 137.922 636.51 138.321 636.926 138.792C637.31 139.227 637.615 139.725 637.828 140.265C638.033 140.788 638.139 141.344 638.143 141.906C638.139 142.481 638.023 143.05 637.801 143.581L635.921 142.473Z" fill="#163156"></path><path d="M635.02 151.74L640.578 144.726L642.181 145.997L641.255 147.167L641.33 147.225C641.737 146.932 642.231 146.785 642.731 146.808C643.219 146.834 643.686 147.015 644.064 147.324C644.157 147.399 644.256 147.484 644.365 147.58C644.456 147.661 644.542 147.748 644.622 147.84L643.418 149.361C643.336 149.239 643.242 149.124 643.138 149.019C643.01 148.885 642.873 148.759 642.728 148.643C642.447 148.417 642.115 148.263 641.761 148.195C641.429 148.135 641.088 148.166 640.773 148.284C640.443 148.414 640.156 148.631 639.942 148.913L636.674 153.036L635.02 151.74Z" fill="#163156"></path><path d="M641.415 157.435C641.039 157.069 640.744 156.628 640.55 156.14C640.378 155.693 640.338 155.207 640.434 154.738C640.555 154.231 640.822 153.771 641.203 153.415C641.501 153.099 641.875 152.863 642.29 152.732C642.648 152.631 643.026 152.624 643.387 152.711C643.773 152.807 644.142 152.96 644.481 153.166C644.847 153.387 645.198 153.632 645.531 153.901C645.937 154.243 646.276 154.499 646.536 154.701C646.728 154.857 646.95 154.973 647.188 155.042C647.274 155.061 647.364 155.056 647.448 155.029C647.531 155.001 647.606 154.951 647.664 154.885L647.688 154.861C647.828 154.736 647.941 154.583 648.018 154.412C648.095 154.24 648.135 154.054 648.135 153.866C648.096 153.46 647.903 153.083 647.595 152.814C647.304 152.489 646.915 152.269 646.488 152.185C646.15 152.125 645.803 152.172 645.493 152.318L644.3 150.725C644.761 150.461 645.28 150.317 645.811 150.305C646.334 150.3 646.851 150.417 647.322 150.646C647.847 150.905 648.323 151.251 648.73 151.672C649.036 151.981 649.305 152.325 649.53 152.697C649.757 153.059 649.918 153.459 650.005 153.877C650.092 154.299 650.071 154.736 649.944 155.148C649.78 155.637 649.497 156.076 649.12 156.427L644.881 160.659L643.449 159.223L644.317 158.355L644.269 158.303C643.986 158.392 643.69 158.429 643.394 158.413C643.055 158.397 642.723 158.313 642.416 158.167C642.041 157.986 641.701 157.738 641.415 157.435ZM642.898 156.731C643.163 157.007 643.492 157.213 643.856 157.329C644.174 157.431 644.515 157.442 644.84 157.363C645.154 157.288 645.44 157.127 645.667 156.899L646.413 156.153C646.292 156.13 646.177 156.086 646.071 156.023C645.912 155.936 645.758 155.84 645.609 155.736C645.449 155.624 645.291 155.507 645.137 155.394L644.738 155.094C644.508 154.916 644.257 154.765 643.992 154.646C643.779 154.545 643.544 154.501 643.309 154.516C643.069 154.545 642.848 154.658 642.683 154.834C642.555 154.947 642.458 155.091 642.401 155.253C642.345 155.415 642.331 155.588 642.362 155.757C642.437 156.127 642.625 156.464 642.898 156.724V156.731Z" fill="#163156"></path><path d="M643.34 163.95L653.226 156.625L654.463 158.289L653.274 159.171L653.345 159.271C653.621 159.225 653.901 159.21 654.179 159.226C654.524 159.244 654.861 159.335 655.167 159.493C655.561 159.704 655.898 160.007 656.152 160.375C656.55 160.903 656.787 161.534 656.835 162.193C656.876 162.888 656.717 163.579 656.377 164.186C655.949 164.94 655.357 165.589 654.644 166.083C653.968 166.615 653.182 166.992 652.344 167.187C651.662 167.343 650.951 167.3 650.293 167.064C649.667 166.829 649.124 166.414 648.734 165.871C648.458 165.528 648.269 165.123 648.18 164.692C648.111 164.354 648.111 164.005 648.18 163.667C648.242 163.393 648.334 163.127 648.454 162.873L648.399 162.805L644.57 165.642L643.34 163.95ZM650.86 160.949C650.438 161.25 650.074 161.624 649.783 162.053C649.547 162.404 649.413 162.813 649.394 163.236C649.39 163.646 649.527 164.045 649.78 164.367C650.02 164.715 650.373 164.968 650.778 165.085C651.192 165.187 651.626 165.173 652.033 165.044C653 164.728 653.839 164.108 654.425 163.277C654.663 162.929 654.798 162.522 654.815 162.101C654.803 161.687 654.666 161.287 654.422 160.952C654.178 160.618 653.838 160.365 653.448 160.228C653.047 160.116 652.622 160.122 652.224 160.245C651.732 160.396 651.271 160.634 650.864 160.949H650.86Z" fill="#163156"></path><path d="M657.392 169.345L652.764 171.792L651.779 169.926L662.335 164.357L663.296 166.179L659.313 168.282L659.361 168.374C659.886 168.321 660.415 168.427 660.879 168.678C661.389 168.983 661.798 169.431 662.055 169.967C662.331 170.462 662.474 171.02 662.468 171.587C662.451 172.121 662.273 172.638 661.959 173.071C661.577 173.576 661.082 173.985 660.513 174.264L655.475 176.923L654.49 175.06L659.242 172.551C659.707 172.34 660.074 171.958 660.267 171.485C660.338 171.258 660.361 171.019 660.333 170.784C660.306 170.548 660.228 170.321 660.106 170.117C659.949 169.805 659.713 169.539 659.423 169.345C659.145 169.161 658.819 169.062 658.486 169.061C658.103 169.063 657.727 169.16 657.392 169.345Z" fill="#163156"></path><defs><filter id="filter0_dd_232_3216" x="56.8507" y="24" width="470.781" height="335.178" filterUnits="userSpaceOnUse" color-interpolation-filters="sRGB"><feFlood flood-opacity="0" result="BackgroundImageFix"></feFlood><feColorMatrix in="SourceAlpha" type="matrix" values="0 0 0 0 0 0 0 0 0 0 0 0 0 0 0 0 0 0 127 0" result="hardAlpha"></feColorMatrix><feMorphology radius="4.45995" operator="erode" in="SourceAlpha" result="effect1_dropShadow_232_3216"></feMorphology><feOffset dy="8.9199"></feOffset><feGaussianBlur stdDeviation="4.45995"></feGaussianBlur><feColorMatrix type="matrix" values="0 0 0 0 0.0627451 0 0 0 0 0.0941176 0 0 0 0 0.156863 0 0 0 0.03 0"></feColorMatrix><feBlend mode="normal" in2="BackgroundImageFix" result="effect1_dropShadow_232_3216"></feBlend><feColorMatrix in="SourceAlpha" type="matrix" values="0 0 0 0 0 0 0 0 0 0 0 0 0 0 0 0 0 0 127 0" result="hardAlpha"></feColorMatrix><feMorphology radius="4.45995" operator="erode" in="SourceAlpha" result="effect2_dropShadow_232_3216"></feMorphology><feOffset dy="22.2997"></feOffset><feGaussianBlur stdDeviation="13.3798"></feGaussianBlur><feColorMatrix type="matrix" values="0 0 0 0 0.0627451 0 0 0 0 0.0941176 0 0 0 0 0.156863 0 0 0 0.08 0"></feColorMatrix><feBlend mode="normal" in2="effect1_dropShadow_232_3216" result="effect2_dropShadow_232_3216"></feBlend><feBlend mode="normal" in="SourceGraphic" in2="effect2_dropShadow_232_3216" result="shape"></feBlend></filter><filter id="filter1_dd_232_3216" x="443.378" y="151.474" width="261.092" height="245.868" filterUnits="userSpaceOnUse" color-interpolation-filters="sRGB"><feFlood flood-opacity="0" result="BackgroundImageFix"></feFlood><feColorMatrix in="SourceAlpha" type="matrix" values="0 0 0 0 0 0 0 0 0 0 0 0 0 0 0 0 0 0 127 0" result="hardAlpha"></feColorMatrix><feMorphology radius="4.45995" operator="erode" in="SourceAlpha" result="effect1_dropShadow_232_3216"></feMorphology><feOffset dy="8.9199"></feOffset><feGaussianBlur stdDeviation="4.45995"></feGaussianBlur><feColorMatrix type="matrix" values="0 0 0 0 0.0627451 0 0 0 0 0.0941176 0 0 0 0 0.156863 0 0 0 0.03 0"></feColorMatrix><feBlend mode="normal" in2="BackgroundImageFix" result="effect1_dropShadow_232_3216"></feBlend><feColorMatrix in="SourceAlpha" type="matrix" values="0 0 0 0 0 0 0 0 0 0 0 0 0 0 0 0 0 0 127 0" result="hardAlpha"></feColorMatrix><feMorphology radius="4.45995" operator="erode" in="SourceAlpha" result="effect2_dropShadow_232_3216"></feMorphology><feOffset dy="22.2997"></feOffset><feGaussianBlur stdDeviation="13.3798"></feGaussianBlur><feColorMatrix type="matrix" values="0 0 0 0 0.0627451 0 0 0 0 0.0941176 0 0 0 0 0.156863 0 0 0 0.08 0"></feColorMatrix><feBlend mode="normal" in2="effect1_dropShadow_232_3216" result="effect2_dropShadow_232_3216"></feBlend><feBlend mode="normal" in="SourceGraphic" in2="effect2_dropShadow_232_3216" result="shape"></feBlend></filter></defs></svg> 