<?xml version="1.0" encoding="UTF-8"?> <svg xmlns="http://www.w3.org/2000/svg" width="620" height="384" viewBox="0 0 620 384" fill="none"><path d="M481.5 200V129C481.5 124.361 477.739 120.6 473.1 120.6H378.125C373.486 120.6 369.725 116.839 369.725 112.2V42.8999C369.725 38.2607 365.964 34.4999 361.325 34.4999H237.251C232.612 34.4999 228.851 38.2607 228.851 42.8999V74" stroke="#73839A" stroke-width="1.05" stroke-dasharray="2.1 2.1"></path><path d="M187.351 142L187.351 86.4C187.351 81.7608 183.59 78 178.951 78L125.351 78" stroke="#73839A" stroke-width="1.05" stroke-dasharray="2.1 2.1"></path><path d="M333.351 153L413.951 153C418.59 153 422.351 149.239 422.351 144.6L422.351 122" stroke="#73839A" stroke-width="1.05" stroke-dasharray="2.1 2.1"></path><path d="M146.175 256.65H157.246V267.721H146.175V256.65Z" fill="#77CDC9"></path><path d="M146.127 222.918H157.198V233.988H146.127V222.918Z" fill="#F04E23"></path><path d="M146.127 189.139H157.198V200.21H146.127V189.139Z" fill="#A2ADBB"></path><path d="M123.816 256.649H134.886V267.72H123.816V256.649Z" fill="#1CACA5"></path><path d="M123.816 239.807H134.887V250.877H123.816V239.807Z" fill="#1CACA5"></path><path d="M123.816 206.03H134.886V217.101H123.816V206.03Z" fill="#C43F1C"></path><path d="M73.2368 197.001V191.574C73.2368 190.011 71.9778 188.752 70.4149 188.752H64.9883C63.4254 188.752 62.1664 190.011 62.1664 191.574V197.001C62.1664 198.563 63.4254 199.822 64.9883 199.822H70.4149C71.9344 199.822 73.2368 198.563 73.2368 197.001Z" fill="#F04E23"></path><path d="M108.27 256.649H119.34V267.72H108.27V256.649Z" fill="#F04E23"></path><path d="M108.27 206.03H119.34V217.101H108.27V206.03Z" fill="#1CACA5"></path><path d="M92.6888 256.692H103.759V267.762H92.6888V256.692Z" fill="#A2ADBB"></path><path d="M92.6888 239.806H103.759V250.876H92.6888V239.806Z" fill="#1CACA5"></path><path d="M103.759 230.993V225.913C103.759 224.264 102.413 222.918 100.764 222.918H95.6844C94.0347 222.918 92.6888 224.264 92.6888 225.913V230.993C92.6888 232.642 94.0347 233.988 95.6844 233.988H100.764C102.413 233.988 103.759 232.642 103.759 230.993Z" fill="#1CACA5"></path><path d="M92.6888 189.139H103.759V200.21H92.6888V189.139Z" fill="#1CACA5"></path><path d="M77.1444 256.65H88.2148V267.721H77.1444V256.65Z" fill="#1CACA5"></path><path d="M232.963 256.692H244.033V267.762H232.963V256.692Z" fill="#2E4667"></path><path d="M77.1444 206.03H88.2148V217.101H77.1444V206.03Z" fill="#F04E23"></path><path d="M72.6299 264.55V259.861C72.6299 258.081 71.1972 256.692 69.4607 256.692H64.772C62.9921 256.692 61.6028 258.125 61.6028 259.861V264.55C61.6028 266.33 63.0355 267.719 64.772 267.719H69.4607C71.2407 267.719 72.6299 266.286 72.6299 264.55Z" fill="#F04E23"></path><path d="M258.918 164H269.988V175.07H258.918V164Z" fill="#A2ADBB"></path><path d="M325.351 148H336.421V159.07H325.351V148Z" fill="#A2ADBB"></path><path d="M227.793 160.923H238.863V171.993H227.793V160.923Z" fill="#2E4667"></path><path d="M72.6299 213.715V209.417C72.6299 207.55 71.1104 206.03 69.2436 206.03H64.9457C63.0789 206.03 61.5594 207.55 61.5594 209.417V213.715C61.5594 215.581 63.0789 217.101 64.9457 217.101H69.2436C71.1104 217.101 72.6299 215.581 72.6299 213.715Z" fill="#77CDC9"></path><path d="M46.0174 256.649H57.0879V267.72H46.0174V256.649Z" fill="#2E4667"></path><path d="M46.0174 239.806H57.0879V250.876H46.0174V239.806Z" fill="#1CACA5"></path><path d="M57.0879 230.909V225.96C57.0879 224.267 55.6986 222.878 54.0055 222.878H49.0564C47.3633 222.878 45.974 224.267 45.974 225.96V230.909C45.974 232.602 47.3633 233.991 49.0564 233.991H54.0055C55.6986 233.991 57.0879 232.602 57.0879 230.909Z" fill="#F04E23"></path><path d="M46.0174 189.139H57.0879V200.21H46.0174V189.139Z" fill="#2E4667"></path><path d="M40.5942 265.201V259.253C40.5942 257.821 39.4655 256.692 38.0328 256.692H32.0852C30.6525 256.692 29.5238 257.821 29.5238 259.253V265.201C29.5238 266.634 30.6525 267.762 32.0852 267.762H38.0328C39.4655 267.762 40.5942 266.59 40.5942 265.201Z" fill="#C43F1C"></path><path d="M40.5942 247.795V242.889C40.5942 241.196 39.205 239.807 37.5119 239.807H32.6061C30.913 239.807 29.5238 241.196 29.5238 242.889V247.795C29.5238 249.488 30.913 250.877 32.6061 250.877H37.5119C39.2484 250.877 40.5942 249.488 40.5942 247.795Z" fill="#1CACA5"></path><path d="M40.5942 213.932V209.2C40.5942 207.463 39.1616 206.03 37.425 206.03H32.693C30.9564 206.03 29.5238 207.463 29.5238 209.2V213.932C29.5238 215.668 30.9564 217.101 32.693 217.101H37.425C39.1616 217.101 40.5942 215.712 40.5942 213.932Z" fill="#A2ADBB"></path><path d="M40.5942 196.823V192.525C40.5942 190.659 39.0747 189.139 37.208 189.139H32.91C31.0433 189.139 29.5238 190.659 29.5238 192.525V196.823C29.5238 198.69 31.0433 200.21 32.91 200.21H37.208C39.0747 200.21 40.5942 198.69 40.5942 196.823Z" fill="#1CACA5"></path><path d="M123.816 172.254H134.887V183.325H123.816V172.254Z" fill="#2E4667"></path><path d="M92.6888 172.298H103.759V183.368H92.6888V172.298Z" fill="#1CACA5"></path><path d="M56.7017 180.85V174.729C56.7017 173.383 55.5729 172.254 54.2271 172.254H48.0624C46.7165 172.254 45.5878 173.383 45.5878 174.729V180.85C45.5878 182.196 46.7165 183.325 48.0624 183.325H54.1837C55.5729 183.325 56.7017 182.239 56.7017 180.85Z" fill="#1CACA5"></path><path d="M146.175 155.365H157.246V166.436H146.175V155.365Z" fill="#1CACA5"></path><path d="M123.856 155.409H134.927V166.48H123.856V155.409Z" fill="#C43F1C"></path><path d="M108.27 155.365H119.34V166.436H108.27V155.365Z" fill="#1CACA5"></path><path d="M40.6372 163.137V158.709C40.6372 156.885 39.1612 155.409 37.3378 155.409H32.9096C31.0862 155.409 29.6102 156.885 29.6102 158.709V163.137C29.6102 164.96 31.0862 166.436 32.9096 166.436H37.3378C39.1612 166.48 40.6372 165.004 40.6372 163.137Z" fill="#77CDC9"></path><path d="M182.029 138.479H193.099V149.549H182.029V138.479Z" fill="#2E4667"></path><path d="M273.106 267.873C273.106 270.93 270.628 273.408 267.571 273.408C264.514 273.408 262.036 270.93 262.036 267.873C262.036 264.816 264.514 262.337 267.571 262.337C270.628 262.337 273.106 264.816 273.106 267.873Z" fill="#2E4667"></path><path d="M209.736 245.449H220.806V256.519H209.736V245.449Z" fill="#1CACA5"></path><path d="M162.015 256.823H173.086V267.893H162.015V256.823Z" fill="#1CACA5"></path><path d="M204.351 228.604H215.421V239.675H204.351V228.604Z" fill="#A2ADBB"></path><path d="M193.102 172.385H204.173V183.456H193.102V172.385Z" fill="#1CACA5"></path><path d="M175.783 240.761H186.853V251.831H175.783V240.761Z" fill="#C43F1C"></path><path d="M238.351 228.56H249.421V239.631H238.351V228.56Z" fill="#F04E23"></path><path d="M223.351 72H234.421V83.0704H223.351V72Z" fill="#C43F1C"></path><path d="M108.269 138.479H119.34V149.549H108.269V138.479Z" fill="#1CACA5"></path><path d="M77.1449 138.521H88.2153V149.591H77.1449V138.521Z" fill="#C43F1C"></path><path d="M72.6738 146.422V141.647C72.6738 139.91 71.2846 138.521 69.5481 138.521H64.7726C63.036 138.521 61.6468 139.91 61.6468 141.647V146.422C61.6468 148.159 63.036 149.548 64.7726 149.548H69.5481C71.2412 149.548 72.6738 148.159 72.6738 146.422Z" fill="#A2ADBB"></path><path d="M57.0879 129.493V124.805C57.0879 123.025 55.6552 121.636 53.9187 121.636H49.23C47.4501 121.636 46.0609 123.068 46.0609 124.805V129.493C46.0609 131.273 47.4935 132.663 49.23 132.663H53.9187C55.6552 132.706 57.0879 131.273 57.0879 129.493Z" fill="#77CDC9"></path><path d="M35.382 234.726C32.0972 234.726 29.4343 232.063 29.4343 228.778C29.4343 225.493 32.0972 222.831 35.382 222.831C38.6668 222.831 41.3296 225.493 41.3296 228.778C41.3296 232.063 38.6668 234.726 35.382 234.726Z" fill="#163156"></path><path d="M34.9484 184.757C31.6636 184.757 29.0007 182.095 29.0007 178.81C29.0007 175.525 31.6636 172.862 34.9484 172.862C38.2332 172.862 40.896 175.525 40.896 178.81C40.896 182.095 38.2332 184.757 34.9484 184.757Z" fill="#F04E23"></path><path d="M35.382 149.81C32.0972 149.81 29.4343 147.147 29.4343 143.863C29.4343 140.578 32.0972 137.915 35.382 137.915C38.6668 137.915 41.3296 140.578 41.3296 143.863C41.3296 147.147 38.6668 149.81 35.382 149.81Z" fill="#49BDB7"></path><path d="M133.235 144.73C133.235 143.08 132.15 141.951 130.587 141.951C129.024 141.951 127.982 143.08 127.982 144.73C127.982 146.336 128.981 147.508 130.631 147.508C132.193 147.552 133.235 146.336 133.235 144.73Z" fill="#F04E23"></path><g filter="url(#filter0_dd_180_74260)"><path fill-rule="evenodd" clip-rule="evenodd" d="M30.8186 315.997C30.2421 316.572 29.7847 317.256 29.4727 318.008C29.1606 318.76 29 319.567 29 320.381C29 321.196 29.1606 322.002 29.4727 322.755C29.7847 323.507 30.2421 324.19 30.8186 324.766L43.2344 337.181C43.8097 337.758 44.4932 338.215 45.2455 338.527C45.9978 338.839 46.8043 339 47.6188 339C48.4333 339 49.2398 338.839 49.9921 338.527C50.7444 338.215 51.4278 337.758 52.0032 337.181C52.5862 336.61 53.0493 335.928 53.3654 335.175C53.6816 334.422 53.8444 333.614 53.8444 332.797C53.8444 331.981 53.6816 331.172 53.3654 330.419C53.0493 329.667 52.5862 328.984 52.0032 328.413L39.6276 315.997C38.4587 314.83 36.8746 314.175 35.2231 314.175C33.5716 314.175 31.9875 314.83 30.8186 315.997Z" fill="white"></path><path fill-rule="evenodd" clip-rule="evenodd" d="M37.0264 330.974L43.2343 337.181C43.8096 337.758 44.493 338.215 45.2454 338.527C45.9977 338.839 46.8042 339 47.6187 339C48.4332 339 49.2396 338.839 49.992 338.527C50.7443 338.215 51.4277 337.758 52.0031 337.181C52.5861 336.61 53.0492 335.928 53.3653 335.175C53.6815 334.422 53.8443 333.614 53.8443 332.797C53.8443 331.981 53.6815 331.172 53.3653 330.419C53.0492 329.667 52.5861 328.984 52.0031 328.413L45.8354 322.205L37.0264 330.974Z" fill="#F04E23"></path><path opacity="0.2" fill-rule="evenodd" clip-rule="evenodd" d="M30.926 321.803C30.822 321.908 30.7637 322.05 30.7637 322.198C30.7637 322.346 30.822 322.488 30.926 322.594L32.5081 324.189C32.6135 324.293 32.7556 324.352 32.9036 324.352C33.0517 324.352 33.1938 324.293 33.2992 324.189C33.3523 324.138 33.3945 324.077 33.4234 324.009C33.4523 323.941 33.4671 323.868 33.4671 323.794C33.4671 323.72 33.4523 323.647 33.4234 323.579C33.3945 323.511 33.3523 323.449 33.2992 323.398L31.717 321.803C31.6116 321.699 31.4695 321.64 31.3215 321.64C31.1734 321.64 31.0313 321.699 30.926 321.803Z" fill="white"></path><path opacity="0.2" fill-rule="evenodd" clip-rule="evenodd" d="M34.1301 325.02C34.0261 325.126 33.9678 325.268 33.9678 325.416C33.9678 325.564 34.0261 325.706 34.1301 325.811L36.986 328.667C37.0914 328.771 37.2335 328.83 37.3815 328.83C37.5296 328.83 37.6717 328.771 37.7771 328.667C37.881 328.562 37.9394 328.42 37.9394 328.272C37.9394 328.124 37.881 327.982 37.7771 327.876L34.9346 325.02C34.8269 324.915 34.6826 324.857 34.5323 324.857C34.3821 324.857 34.2377 324.915 34.1301 325.02Z" fill="white"></path><path opacity="0.2" fill-rule="evenodd" clip-rule="evenodd" d="M39.3996 330.29C39.2956 330.395 39.2373 330.537 39.2373 330.685C39.2373 330.834 39.2956 330.976 39.3996 331.081L44.9639 336.645C45.0693 336.749 45.2114 336.808 45.3595 336.808C45.5075 336.808 45.6496 336.749 45.755 336.645C45.8081 336.594 45.8504 336.533 45.8792 336.465C45.9081 336.397 45.9229 336.324 45.9229 336.25C45.9229 336.176 45.9081 336.103 45.8792 336.035C45.8504 335.967 45.8081 335.906 45.755 335.854L40.2041 330.29C40.0964 330.185 39.9521 330.126 39.8018 330.126C39.6516 330.126 39.5073 330.185 39.3996 330.29Z" fill="white"></path></g><g filter="url(#filter1_dd_180_74260)"><path fill-rule="evenodd" clip-rule="evenodd" d="M98.8656 331.29C99.2721 331.996 99.8139 332.614 100.46 333.11C101.106 333.606 101.843 333.97 102.63 334.181C103.417 334.392 104.237 334.446 105.045 334.339C105.852 334.232 106.631 333.967 107.336 333.559L122.542 324.78C123.248 324.373 123.866 323.832 124.362 323.186C124.858 322.54 125.222 321.802 125.433 321.016C125.644 320.229 125.698 319.408 125.591 318.601C125.484 317.793 125.219 317.015 124.811 316.31C124.41 315.599 123.871 314.975 123.226 314.475C122.58 313.975 121.842 313.608 121.053 313.397C120.264 313.185 119.441 313.133 118.632 313.244C117.823 313.355 117.044 313.625 116.341 314.04L101.146 322.781C99.716 323.608 98.673 324.968 98.2456 326.564C97.8181 328.159 98.0411 329.859 98.8656 331.29Z" fill="white"></path><path fill-rule="evenodd" clip-rule="evenodd" d="M114.938 329.17L122.542 324.78C123.247 324.373 123.866 323.832 124.362 323.186C124.858 322.54 125.222 321.802 125.433 321.016C125.644 320.229 125.697 319.408 125.591 318.601C125.484 317.793 125.219 317.015 124.811 316.31C124.41 315.599 123.871 314.975 123.225 314.475C122.58 313.975 121.841 313.608 121.053 313.397C120.264 313.185 119.441 313.134 118.632 313.244C117.823 313.355 117.044 313.625 116.341 314.04L108.748 318.391L114.938 329.17Z" fill="#2E4667"></path><path opacity="0.2" fill-rule="evenodd" clip-rule="evenodd" d="M104.502 332.689C104.577 332.817 104.699 332.91 104.842 332.948C104.985 332.986 105.137 332.967 105.266 332.894L107.217 331.778C107.344 331.704 107.437 331.581 107.476 331.438C107.514 331.295 107.495 331.143 107.421 331.014C107.386 330.95 107.337 330.893 107.279 330.848C107.221 330.802 107.154 330.769 107.083 330.75C107.011 330.731 106.937 330.726 106.864 330.736C106.791 330.747 106.721 330.771 106.657 330.81L104.707 331.925C104.579 332 104.486 332.122 104.447 332.265C104.409 332.408 104.429 332.56 104.502 332.689Z" fill="white"></path><path opacity="0.2" fill-rule="evenodd" clip-rule="evenodd" d="M108.439 330.427C108.514 330.554 108.636 330.647 108.779 330.686C108.922 330.724 109.074 330.705 109.203 330.631L112.701 328.612C112.828 328.537 112.921 328.415 112.96 328.272C112.998 328.129 112.978 327.977 112.905 327.848C112.83 327.72 112.708 327.627 112.565 327.589C112.422 327.55 112.27 327.57 112.141 327.643L108.647 329.65C108.518 329.726 108.424 329.851 108.385 329.996C108.346 330.141 108.365 330.296 108.439 330.427Z" fill="white"></path><path opacity="0.2" fill-rule="evenodd" clip-rule="evenodd" d="M114.893 326.7C114.968 326.828 115.09 326.921 115.233 326.959C115.376 326.998 115.528 326.978 115.657 326.905L122.472 322.97C122.6 322.896 122.693 322.773 122.731 322.63C122.769 322.487 122.75 322.335 122.677 322.206C122.641 322.142 122.592 322.085 122.534 322.04C122.476 321.994 122.409 321.961 122.338 321.942C122.267 321.923 122.192 321.918 122.119 321.928C122.046 321.939 121.976 321.964 121.913 322.002L115.101 325.923C114.972 326 114.878 326.124 114.839 326.269C114.8 326.415 114.819 326.569 114.893 326.7Z" fill="white"></path></g><g filter="url(#filter2_dd_180_74260)"><path fill-rule="evenodd" clip-rule="evenodd" d="M172.632 315.997C172.056 316.572 171.598 317.256 171.286 318.008C170.974 318.76 170.813 319.567 170.813 320.381C170.813 321.196 170.974 322.002 171.286 322.755C171.598 323.507 172.056 324.19 172.632 324.766L185.048 337.181C185.623 337.758 186.307 338.215 187.059 338.527C187.811 338.839 188.618 339 189.432 339C190.247 339 191.053 338.839 191.806 338.527C192.558 338.215 193.241 337.758 193.817 337.181C194.4 336.61 194.863 335.928 195.179 335.175C195.495 334.422 195.658 333.614 195.658 332.797C195.658 331.981 195.495 331.172 195.179 330.419C194.863 329.667 194.4 328.984 193.817 328.413L181.441 315.997C180.272 314.83 178.688 314.175 177.037 314.175C175.385 314.175 173.801 314.83 172.632 315.997Z" fill="#49BDB7"></path><path fill-rule="evenodd" clip-rule="evenodd" d="M178.841 330.974L185.049 337.181C185.624 337.758 186.307 338.215 187.06 338.527C187.812 338.839 188.619 339 189.433 339C190.248 339 191.054 338.839 191.806 338.527C192.559 338.215 193.242 337.758 193.818 337.181C194.401 336.61 194.864 335.928 195.18 335.175C195.496 334.422 195.659 333.614 195.659 332.797C195.659 331.981 195.496 331.172 195.18 330.419C194.864 329.667 194.401 328.984 193.818 328.413L187.65 322.205L178.841 330.974Z" fill="white"></path><path opacity="0.2" fill-rule="evenodd" clip-rule="evenodd" d="M172.739 321.803C172.635 321.908 172.577 322.05 172.577 322.198C172.577 322.346 172.635 322.488 172.739 322.594L174.322 324.189C174.427 324.293 174.569 324.352 174.717 324.352C174.865 324.352 175.007 324.293 175.113 324.189C175.166 324.138 175.208 324.077 175.237 324.009C175.266 323.941 175.281 323.868 175.281 323.794C175.281 323.72 175.266 323.647 175.237 323.579C175.208 323.511 175.166 323.449 175.113 323.398L173.531 321.803C173.425 321.699 173.283 321.64 173.135 321.64C172.987 321.64 172.845 321.699 172.739 321.803Z" fill="white"></path><path opacity="0.2" fill-rule="evenodd" clip-rule="evenodd" d="M175.945 325.02C175.841 325.126 175.782 325.268 175.782 325.416C175.782 325.564 175.841 325.706 175.945 325.811L178.8 328.667C178.906 328.771 179.048 328.83 179.196 328.83C179.344 328.83 179.486 328.771 179.592 328.667C179.695 328.562 179.754 328.42 179.754 328.272C179.754 328.124 179.695 327.982 179.592 327.876L176.749 325.02C176.641 324.915 176.497 324.857 176.347 324.857C176.197 324.857 176.052 324.915 175.945 325.02Z" fill="white"></path><path opacity="0.2" fill-rule="evenodd" clip-rule="evenodd" d="M181.214 330.29C181.11 330.395 181.052 330.537 181.052 330.685C181.052 330.834 181.11 330.976 181.214 331.081L186.778 336.645C186.884 336.749 187.026 336.808 187.174 336.808C187.322 336.808 187.464 336.749 187.569 336.645C187.623 336.594 187.665 336.533 187.694 336.465C187.723 336.397 187.737 336.324 187.737 336.25C187.737 336.176 187.723 336.103 187.694 336.035C187.665 335.967 187.623 335.906 187.569 335.854L182.019 330.29C181.911 330.185 181.767 330.126 181.616 330.126C181.466 330.126 181.322 330.185 181.214 330.29Z" fill="white"></path></g><g filter="url(#filter3_dd_180_74260)"><rect x="589.734" y="125.45" width="54.3567" height="96.6342" rx="4.2" transform="rotate(90 589.734 125.45)" fill="white"></rect></g><path fill-rule="evenodd" clip-rule="evenodd" d="M578.727 139.145C578.718 140.705 578.247 142.227 577.374 143.52C576.501 144.812 575.265 145.818 573.821 146.408C572.377 146.999 570.791 147.149 569.262 146.839C567.733 146.529 566.33 145.774 565.23 144.668C564.131 143.561 563.383 142.154 563.082 140.624C562.781 139.093 562.94 137.508 563.539 136.067C564.138 134.627 565.15 133.396 566.448 132.531C567.745 131.665 569.27 131.203 570.83 131.203C571.868 131.201 572.896 131.404 573.855 131.8C574.814 132.196 575.685 132.778 576.419 133.511C577.152 134.245 577.734 135.116 578.13 136.075C578.526 137.034 578.729 138.062 578.727 139.1L578.727 139.145ZM517.244 163.817C517.244 165.376 516.781 166.9 515.915 168.196C515.049 169.492 513.818 170.502 512.378 171.099C510.938 171.695 509.353 171.851 507.824 171.547C506.295 171.243 504.891 170.492 503.789 169.39C502.686 168.288 501.936 166.883 501.632 165.355C501.327 163.826 501.484 162.241 502.08 160.801C502.677 159.36 503.687 158.13 504.983 157.263C506.279 156.397 507.803 155.935 509.362 155.935C511.451 155.939 513.453 156.771 514.931 158.248C516.408 159.725 517.24 161.728 517.244 163.817ZM517.244 139.145C517.232 140.701 516.759 142.219 515.886 143.507C515.013 144.795 513.778 145.796 512.336 146.384C510.895 146.971 509.312 147.118 507.787 146.807C506.263 146.496 504.864 145.741 503.768 144.636C502.671 143.532 501.927 142.127 501.627 140.6C501.328 139.073 501.488 137.491 502.086 136.055C502.684 134.618 503.695 133.39 504.989 132.527C506.284 131.664 507.806 131.203 509.362 131.203C510.399 131.201 511.426 131.404 512.384 131.8C513.342 132.197 514.212 132.778 514.945 133.512C515.677 134.246 516.257 135.118 516.652 136.076C517.046 137.035 517.248 138.063 517.244 139.1L517.244 139.145ZM537.733 163.817C537.733 165.376 537.271 166.9 536.405 168.196C535.539 169.492 534.308 170.502 532.867 171.099C531.427 171.695 529.843 171.851 528.314 171.547C526.785 171.243 525.38 170.492 524.278 169.39C523.176 168.288 522.425 166.883 522.121 165.355C521.817 163.826 521.973 162.241 522.57 160.801C523.166 159.36 524.176 158.13 525.472 157.263C526.769 156.397 528.292 155.935 529.851 155.935C531.94 155.939 533.943 156.771 535.42 158.248C536.897 159.725 537.729 161.728 537.733 163.817ZM537.733 139.145C537.721 140.701 537.249 142.219 536.375 143.507C535.502 144.795 534.267 145.796 532.826 146.384C531.385 146.971 529.802 147.118 528.277 146.807C526.752 146.496 525.353 145.741 524.257 144.636C523.161 143.532 522.416 142.127 522.117 140.6C521.818 139.073 521.977 137.491 522.575 136.055C523.174 134.618 524.184 133.39 525.479 132.527C526.774 131.664 528.295 131.203 529.851 131.203C530.888 131.201 531.915 131.404 532.873 131.8C533.831 132.197 534.702 132.778 535.434 133.512C536.167 134.246 536.747 135.118 537.141 136.076C537.536 137.035 537.737 138.063 537.733 139.1L537.733 139.145ZM558.238 163.817C558.241 165.379 557.78 166.908 556.914 168.208C556.048 169.509 554.816 170.523 553.373 171.123C551.931 171.723 550.342 171.882 548.809 171.579C547.277 171.276 545.868 170.525 544.762 169.421C543.656 168.317 542.903 166.91 542.597 165.378C542.291 163.846 542.446 162.257 543.044 160.813C543.641 159.37 544.653 158.135 545.952 157.267C547.251 156.399 548.778 155.935 550.341 155.935C552.431 155.939 554.435 156.77 555.915 158.247C557.395 159.724 558.23 161.726 558.238 163.817ZM558.238 139.145C558.229 140.705 557.758 142.227 556.885 143.52C556.012 144.812 554.775 145.818 553.331 146.408C551.888 146.999 550.301 147.149 548.773 146.839C547.244 146.529 545.841 145.774 544.741 144.668C543.641 143.561 542.894 142.154 542.593 140.624C542.291 139.093 542.45 137.508 543.049 136.067C543.648 134.627 544.661 133.396 545.958 132.531C547.256 131.665 548.781 131.203 550.341 131.203C551.378 131.201 552.406 131.404 553.365 131.8C554.324 132.196 555.195 132.778 555.929 133.511C556.663 134.245 557.244 135.116 557.641 136.075C558.037 137.034 558.24 138.062 558.238 139.1L558.238 139.145ZM578.727 163.817C578.73 165.379 578.269 166.908 577.404 168.208C576.538 169.509 575.305 170.523 573.863 171.123C572.42 171.723 570.832 171.882 569.299 171.579C567.766 171.276 566.358 170.525 565.252 169.421C564.146 168.317 563.392 166.91 563.086 165.378C562.78 163.846 562.936 162.257 563.533 160.813C564.13 159.37 565.142 158.135 566.441 157.267C567.74 156.399 569.268 155.935 570.83 155.935C572.921 155.939 574.925 156.77 576.404 158.247C577.884 159.724 578.719 161.726 578.727 163.817Z" fill="#E8EAEE"></path><path fill-rule="evenodd" clip-rule="evenodd" d="M580.222 140.036C580.222 141.594 579.759 143.118 578.893 144.414C578.027 145.711 576.796 146.721 575.356 147.317C573.916 147.914 572.331 148.07 570.802 147.766C569.273 147.462 567.869 146.711 566.767 145.609C565.664 144.507 564.914 143.102 564.61 141.573C564.306 140.044 564.462 138.46 565.058 137.019C565.655 135.579 566.665 134.348 567.961 133.482C569.257 132.616 570.781 132.154 572.34 132.154C574.43 132.154 576.435 132.984 577.913 134.462C579.391 135.941 580.222 137.945 580.222 140.036Z" fill="#49BDB7"></path><path fill-rule="evenodd" clip-rule="evenodd" d="M572.989 133.981L572.989 146.06C572.982 146.242 572.906 146.414 572.778 146.543C572.649 146.672 572.477 146.747 572.295 146.755C572.117 146.747 571.95 146.67 571.828 146.54C571.707 146.41 571.641 146.238 571.645 146.06L571.645 133.981C571.641 133.803 571.707 133.631 571.828 133.501C571.95 133.371 572.117 133.294 572.295 133.286C572.478 133.29 572.652 133.365 572.782 133.494C572.911 133.623 572.985 133.798 572.989 133.981Z" fill="#77CDC9"></path><path fill-rule="evenodd" clip-rule="evenodd" d="M580.222 164.677C580.219 166.236 579.754 167.758 578.886 169.052C578.018 170.346 576.786 171.354 575.346 171.948C573.905 172.543 572.321 172.697 570.793 172.391C569.265 172.085 567.862 171.333 566.761 170.23C565.661 169.127 564.911 167.723 564.609 166.194C564.306 164.666 564.463 163.082 565.06 161.643C565.657 160.203 566.667 158.973 567.963 158.108C569.258 157.242 570.782 156.781 572.34 156.781C573.376 156.781 574.402 156.985 575.36 157.382C576.317 157.779 577.186 158.361 577.919 159.094C578.651 159.828 579.231 160.699 579.626 161.657C580.021 162.615 580.224 163.641 580.222 164.677Z" fill="#49BDB7"></path><path fill-rule="evenodd" clip-rule="evenodd" d="M572.989 158.607L572.989 170.687C572.989 170.871 572.916 171.048 572.786 171.178C572.656 171.308 572.479 171.381 572.295 171.381C572.205 171.381 572.117 171.363 572.035 171.328C571.953 171.292 571.88 171.241 571.819 171.175C571.758 171.11 571.711 171.033 571.681 170.949C571.651 170.865 571.639 170.776 571.645 170.687L571.645 158.607C571.645 158.522 571.662 158.438 571.695 158.359C571.727 158.28 571.775 158.209 571.836 158.148C571.896 158.088 571.967 158.04 572.046 158.008C572.125 157.975 572.209 157.958 572.295 157.958C572.472 157.954 572.645 158.02 572.774 158.141C572.904 158.262 572.981 158.43 572.989 158.607Z" fill="#77CDC9"></path><path fill-rule="evenodd" clip-rule="evenodd" d="M559.732 140.036C559.735 141.599 559.274 143.128 558.408 144.429C557.541 145.729 556.308 146.744 554.865 147.344C553.421 147.943 551.832 148.101 550.299 147.797C548.765 147.492 547.357 146.74 546.252 145.635C545.146 144.529 544.394 143.121 544.09 141.588C543.786 140.054 543.943 138.465 544.543 137.022C545.142 135.578 546.157 134.345 547.458 133.478C548.759 132.612 550.288 132.151 551.851 132.154C553.941 132.154 555.946 132.984 557.424 134.462C558.902 135.941 559.732 137.945 559.732 140.036Z" fill="#49BDB7"></path><path fill-rule="evenodd" clip-rule="evenodd" d="M552.545 133.981L552.545 146.06C552.538 146.242 552.462 146.414 552.334 146.543C552.205 146.672 552.033 146.747 551.851 146.755C551.669 146.747 551.497 146.672 551.368 146.543C551.239 146.414 551.164 146.242 551.156 146.06L551.156 133.981C551.16 133.798 551.235 133.623 551.364 133.494C551.493 133.365 551.668 133.29 551.851 133.286C552.034 133.29 552.208 133.365 552.338 133.494C552.467 133.623 552.542 133.798 552.545 133.981Z" fill="#77CDC9"></path><path fill-rule="evenodd" clip-rule="evenodd" d="M559.732 164.677C559.732 166.24 559.269 167.767 558.4 169.066C557.532 170.365 556.298 171.377 554.854 171.975C553.41 172.572 551.822 172.727 550.289 172.421C548.757 172.115 547.35 171.362 546.246 170.256C545.143 169.15 544.392 167.742 544.089 166.209C543.786 164.676 543.944 163.088 544.544 161.645C545.144 160.202 546.159 158.97 547.459 158.104C548.76 157.238 550.288 156.778 551.851 156.781C552.887 156.781 553.913 156.985 554.87 157.382C555.828 157.779 556.697 158.361 557.429 159.094C558.161 159.828 558.742 160.699 559.137 161.657C559.532 162.615 559.734 163.641 559.732 164.677Z" fill="#49BDB7"></path><path fill-rule="evenodd" clip-rule="evenodd" d="M552.545 158.607L552.545 170.687C552.545 170.871 552.472 171.048 552.342 171.178C552.212 171.308 552.035 171.381 551.851 171.381C551.667 171.381 551.49 171.308 551.36 171.178C551.229 171.048 551.156 170.871 551.156 170.687L551.156 158.607C551.164 158.43 551.241 158.262 551.371 158.141C551.501 158.02 551.673 157.954 551.851 157.958C552.029 157.954 552.201 158.02 552.331 158.141C552.46 158.262 552.538 158.43 552.545 158.607Z" fill="#77CDC9"></path><path fill-rule="evenodd" clip-rule="evenodd" d="M539.243 140.036C539.246 141.599 538.785 143.128 537.919 144.429C537.052 145.729 535.819 146.744 534.375 147.344C532.932 147.943 531.343 148.101 529.809 147.797C528.276 147.492 526.868 146.74 525.762 145.635C524.657 144.529 523.905 143.121 523.601 141.588C523.296 140.054 523.454 138.465 524.054 137.022C524.653 135.578 525.668 134.345 526.969 133.478C528.269 132.612 529.798 132.151 531.361 132.154C533.452 132.154 535.457 132.984 536.935 134.462C538.413 135.941 539.243 137.945 539.243 140.036Z" fill="#49BDB7"></path><path fill-rule="evenodd" clip-rule="evenodd" d="M532.056 133.981L532.056 146.06C532.049 146.242 531.973 146.414 531.844 146.543C531.716 146.672 531.543 146.747 531.362 146.755C531.179 146.751 531.004 146.676 530.875 146.547C530.745 146.418 530.671 146.243 530.667 146.06L530.667 133.981C530.671 133.798 530.745 133.623 530.875 133.494C531.004 133.365 531.179 133.29 531.362 133.286C531.545 133.29 531.719 133.365 531.848 133.494C531.978 133.623 532.052 133.798 532.056 133.981Z" fill="#77CDC9"></path><path fill-rule="evenodd" clip-rule="evenodd" d="M539.243 164.677C539.243 166.24 538.78 167.767 537.911 169.066C537.043 170.365 535.809 171.377 534.365 171.975C532.921 172.572 531.332 172.727 529.8 172.421C528.268 172.115 526.861 171.362 525.757 170.256C524.653 169.15 523.902 167.742 523.599 166.209C523.296 164.676 523.455 163.088 524.055 161.645C524.655 160.202 525.669 158.97 526.97 158.104C528.271 157.238 529.799 156.778 531.361 156.781C532.398 156.781 533.424 156.985 534.381 157.382C535.338 157.779 536.208 158.361 536.94 159.094C537.672 159.828 538.252 160.699 538.648 161.657C539.043 162.615 539.245 163.641 539.243 164.677Z" fill="#49BDB7"></path><path fill-rule="evenodd" clip-rule="evenodd" d="M532.056 158.607L532.056 170.687C532.056 170.871 531.983 171.048 531.853 171.178C531.722 171.308 531.546 171.381 531.362 171.381C531.27 171.383 531.179 171.367 531.093 171.333C531.008 171.298 530.931 171.247 530.866 171.182C530.801 171.118 530.75 171.04 530.716 170.955C530.682 170.87 530.665 170.779 530.667 170.687L530.667 158.607C530.675 158.43 530.752 158.263 530.882 158.141C531.012 158.02 531.184 157.954 531.362 157.958C531.539 157.954 531.712 158.02 531.841 158.141C531.971 158.263 532.048 158.43 532.056 158.607Z" fill="#77CDC9"></path><path fill-rule="evenodd" clip-rule="evenodd" d="M518.754 140.036C518.757 141.599 518.296 143.128 517.429 144.429C516.563 145.729 515.33 146.744 513.886 147.344C512.442 147.943 510.853 148.101 509.32 147.797C507.787 147.492 506.378 146.74 505.273 145.635C504.168 144.529 503.415 143.121 503.111 141.588C502.807 140.054 502.965 138.465 503.564 137.022C504.164 135.578 505.178 134.345 506.479 133.478C507.78 132.612 509.309 132.151 510.872 132.154C512.963 132.154 514.967 132.984 516.445 134.462C517.923 135.941 518.754 137.945 518.754 140.036Z" fill="#49BDB7"></path><path fill-rule="evenodd" clip-rule="evenodd" d="M511.521 133.981L511.521 146.06C511.525 146.238 511.46 146.41 511.338 146.54C511.217 146.67 511.05 146.747 510.872 146.755C510.689 146.751 510.515 146.676 510.385 146.547C510.256 146.418 510.181 146.243 510.177 146.06L510.177 133.981C510.181 133.798 510.256 133.623 510.385 133.494C510.515 133.365 510.689 133.29 510.872 133.286C511.05 133.294 511.217 133.371 511.338 133.501C511.46 133.631 511.525 133.803 511.521 133.981Z" fill="#77CDC9"></path><path fill-rule="evenodd" clip-rule="evenodd" d="M518.754 164.677C518.754 166.24 518.29 167.767 517.422 169.066C516.554 170.365 515.319 171.377 513.876 171.975C512.432 172.572 510.843 172.727 509.311 172.421C507.779 172.115 506.372 171.362 505.268 170.256C504.164 169.15 503.413 167.742 503.11 166.209C502.807 164.676 502.966 163.088 503.566 161.645C504.166 160.202 505.18 158.97 506.481 158.104C507.781 157.238 509.31 156.778 510.872 156.781C511.908 156.781 512.935 156.985 513.892 157.382C514.849 157.779 515.719 158.361 516.451 159.094C517.183 159.828 517.763 160.699 518.158 161.657C518.553 162.615 518.756 163.641 518.754 164.677Z" fill="#49BDB7"></path><path fill-rule="evenodd" clip-rule="evenodd" d="M511.521 158.607L511.521 170.687C511.527 170.776 511.515 170.865 511.485 170.949C511.455 171.033 511.408 171.11 511.347 171.175C511.287 171.241 511.213 171.293 511.131 171.328C511.049 171.363 510.961 171.382 510.872 171.381C510.78 171.383 510.689 171.367 510.603 171.333C510.518 171.298 510.441 171.247 510.376 171.182C510.311 171.118 510.26 171.04 510.226 170.955C510.192 170.87 510.175 170.779 510.177 170.687L510.177 158.607C510.185 158.43 510.262 158.263 510.392 158.141C510.522 158.02 510.694 157.954 510.872 157.958C510.957 157.958 511.041 157.975 511.12 158.008C511.199 158.04 511.27 158.088 511.331 158.148C511.391 158.209 511.439 158.28 511.471 158.359C511.504 158.438 511.521 158.522 511.521 158.607Z" fill="#77CDC9"></path><path fill-rule="evenodd" clip-rule="evenodd" d="M587.832 152.342C587.83 152.462 587.804 152.581 587.756 152.691C587.708 152.801 587.638 152.9 587.551 152.983C587.464 153.066 587.361 153.131 587.248 153.174C587.136 153.216 587.016 153.236 586.896 153.232L495.667 153.232C495.547 153.236 495.427 153.216 495.315 153.174C495.202 153.131 495.099 153.066 495.012 152.983C494.925 152.9 494.855 152.801 494.807 152.691C494.759 152.581 494.733 152.462 494.731 152.342C494.733 152.221 494.759 152.103 494.807 151.992C494.855 151.882 494.925 151.783 495.012 151.7C495.099 151.617 495.202 151.552 495.315 151.509C495.427 151.467 495.547 151.447 495.667 151.451L586.896 151.451C587.016 151.447 587.136 151.467 587.248 151.509C587.361 151.552 587.464 151.617 587.551 151.7C587.638 151.783 587.708 151.882 587.756 151.992C587.804 152.103 587.83 152.221 587.832 152.342Z" fill="#E8EAEE"></path><g filter="url(#filter4_dd_180_74260)"><rect x="244" y="338.979" width="146.136" height="107.319" rx="7.86323" transform="rotate(-90 244 338.979)" fill="white"></rect></g><rect x="252.943" y="206.32" width="89.4322" height="2.98107" rx="1.49054" fill="#77CDC9"></rect><rect x="252.943" y="295.753" width="89.4322" height="2.98107" rx="1.49054" fill="#77CDC9"></rect><rect x="252.943" y="242.093" width="34.2817" height="2.98102" rx="1.49051" fill="#77CDC9"></rect><rect x="293.188" y="242.093" width="49.1869" height="2.98102" rx="1.49051" fill="#77CDC9"></rect><rect x="252.943" y="277.867" width="89.4322" height="2.98107" rx="1.49054" fill="#F04E23"></rect><rect x="252.943" y="224.207" width="19.3766" height="2.98102" rx="1.49051" fill="#77CDC9"></rect><rect x="278.283" y="224.207" width="29.8102" height="2.98102" rx="1.49051" fill="#F04E23"></rect><rect x="314.055" y="224.207" width="28.3197" height="2.98102" rx="1.49051" fill="#77CDC9"></rect><rect x="252.943" y="215.264" width="40.2438" height="2.98102" rx="1.49051" fill="#77CDC9"></rect><rect x="297.659" y="215.264" width="44.7153" height="2.98102" rx="1.49051" fill="#77CDC9"></rect><rect x="252.943" y="304.696" width="40.2438" height="2.98102" rx="1.49051" fill="#77CDC9"></rect><rect x="297.659" y="304.696" width="44.7153" height="2.98102" rx="1.49051" fill="#77CDC9"></rect><rect x="252.943" y="259.98" width="52.1679" height="2.98102" rx="1.49051" fill="#F04E23"></rect><rect x="311.075" y="259.98" width="31.3007" height="2.98102" rx="1.49051" fill="#77CDC9"></rect><rect x="252.943" y="313.639" width="52.1679" height="2.98102" rx="1.49051" fill="#F04E23"></rect><rect x="311.075" y="313.639" width="31.3007" height="2.98102" rx="1.49051" fill="#77CDC9"></rect><rect x="252.943" y="251.037" width="17.8861" height="2.98102" rx="1.49051" fill="#77CDC9"></rect><rect x="320.018" y="251.037" width="22.3577" height="2.98102" rx="1.49051" fill="#77CDC9"></rect><rect x="275.301" y="251.037" width="38.7533" height="2.98102" rx="1.49051" fill="#77CDC9"></rect><rect x="320.018" y="286.809" width="22.3577" height="2.98102" rx="1.49051" fill="#77CDC9"></rect><rect x="252.943" y="286.809" width="61.1109" height="2.98102" rx="1.49051" fill="#77CDC9"></rect><rect x="252.943" y="268.923" width="28.3197" height="2.98102" rx="1.49051" fill="#77CDC9"></rect><rect x="287.226" y="268.923" width="55.1489" height="2.98102" rx="1.49051" fill="#77CDC9"></rect><rect x="252.943" y="233.15" width="5.96204" height="2.98102" rx="1.49051" fill="#77CDC9"></rect><rect x="305.112" y="233.15" width="5.96204" height="2.98102" rx="1.49051" fill="#77CDC9"></rect><rect x="264.868" y="233.15" width="34.2817" height="2.98102" rx="1.49051" fill="#77CDC9"></rect><rect x="317.036" y="233.15" width="25.3387" height="2.98102" rx="1.49051" fill="#F04E23"></rect><rect x="252.943" y="322.583" width="28.3197" height="2.98102" rx="1.49051" fill="#77CDC9"></rect><rect x="287.226" y="322.583" width="55.1489" height="2.98102" rx="1.49051" fill="#77CDC9"></rect><path fill-rule="evenodd" clip-rule="evenodd" d="M293.137 186.363C293.478 186.363 293.694 185.986 293.561 185.671C293.132 184.657 293.02 183.541 293.24 182.465C293.459 181.389 294 180.4 294.793 179.624C295.587 178.848 296.598 178.32 297.698 178.106C298.799 177.893 299.94 178.003 300.976 178.423C302.013 178.843 302.899 179.554 303.522 180.467C304.145 181.379 304.478 182.452 304.478 183.55C304.477 183.976 304.427 184.396 304.33 184.805C304.157 185.527 304.639 186.363 305.382 186.363H307.763C308.064 186.363 308.349 186.505 308.529 186.747L309.527 188.088C309.707 188.331 309.991 188.473 310.293 188.473H313.829C314.356 188.473 314.784 188.901 314.784 189.428V195.311C314.784 195.839 314.356 196.267 313.829 196.267H283.773C283.245 196.267 282.817 195.839 282.817 195.311V189.428C282.817 188.901 283.245 188.473 283.773 188.473H287.309C287.611 188.473 287.896 188.33 288.076 188.088L289.073 186.748C289.253 186.505 289.537 186.363 289.839 186.363H293.137ZM297.526 181.684C297.903 181.437 298.347 181.306 298.801 181.306C299.409 181.307 299.992 181.543 300.422 181.964C300.852 182.385 301.094 182.955 301.095 183.55C301.095 183.993 300.96 184.427 300.708 184.796C300.456 185.165 300.098 185.453 299.679 185.623C299.259 185.792 298.798 185.837 298.353 185.75C297.908 185.664 297.499 185.45 297.179 185.136C296.858 184.822 296.639 184.423 296.551 183.987C296.462 183.552 296.508 183.101 296.681 182.691C296.855 182.281 297.149 181.93 297.526 181.684Z" fill="#49BDB7"></path><circle cx="421.7" cy="120.6" r="6.3" fill="#F04E23"></circle><circle cx="300.651" cy="34.3" r="6.3" fill="white" stroke="#F04E23" stroke-width="1.05"></circle><g filter="url(#filter5_dd_180_74260)"><rect width="67.7694" height="67.7694" rx="8" transform="matrix(1 0 0 -1 29 112.769)" fill="white"></rect></g><rect width="10.0399" height="10.0399" rx="1.05" transform="matrix(1 0 0 -1 39.04 102.729)" fill="#F04E23"></rect><rect width="10.0399" height="10.0399" rx="1.05" transform="matrix(1 0 0 -1 39.04 77.6297)" fill="#1CACA5"></rect><rect width="10.0399" height="10.0399" rx="1.05" transform="matrix(1 0 0 -1 51.5898 102.729)" fill="#1CACA5"></rect><rect width="10.0399" height="10.0399" rx="1.05" transform="matrix(1 0 0 -1 51.5898 77.6297)" fill="#F04E23"></rect><rect width="10.0399" height="10.0399" rx="1.05" transform="matrix(1 0 0 -1 64.1396 102.729)" fill="#1CACA5"></rect><rect width="10.0399" height="10.0399" rx="1.05" transform="matrix(1 0 0 -1 39.04 65.0798)" fill="#1CACA5"></rect><rect width="10.0399" height="10.0399" rx="1.05" transform="matrix(1 0 0 -1 51.5898 90.1796)" fill="#1CACA5"></rect><rect width="10.0399" height="10.0399" rx="1.05" transform="matrix(1 0 0 -1 64.1396 90.1796)" fill="#F04E23"></rect><rect width="10.0399" height="10.0399" rx="1.05" transform="matrix(1 0 0 -1 51.5898 65.0798)" fill="#1CACA5"></rect><rect width="10.0399" height="10.0399" rx="1.05" transform="matrix(1 0 0 -1 64.1396 77.6297)" fill="#D0D6DD"></rect><rect width="10.0399" height="10.0399" rx="1.05" transform="matrix(1 0 0 -1 76.6895 102.729)" fill="#1CACA5"></rect><rect width="10.0399" height="10.0399" rx="1.05" transform="matrix(1 0 0 -1 76.6895 77.6297)" fill="#1CACA5"></rect><rect width="10.0399" height="10.0399" rx="1.05" transform="matrix(1 0 0 -1 39.04 90.1796)" fill="#F04E23"></rect><rect width="10.0399" height="10.0399" rx="1.05" transform="matrix(1 0 0 -1 64.1396 65.0798)" fill="#D0D6DD"></rect><rect width="10.0399" height="10.0399" rx="1.05" transform="matrix(1 0 0 -1 76.6895 90.1796)" fill="#1CACA5"></rect><rect width="10.0399" height="10.0399" rx="1.05" transform="matrix(1 0 0 -1 76.6895 65.0798)" fill="#1CACA5"></rect><g filter="url(#filter6_dd_180_74260)"><rect width="67.7694" height="67.7694" rx="8" transform="matrix(1 0 0 -1 108.064 112.769)" fill="white"></rect></g><rect width="10.0399" height="10.0399" rx="1.05" transform="matrix(1 0 0 -1 118.104 102.729)" fill="#2E4667"></rect><rect width="10.0399" height="10.0399" rx="1.05" transform="matrix(1 0 0 -1 118.104 77.6297)" fill="#1CACA5"></rect><rect width="10.0399" height="10.0399" rx="1.05" transform="matrix(1 0 0 -1 130.654 102.729)" fill="#2E4667"></rect><rect width="10.0399" height="10.0399" rx="1.05" transform="matrix(1 0 0 -1 130.654 77.6297)" fill="#1CACA5"></rect><rect width="10.0399" height="10.0399" rx="1.05" transform="matrix(1 0 0 -1 143.204 102.729)" fill="#2E4667"></rect><rect width="10.0399" height="10.0399" rx="1.05" transform="matrix(1 0 0 -1 118.104 65.0798)" fill="#2E4667"></rect><rect width="10.0399" height="10.0399" rx="1.05" transform="matrix(1 0 0 -1 130.654 90.1796)" fill="#2E4667"></rect><rect width="10.0399" height="10.0399" rx="1.05" transform="matrix(1 0 0 -1 143.204 90.1796)" fill="#2E4667"></rect><rect width="10.0399" height="10.0399" rx="1.05" transform="matrix(1 0 0 -1 130.654 65.0798)" fill="#2E4667"></rect><rect width="10.0399" height="10.0399" rx="1.05" transform="matrix(1 0 0 -1 143.204 77.6297)" fill="#2E4667"></rect><rect width="10.0399" height="10.0399" rx="1.05" transform="matrix(1 0 0 -1 155.754 102.729)" fill="#D0D6DD"></rect><rect width="10.0399" height="10.0399" rx="1.05" transform="matrix(1 0 0 -1 155.754 77.6297)" fill="#D0D6DD"></rect><rect width="10.0399" height="10.0399" rx="1.05" transform="matrix(1 0 0 -1 118.104 90.1796)" fill="#2E4667"></rect><rect width="10.0399" height="10.0399" rx="1.05" transform="matrix(1 0 0 -1 143.204 65.0798)" fill="#2E4667"></rect><rect width="10.0399" height="10.0399" rx="1.05" transform="matrix(1 0 0 -1 155.754 90.1796)" fill="#D0D6DD"></rect><rect width="10.0399" height="10.0399" rx="1.05" transform="matrix(1 0 0 -1 155.754 65.0798)" fill="#2E4667"></rect><g filter="url(#filter7_dd_180_74260)"><rect x="363" y="193" width="227.397" height="145.534" rx="8" fill="white"></rect></g><path d="M581.301 314.658H483.521C482.265 314.658 481.247 315.676 481.247 316.932C481.247 318.188 482.265 319.206 483.521 319.206H581.301C582.557 319.206 583.575 318.188 583.575 316.932C583.575 315.676 582.557 314.658 581.301 314.658Z" fill="#A4DEDB"></path><path d="M581.301 323.754H483.521C482.265 323.754 481.247 324.772 481.247 326.028C481.247 327.283 482.265 328.302 483.521 328.302H581.301C582.557 328.302 583.575 327.283 583.575 326.028C583.575 324.772 582.557 323.754 581.301 323.754Z" fill="#A4DEDB"></path><path d="M469.877 314.658H372.096C370.84 314.658 369.822 315.676 369.822 316.932C369.822 318.187 370.84 319.206 372.096 319.206H469.877C471.133 319.206 472.151 318.187 472.151 316.932C472.151 315.676 471.133 314.658 469.877 314.658Z" fill="#A4DEDB"></path><path d="M469.877 323.753H372.096C370.84 323.753 369.822 324.772 369.822 326.027C369.822 327.283 370.84 328.301 372.096 328.301H469.877C471.133 328.301 472.151 327.283 472.151 326.027C472.151 324.772 471.133 323.753 469.877 323.753Z" fill="#A4DEDB"></path><rect x="369.822" y="199.822" width="102.329" height="106.877" rx="5.03962" fill="#EFF6FF"></rect><rect x="481.247" y="199.822" width="102.329" height="106.877" rx="5.03962" fill="#EFF6FF"></rect><path d="M488.068 263.493H502.062H522.574H543.088H563.6H576.753" stroke="#B9C1CC" stroke-width="0.243163" stroke-linecap="round" stroke-linejoin="round"></path><path d="M488.068 250.986H502.062H522.574H543.088H563.6H576.753" stroke="#B9C1CC" stroke-width="0.243163" stroke-linecap="round" stroke-linejoin="round"></path><path d="M488.068 238.48H576.753" stroke="#B9C1CC" stroke-width="0.243163" stroke-linecap="round" stroke-linejoin="round"></path><path d="M488.068 225.973H576.753" stroke="#B9C1CC" stroke-width="0.243163" stroke-linecap="round" stroke-linejoin="round"></path><path d="M488.068 213.466H576.753" stroke="#B9C1CC" stroke-width="0.243163" stroke-linecap="round" stroke-linejoin="round"></path><path d="M488.068 274.863H502.062H522.574H543.088H563.6H576.753" stroke="#B9C1CC" stroke-width="0.243163" stroke-linecap="round" stroke-linejoin="round"></path><path d="M488.068 287.37H502.062H522.574H543.088H563.6H576.753" stroke="#B9C1CC" stroke-width="0.243163" stroke-linecap="round" stroke-linejoin="round"></path><path d="M488.068 206.644V299.877H576.753" stroke="#B9C1CC" stroke-width="0.243163" stroke-linecap="round" stroke-linejoin="round"></path><path d="M427.435 208.306C425.486 207.96 423.511 207.785 421.531 207.781C403.013 207.781 388.014 222.543 388.014 240.757C388.014 258.971 403.021 273.726 421.531 273.726C438.564 273.726 452.626 261.225 454.767 245.046" stroke="#F04E23" stroke-width="4.54795" stroke-linecap="round"></path><path d="M411.225 219.418C406.911 221.289 403.233 224.373 400.638 228.295C398.042 232.216 396.642 236.807 396.607 241.509C396.607 254.924 407.858 265.802 421.745 265.802C425.869 265.824 429.936 264.84 433.594 262.933C437.251 261.027 440.388 258.257 442.731 254.863" stroke="#1CACA5" stroke-width="4.54795" stroke-linecap="round"></path><path d="M439.974 240.2C439.974 249.455 432.211 256.958 422.644 256.958C413.076 256.958 405.321 249.455 405.321 240.2C405.321 230.944 413.076 223.441 422.644 223.441C432.211 223.441 439.974 230.952 439.974 240.2Z" stroke="#163156" stroke-width="4.54795" stroke-linecap="round"></path><path d="M463.055 294.192H378.919C377.663 294.192 376.645 295.21 376.645 296.466C376.645 297.722 377.663 298.74 378.919 298.74H463.055C464.311 298.74 465.329 297.722 465.329 296.466C465.329 295.21 464.311 294.192 463.055 294.192Z" fill="#163156"></path><path d="M463.055 285.096H378.919C377.663 285.096 376.645 286.114 376.645 287.37C376.645 288.626 377.663 289.644 378.919 289.644H463.055C464.311 289.644 465.329 288.626 465.329 287.37C465.329 286.114 464.311 285.096 463.055 285.096Z" fill="#163156"></path><path d="M497.165 296.466L497.165 262.356C497.165 261.1 496.147 260.082 494.891 260.082C493.635 260.082 492.617 261.1 492.617 262.356L492.617 296.466C492.617 297.722 493.635 298.74 494.891 298.74C496.147 298.74 497.165 297.722 497.165 296.466Z" fill="#A4DEDB"></path><path d="M527.863 296.466L527.863 245.301C527.863 244.046 526.845 243.027 525.589 243.027C524.333 243.027 523.315 244.046 523.315 245.301L523.315 296.466C523.315 297.722 524.333 298.74 525.589 298.74C526.845 298.74 527.863 297.722 527.863 296.466Z" fill="#F04E23"></path><path d="M558.562 296.466L558.562 263.493C558.562 262.237 557.543 261.219 556.288 261.219C555.032 261.219 554.014 262.237 554.014 263.493L554.014 296.466C554.014 297.721 555.032 298.74 556.288 298.74C557.543 298.74 558.562 297.721 558.562 296.466Z" fill="#163156"></path><path d="M510.808 296.466L510.808 262.356C510.808 261.1 509.79 260.082 508.534 260.082C507.278 260.082 506.26 261.1 506.26 262.356L506.26 296.466C506.26 297.722 507.278 298.74 508.534 298.74C509.79 298.74 510.808 297.722 510.808 296.466Z" fill="#163156"></path><path d="M541.506 296.466L541.506 245.301C541.506 244.046 540.488 243.027 539.232 243.027C537.976 243.027 536.958 244.046 536.958 245.301L536.958 296.466C536.958 297.722 537.976 298.74 539.232 298.74C540.488 298.74 541.506 297.722 541.506 296.466Z" fill="#A4DEDB"></path><path d="M572.206 296.466L572.206 279.411C572.206 278.155 571.187 277.137 569.932 277.137C568.676 277.137 567.658 278.155 567.658 279.411L567.658 296.466C567.658 297.721 568.676 298.74 569.932 298.74C571.187 298.74 572.206 297.721 572.206 296.466Z" fill="#A4DEDB"></path><path d="M503.986 296.466L503.986 248.712C503.986 247.456 502.968 246.438 501.712 246.438C500.456 246.438 499.438 247.456 499.438 248.712L499.438 296.466C499.438 297.722 500.456 298.74 501.712 298.74C502.968 298.74 503.986 297.722 503.986 296.466Z" fill="#F04E23"></path><path d="M534.686 296.466L534.686 225.972C534.686 224.717 533.667 223.699 532.412 223.699C531.156 223.699 530.138 224.717 530.138 225.972L530.138 296.466C530.138 297.722 531.156 298.74 532.412 298.74C533.667 298.74 534.686 297.722 534.686 296.466Z" fill="#163156"></path><path d="M565.384 296.466L565.384 272.589C565.384 271.333 564.366 270.315 563.11 270.315C561.854 270.315 560.836 271.333 560.836 272.589L560.836 296.466C560.836 297.721 561.854 298.74 563.11 298.74C564.366 298.74 565.384 297.721 565.384 296.466Z" fill="#F04E23"></path><defs><filter id="filter0_dd_180_74260" x="9" y="314.175" width="64.8442" height="64.8252" filterUnits="userSpaceOnUse" color-interpolation-filters="sRGB"><feFlood flood-opacity="0" result="BackgroundImageFix"></feFlood><feColorMatrix in="SourceAlpha" type="matrix" values="0 0 0 0 0 0 0 0 0 0 0 0 0 0 0 0 0 0 127 0" result="hardAlpha"></feColorMatrix><feMorphology radius="4" operator="erode" in="SourceAlpha" result="effect1_dropShadow_180_74260"></feMorphology><feOffset dy="8"></feOffset><feGaussianBlur stdDeviation="4"></feGaussianBlur><feColorMatrix type="matrix" values="0 0 0 0 0.0627451 0 0 0 0 0.0941176 0 0 0 0 0.156863 0 0 0 0.03 0"></feColorMatrix><feBlend mode="normal" in2="BackgroundImageFix" result="effect1_dropShadow_180_74260"></feBlend><feColorMatrix in="SourceAlpha" type="matrix" values="0 0 0 0 0 0 0 0 0 0 0 0 0 0 0 0 0 0 127 0" result="hardAlpha"></feColorMatrix><feMorphology radius="4" operator="erode" in="SourceAlpha" result="effect2_dropShadow_180_74260"></feMorphology><feOffset dy="20"></feOffset><feGaussianBlur stdDeviation="12"></feGaussianBlur><feColorMatrix type="matrix" values="0 0 0 0 0.0627451 0 0 0 0 0.0941176 0 0 0 0 0.156863 0 0 0 0.08 0"></feColorMatrix><feBlend mode="normal" in2="effect1_dropShadow_180_74260" result="effect2_dropShadow_180_74260"></feBlend><feBlend mode="normal" in="SourceGraphic" in2="effect2_dropShadow_180_74260" result="shape"></feBlend></filter><filter id="filter1_dd_180_74260" x="78.0332" y="313.187" width="67.6108" height="61.2047" filterUnits="userSpaceOnUse" color-interpolation-filters="sRGB"><feFlood flood-opacity="0" result="BackgroundImageFix"></feFlood><feColorMatrix in="SourceAlpha" type="matrix" values="0 0 0 0 0 0 0 0 0 0 0 0 0 0 0 0 0 0 127 0" result="hardAlpha"></feColorMatrix><feMorphology radius="4" operator="erode" in="SourceAlpha" result="effect1_dropShadow_180_74260"></feMorphology><feOffset dy="8"></feOffset><feGaussianBlur stdDeviation="4"></feGaussianBlur><feColorMatrix type="matrix" values="0 0 0 0 0.0627451 0 0 0 0 0.0941176 0 0 0 0 0.156863 0 0 0 0.03 0"></feColorMatrix><feBlend mode="normal" in2="BackgroundImageFix" result="effect1_dropShadow_180_74260"></feBlend><feColorMatrix in="SourceAlpha" type="matrix" values="0 0 0 0 0 0 0 0 0 0 0 0 0 0 0 0 0 0 127 0" result="hardAlpha"></feColorMatrix><feMorphology radius="4" operator="erode" in="SourceAlpha" result="effect2_dropShadow_180_74260"></feMorphology><feOffset dy="20"></feOffset><feGaussianBlur stdDeviation="12"></feGaussianBlur><feColorMatrix type="matrix" values="0 0 0 0 0.0627451 0 0 0 0 0.0941176 0 0 0 0 0.156863 0 0 0 0.08 0"></feColorMatrix><feBlend mode="normal" in2="effect1_dropShadow_180_74260" result="effect2_dropShadow_180_74260"></feBlend><feBlend mode="normal" in="SourceGraphic" in2="effect2_dropShadow_180_74260" result="shape"></feBlend></filter><filter id="filter2_dd_180_74260" x="150.813" y="314.175" width="64.8452" height="64.8252" filterUnits="userSpaceOnUse" color-interpolation-filters="sRGB"><feFlood flood-opacity="0" result="BackgroundImageFix"></feFlood><feColorMatrix in="SourceAlpha" type="matrix" values="0 0 0 0 0 0 0 0 0 0 0 0 0 0 0 0 0 0 127 0" result="hardAlpha"></feColorMatrix><feMorphology radius="4" operator="erode" in="SourceAlpha" result="effect1_dropShadow_180_74260"></feMorphology><feOffset dy="8"></feOffset><feGaussianBlur stdDeviation="4"></feGaussianBlur><feColorMatrix type="matrix" values="0 0 0 0 0.0627451 0 0 0 0 0.0941176 0 0 0 0 0.156863 0 0 0 0.03 0"></feColorMatrix><feBlend mode="normal" in2="BackgroundImageFix" result="effect1_dropShadow_180_74260"></feBlend><feColorMatrix in="SourceAlpha" type="matrix" values="0 0 0 0 0 0 0 0 0 0 0 0 0 0 0 0 0 0 127 0" result="hardAlpha"></feColorMatrix><feMorphology radius="4" operator="erode" in="SourceAlpha" result="effect2_dropShadow_180_74260"></feMorphology><feOffset dy="20"></feOffset><feGaussianBlur stdDeviation="12"></feGaussianBlur><feColorMatrix type="matrix" values="0 0 0 0 0.0627451 0 0 0 0 0.0941176 0 0 0 0 0.156863 0 0 0 0.08 0"></feColorMatrix><feBlend mode="normal" in2="effect1_dropShadow_180_74260" result="effect2_dropShadow_180_74260"></feBlend><feBlend mode="normal" in="SourceGraphic" in2="effect2_dropShadow_180_74260" result="shape"></feBlend></filter><filter id="filter3_dd_180_74260" x="473.1" y="125.45" width="136.634" height="94.3567" filterUnits="userSpaceOnUse" color-interpolation-filters="sRGB"><feFlood flood-opacity="0" result="BackgroundImageFix"></feFlood><feColorMatrix in="SourceAlpha" type="matrix" values="0 0 0 0 0 0 0 0 0 0 0 0 0 0 0 0 0 0 127 0" result="hardAlpha"></feColorMatrix><feMorphology radius="4" operator="erode" in="SourceAlpha" result="effect1_dropShadow_180_74260"></feMorphology><feOffset dy="8"></feOffset><feGaussianBlur stdDeviation="4"></feGaussianBlur><feColorMatrix type="matrix" values="0 0 0 0 0.0627451 0 0 0 0 0.0941176 0 0 0 0 0.156863 0 0 0 0.03 0"></feColorMatrix><feBlend mode="normal" in2="BackgroundImageFix" result="effect1_dropShadow_180_74260"></feBlend><feColorMatrix in="SourceAlpha" type="matrix" values="0 0 0 0 0 0 0 0 0 0 0 0 0 0 0 0 0 0 127 0" result="hardAlpha"></feColorMatrix><feMorphology radius="4" operator="erode" in="SourceAlpha" result="effect2_dropShadow_180_74260"></feMorphology><feOffset dy="20"></feOffset><feGaussianBlur stdDeviation="12"></feGaussianBlur><feColorMatrix type="matrix" values="0 0 0 0 0.0627451 0 0 0 0 0.0941176 0 0 0 0 0.156863 0 0 0 0.08 0"></feColorMatrix><feBlend mode="normal" in2="effect1_dropShadow_180_74260" result="effect2_dropShadow_180_74260"></feBlend><feBlend mode="normal" in="SourceGraphic" in2="effect2_dropShadow_180_74260" result="shape"></feBlend></filter><filter id="filter4_dd_180_74260" x="224.342" y="192.843" width="146.635" height="185.452" filterUnits="userSpaceOnUse" color-interpolation-filters="sRGB"><feFlood flood-opacity="0" result="BackgroundImageFix"></feFlood><feColorMatrix in="SourceAlpha" type="matrix" values="0 0 0 0 0 0 0 0 0 0 0 0 0 0 0 0 0 0 127 0" result="hardAlpha"></feColorMatrix><feMorphology radius="3.93161" operator="erode" in="SourceAlpha" result="effect1_dropShadow_180_74260"></feMorphology><feOffset dy="7.86323"></feOffset><feGaussianBlur stdDeviation="3.93161"></feGaussianBlur><feColorMatrix type="matrix" values="0 0 0 0 0.0627451 0 0 0 0 0.0941176 0 0 0 0 0.156863 0 0 0 0.03 0"></feColorMatrix><feBlend mode="normal" in2="BackgroundImageFix" result="effect1_dropShadow_180_74260"></feBlend><feColorMatrix in="SourceAlpha" type="matrix" values="0 0 0 0 0 0 0 0 0 0 0 0 0 0 0 0 0 0 127 0" result="hardAlpha"></feColorMatrix><feMorphology radius="3.93161" operator="erode" in="SourceAlpha" result="effect2_dropShadow_180_74260"></feMorphology><feOffset dy="19.6581"></feOffset><feGaussianBlur stdDeviation="11.7948"></feGaussianBlur><feColorMatrix type="matrix" values="0 0 0 0 0.0627451 0 0 0 0 0.0941176 0 0 0 0 0.156863 0 0 0 0.08 0"></feColorMatrix><feBlend mode="normal" in2="effect1_dropShadow_180_74260" result="effect2_dropShadow_180_74260"></feBlend><feBlend mode="normal" in="SourceGraphic" in2="effect2_dropShadow_180_74260" result="shape"></feBlend></filter><filter id="filter5_dd_180_74260" x="9" y="45" width="107.77" height="107.769" filterUnits="userSpaceOnUse" color-interpolation-filters="sRGB"><feFlood flood-opacity="0" result="BackgroundImageFix"></feFlood><feColorMatrix in="SourceAlpha" type="matrix" values="0 0 0 0 0 0 0 0 0 0 0 0 0 0 0 0 0 0 127 0" result="hardAlpha"></feColorMatrix><feMorphology radius="4" operator="erode" in="SourceAlpha" result="effect1_dropShadow_180_74260"></feMorphology><feOffset dy="8"></feOffset><feGaussianBlur stdDeviation="4"></feGaussianBlur><feColorMatrix type="matrix" values="0 0 0 0 0.0627451 0 0 0 0 0.0941176 0 0 0 0 0.156863 0 0 0 0.03 0"></feColorMatrix><feBlend mode="normal" in2="BackgroundImageFix" result="effect1_dropShadow_180_74260"></feBlend><feColorMatrix in="SourceAlpha" type="matrix" values="0 0 0 0 0 0 0 0 0 0 0 0 0 0 0 0 0 0 127 0" result="hardAlpha"></feColorMatrix><feMorphology radius="4" operator="erode" in="SourceAlpha" result="effect2_dropShadow_180_74260"></feMorphology><feOffset dy="20"></feOffset><feGaussianBlur stdDeviation="12"></feGaussianBlur><feColorMatrix type="matrix" values="0 0 0 0 0.0627451 0 0 0 0 0.0941176 0 0 0 0 0.156863 0 0 0 0.08 0"></feColorMatrix><feBlend mode="normal" in2="effect1_dropShadow_180_74260" result="effect2_dropShadow_180_74260"></feBlend><feBlend mode="normal" in="SourceGraphic" in2="effect2_dropShadow_180_74260" result="shape"></feBlend></filter><filter id="filter6_dd_180_74260" x="88.0645" y="45" width="107.77" height="107.769" filterUnits="userSpaceOnUse" color-interpolation-filters="sRGB"><feFlood flood-opacity="0" result="BackgroundImageFix"></feFlood><feColorMatrix in="SourceAlpha" type="matrix" values="0 0 0 0 0 0 0 0 0 0 0 0 0 0 0 0 0 0 127 0" result="hardAlpha"></feColorMatrix><feMorphology radius="4" operator="erode" in="SourceAlpha" result="effect1_dropShadow_180_74260"></feMorphology><feOffset dy="8"></feOffset><feGaussianBlur stdDeviation="4"></feGaussianBlur><feColorMatrix type="matrix" values="0 0 0 0 0.0627451 0 0 0 0 0.0941176 0 0 0 0 0.156863 0 0 0 0.03 0"></feColorMatrix><feBlend mode="normal" in2="BackgroundImageFix" result="effect1_dropShadow_180_74260"></feBlend><feColorMatrix in="SourceAlpha" type="matrix" values="0 0 0 0 0 0 0 0 0 0 0 0 0 0 0 0 0 0 127 0" result="hardAlpha"></feColorMatrix><feMorphology radius="4" operator="erode" in="SourceAlpha" result="effect2_dropShadow_180_74260"></feMorphology><feOffset dy="20"></feOffset><feGaussianBlur stdDeviation="12"></feGaussianBlur><feColorMatrix type="matrix" values="0 0 0 0 0.0627451 0 0 0 0 0.0941176 0 0 0 0 0.156863 0 0 0 0.08 0"></feColorMatrix><feBlend mode="normal" in2="effect1_dropShadow_180_74260" result="effect2_dropShadow_180_74260"></feBlend><feBlend mode="normal" in="SourceGraphic" in2="effect2_dropShadow_180_74260" result="shape"></feBlend></filter><filter id="filter7_dd_180_74260" x="343" y="193" width="267.397" height="185.534" filterUnits="userSpaceOnUse" color-interpolation-filters="sRGB"><feFlood flood-opacity="0" result="BackgroundImageFix"></feFlood><feColorMatrix in="SourceAlpha" type="matrix" values="0 0 0 0 0 0 0 0 0 0 0 0 0 0 0 0 0 0 127 0" result="hardAlpha"></feColorMatrix><feMorphology radius="4" operator="erode" in="SourceAlpha" result="effect1_dropShadow_180_74260"></feMorphology><feOffset dy="8"></feOffset><feGaussianBlur stdDeviation="4"></feGaussianBlur><feColorMatrix type="matrix" values="0 0 0 0 0.0627451 0 0 0 0 0.0941176 0 0 0 0 0.156863 0 0 0 0.03 0"></feColorMatrix><feBlend mode="normal" in2="BackgroundImageFix" result="effect1_dropShadow_180_74260"></feBlend><feColorMatrix in="SourceAlpha" type="matrix" values="0 0 0 0 0 0 0 0 0 0 0 0 0 0 0 0 0 0 127 0" result="hardAlpha"></feColorMatrix><feMorphology radius="4" operator="erode" in="SourceAlpha" result="effect2_dropShadow_180_74260"></feMorphology><feOffset dy="20"></feOffset><feGaussianBlur stdDeviation="12"></feGaussianBlur><feColorMatrix type="matrix" values="0 0 0 0 0.0627451 0 0 0 0 0.0941176 0 0 0 0 0.156863 0 0 0 0.08 0"></feColorMatrix><feBlend mode="normal" in2="effect1_dropShadow_180_74260" result="effect2_dropShadow_180_74260"></feBlend><feBlend mode="normal" in="SourceGraphic" in2="effect2_dropShadow_180_74260" result="shape"></feBlend></filter></defs></svg> 