<?xml version="1.0" encoding="utf-8"?>
<!-- Generator: Adobe Illustrator 25.1.0, SVG Export Plug-In . SVG Version: 6.00 Build 0)  -->
<svg version="1.1" id="content_1_" xmlns="http://www.w3.org/2000/svg" xmlns:xlink="http://www.w3.org/1999/xlink" x="0px" y="0px"
	 viewBox="0 0 420.5 193" style="enable-background:new 0 0 420.5 193;" xml:space="preserve">
<style type="text/css">
	.st0{fill:none;stroke:#B0B0B0;stroke-miterlimit:10;}
	.st1{fill:#202C46;}
	.st2{fill:#E64F21;}
	.st3{fill:#21AD9B;}
	.st4{fill:none;stroke:#979797;stroke-width:1;stroke-miterlimit:9.9999;}
	.st5{fill:#D8D8D8;}
	.st6{fill:none;stroke:#C64F27;stroke-width:5;stroke-miterlimit:10;}
	.st7{fill:#FFFFFF;}
	.st8{fill:#E54F22;}
	.st9{fill:#273655;}
	.st10{fill:#A5A5A8;}
	.st11{fill:#21AF9D;}
</style>
<g>
	<path class="st0" d="M32.4,96.2"/>
	<path class="st0" d="M30.1,96.6c0,0.8,0.1,1.6,0,2.2c-0.8,5.2-1.8,10.4-2.6,15.6c-0.5,3.2-0.8,6.5-0.9,9.8c-0.1,2.2,1.1,3.8,3,4.6
		c1.6,0.7,3.3,0.9,4.8-0.6l3.4-2.6c4.3-1.1,6.8-0.2,8.8,3.1c2.3,3.7,1.2,9.6-2.2,12.3c-2.7,2.2-5.9,2.6-8.8-0.2
		c-0.6-0.6-1.2-1.2-1.9-1.7c-2.9-2.2-7.2-0.8-7.5,2.8c-0.3,3.7-0.1,7.4,0.2,11.1c0.1,2.4,0.6,4.8,1,7.2h20.9c0,0,8.1,5.9,7.2-11.5
		c0,0-7.3-14.5,3.4-17.4c0,0,16.5-5.8,16,8.2l-1.5,7.7c0,0-4.3,10.6,9,5.6c1.5-0.6,3.1-0.7,4.6-1c3.2-0.7,6.5-1.4,9.7-2.1
		c3.4-0.7,6-1.1,9.4-1.8c-0.4-0.5-0.3-1.3-0.4-1.9c-0.9-5.6-1.5-11.1-2.4-16.7c-0.7-3.9-3.4-5.7-6.9-4.5c-1.1,0.3-2.2,1.2-2.8,2.2
		c-1.7,2.9-4,4.3-7.3,3.9c-3.4-0.4-5.7-2.7-6.9-5.7c-1.1-2.7-1.1-5.9,0.4-8.5c0.6-1,1.8-2.9,5-3.3c0.8-0.1,1.6-0.1,2.3,0
		c0.3,0,0.7,0.1,1,0.2c0.3,0.1,0.5,0.2,0.8,0.4c0.1,0.1,0.2,0.2,0.3,0.2c0.2,0.1,0.4,0.2,0.5,0.4c0.9,0.7,2,1.3,3.2,1.2
		c1-0.1,1.9-0.8,2.7-1.4c1.8-1.4,2.5-3.3,2-5.4c-0.8-3.2-1.7-6.4-2.9-9.6"/>
	<path class="st0" d="M161.3,100c0.2,0.4,0.9,0.8,1.3,0.8c1.9-0.1,3.8-0.4,5.7-0.5c5.1-0.3,10.2-0.6,15.4-0.6c2.1,0,4,1,4.8,3.3
		c0.8,2.2-0.1,3.6-1.5,5.1c-0.4,0.4-0.8,0.9-1.1,1.4c-2.6,3.1-2,8,1.2,10.5c2.7,2.1,5.9,2.4,9.1,2.3c3-0.1,5.1-1.6,6.4-4.1
		c1.3-2.5,1.4-5.2-0.5-7.6c-0.6-0.8-1.3-1.7-1.8-2.6c-1.5-2.9,0.3-7,3.2-7c3.1,0,6.3,0.2,9.4,0.6c3.7,0.5,7.4,1.4,11.1,2.1
		c0,0,11.1-0.8,8.2,11.3c0,0-1.9,3.4-1,9.2c0,0,3.9,11.1-7.3,9.9c-2.2,0.4-3.8-0.8-5.2-2.2c-2-2.2-4.4-3.3-7.3-2.1
		c-3.3,1.3-5,3.9-5.3,7.4c-0.3,3.6,0.8,6.7,3.8,9c2.4,1.9,5.3,1.9,7.7,0c1.9-1.5,3.6-3.1,6.3-2.5c0,0,12.6-4.4,12.6,12.5
		s31,23.2,57.3-3"/>
	<path class="st0" d="M138.9,125.6c-1.7,2.1-2.1,4.5-2,7c0.2,3.6,1.8,6.4,5.1,7.9c3.3,1.5,6.4,0.8,9-1.7c1.4-1.4,3.1-2.1,5-1.3
		c2,0.9,2.8,2.6,2.7,4.8c-0.3,6.8-18.5,33.7,3.8,35.1c0,0,18.7,2.7,11.5-14.4c-0.5-0.7-1-5.5-0.6-7.6c0.7-3.1,2.3-5.5,5.7-5.9
		c2.1-0.3,4.2-0.5,6.2-0.3c4.4,0.6,7.1,4.7,5.7,8.9c-0.5,1.6-2,3-3,4.5c0,0-28.4,57,150.8-0.2"/>
	<path class="st0" d="M196.4,53.2L196.4,53.2c-2-1-3.5-4.4-2.9-6.8c0.7-2.5,3.5-4,6.6-3.7c7,0.7,13.9,1.3,20.9,2
		c1,0.1,1.9,0.3,2.9,0.4c0,0.1,0,0.3,0,0.4"/>
	<path class="st1" d="M94.9,101.1c0.2-1.1-0.4-1.4-1.3-1.5c-5.3-0.7-10.5-1.3-15.8-2c-0.6-0.1-1.1-0.3-1.7-0.8
		c7.7-1.9,15.4-3.8,23.2-5.7C97.9,85.1,96.6,79,94.9,73c-0.4-1.6-1.3-3.4-2.6-4.5c-2.4-2-5.3-0.9-7.2,2.3c-2.6,4.3-5.5,5.3-10.1,3.4
		c-3.3-1.4-4.5-4.3-5.4-7.5c-1.1-4.2,1.1-8.9,5.1-9.9c1.5-0.4,3.4-0.1,4.9,0.4c2.3,0.6,4.4,1.3,6.5-0.2c1.6-1.2,2.4-2.7,1.8-4.6
		c-1.9-5.1-3.9-10.1-5.9-15.2c-0.3-0.7-0.6-1.4-1-2.2c5.9,0,11.5,0,16.9,0"/>
	<path class="st1" d="M99,35.5c4.6,0,9.1,0,13.6,0c0.7,0,1.5,0,2.1,0.2c4.6,1.1,5.8,5.3,2.7,8.8c-1.1,1.3-2.3,2.8-2.7,4.4
		c-0.8,3.5,1.1,6.5,4.4,7.9c0.4,0.2,0.9,0.3,1.3,0.5c4.3,1.4,4.9,1.1,5.8-3.4c0.2-0.7,0.4-1.5,0.7-2.2c0.2,0,0.5,0,0.7,0.1
		c0.1,0.5,0.3,1,0.2,1.4c-1.5,6.4-2.9,12.7-4.5,19.1c-0.5,2.2-1.6,4.3-4.1,4.8c-2.9,0.5-4.9-0.9-6.6-3.1c-1-1.3-1.9-2.8-3.2-3.6
		c-3-1.8-6.3-0.8-9.1,2.2c-4.1,4.5-3.1,11.7,2,14.1c2,1,4,0.7,6.1,0c1.4-0.5,3.1-1,4.5-0.7c3.2,0.7,4.8,3.8,3.4,7.3
		c-2.3,5.8-4.9,11.5-7.4,17.3c-0.2,0.5-0.5,0.9-0.7,1.4c3.3,1.4,6.5,2.8,9.7,4c3.2,1.2,6.3,3,10.1,2.6c-1.6,0.9-3.4,1.2-5.9,0.2
		c-4.8-1.8-9.5-3.8-14.3-5.8c-1.3-0.5-1.3-1.2-0.7-2.3c1.5-2.9,2.9-5.8,4.5-9c-5.5-0.6-10.8-1.2-16.4-1.9"/>
	<path class="st1" d="M91.8,13.1"/>
	<path class="st1" d="M155.2,72.1c0-0.9-0.5-1.8-0.7-2.7"/>
	<path class="st1" d="M146.6,59.5c-0.7-2.4-2.6-3.4-4.9-4c-3.1-0.9-6.1-1.9-9.3-2.9c0.7-2,0.2-3.5-0.9-4.9c-0.7-0.8-1.4-1.8-1.9-2.7
		c-1.2-2.1-1.5-4.2-0.1-6.3c1.4-2.1,3.6-2.5,5.9-2.2c8.8,1.4,17.5,3,26.3,4.2c5.5,0.8,11.1,1,16.6,1.7c1.5,0.2,3.1,0.9,4.2,1.8
		c2.3,2,2,4.6-0.5,6.7c1.3-1.9,1.7-3.9,0.3-5.9c-1.3-1.9-3.4-2-5.2-2.2c-4.3-0.4-8.6-0.5-12.5-0.7c0.1,5.2,0.3,10.6,0.4,15.9
		c0,1-0.4,2-0.7,3c-0.3,1-0.9,1.5-2.2,1.1c-3.7-1.1-6.6,2-5.9,5.7c0.2,1.2,0.6,2.4,1.2,3.5c2.4,4.6-2.4,10.4-8,9.7
		c-3-0.4-5.8-1.7-8-3.8c-3-2.7-3.1-7.8-0.3-10.6c0.3-0.4,0.8-0.6,1.6-1"/>
	<path class="st0" d="M179.9,53.4c-0.2,1.5-0.6,2.9-0.5,4.3c0.5,4,4.2,6.9,8.7,7.1c3.4,0.2,6.6-0.5,8.5-3.7c1.2-2,1.2-4.1,0.4-6.2
		c-0.2-0.6-0.3-1.2-0.5-1.8c0,0,0,0,0,0"/>
	<path class="st0" d="M224,45c0,0,3.6,4,2.2,10.6c0,0,2.6,17.1-8.9,12.6c-0.6-0.6-1.2-1.4-1.9-1.7c-3.8-1.5-8.7,0.9-9.5,5
		c-0.5,2.6-0.7,5.4-0.4,8c0.4,2.9,2.2,5,5.2,5.7c2.6,0.6,5.1,0.6,6.9-1.7c0,0,4.3-11.4,43.8,6"/>
	<path class="st1" d="M67.2,35.1c-2.6,1-5.3,2-7.9,3.1c-4.1,1.6-8.1,3.2-12.2,4.6c-1.9,0.7-3.5-0.4-4.6-1.8
		c-1.1-1.5-1.4-4.5-0.6-5.6c0.2-0.3,0.7-0.5,1.1-0.5c0.7-0.1,1.5,0,2.2-0.1c1.9-0.3,3.8-0.7,4.7-2.7c0.9-2.1,0.8-4.1-0.9-5.8
		c-3.8-3.9-2.3-8.5,0.2-10.9c3.7-3.4,11.9-2.8,15,1.2c2.1,2.7,1.8,6-0.7,8.7c-1.3,1.4-2.6,2.7-2.6,4.9c0,3,1.6,4.6,4.6,4.7
		c0.6,0,1.1,0,1.7,0C67.2,34.9,67.2,35,67.2,35.1z"/>
	<path class="st1" d="M25.2,78.9c-0.8,0.5-1.4,0.9-2,1.4c-3.6,3-9.4,2-11.6-3c-1.7-4-1.5-8.1,1.5-11.5c1.4-1.5,3.5-2.4,5.7-3.9
		c0-1.9-2.1-4.2-2.1-6.8c0.3-0.1,0.6-0.2,1-0.3c0.6,1.4,1.3,2.8,1.9,4.2c2.6,6.8,5.3,13.6,7.8,20.5c1.3,3.5,0.4,5.7-2.2,6.8
		c-0.1,0-0.2,0-0.5,0C26.8,84,26.7,81.6,25.2,78.9z"/>
	<path class="st2" d="M99,91l-13.6,3c-10.9,4.1-16.6,3-16.6,3c-7.3,0.2-1.1-10.5-1.1-10.5c-3-11.6-16.2-4.5-16.2-4.5
		C39.5,93.6,58,97.8,58,97.8l1.9,4.5L38,110.2c0,0-1.1-1.9-1.5-6.8c-0.4-4.9-5.3-13.6-10.9-6s-11.7,5.6-14.3,1.1S9,80.8,18.8,85.7
		s9.4-5.3,9.4-5.3L16.5,54.1c0,0,28.2-3.4,15.1-13.6S32,24,32,24s10.5-0.4,10.5,8.3c0,0-5.6,15.5,8.7,9s28.2-10.9,28.2-10.9
		l7.9,20.3c0,0,2,8.2-5.3,7.2c-7.2-1-12.8-1.9-13.2,7.2s9.4,13.6,15.4,7.2c0,0,6.4-9.4,9.8-1.1C97.5,79.3,99,91,99,91z"/>
	<path class="st3" d="M127.8,51.8l14,3.6c0,0,8.9,2.7,3.2,8.4c0,0-11.7,6.7-2,14.6c9.7,7.9,14.7-0.5,15.2-3.7
		c0.5-3.2-4.9-8.2-0.5-11.9c0,0,1.4-2.3,4.4-0.7c3,1.6,28.6,7.6,28.6,7.6l-3.8,23.8c0,0-3.9,4.4-9.8-1.7c-0.9-1-1.9-2-2.9-2.9
		c-0.6-0.5-4.9-2.3-7.6-1.2c-5.4,2.2-5.8,6.9-5.8,7.3c0.1,1.6,0.5,3.2,1.1,4.7c0.8,2,2.3,3.6,4.1,4.7c2.8,1.5,6.1,1.5,9.1,1.1
		c0,0,7.5-1.5,6,7s-3.2,16.7-3.2,16.7s-0.6,4.3-8.2,1.9c-7.5-2.4-19.3-4.4-19.3-4.4s-16.2-3.2-6.7-11.7c0,0,8.7-3,4.7-9.4
		c0,0-6.7-10-16-3.8c0,0-5.8,4-3.6,12.7c0,0,1.5,5-3.2,4l-17.4-6.4l8.1-18.7c0,0,2.4-9.6-7.9-6.6S96.6,80.4,98.5,76
		c1.8-4.4,8-11.7,14.3-2.1c6.3,9.6,10.7-1.7,10.7-1.7L127.8,51.8z"/>
</g>
<g>
	<g>
		<g>
			<g>
				<g>
					<ellipse id="SVGID_9_" class="st4" cx="334" cy="89.1" rx="74.7" ry="74.7"/>
				</g>
			</g>
		</g>
	</g>
	<g>
		
			<rect x="342.9" y="85.6" transform="matrix(0.8983 -0.4393 0.4393 0.8983 0.4408 174.0743)" class="st5" width="66.8" height="0.9"/>
	</g>
	<g>
		
			<rect x="335.2" y="51.1" transform="matrix(0.9044 -0.4267 0.4267 0.9044 -0.319 150.4901)" class="st5" width="0.9" height="49.6"/>
	</g>
	<g>
		
			<rect x="349.8" y="36.8" transform="matrix(0.3084 -0.9513 0.9513 0.3084 183.9123 375.6372)" class="st5" width="0.9" height="49.2"/>
	</g>
	<g>
		<path class="st6" d="M374.5,67.7"/>
	</g>
	<g>
		
			<rect x="273.1" y="42.5" transform="matrix(0.4302 -0.9027 0.9027 0.4302 131.3992 294.1329)" class="st5" width="51.1" height="0.9"/>
	</g>
	<g>
		
			<rect x="262.2" y="77.4" transform="matrix(0.6723 -0.7403 0.7403 0.6723 33.4246 231.1187)" class="st5" width="31.2" height="0.9"/>
	</g>
	<g>
		
			<rect x="264.7" y="108.8" transform="matrix(0.7614 -0.6483 0.6483 0.7614 -3.0908 210.1629)" class="st5" width="38.4" height="0.9"/>
	</g>
	<g>
		
			<rect x="319.9" y="117.2" transform="matrix(0.4741 -0.8805 0.8805 0.4741 73.8795 359.0725)" class="st5" width="35.2" height="0.9"/>
	</g>
	<g>
		
			<rect x="329.2" y="125" transform="matrix(0.9838 -0.1793 0.1793 0.9838 -16.5572 67.7107)" class="st5" width="74.1" height="0.9"/>
	</g>
	<g>
		
			<rect x="333.9" y="133" transform="matrix(0.9763 -0.2163 0.2163 0.9763 -23.7964 75.796)" class="st5" width="0.9" height="27.3"/>
	</g>
	<g>
		
			<rect x="290.6" y="141.4" transform="matrix(0.8545 -0.5195 0.5195 0.8545 -28.3895 182.4542)" class="st5" width="41.7" height="0.9"/>
	</g>
	<g>
		
			<rect x="299.9" y="95.2" transform="matrix(0.1547 -0.988 0.988 0.1547 128.7774 403.7026)" class="st5" width="0.9" height="62.7"/>
	</g>
	<g>
		
			<rect x="321" y="75.1" transform="matrix(6.762271e-02 -0.9977 0.9977 6.762271e-02 201.9536 412.0749)" class="st5" width="0.9" height="45.8"/>
	</g>
	<g>
		
			<rect x="293.8" y="66.1" transform="matrix(0.9375 -0.348 0.348 0.9375 -9.7084 107.4398)" class="st5" width="0.9" height="29.4"/>
	</g>
	<g>
		
			<rect x="292.9" y="59.1" transform="matrix(0.9652 -0.2615 0.2615 0.9652 -4.8183 82.8729)" class="st5" width="32.1" height="0.9"/>
	</g>
	<g>
		
			<rect x="315.7" y="34.6" transform="matrix(0.4625 -0.8866 0.8866 0.4625 150.0607 317.7293)" class="st5" width="42.8" height="0.9"/>
	</g>
	<g>
		<rect x="327.8" y="43.9" transform="matrix(0.952 -0.306 0.306 0.952 3.5649 111.5424)" class="st5" width="59.5" height="0.9"/>
	</g>
	<g>
		
			<rect x="387.7" y="66.6" transform="matrix(0.8698 -0.4935 0.4935 0.8698 3.4664 203.9866)" class="st5" width="0.9" height="57.7"/>
	</g>
	<g>
		
			<rect x="340.8" y="83.8" transform="matrix(0.6901 -0.7237 0.7237 0.6901 50.6257 286.8305)" class="st5" width="38.9" height="0.9"/>
	</g>
	<g>
		<path class="st6" d="M331.4,131.5"/>
	</g>
	<g>
		<path class="st6" d="M290.1,67.3"/>
	</g>
	<g>
		
			<rect x="305.7" y="56.7" transform="matrix(3.994519e-03 -1 1 3.994519e-03 288.2166 403.7566)" class="st5" width="82.1" height="0.9"/>
	</g>
	<g>
		
			<rect x="327.7" y="67.7" transform="matrix(0.5012 -0.8653 0.8653 0.5012 122.8841 349.4059)" class="st5" width="73.7" height="0.9"/>
	</g>
	<g>
		
			<rect x="363.4" y="97.9" transform="matrix(0.8256 -0.5643 0.5643 0.8256 -8.4179 227.5297)" class="st5" width="0.9" height="58.9"/>
	</g>
	<g>
		
			<rect x="314.8" y="129.9" transform="matrix(0.1633 -0.9866 0.9866 0.1633 158.9223 448.1139)" class="st5" width="57.8" height="0.9"/>
	</g>
	<g>
		
			<rect x="261.1" y="111.5" transform="matrix(0.9734 -0.2293 0.2293 0.9734 -17.5676 72.6268)" class="st5" width="85.2" height="0.9"/>
	</g>
	<g>
		
			<rect x="288.2" y="73.9" transform="matrix(0.5583 -0.8296 0.8296 0.5583 76.6991 292.826)" class="st5" width="50.3" height="0.9"/>
	</g>
	<g>
		
			<rect x="299.5" y="21.1" transform="matrix(0.162 -0.9868 0.9868 0.162 201.7097 338.1707)" class="st5" width="0.9" height="58.4"/>
	</g>
	<g>
		<circle class="st7" cx="288.2" cy="63.9" r="10.5"/>
		<path class="st5" d="M280.4,72.4c-4.7-4.3-4.9-11.7-0.6-16.3c4.3-4.7,11.7-4.9,16.3-0.6c4.7,4.3,4.9,11.7,0.6,16.3
			S285.1,76.7,280.4,72.4z M294.6,57.1c-3.7-3.5-9.6-3.3-13.1,0.5c-3.5,3.7-3.3,9.6,0.5,13.1s9.6,3.3,13.1-0.5
			C298.6,66.4,298.3,60.6,294.6,57.1z"/>
	</g>
	<g>
		<circle class="st7" cx="346.2" cy="100.6" r="10.2"/>
		<path class="st5" d="M338.5,108.9c-4.6-4.3-4.9-11.5-0.6-16.1c4.3-4.6,11.5-4.9,16.1-0.6c4.6,4.3,4.9,11.5,0.6,16.1
			C350.3,112.9,343.1,113.2,338.5,108.9z M352.5,93.9c-3.7-3.4-9.5-3.2-12.9,0.5c-3.4,3.7-3.2,9.5,0.5,12.9
			c3.7,3.4,9.5,3.2,12.9-0.5C356.3,103.1,356.1,97.3,352.5,93.9z"/>
	</g>
	<g>
		<circle class="st7" cx="339" cy="163" r="8.2"/>
		<path class="st5" d="M332.6,169.8c-3.8-3.5-4-9.4-0.5-13.2s9.4-4,13.2-0.5c3.8,3.5,4,9.4,0.5,13.2
			C342.4,173.1,336.4,173.3,332.6,169.8z M343.8,157.8c-2.8-2.7-7.3-2.5-10,0.3c-2.7,2.8-2.5,7.3,0.3,10s7.3,2.5,10-0.3
			C346.8,164.9,346.7,160.5,343.8,157.8z"/>
	</g>
	<g>
		<circle class="st7" cx="269.2" cy="121.6" r="8.2"/>
		<path class="st5" d="M262.9,128.4c-3.8-3.5-4-9.4-0.5-13.2c3.5-3.8,9.4-4,13.2-0.5c3.8,3.5,4,9.4,0.5,13.2
			S266.6,131.9,262.9,128.4z M274,116.4c-2.8-2.7-7.3-2.5-10,0.3c-2.7,2.8-2.5,7.3,0.3,10c2.8,2.7,7.3,2.5,10-0.3
			C277,123.5,276.9,119.1,274,116.4z"/>
	</g>
	<g>
		<circle class="st7" cx="405.7" cy="71.1" r="10.6"/>
		<path class="st5" d="M397.8,79.7c-4.7-4.4-5-11.8-0.6-16.6c4.4-4.7,11.8-5,16.6-0.6c4.7,4.4,5,11.8,0.6,16.6
			C409.9,83.7,402.5,84,397.8,79.7z M412.1,64.2c-3.8-3.5-9.8-3.3-13.3,0.5c-3.5,3.8-3.3,9.8,0.5,13.3c3.8,3.5,9.8,3.3,13.3-0.5
			S416,67.7,412.1,64.2z"/>
	</g>
	<g>
		<circle class="st7" cx="401.7" cy="119.5" r="4.6"/>
		<path class="st5" d="M397.8,123.7c-2.3-2.2-2.5-5.9-0.3-8.2c2.2-2.3,5.9-2.5,8.2-0.3c2.3,2.2,2.5,5.9,0.3,8.2
			C403.8,125.8,400.1,125.9,397.8,123.7z M404.1,116.9c-1.4-1.3-3.7-1.2-4.9,0.2c-1.3,1.4-1.2,3.7,0.2,4.9c1.4,1.3,3.7,1.2,4.9-0.2
			C405.6,120.4,405.5,118.2,404.1,116.9z"/>
	</g>
	<g>
		<ellipse class="st7" cx="309.9" cy="19.7" rx="6.1" ry="6.1"/>
		<path class="st5" d="M305,25c-2.9-2.7-3.1-7.3-0.4-10.2c2.7-2.9,7.3-3.1,10.2-0.4c2.9,2.7,3.1,7.3,0.4,10.2
			C312.5,27.5,307.9,27.7,305,25z M313.3,16c-2-1.9-5.2-1.8-7,0.3c-1.9,2-1.8,5.2,0.3,7c2,1.9,5.2,1.8,7-0.3
			C315.4,21.1,315.3,17.9,313.3,16z"/>
	</g>
	<g>
		<circle class="st7" cx="272.1" cy="45.8" r="6.8"/>
		<path class="st5" d="M266.6,51.6c-3.2-3-3.4-8-0.4-11.2c3-3.2,8-3.4,11.2-0.4c3.2,3,3.4,8,0.4,11.2
			C274.9,54.4,269.9,54.6,266.6,51.6z M275.9,41.6c-2.3-2.1-5.9-2-8,0.3c-2.1,2.3-2,5.9,0.3,8c2.3,2.1,5.9,2,8-0.3
			S278.2,43.8,275.9,41.6z"/>
	</g>
	<g>
		<ellipse class="st7" cx="327" cy="54.3" rx="6.5" ry="6.5"/>
		<path class="st5" d="M321.8,59.9c-2.2-2-3.1-5.2-2-8.1c1.4-4,5.7-6.1,9.7-4.7c1.9,0.7,3.4,2.1,4.3,3.9c0.9,1.9,1,3.9,0.3,5.8
			c-0.7,1.9-2.1,3.4-3.9,4.3c-1.9,0.9-3.9,1-5.8,0.3C323.5,61.2,322.6,60.6,321.8,59.9z M330.7,50.4c-0.5-0.5-1.2-0.9-1.9-1.1
			c-2.8-1-5.8,0.5-6.8,3.3c-1,2.8,0.5,5.8,3.3,6.8c1.3,0.5,2.8,0.4,4.1-0.2c1.3-0.6,2.2-1.7,2.7-3.1c0.5-1.3,0.4-2.8-0.2-4.1
			C331.5,51.4,331.1,50.9,330.7,50.4z"/>
	</g>
	<g>
		<circle class="st7" cx="298.3" cy="96.3" r="6.2"/>
		<path class="st5" d="M293.3,101.7c-3-2.8-3.1-7.4-0.4-10.4c2.8-3,7.4-3.1,10.4-0.4c3,2.8,3.1,7.4,0.4,10.4
			C300.9,104.3,296.2,104.5,293.3,101.7z M301.7,92.6c-2-1.9-5.2-1.8-7.1,0.3c-1.9,2-1.8,5.2,0.3,7.1c2,1.9,5.2,1.8,7.1-0.3
			C303.9,97.8,303.8,94.5,301.7,92.6z"/>
	</g>
	<g>
		<circle class="st7" cx="330.7" cy="132.3" r="6.3"/>
		<path class="st5" d="M325.7,137.8c-3-2.8-3.2-7.5-0.4-10.6c2.8-3,7.5-3.2,10.6-0.4c3,2.8,3.2,7.5,0.4,10.6
			C333.4,140.4,328.7,140.6,325.7,137.8z M334.3,128.5c-2.1-1.9-5.4-1.9-7.4,0.3c-1.9,2.1-1.9,5.4,0.3,7.4c2.1,1.9,5.4,1.9,7.4-0.3
			S336.4,130.5,334.3,128.5z"/>
	</g>
	<g>
		<circle class="st7" cx="377.9" cy="151.3" r="4.6"/>
		<path class="st5" d="M373.9,155.5c-2.3-2.2-2.5-5.9-0.3-8.2c2.2-2.3,5.9-2.5,8.2-0.3c2.3,2.2,2.5,5.9,0.3,8.2
			C379.9,157.6,376.3,157.7,373.9,155.5z M380.3,148.8c-1.4-1.3-3.7-1.2-4.9,0.2c-1.3,1.4-1.2,3.7,0.2,4.9c1.4,1.3,3.7,1.2,4.9-0.2
			C381.8,152.3,381.7,150,380.3,148.8z"/>
	</g>
	<g>
		<circle class="st7" cx="262.1" cy="89.6" r="6.1"/>
		<path class="st5" d="M257.2,94.9c-2.9-2.7-3.1-7.3-0.4-10.2c2.7-2.9,7.3-3.1,10.2-0.4c2.9,2.7,3.1,7.3,0.4,10.2
			C264.7,97.5,260.1,97.6,257.2,94.9z M265.4,86c-2-1.9-5.1-1.7-7,0.3c-1.9,2-1.7,5.1,0.3,7s5.1,1.7,7-0.3
			C267.5,91,267.4,87.9,265.4,86z"/>
	</g>
	<g>
		<ellipse class="st7" cx="373.6" cy="68.3" rx="6.5" ry="6.5"/>
		<path class="st5" d="M368.4,73.9c-2.2-2-3.1-5.2-2-8.1c0.7-1.9,2.1-3.4,3.9-4.3s3.9-1,5.8-0.3c4,1.4,6.1,5.7,4.7,9.7
			c-1.4,4-5.7,6.1-9.7,4.7C370.1,75.1,369.2,74.6,368.4,73.9z M377.3,64.4c-0.5-0.5-1.2-0.9-1.9-1.1l0,0c-1.3-0.5-2.8-0.4-4.1,0.2
			c-1.3,0.6-2.2,1.7-2.7,3.1c-0.5,1.3-0.4,2.8,0.2,4.1c0.6,1.3,1.7,2.2,3.1,2.7c2.8,1,5.8-0.5,6.8-3.3
			C379.4,68,378.8,65.8,377.3,64.4z"/>
	</g>
	<g>
		<circle class="st7" cx="295.8" cy="153.7" r="4.6"/>
		<path class="st5" d="M291.8,157.9c-2.3-2.2-2.5-5.9-0.3-8.2c2.2-2.3,5.9-2.5,8.2-0.3c2.3,2.2,2.5,5.9,0.3,8.2
			C297.8,159.9,294.2,160.1,291.8,157.9z M298.2,151.1c-1.4-1.3-3.7-1.2-4.9,0.2c-1.3,1.4-1.2,3.7,0.2,4.9c1.4,1.3,3.7,1.2,4.9-0.2
			C299.7,154.6,299.6,152.4,298.2,151.1z"/>
	</g>
	<g>
		<circle class="st7" cx="346.7" cy="16.5" r="9.7"/>
		<path class="st5" d="M339.4,24.5c-4.4-4.1-4.6-10.9-0.6-15.3c4.1-4.4,10.9-4.6,15.3-0.6s4.6,10.9,0.6,15.3S343.8,28.5,339.4,24.5z
			 M352.6,10.3c-3.4-3.2-8.9-3-12.1,0.4c-3.2,3.4-3,8.9,0.4,12.1c3.4,3.2,8.9,3,12.1-0.4C356.3,18.9,356,13.5,352.6,10.3z"/>
	</g>
	<g>
		<ellipse class="st8" cx="288.2" cy="63.9" rx="7.7" ry="7.7"/>
	</g>
	<g>
		<circle class="st8" cx="346.2" cy="100.6" r="7.7"/>
	</g>
	<g>
		<ellipse class="st7" cx="339.1" cy="163" rx="10.2" ry="10.2"/>
		<path class="st5" d="M331.3,171.3c-4.6-4.3-4.9-11.5-0.6-16.1c4.3-4.6,11.5-4.9,16.1-0.6c4.6,4.3,4.9,11.5,0.6,16.1
			C343.2,175.4,335.9,175.6,331.3,171.3z M345.3,156.3c-3.7-3.4-9.5-3.2-12.9,0.5c-3.4,3.7-3.2,9.5,0.5,12.9
			c3.7,3.4,9.5,3.2,12.9-0.5C349.2,165.5,349,159.8,345.3,156.3z"/>
	</g>
	<g>
		<circle class="st7" cx="269.3" cy="121.6" r="10.2"/>
		<path class="st5" d="M261.6,130c-4.6-4.3-4.9-11.5-0.6-16.1c4.3-4.6,11.5-4.9,16.1-0.6s4.9,11.5,0.6,16.1
			C273.4,134,266.2,134.3,261.6,130z M275.6,114.9c-3.7-3.4-9.5-3.2-12.9,0.5c-3.4,3.7-3.2,9.5,0.5,12.9c3.7,3.4,9.5,3.2,12.9-0.5
			C279.5,124.1,279.2,118.4,275.6,114.9z"/>
	</g>
	<g>
		<ellipse class="st9" cx="405.7" cy="71.1" rx="7.7" ry="7.7"/>
	</g>
	<g>
		<circle class="st7" cx="401.7" cy="119.4" r="6.5"/>
		<path class="st5" d="M396.5,125c-3.1-2.8-3.3-7.7-0.4-10.8c2.8-3.1,7.7-3.3,10.8-0.4c3.1,2.8,3.3,7.7,0.4,10.8
			C404.4,127.6,399.6,127.8,396.5,125z M405.3,115.5c-2.2-2-5.6-1.9-7.5,0.3c-2,2.2-1.9,5.6,0.3,7.5c2.2,2,5.6,1.9,7.5-0.3
			C407.6,120.9,407.5,117.5,405.3,115.5z"/>
	</g>
	<g>
		<g>
			<path class="st6" d="M384.9,34.4"/>
		</g>
		<g>
			<ellipse class="st7" cx="384.7" cy="34.6" rx="6.7" ry="6.7"/>
			<path class="st5" d="M379.4,40.4c-0.7-0.6-1.3-1.5-1.7-2.4c-0.9-1.9-1-4-0.3-6c1.4-4.1,5.9-6.2,10-4.8l0,0c2,0.7,3.6,2.1,4.5,4
				c0.9,1.9,1,4,0.3,6c-1.4,4.1-5.9,6.2-10,4.8C381.1,41.7,380.2,41.1,379.4,40.4z M386.6,29.4c-2.9-1-6.1,0.5-7.1,3.4
				c-0.5,1.4-0.4,2.9,0.3,4.3s1.8,2.4,3.2,2.8c2.9,1,6.1-0.5,7.1-3.4c0.5-1.4,0.4-2.9-0.3-4.3C389.1,30.9,388,29.8,386.6,29.4
				L386.6,29.4z"/>
		</g>
		<g>
			<ellipse class="st10" cx="384.7" cy="34.6" rx="4.1" ry="4.1"/>
		</g>
	</g>
	<g>
		<circle class="st9" cx="309.9" cy="19.7" r="4.1"/>
	</g>
	<g>
		<ellipse class="st8" cx="272.1" cy="45.8" rx="4.1" ry="4.1"/>
	</g>
	<g>
		<circle class="st9" cx="327" cy="54.3" r="4.1"/>
	</g>
	<g>
		<circle class="st11" cx="298.3" cy="96.3" r="4.1"/>
	</g>
	<g>
		<circle class="st11" cx="330.7" cy="132.3" r="4.1"/>
	</g>
	<g>
		<circle class="st7" cx="377.9" cy="151.3" r="6.5"/>
		<path class="st5" d="M372.7,156.8c-3.1-2.8-3.3-7.7-0.4-10.8c2.8-3.1,7.7-3.3,10.8-0.4c3.1,2.8,3.3,7.7,0.4,10.8
			C380.6,159.5,375.8,159.7,372.7,156.8z M381.5,147.4c-2.2-2-5.6-1.9-7.5,0.3c-2,2.2-1.9,5.6,0.3,7.5c2.2,2,5.6,1.9,7.5-0.3
			C383.8,152.8,383.7,149.4,381.5,147.4z"/>
	</g>
	<g>
		<ellipse class="st11" cx="262.1" cy="89.6" rx="4.1" ry="4.1"/>
	</g>
	<g>
		<ellipse class="st9" cx="373.6" cy="68.3" rx="4.1" ry="4.1"/>
	</g>
	<g>
		<ellipse class="st7" cx="295.8" cy="153.6" rx="6.3" ry="6.3"/>
		<path class="st5" d="M290.7,159c-0.7-0.6-1.2-1.4-1.6-2.2c-0.9-1.8-1-3.8-0.3-5.7c1.4-3.9,5.6-5.9,9.5-4.6l0,0
			c3.9,1.4,5.9,5.6,4.6,9.5c-1.4,3.9-5.6,5.9-9.5,4.6C292.3,160.2,291.5,159.7,290.7,159z M297.5,148.7c-2.7-0.9-5.7,0.5-6.6,3.2
			s0.5,5.7,3.2,6.6c2.7,0.9,5.7-0.5,6.6-3.2S300.2,149.6,297.5,148.7L297.5,148.7z"/>
	</g>
	<g>
		<circle class="st10" cx="346.7" cy="16.6" r="7.7"/>
	</g>
	<g>
		<ellipse class="st11" cx="377.8" cy="151.3" rx="4.1" ry="4.1"/>
	</g>
	<g>
		<ellipse class="st8" cx="401.8" cy="119.5" rx="4.1" ry="4.1"/>
	</g>
	<g>
		<circle class="st10" cx="269.2" cy="121.6" r="7.7"/>
	</g>
	<g>
		<circle class="st10" cx="339" cy="163" r="7.7"/>
	</g>
	<g>
		<ellipse class="st10" cx="295.8" cy="153.7" rx="4.1" ry="4.1"/>
	</g>
	<g>
		<polygon class="st8" points="287.7,64 271.4,45.5 272.1,44.9 288.3,63.3 348,101.3 401.4,119.8 401.2,120.6 347.6,102.1 
			347.5,102.1 		"/>
	</g>
	<g>
		<polygon class="st9" points="326.9,54.5 309.4,19.6 310.3,19.3 327.5,53.7 373.1,67.9 404.5,71.1 404.4,72 372.9,68.8 372.9,68.8 
					"/>
	</g>
	<g>
		<path class="st6" d="M261.2,89.3"/>
	</g>
	<g>
		<polygon class="st11" points="261.5,89.4 261.6,88.5 298.1,95.8 331.1,132.5 377.6,150.4 377.2,151.2 330.6,133.3 297.7,96.6 		
			"/>
	</g>
</g>
</svg>
