<?xml version="1.0" encoding="UTF-8"?> <svg xmlns="http://www.w3.org/2000/svg" width="1080" height="360" viewBox="0 0 1080 360" fill="none"><g clip-path="url(#clip0_387_6126)"><path d="M686.739 211.05L691.909 193.55L666.109 219.87L686.739 211.05Z" fill="#D2EEED" stroke="#49BDB7" stroke-width="0.8" stroke-miterlimit="10"></path><path d="M536.791 151.59L532.471 161.24L549.331 148.13L536.791 151.59Z" fill="#D2EEED" stroke="#49BDB7" stroke-width="0.8" stroke-miterlimit="10"></path><path d="M625.281 199.79L635.051 174.76L619.801 186.92L625.281 199.79Z" fill="#D2EEED" stroke="#49BDB7" stroke-width="0.8" stroke-miterlimit="10"></path><path d="M613.391 191.97L613.311 174.65L618.141 186.19L613.391 191.97Z" stroke="#163156" stroke-width="0.8" stroke-miterlimit="10"></path><path d="M578.179 162.87L549.279 166.09L571.159 158.06L578.179 162.87Z" stroke="#163156" stroke-width="0.8" stroke-miterlimit="10"></path><path d="M569.101 230.61L552.471 215.46L568.431 225.09L569.101 230.61Z" stroke="#1CACA5" stroke-width="0.8" stroke-miterlimit="10"></path><path d="M646.101 214.31L625.801 218.54L641.611 211.82L646.101 214.31Z" stroke="#1CACA5" stroke-width="0.8" stroke-miterlimit="10"></path><path d="M526.94 211.25L524.52 188.89L530.099 206.67L526.94 211.25Z" fill="#D2EEED" stroke="#49BDB7" stroke-width="0.8" stroke-miterlimit="10"></path><path d="M521.699 184.75L551.389 190.82L525.759 189.3L521.699 184.75Z" stroke="#1CACA5" stroke-width="0.8" stroke-miterlimit="10"></path><path d="M600.01 216.31L575.1 222.76L603.85 198.79L600.01 216.31Z" stroke="#1CACA5" stroke-width="0.8" stroke-miterlimit="10"></path><path d="M624.93 219.35L603.35 218.92L641.46 240.13L624.93 219.35Z" fill="#D2EEED" stroke="#49BDB7" stroke-width="0.8" stroke-miterlimit="10"></path><path d="M677.449 179.57L660.949 177.83L670.679 184.92L677.449 179.57Z" fill="#D2EEED" stroke="#49BDB7" stroke-width="0.8" stroke-miterlimit="10"></path><path d="M665.801 219.72L697.151 223.16L672.081 226.47L665.801 219.72Z" stroke="#1CACA5" stroke-width="0.8" stroke-miterlimit="10"></path><path d="M740.94 237.26L733.41 252.04L737.14 238.81L740.94 237.26Z" stroke="#1CACA5" stroke-width="0.8" stroke-miterlimit="10"></path><path d="M676.029 170.72L693.699 179.89L677.859 175.29L676.029 170.72Z" stroke="#163156" stroke-width="0.8" stroke-miterlimit="10"></path><path d="M554.58 239.98L573.92 244.7L557.44 243.99L554.58 239.98Z" stroke="#1CACA5" stroke-width="0.8" stroke-miterlimit="10"></path><path d="M693.249 242.63L703.499 262.65L691.939 248.03L693.249 242.63Z" fill="#D2EEED" stroke="#49BDB7" stroke-width="0.8" stroke-miterlimit="10"></path><path d="M692.971 241.29L723.251 242.06L697.761 245.06L692.971 241.29Z" stroke="#1CACA5" stroke-width="0.8" stroke-miterlimit="10"></path><path d="M722.29 182.93L715.88 196.85L715.66 174.56L722.29 182.93Z" stroke="#163156" stroke-width="0.8" stroke-miterlimit="10"></path><path d="M678.82 157.7L672.23 147.83L674.63 171.68L678.82 157.7Z" fill="#D2EEED" stroke="#49BDB7" stroke-width="0.8" stroke-miterlimit="10"></path><path d="M603.1 233.29L593.4 226.45L604.23 247.84L603.1 233.29Z" fill="#D2EEED" stroke="#49BDB7" stroke-width="0.8" stroke-miterlimit="10"></path><path d="M670.28 112.61L659.1 111.44L665.7 116.25L670.28 112.61Z" fill="#D2EEED" stroke="#49BDB7" stroke-width="0.8" stroke-miterlimit="10"></path><path d="M669.84 118.53L658.99 121.55L665.39 116.53L669.84 118.53Z" stroke="#1CACA5" stroke-width="0.8" stroke-miterlimit="10"></path><path d="M642.391 128.57L661.191 130.63L646.161 132.62L642.391 128.57Z" stroke="#F04E23" stroke-width="0.8" stroke-miterlimit="10"></path><path d="M695.989 137.44L689.869 149.46L692.899 138.7L695.989 137.44Z" stroke="#1CACA5" stroke-width="0.8" stroke-miterlimit="10"></path><path d="M649.261 94.7598L655.411 106.77L648.471 98.0098L649.261 94.7598Z" stroke="#F04E23" stroke-width="0.8" stroke-miterlimit="10"></path><path d="M645.46 166.13L651.61 178.14L644.67 169.37L645.46 166.13Z" fill="#D2EEED" stroke="#49BDB7" stroke-width="0.8" stroke-miterlimit="10"></path><path d="M728.53 121.17L734.68 133.17L727.75 124.41L728.53 121.17Z" fill="#D2EEED" stroke="#49BDB7" stroke-width="0.8" stroke-miterlimit="10"></path><path d="M571.42 183.29L587.02 187.92L563.57 164.87L571.42 183.29Z" fill="#D2EEED" stroke="#49BDB7" stroke-width="0.8" stroke-miterlimit="10"></path><path d="M606.991 162.38L588.721 167.29L602.001 159.97L606.991 162.38Z" stroke="#F04E23" stroke-width="0.8" stroke-miterlimit="10"></path><path d="M580.74 123.04L573.42 111.7L581.2 119.73L580.74 123.04Z" stroke="#163156" stroke-width="0.8" stroke-miterlimit="10"></path><path d="M613.619 135.51L620.769 124.07L616.809 134.52L613.619 135.51Z" fill="#D2EEED" stroke="#49BDB7" stroke-width="0.8" stroke-miterlimit="10"></path><path d="M691.48 83.8001L703.79 78.3101L694.67 84.7601L691.48 83.8001Z" fill="#D2EEED" stroke="#49BDB7" stroke-width="0.8" stroke-miterlimit="10"></path><path d="M529.739 212.66L514.359 222.33L526.099 212.37L529.739 212.66Z" stroke="#1CACA5" stroke-width="0.8" stroke-miterlimit="10"></path><path d="M566.019 199.4L561.669 208.83L561.529 193.73L566.019 199.4Z" stroke="#1CACA5" stroke-width="0.8" stroke-miterlimit="10"></path><g style="mix-blend-mode:color-dodge"><path d="M-1 151.5L8.5 108.5L18.3919 121.08L28.7847 124.58L39.1774 145.58L51.6409 103.58L60.6401 162.31L68.9523 153.23L74.4971 172.8L86.9605 144.46L92.5053 177.31L98.0402 157.74L108.433 147.26L120.651 161.83L126.441 144.46C126.441 144.46 131.289 180.1 131.976 182.2C132.663 184.3 140.288 165.42 140.288 165.42L146.53 187.79L158.306 178L155.539 137.47L166.619 156.72L173.547 142.72L178.395 116.16L186.707 167.16L193.636 148.29L200.554 162.29L211.644 103.58L222.027 78.45L235.884 60.28L251.115 99.42L261.596 79.85L273.971 176.66L284.364 223.48L297.524 184.35L318.3 157.09L332.147 117.26L344.62 146.58L354.257 129.8L364.64 92.11L375.033 63.46L387.496 95.61L394.493 118L399.253 102.62L408.262 121.49L423.493 69.78L440.814 55.78L449.813 6.86L471.286 98.41L479.598 136.85L497.606 95.62L514.221 97.7L524.398 60.38L530.904 129.65L545.497 145.46V158.74L555.89 162.23L566.283 183.23L578.746 141.28L587.726 200L596.038 190.91L601.563 210.45L614.027 232.11L619.591 265L625.116 245.39L635.509 234.91L643.124 204.16L653.576 232.11C653.576 232.11 658.424 267.75 659.111 269.85C659.798 271.95 667.423 253.08 667.423 253.08L673.665 275.44L685.441 265.66L682.674 225.12L693.753 194.38L700.682 180.38L705.53 153.82L713.842 204.82L720.712 186L727.63 199.95L738.71 141.25L749.103 116.12L762.96 97.95L778.21 137.07L788.692 117.5L801.067 171.31L811.459 218.14L824.6 179L845.376 151.75L860.096 139.06L871.667 141.24L881.363 124.45L891.746 86.75L902.138 58.1L914.621 90.25L921.638 112.61L926.398 97.24L935.407 116.11L950.638 64.39L967.959 50.39L981.6 0L998.44 93L1006.75 131.44L1015.95 116.11L1029.36 111.32L1045.99 70.08L1079.5 162.23V360H-1V151.5Z" fill="white"></path></g><path d="M68.7109 27.8301V72.0001" stroke="#1CACA5" stroke-width="0.8" stroke-miterlimit="10"></path><path d="M77.2109 74.21H64.2109V216.44H77.2109V74.21Z" fill="#D2EEED"></path><path d="M98.5195 175.01H85.5195V253.1H98.5195V175.01Z" fill="#D2EEED"></path><path d="M205.09 155.25H192.09V233.34H205.09V155.25Z" fill="#D2EEED"></path><path d="M332.971 144.08H319.971V222.17H332.971V144.08Z" fill="#D2EEED"></path><path d="M226.4 147.82H213.4V196.53H226.4V147.82Z" fill="#D2EEED"></path><path d="M418.221 132.21H405.221V180.92H418.221V132.21Z" fill="#D2EEED"></path><path d="M482.16 110.1H469.16V158.81H482.16V110.1Z" fill="#D2EEED"></path><path d="M247.721 182.21H234.721V196.53H247.721V182.21Z" fill="#D2EEED"></path><path d="M610.039 254.39H597.039V268.71H610.039V254.39Z" fill="#D2EEED"></path><path d="M674 307H661V310.96H674V307Z" fill="#D2EEED"></path><path d="M695.301 224.12H682.301V238.44H695.301V224.12Z" fill="#D2EEED"></path><path d="M844.49 182.21H831.49V196.53H844.49V182.21Z" fill="#D2EEED"></path><path d="M439.539 174.02H426.539V188.34H439.539V174.02Z" fill="#D2EEED"></path><path d="M652.67 238.44H639.67V307.61H652.67V238.44Z" fill="#D2EEED"></path><path d="M865.801 134.6H852.801V203.77H865.801V134.6Z" fill="#D2EEED"></path><path d="M993.68 126.82H980.68V173.5H993.68V126.82Z" fill="#D2EEED"></path><path d="M929.74 167.03H916.74V203.77H929.74V167.03Z" fill="#D2EEED"></path><path d="M354.279 131.92H341.279V146.24H354.279V131.92Z" fill="#D2EEED"></path><path d="M269.029 192.57H256.029V196.53H269.029V192.57Z" fill="#D2EEED"></path><path d="M460.85 203.99H447.85V207.95H460.85V203.99Z" fill="#D2EEED"></path><path d="M567.42 203.99H554.42V207.95H567.42V203.99Z" fill="#D2EEED"></path><path d="M887.119 158.07H874.119V162.03H887.119V158.07Z" fill="#D2EEED"></path><path d="M972.369 203.99H959.369V223.75H972.369V203.99Z" fill="#D2EEED"></path><path d="M75.2109 72.21H62.2109V214.44H75.2109V72.21Z" stroke="#1CACA5" stroke-width="0.8" stroke-miterlimit="10"></path><path d="M96.5195 173.01H83.5195V251.1H96.5195V173.01Z" stroke="#1CACA5" stroke-width="0.8" stroke-miterlimit="10"></path><path d="M203.09 153.25H190.09V231.34H203.09V153.25Z" stroke="#1CACA5" stroke-width="0.8" stroke-miterlimit="10"></path><path d="M330.971 142.08H317.971V220.17H330.971V142.08Z" stroke="#1CACA5" stroke-width="0.8" stroke-miterlimit="10"></path><path d="M224.4 145.82H211.4V194.53H224.4V145.82Z" stroke="#1CACA5" stroke-width="0.8" stroke-miterlimit="10"></path><path d="M416.221 130.21H403.221V178.92H416.221V130.21Z" stroke="#1CACA5" stroke-width="0.8" stroke-miterlimit="10"></path><path d="M480.16 108.1H467.16V156.81H480.16V108.1Z" stroke="#1CACA5" stroke-width="0.8" stroke-miterlimit="10"></path><path d="M245.721 180.21H232.721V194.53H245.721V180.21Z" stroke="#1CACA5" stroke-width="0.8" stroke-miterlimit="10"></path><path d="M608.039 252.39H595.039V266.71H608.039V252.39Z" stroke="#1CACA5" stroke-width="0.8" stroke-miterlimit="10"></path><path d="M693.301 222.12H680.301V236.44H693.301V222.12Z" stroke="#1CACA5" stroke-width="0.8" stroke-miterlimit="10"></path><path d="M842.49 180.21H829.49V194.53H842.49V180.21Z" stroke="#1CACA5" stroke-width="0.8" stroke-miterlimit="10"></path><path d="M437.539 172.02H424.539V186.34H437.539V172.02Z" stroke="#1CACA5" stroke-width="0.8" stroke-miterlimit="10"></path><path d="M650.67 236.44H637.67V305.61H650.67V236.44Z" stroke="#1CACA5" stroke-width="0.8" stroke-miterlimit="10"></path><path d="M863.801 132.6H850.801V201.77H863.801V132.6Z" stroke="#1CACA5" stroke-width="0.8" stroke-miterlimit="10"></path><path d="M991.68 124.82H978.68V171.5H991.68V124.82Z" stroke="#1CACA5" stroke-width="0.8" stroke-miterlimit="10"></path><path d="M927.74 165.03H914.74V201.77H927.74V165.03Z" stroke="#1CACA5" stroke-width="0.8" stroke-miterlimit="10"></path><path d="M352.279 129.92H339.279V144.24H352.279V129.92Z" stroke="#1CACA5" stroke-width="0.8" stroke-miterlimit="10"></path><path d="M267.029 190.57H254.029V194.53H267.029V190.57Z" stroke="#1CACA5" stroke-width="0.8" stroke-miterlimit="10"></path><path d="M458.85 201.99H445.85V205.95H458.85V201.99Z" stroke="#1CACA5" stroke-width="0.8" stroke-miterlimit="10"></path><path d="M565.42 201.99H552.42V205.95H565.42V201.99Z" stroke="#1CACA5" stroke-width="0.8" stroke-miterlimit="10"></path><path d="M885.119 156.07H872.119V160.03H885.119V156.07Z" stroke="#1CACA5" stroke-width="0.8" stroke-miterlimit="10"></path><path d="M970.369 201.99H957.369V221.75H970.369V201.99Z" stroke="#1CACA5" stroke-width="0.8" stroke-miterlimit="10"></path><path d="M672 305H659V308.96H672V305Z" stroke="#1CACA5" stroke-width="0.8" stroke-miterlimit="10"></path><path d="M68.7109 214.5V258.82" stroke="#1CACA5" stroke-width="0.8" stroke-miterlimit="10"></path><path d="M62.2109 72.21L75.2109 94.62L62.2109 102.08L75.2109 130.81L62.2109 164.89L75.2109 197.45L66.5909 214.44" stroke="#1CACA5" stroke-width="0.8" stroke-miterlimit="10"></path><path d="M68 150.5L74.7509 167.5" stroke="#1CACA5" stroke-width="0.8" stroke-miterlimit="10"></path><path d="M76.5 131L62.5 134" stroke="#1CACA5" stroke-width="0.8"></path><path d="M90.0195 112.4V173" stroke="#1CACA5" stroke-width="0.8" stroke-miterlimit="10"></path><path d="M90.0195 251.5V295.48" stroke="#1CACA5" stroke-width="0.8" stroke-miterlimit="10"></path><path d="M83.5195 175.46L96.5195 188.62M83.5195 236.66L96.5195 244.55L87.4595 251.1" stroke="#1CACA5" stroke-width="0.8" stroke-miterlimit="10"></path><path d="M93.2095 173.01L83.5195 191.51L96.5195 203.96L83.5195 222.72L96.5195 233.25" stroke="#1CACA5" stroke-width="0.8" stroke-miterlimit="10"></path><path d="M196.59 92.6299V153" stroke="#1CACA5" stroke-width="0.8" stroke-miterlimit="10"></path><path d="M196.59 231.5V275.71" stroke="#1CACA5" stroke-width="0.8" stroke-miterlimit="10"></path><path d="M190.09 153.25L203.09 172.02L190.09 192.29L203.09 207.4L190.09 231.34" stroke="#1CACA5" stroke-width="0.8" stroke-miterlimit="10"></path><path d="M203.09 224.64L190.09 212.05M197 162.5L190.09 174.5L198 181.5" stroke="#1CACA5" stroke-width="0.8" stroke-miterlimit="10"></path><path d="M324.471 81.4702V142.5" stroke="#1CACA5" stroke-width="0.8" stroke-miterlimit="10"></path><path d="M324.471 220V264.55" stroke="#1CACA5" stroke-width="0.8" stroke-miterlimit="10"></path><path d="M330.971 142.08L317.971 158.38L330.971 173.89L317.971 190.5L330.971 205.95L317.971 220.17" stroke="#1CACA5" stroke-width="0.8" stroke-miterlimit="10"></path><path d="M217.9 109.68V145.5" stroke="#1CACA5" stroke-width="0.8" stroke-miterlimit="10"></path><path d="M217.9 195V238.91" stroke="#1CACA5" stroke-width="0.8" stroke-miterlimit="10"></path><path d="M217.5 180L211.4 194.53" stroke="#1CACA5" stroke-width="0.8" stroke-miterlimit="10"></path><path d="M224.4 188.62L211.4 173.01L224.4 156.09" stroke="#1CACA5" stroke-width="0.8" stroke-miterlimit="10"></path><path d="M409.721 94.0698V130.5" stroke="#1CACA5" stroke-width="0.8" stroke-miterlimit="10"></path><path d="M409.721 179.5V223.29" stroke="#1CACA5" stroke-width="0.8" stroke-miterlimit="10"></path><path d="M403.221 130.21L416.221 142.5L403.221 156.11L416.221 167L403.221 178.92" stroke="#1CACA5" stroke-width="0.8" stroke-miterlimit="10"></path><path d="M473.66 71.95V107.5" stroke="#1CACA5" stroke-width="0.8" stroke-miterlimit="10"></path><path d="M473.66 156.5V201.18" stroke="#1CACA5" stroke-width="0.8" stroke-miterlimit="10"></path><path d="M467.16 108.1L480.16 129.42L467.16 142.99L480.16 156.81" stroke="#1CACA5" stroke-width="0.8" stroke-miterlimit="10"></path><path d="M480.16 108.1L467.16 125.25M480.16 142.99L467.16 156.81" stroke="#1CACA5" stroke-width="0.8" stroke-miterlimit="10"></path><path d="M239.211 145.82V180.5" stroke="#1CACA5" stroke-width="0.8" stroke-miterlimit="10"></path><path d="M239.211 194.5V238.91" stroke="#1CACA5" stroke-width="0.8" stroke-miterlimit="10"></path><path d="M232.721 180.21L245.711 188.62L232.721 194.53" stroke="#1CACA5" stroke-width="0.8" stroke-miterlimit="10"></path><path d="M601.539 218.01V252.5" stroke="#1CACA5" stroke-width="0.8" stroke-miterlimit="10"></path><path d="M601.539 266.5V311.09" stroke="#1CACA5" stroke-width="0.8" stroke-miterlimit="10"></path><path d="M595.039 252.39L608.039 260.28L595.039 266.71" stroke="#1CACA5" stroke-width="0.8" stroke-miterlimit="10"></path><path d="M686.789 187.74V222.5" stroke="#1CACA5" stroke-width="0.8" stroke-miterlimit="10"></path><path d="M686.789 236.5V280.82" stroke="#1CACA5" stroke-width="0.8" stroke-miterlimit="10"></path><path d="M680.301 222.12L693.291 229.28L680.301 236.44" stroke="#1CACA5" stroke-width="0.8" stroke-miterlimit="10"></path><path d="M835.99 145.82V179.5" stroke="#1CACA5" stroke-width="0.8" stroke-miterlimit="10"></path><path d="M835.99 194V238.91" stroke="#1CACA5" stroke-width="0.8" stroke-miterlimit="10"></path><path d="M842.49 180.21L829.49 188.29L842.49 194.53" stroke="#1CACA5" stroke-width="0.8" stroke-miterlimit="10"></path><path d="M431.029 137.63V172.5" stroke="#1CACA5" stroke-width="0.8" stroke-miterlimit="10"></path><path d="M431.029 186V230.72" stroke="#1CACA5" stroke-width="0.8" stroke-miterlimit="10"></path><path d="M437.529 172.02L424.539 179.87L437.529 186.34" stroke="#1CACA5" stroke-width="0.8" stroke-miterlimit="10"></path><path d="M644.17 220.17V236.5" stroke="#1CACA5" stroke-width="0.8" stroke-miterlimit="10"></path><path d="M644.17 305.5V313.25" stroke="#1CACA5" stroke-width="0.8" stroke-miterlimit="10"></path><path d="M650.67 236.44L637.67 254.44M650.67 292.62L637.67 305.61" stroke="#1CACA5" stroke-width="0.8" stroke-miterlimit="10"></path><path d="M637.67 236.44L650.67 254.44L637.67 267.53L650.67 283.04L637.67 294.34L650.67 305.61" stroke="#1CACA5" stroke-width="0.8" stroke-miterlimit="10"></path><path d="M857.301 116.32V132.5" stroke="#1CACA5" stroke-width="0.8" stroke-miterlimit="10"></path><path d="M857.301 201.5V209.41" stroke="#1CACA5" stroke-width="0.8" stroke-miterlimit="10"></path><path d="M863.801 132.6L850.801 147.99L863.801 163.5L850.801 179.14L863.801 192.77L850.801 201.77" stroke="#1CACA5" stroke-width="0.8" stroke-miterlimit="10"></path><path d="M985.18 86.0601V124.5" stroke="#1CACA5" stroke-width="0.8" stroke-miterlimit="10"></path><path d="M985.18 171.5V179.14" stroke="#1CACA5" stroke-width="0.8" stroke-miterlimit="10"></path><path d="M991.68 124.82L978.68 140.15L991.68 154.14L978.68 171.5" stroke="#1CACA5" stroke-width="0.8" stroke-miterlimit="10"></path><path d="M921.24 116.32V165.5" stroke="#1CACA5" stroke-width="0.8" stroke-miterlimit="10"></path><path d="M921.24 201.5V209.41" stroke="#1CACA5" stroke-width="0.8" stroke-miterlimit="10"></path><path d="M914.74 165.03L927.74 182.46L914.74 201.77" stroke="#1CACA5" stroke-width="0.8" stroke-miterlimit="10"></path><path d="M914.74 183.4L927.74 201.77" stroke="#1CACA5" stroke-width="0.8" stroke-miterlimit="10"></path><path d="M345.779 95.54V129.5" stroke="#1CACA5" stroke-width="0.8" stroke-miterlimit="10"></path><path d="M339.279 129.92L352.279 144.24" stroke="#1CACA5" stroke-width="0.8" stroke-miterlimit="10"></path><path d="M352.279 129.92L339.279 138.66L345.779 144.5V188.62" stroke="#1CACA5" stroke-width="0.8" stroke-miterlimit="10"></path><path d="M260.529 136.57V190.5" stroke="#1CACA5" stroke-width="0.8" stroke-miterlimit="10"></path><path d="M260.529 194.5V238.91" stroke="#1CACA5" stroke-width="0.8" stroke-miterlimit="10"></path><path d="M452.35 147.99V201.5" stroke="#1CACA5" stroke-width="0.8" stroke-miterlimit="10"></path><path d="M452.35 205.5V250.33" stroke="#1CACA5" stroke-width="0.8" stroke-miterlimit="10"></path><path d="M558.91 147.99V202" stroke="#1CACA5" stroke-width="0.8" stroke-miterlimit="10"></path><path d="M558.91 205.5V250.33" stroke="#1CACA5" stroke-width="0.8" stroke-miterlimit="10"></path><path d="M665.48 250.15V304.5" stroke="#1CACA5" stroke-width="0.8" stroke-miterlimit="10"></path><path d="M665.48 308.5V352.49" stroke="#1CACA5" stroke-width="0.8" stroke-miterlimit="10"></path><path d="M878.609 102.08V156.5" stroke="#1CACA5" stroke-width="0.8" stroke-miterlimit="10"></path><path d="M878.609 160.5V204.42" stroke="#1CACA5" stroke-width="0.8" stroke-miterlimit="10"></path><path d="M963.869 147.99V201.5" stroke="#1CACA5" stroke-width="0.8" stroke-miterlimit="10"></path><path d="M963.869 221.5V250.33" stroke="#1CACA5" stroke-width="0.8" stroke-miterlimit="10"></path><path d="M970.369 201.99L957.369 214.11L970.369 221.75" stroke="#1CACA5" stroke-width="0.8" stroke-miterlimit="10"></path><path d="M814.67 154.78V257.12" stroke="#F04E23" stroke-width="0.8" stroke-miterlimit="10"></path><path d="M942.551 119.01V221.35" stroke="#F04E23" stroke-width="0.8" stroke-miterlimit="10"></path><path d="M111.33 192.84V331.55" stroke="#F04E23" stroke-width="0.8" stroke-miterlimit="10"></path><path d="M132.65 170.66V353.74" stroke="#163156" stroke-width="0.8" stroke-miterlimit="10"></path><path d="M516.289 56.4502V239.53" stroke="#F04E23" stroke-width="0.8" stroke-miterlimit="10"></path><path d="M729.42 87.6399V270.72" stroke="#163156" stroke-width="0.8" stroke-miterlimit="10"></path><path d="M153.961 175.36V304.66" stroke="#163156" stroke-width="0.8" stroke-miterlimit="10"></path><path d="M281.84 175.36V304.66" stroke="#F04E23" stroke-width="0.8" stroke-miterlimit="10"></path><path d="M303.15 157.1V286.4" stroke="#F04E23" stroke-width="0.8" stroke-miterlimit="10"></path><path d="M580.23 157.1V286.4" stroke="#F04E23" stroke-width="0.8" stroke-miterlimit="10"></path><path d="M708.109 145.84V275.14" stroke="#F04E23" stroke-width="0.8" stroke-miterlimit="10"></path><path d="M793.359 175.36V304.66" stroke="#F04E23" stroke-width="0.8" stroke-miterlimit="10"></path><path d="M899.93 130.5V259.8" stroke="#F04E23" stroke-width="0.8" stroke-miterlimit="10"></path><path d="M772.051 141.3V270.6" stroke="#163156" stroke-width="0.8" stroke-miterlimit="10"></path><path d="M388.41 58.0701V187.37" stroke="#163156" stroke-width="0.8" stroke-miterlimit="10"></path><path d="M494.971 30.1802V159.48" stroke="#F04E23" stroke-width="0.8" stroke-miterlimit="10"></path><path d="M175.27 175.46V276.41" stroke="#F04E23" stroke-width="0.8" stroke-miterlimit="10"></path><path d="M367.09 53.8401V154.78" stroke="#F04E23" stroke-width="0.8" stroke-miterlimit="10"></path><path d="M622.85 153.5V254.44" stroke="#F04E23" stroke-width="0.8" stroke-miterlimit="10"></path><path d="M750.73 112.4V213.34" stroke="#163156" stroke-width="0.8" stroke-miterlimit="10"></path><path d="M537.6 128.45V229.39" stroke="#163156" stroke-width="0.8" stroke-miterlimit="10"></path><path d="M823.18 210.78H810.18V214.74H823.18V210.78Z" fill="#FCDCD3"></path><path d="M951.061 175.01H938.061V194.77H951.061V175.01Z" fill="#FCDCD3"></path><path d="M119.84 242.01H106.84V289.17H119.84V242.01Z" fill="#FCDCD3"></path><path d="M141.15 233.27H128.15V311.36H141.15V233.27Z" fill="#E1EEFF"></path><path d="M524.789 119.06H511.789V197.15H524.789V119.06Z" fill="#FCDCD3"></path><path d="M737.92 150.25H724.92V228.34H737.92V150.25Z" fill="#E1EEFF"></path><path d="M162.461 215.12H149.461V262.28H162.461V215.12Z" fill="#E1EEFF"></path><path d="M290.34 242.01H277.34V262.28H290.34V242.01Z" fill="#FCDCD3"></path><path d="M311.66 216.88H298.66V244.02H311.66V216.88Z" fill="#FCDCD3"></path><path d="M588.73 216.88H575.73V244.02H588.73V216.88Z" fill="#FCDCD3"></path><path d="M716.609 205.63H703.609V232.77H716.609V205.63Z" fill="#FCDCD3"></path><path d="M801.859 235.14H788.859V262.28H801.859V235.14Z" fill="#FCDCD3"></path><path d="M908.43 190.29H895.43V217.43H908.43V190.29Z" fill="#FCDCD3"></path><path d="M780.551 159.8H767.551V228.23H780.551V159.8Z" fill="#E1EEFF"></path><path d="M396.91 117.85H383.91V144.99H396.91V117.85Z" fill="#E1EEFF"></path><path d="M503.48 89.96H490.48V117.1H503.48V89.96Z" fill="#FCDCD3"></path><path d="M183.779 223.75H170.779V234.03H183.779V223.75Z" fill="#FCDCD3"></path><path d="M375.6 102.12H362.6V112.4H375.6V102.12Z" fill="#FCDCD3"></path><path d="M631.359 201.78H618.359V253.59H631.359V201.78Z" fill="#FCDCD3"></path><path d="M759.24 160.68H746.24V212.49H759.24V160.68Z" fill="#E1EEFF"></path><path d="M546.1 176.73H533.1V187.01H546.1V176.73Z" fill="#E1EEFF"></path><path d="M55.9004 186.17H42.9004V238.81H55.9004V186.17Z" fill="#FCDCD3"></path><path d="M808.58 212.34V209.18H820.78V212.34H808.58Z" stroke="#F04E23" stroke-width="0.8"></path><path d="M936.461 192.37V173.41H948.661V192.37H936.461Z" stroke="#F04E23" stroke-width="0.8"></path><path d="M105.24 286.77V240.41H117.44V286.77H105.24Z" stroke="#F04E23" stroke-width="0.8"></path><path d="M126.4 308.69V231.4H138.6V308.69H126.4Z" stroke="#163156" stroke-width="0.8"></path><path d="M138.5 231.5L126.5 252L138.5 274.5L126.5 297L138.5 308.5" stroke="#163156" stroke-width="0.8"></path><path d="M510.189 194.75V117.46H522.389V194.75H510.189Z" stroke="#F04E23" stroke-width="0.8"></path><path d="M723.32 225.94V148.65H735.52V225.94H723.32Z" stroke="#163156" stroke-width="0.8"></path><path d="M723.5 148.5L735.5 166L723.5 180.5L735.5 205L723.5 225.5" stroke="#163156" stroke-width="0.8"></path><path d="M147.861 259.88V213.52H160.061V259.88H147.861Z" stroke="#163156" stroke-width="0.8"></path><path d="M275.74 259.88V240.41H287.94V259.88H275.74Z" stroke="#F04E23" stroke-width="0.8"></path><path d="M297.06 241.62V215.28H309.26V241.62H297.06Z" stroke="#F04E23" stroke-width="0.8"></path><path d="M574.13 241.62V215.28H586.33V241.62H574.13Z" stroke="#F04E23" stroke-width="0.8"></path><path d="M702.009 230.37V204.03H714.209V230.37H702.009Z" stroke="#F04E23" stroke-width="0.8"></path><path d="M787.259 259.88V233.54H799.459V259.88H787.259Z" stroke="#F04E23" stroke-width="0.8"></path><path d="M893.83 215.03V188.69H906.03V215.03H893.83Z" stroke="#F04E23" stroke-width="0.8"></path><path d="M765.951 225.83V158.2H778.151V225.83H765.951Z" stroke="#163156" stroke-width="0.8"></path><path d="M778.5 158L766 175.5L778.5 190.5L766 207.5L778.5 226" stroke="#163156" stroke-width="0.8"></path><path d="M382.31 142.59V116.25H394.51V142.59H382.31Z" stroke="#163156" stroke-width="0.8"></path><path d="M488.88 114.7V88.36H501.08V114.7H488.88Z" stroke="#F04E23" stroke-width="0.8"></path><path d="M169.179 231.63V222.15H181.379V231.63H169.179Z" stroke="#F04E23" stroke-width="0.8"></path><path d="M361 110V100.52H373.2V110H361Z" stroke="#F04E23" stroke-width="0.8"></path><path d="M616.759 251.19V200.18H628.959V251.19H616.759Z" stroke="#F04E23" stroke-width="0.8"></path><path d="M744.64 210.09V159.08H756.84V210.09H744.64Z" stroke="#163156" stroke-width="0.8"></path><path d="M757 159L744.5 173L757 182L744.5 198L757 210" stroke="#163156" stroke-width="0.8"></path><path d="M531.5 184.61V175.13H543.7V184.61H531.5Z" stroke="#163156" stroke-width="0.8"></path><path d="M41.3004 236.41V184.57H53.5004V236.41H41.3004Z" stroke="#F04E23" stroke-width="0.8"></path><path d="M47.3906 43.6299V243.02" stroke="#F04E23" stroke-width="0.8" stroke-miterlimit="10"></path><path d="M-31.5508 241.57C18.5392 227.25 72.5592 248.28 116.199 274.67C130.529 283.33 146.199 293.08 163.319 291.42C185.449 289.28 199.319 269.78 213.179 254.09C237.329 226.81 276.869 205.32 313.769 215.89C327.619 219.89 341.449 228.17 355.439 224.63C365.559 222.07 372.499 213.94 378.919 206.44C390.149 193.32 402.419 180.38 418.489 172.34C434.559 164.3 455.299 162.02 471.119 170.44C479.689 175 486.069 182.2 492.049 189.37C517.319 219.71 539.689 253.3 574.049 275.19C608.409 297.08 659.969 303.36 690.489 277.19C707.959 262.19 717.099 238.33 739.489 230.39C761.679 222.53 785.739 234.03 808.489 240.44C845.249 250.82 891.069 245 912.709 216.41C918.789 208.41 922.709 198.91 930.389 192.06C943.459 180.37 963.769 179.13 980.569 172.33C1009.24 160.73 1025.74 134.04 1043.32 110.55C1060.9 87.0599 1085.83 63.3499 1117.25 63.8299" stroke="#163156" stroke-width="0.8" stroke-miterlimit="10"></path><path d="M-36.75 232.29C-0.310001 214.21 45.3 211.99 83.7 226.4C112.89 237.4 144.32 257.61 172.77 245.17C179.25 242.34 184.77 237.98 191.2 235.06C220.74 221.66 260.4 241.54 288.08 225.23C304.08 215.8 310.89 196.69 327.54 188.23C353.61 175.03 385.44 194.84 415.27 193C446.36 191.07 471.53 165.76 502.69 165.28C538.27 164.73 563.24 195.46 594.05 211.5C626.92 228.62 670.05 228.28 702.62 210.63C715.93 203.41 727.62 193.53 742.15 188.63C772.26 178.41 805.27 191.77 834.08 204.63C847.17 210.49 861.93 216.46 875.89 212.56C893.33 207.7 901.31 190.14 912.89 177.43C926.56 162.43 947.65 153.2 969.16 152.74C992.16 152.25 1017.3 160.74 1036.74 149.74C1044.49 145.35 1049.97 138.41 1056.74 132.92C1071.74 120.79 1093.88 116.23 1113.28 121.23" stroke="#F3714F" stroke-width="0.8" stroke-miterlimit="10"></path><path d="M957.199 200.98L972.369 211.12L935.699 207.39L957.199 200.98Z" fill="white" stroke="#F04E23" stroke-width="0.8" stroke-miterlimit="10"></path><path d="M879.99 342.59L870.49 337.95L891.84 337.24L879.99 342.59Z" fill="#D2EEED" stroke="#49BDB7" stroke-width="0.8" stroke-miterlimit="10"></path><path d="M917.16 248.95L940.69 261.93L921.19 262.34L917.16 248.95Z" fill="#D2EEED" stroke="#49BDB7" stroke-width="0.8" stroke-miterlimit="10"></path><path d="M913.029 262.56L924.049 275.92L920.379 263.97L913.029 262.56Z" stroke="#163156" stroke-width="0.8" stroke-miterlimit="10"></path><path d="M904.581 307.45L880.311 323.47L902.271 315.64L904.581 307.45Z" stroke="#163156" stroke-width="0.8" stroke-miterlimit="10"></path><path d="M854.26 261.19L851.18 283.47L857.28 265.87L854.26 261.19Z" stroke="#163156" stroke-width="0.8" stroke-miterlimit="10"></path><path d="M923.88 224.47L905.57 234.2L922.02 229.25L923.88 224.47Z" stroke="#1CACA5" stroke-width="0.8" stroke-miterlimit="10"></path><path d="M834.25 303.04L846.69 321.78L839.6 304.54L834.25 303.04Z" fill="#D2EEED" stroke="#49BDB7" stroke-width="0.8" stroke-miterlimit="10"></path><path d="M847.17 326.76L866.11 303.11L847.38 320.67L847.17 326.76Z" stroke="#1CACA5" stroke-width="0.8" stroke-miterlimit="10"></path><path d="M887.17 252.41L863.9 263.39L901.33 263.42L887.17 252.41Z" stroke="#F04E23" stroke-width="0.8" stroke-miterlimit="10"></path><path d="M904.39 234.13L888.07 248.27L903.79 207.58L904.39 234.13Z" fill="#D2EEED" stroke="#49BDB7" stroke-width="0.8" stroke-miterlimit="10"></path><path d="M970.201 231.12L958.631 243L961.571 231.33L970.201 231.12Z" fill="#D2EEED" stroke="#49BDB7" stroke-width="0.8" stroke-miterlimit="10"></path><path d="M935.561 207.71L957.461 185.01L936.071 198.5L935.561 207.71Z" fill="white" stroke="#163156" stroke-width="0.8" stroke-miterlimit="10"></path><path d="M982.1 146.16L966.85 139.62L978.18 147.39L982.1 146.16Z" stroke="#1CACA5" stroke-width="0.8" stroke-miterlimit="10"></path><path d="M974.77 238.82L982.48 220.47L973.25 234.14L974.77 238.82Z" stroke="#F04E23" stroke-width="0.8" stroke-miterlimit="10"></path><path d="M837.11 263.28L848.96 247.28L836.75 258.37L837.11 263.28Z" stroke="#1CACA5" stroke-width="0.8" stroke-miterlimit="10"></path><path d="M942.01 172.54L937.08 150.59L937.54 169.22L942.01 172.54Z" fill="#D2EEED" stroke="#49BDB7" stroke-width="0.8" stroke-miterlimit="10"></path><path d="M942.641 173.74L965.431 153.78L943.911 167.78L942.641 173.74Z" stroke="#1CACA5" stroke-width="0.8" stroke-miterlimit="10"></path><path d="M1002.52 199.84L988.68 193.25L1002.78 210.52L1002.52 199.84Z" stroke="#163156" stroke-width="0.8" stroke-miterlimit="10"></path><path d="M985.24 247.05L986.49 258.85L973.08 238.98L985.24 247.05Z" fill="#D2EEED" stroke="#49BDB7" stroke-width="0.8" stroke-miterlimit="10"></path><path d="M878.69 237.38L875.61 248.84L870.25 225.47L878.69 237.38Z" fill="#D2EEED" stroke="#49BDB7" stroke-width="0.8" stroke-miterlimit="10"></path><path d="M1007.52 287.16L999.68 295.22L1001.67 287.3L1007.52 287.16Z" fill="#D2EEED" stroke="#49BDB7" stroke-width="0.8" stroke-miterlimit="10"></path><path d="M1003.4 282.9L993.119 287.52L1001.25 287.28L1003.4 282.9Z" stroke="#1CACA5" stroke-width="0.8" stroke-miterlimit="10"></path><path d="M975.869 292.74L989.009 279.13L976.179 287.22L975.869 292.74Z" stroke="#F04E23" stroke-width="0.8" stroke-miterlimit="10"></path><path d="M1011.4 251.63L999.01 246.31L1008.22 252.64L1011.4 251.63Z" stroke="#1CACA5" stroke-width="0.8" stroke-miterlimit="10"></path><path d="M1002.78 314.33L999.83 301.17L1000.1 312.34L1002.78 314.33Z" stroke="#F04E23" stroke-width="0.8" stroke-miterlimit="10"></path><path d="M954.21 261.91L951.25 248.75L951.52 259.92L954.21 261.91Z" fill="#D2EEED" stroke="#49BDB7" stroke-width="0.8" stroke-miterlimit="10"></path><path d="M1046.83 243.32L1043.87 230.16L1044.14 241.33L1046.83 243.32Z" fill="#D2EEED" stroke="#49BDB7" stroke-width="0.8" stroke-miterlimit="10"></path><path d="M886.32 296.08L895.35 282.54L892.07 315.26L886.32 296.08Z" fill="#D2EEED" stroke="#49BDB7" stroke-width="0.8" stroke-miterlimit="10"></path><path d="M927.039 289.4L909.859 297.31L924.749 294.44L927.039 289.4Z" stroke="#1CACA5" stroke-width="0.8" stroke-miterlimit="10"></path><path d="M932.029 336.43L933.659 349.82L934.499 338.68L932.029 336.43Z" stroke="#F04E23" stroke-width="0.8" stroke-miterlimit="10"></path><path d="M949.33 305.81L962.14 310.03L952.41 304.54L949.33 305.81Z" fill="#D2EEED" stroke="#49BDB7" stroke-width="0.8" stroke-miterlimit="10"></path><path d="M1042.24 295.75L1055.23 292.09L1044.09 292.97L1042.24 295.75Z" fill="#D2EEED" stroke="#49BDB7" stroke-width="0.8" stroke-miterlimit="10"></path><path d="M835.5 300.17L817.49 302.57L832.89 302.73L835.5 300.17Z" stroke="#F04E23" stroke-width="0.8" stroke-miterlimit="10"></path><path d="M871.87 287.15L862.49 282.68L872.04 294.38L871.87 287.15Z" stroke="#1CACA5" stroke-width="0.8" stroke-miterlimit="10"></path><path d="M163.739 299.05L168.909 281.55L143.109 307.87L163.739 299.05Z" fill="#D2EEED" stroke="#49BDB7" stroke-width="0.8" stroke-miterlimit="10"></path><path d="M13.8007 239.59L9.4707 249.24L26.3307 236.13L13.8007 239.59Z" fill="#D2EEED" stroke="#49BDB7" stroke-width="0.8" stroke-miterlimit="10"></path><path d="M102.281 287.79L112.051 262.76L96.8105 274.92L102.281 287.79Z" fill="#D2EEED" stroke="#49BDB7" stroke-width="0.8" stroke-miterlimit="10"></path><path d="M90.3905 279.97L90.3105 262.65L95.1405 274.19L90.3905 279.97Z" stroke="#163156" stroke-width="0.8" stroke-miterlimit="10"></path><path d="M55.1793 250.87L26.2793 254.09L48.1593 246.06L55.1793 250.87Z" stroke="#1CACA5" stroke-width="0.8" stroke-miterlimit="10"></path><path d="M46.1007 318.61L29.4707 303.46L45.4307 313.09L46.1007 318.61Z" stroke="#1CACA5" stroke-width="0.8" stroke-miterlimit="10"></path><path d="M123.101 302.31L102.801 306.54L118.611 299.82L123.101 302.31Z" stroke="#163156" stroke-width="0.8" stroke-miterlimit="10"></path><path d="M3.93953 299.25L1.51953 276.89L7.09953 294.67L3.93953 299.25Z" fill="#D2EEED" stroke="#49BDB7" stroke-width="0.8" stroke-miterlimit="10"></path><path d="M-1.30078 272.75L28.3892 278.82L2.75922 277.3L-1.30078 272.75Z" stroke="#F04E23" stroke-width="0.8" stroke-miterlimit="10"></path><path d="M77.0096 304.31L52.0996 310.76L80.8496 286.8L77.0096 304.31Z" stroke="#1CACA5" stroke-width="0.8" stroke-miterlimit="10"></path><path d="M101.93 307.35L80.3496 306.92L118.46 328.13L101.93 307.35Z" fill="#D2EEED" stroke="#49BDB7" stroke-width="0.8" stroke-miterlimit="10"></path><path d="M154.449 267.57L137.949 265.83L147.679 272.92L154.449 267.57Z" fill="#D2EEED" stroke="#49BDB7" stroke-width="0.8" stroke-miterlimit="10"></path><path d="M142.801 307.72L174.151 311.16L149.081 314.47L142.801 307.72Z" stroke="#F04E23" stroke-width="0.8" stroke-miterlimit="10"></path><path d="M217.94 325.26L210.41 340.04L214.14 326.81L217.94 325.26Z" stroke="#1CACA5" stroke-width="0.8" stroke-miterlimit="10"></path><path d="M153.029 258.72L170.699 267.89L154.859 263.29L153.029 258.72Z" fill="white" stroke="#163156" stroke-width="0.8" stroke-miterlimit="10"></path><path d="M31.5801 327.98L50.9201 332.7L34.4401 331.99L31.5801 327.98Z" stroke="#1CACA5" stroke-width="0.8" stroke-miterlimit="10"></path><path d="M170.249 330.63L180.499 350.65L168.939 336.03L170.249 330.63Z" fill="#D2EEED" stroke="#49BDB7" stroke-width="0.8" stroke-miterlimit="10"></path><path d="M169.971 329.29L200.251 330.06L174.761 333.06L169.971 329.29Z" stroke="#F04E23" stroke-width="0.8" stroke-miterlimit="10"></path><path d="M199.29 270.93L192.88 284.85L192.66 262.56L199.29 270.93Z" fill="white" stroke="#163156" stroke-width="0.8" stroke-miterlimit="10"></path><path d="M80.1004 321.29L70.4004 314.45L81.2304 335.84L80.1004 321.29Z" fill="#D2EEED" stroke="#49BDB7" stroke-width="0.8" stroke-miterlimit="10"></path><path d="M147.28 200.61L136.1 199.44L142.7 204.25L147.28 200.61Z" fill="#D2EEED" stroke="#49BDB7" stroke-width="0.8" stroke-miterlimit="10"></path><path d="M146.84 206.53L135.99 209.55L142.39 204.53L146.84 206.53Z" stroke="#1CACA5" stroke-width="0.8" stroke-miterlimit="10"></path><path d="M119.391 216.57L138.191 218.63L123.161 220.62L119.391 216.57Z" stroke="#1CACA5" stroke-width="0.8" stroke-miterlimit="10"></path><path d="M172.989 225.44L166.869 237.46L169.909 226.7L172.989 225.44Z" stroke="#1CACA5" stroke-width="0.8" stroke-miterlimit="10"></path><path d="M126.261 182.76L132.411 194.77L125.471 186.01L126.261 182.76Z" stroke="#1CACA5" stroke-width="0.8" stroke-miterlimit="10"></path><path d="M122.46 254.13L128.6 266.14L121.67 257.37L122.46 254.13Z" fill="#D2EEED" stroke="#49BDB7" stroke-width="0.8" stroke-miterlimit="10"></path><path d="M205.53 209.17L211.68 221.17L204.75 212.41L205.53 209.17Z" fill="#D2EEED" stroke="#49BDB7" stroke-width="0.8" stroke-miterlimit="10"></path><path d="M48.4203 271.29L64.0203 275.92L40.5703 252.87L48.4203 271.29Z" fill="#D2EEED" stroke="#49BDB7" stroke-width="0.8" stroke-miterlimit="10"></path><path d="M83.9907 250.38L65.7207 255.29L79.0007 247.97L83.9907 250.38Z" stroke="#1CACA5" stroke-width="0.8" stroke-miterlimit="10"></path><path d="M57.7399 211.04L50.4199 199.71L58.1999 207.73L57.7399 211.04Z" stroke="#1CACA5" stroke-width="0.8" stroke-miterlimit="10"></path><path d="M90.6191 223.51L97.7691 212.07L93.8091 222.52L90.6191 223.51Z" fill="#D2EEED" stroke="#49BDB7" stroke-width="0.8" stroke-miterlimit="10"></path><path d="M168.471 171.8L180.791 166.31L171.671 172.76L168.471 171.8Z" fill="#D2EEED" stroke="#49BDB7" stroke-width="0.8" stroke-miterlimit="10"></path><path d="M21.38 305.29L6 314.96L17.74 305L21.38 305.29Z" stroke="#163156" stroke-width="0.8" stroke-miterlimit="10"></path><path d="M43.0193 287.4L38.6693 296.83L38.5293 281.73L43.0193 287.4Z" stroke="#163156" stroke-width="0.8" stroke-miterlimit="10"></path><path d="M61.75 72.5C62.3023 72.5 62.75 72.0523 62.75 71.5C62.75 70.9477 62.3023 70.5 61.75 70.5C61.1977 70.5 60.75 70.9477 60.75 71.5C60.75 72.0523 61.1977 72.5 61.75 72.5Z" fill="#1CACA5" stroke="#1CACA5" stroke-width="0.8" stroke-miterlimit="10"></path><path d="M74.75 95.5C75.3023 95.5 75.75 95.0523 75.75 94.5C75.75 93.9477 75.3023 93.5 74.75 93.5C74.1977 93.5 73.75 93.9477 73.75 94.5C73.75 95.0523 74.1977 95.5 74.75 95.5Z" fill="#1CACA5" stroke="#1CACA5" stroke-width="0.8" stroke-miterlimit="10"></path><path d="M63 103.5C63.5523 103.5 64 103.052 64 102.5C64 101.948 63.5523 101.5 63 101.5C62.4477 101.5 62 101.948 62 102.5C62 103.052 62.4477 103.5 63 103.5Z" fill="#1CACA5" stroke="#1CACA5" stroke-width="0.8" stroke-miterlimit="10"></path><path d="M76 132.5C76.5523 132.5 77 132.052 77 131.5C77 130.948 76.5523 130.5 76 130.5C75.4477 130.5 75 130.948 75 131.5C75 132.052 75.4477 132.5 76 132.5Z" fill="#1CACA5" stroke="#1CACA5" stroke-width="0.8" stroke-miterlimit="10"></path><path d="M76 169C76.5523 169 77 168.552 77 168C77 167.448 76.5523 167 76 167C75.4477 167 75 167.448 75 168C75 168.552 75.4477 169 76 169Z" fill="#1CACA5" stroke="#1CACA5" stroke-width="0.8" stroke-miterlimit="10"></path><path d="M63 193.5C63.5523 193.5 64 193.052 64 192.5C64 191.948 63.5523 191.5 63 191.5C62.4477 191.5 62 191.948 62 192.5C62 193.052 62.4477 193.5 63 193.5Z" fill="#1CACA5" stroke="#1CACA5" stroke-width="0.8" stroke-miterlimit="10"></path><path d="M74.75 198.5C75.3023 198.5 75.75 198.052 75.75 197.5C75.75 196.948 75.3023 196.5 74.75 196.5C74.1977 196.5 73.75 196.948 73.75 197.5C73.75 198.052 74.1977 198.5 74.75 198.5Z" fill="#1CACA5" stroke="#1CACA5" stroke-width="0.8" stroke-miterlimit="10"></path><path d="M83.75 177.5C84.3023 177.5 84.75 177.052 84.75 176.5C84.75 175.948 84.3023 175.5 83.75 175.5C83.1977 175.5 82.75 175.948 82.75 176.5C82.75 177.052 83.1977 177.5 83.75 177.5Z" fill="#1CACA5" stroke="#1CACA5" stroke-width="0.8" stroke-miterlimit="10"></path><path d="M196.75 163.5C197.302 163.5 197.75 163.052 197.75 162.5C197.75 161.948 197.302 161.5 196.75 161.5C196.198 161.5 195.75 161.948 195.75 162.5C195.75 163.052 196.198 163.5 196.75 163.5Z" fill="#1CACA5" stroke="#1CACA5" stroke-width="0.8" stroke-miterlimit="10"></path><path d="M189.75 193.5C190.302 193.5 190.75 193.052 190.75 192.5C190.75 191.948 190.302 191.5 189.75 191.5C189.198 191.5 188.75 191.948 188.75 192.5C188.75 193.052 189.198 193.5 189.75 193.5Z" fill="#1CACA5" stroke="#1CACA5" stroke-width="0.8" stroke-miterlimit="10"></path><path d="M202.75 209.5C203.302 209.5 203.75 209.052 203.75 208.5C203.75 207.948 203.302 207.5 202.75 207.5C202.198 207.5 201.75 207.948 201.75 208.5C201.75 209.052 202.198 209.5 202.75 209.5Z" fill="#1CACA5" stroke="#1CACA5" stroke-width="0.8" stroke-miterlimit="10"></path><path d="M197.75 182.5C198.302 182.5 198.75 182.052 198.75 181.5C198.75 180.948 198.302 180.5 197.75 180.5C197.198 180.5 196.75 180.948 196.75 181.5C196.75 182.052 197.198 182.5 197.75 182.5Z" fill="#1CACA5" stroke="#1CACA5" stroke-width="0.8" stroke-miterlimit="10"></path><path d="M224.75 189.5C225.302 189.5 225.75 189.052 225.75 188.5C225.75 187.948 225.302 187.5 224.75 187.5C224.198 187.5 223.75 187.948 223.75 188.5C223.75 189.052 224.198 189.5 224.75 189.5Z" fill="#1CACA5" stroke="#1CACA5" stroke-width="0.8" stroke-miterlimit="10"></path><path d="M245.75 189.5C246.302 189.5 246.75 189.052 246.75 188.5C246.75 187.948 246.302 187.5 245.75 187.5C245.198 187.5 244.75 187.948 244.75 188.5C244.75 189.052 245.198 189.5 245.75 189.5Z" fill="#1CACA5" stroke="#1CACA5" stroke-width="0.8" stroke-miterlimit="10"></path><path d="M253.75 195.5C254.302 195.5 254.75 195.052 254.75 194.5C254.75 193.948 254.302 193.5 253.75 193.5C253.198 193.5 252.75 193.948 252.75 194.5C252.75 195.052 253.198 195.5 253.75 195.5Z" fill="#1CACA5" stroke="#1CACA5" stroke-width="0.8" stroke-miterlimit="10"></path><path d="M330.75 143.5C331.302 143.5 331.75 143.052 331.75 142.5C331.75 141.948 331.302 141.5 330.75 141.5C330.198 141.5 329.75 141.948 329.75 142.5C329.75 143.052 330.198 143.5 330.75 143.5Z" fill="#1CACA5" stroke="#1CACA5" stroke-width="0.8" stroke-miterlimit="10"></path><path d="M339.75 139.5C340.302 139.5 340.75 139.052 340.75 138.5C340.75 137.948 340.302 137.5 339.75 137.5C339.198 137.5 338.75 137.948 338.75 138.5C338.75 139.052 339.198 139.5 339.75 139.5Z" fill="#1CACA5" stroke="#1CACA5" stroke-width="0.8" stroke-miterlimit="10"></path><path d="M351.75 131.5C352.302 131.5 352.75 131.052 352.75 130.5C352.75 129.948 352.302 129.5 351.75 129.5C351.198 129.5 350.75 129.948 350.75 130.5C350.75 131.052 351.198 131.5 351.75 131.5Z" fill="#1CACA5" stroke="#1CACA5" stroke-width="0.8" stroke-miterlimit="10"></path><path d="M402.75 146.5C403.302 146.5 403.75 146.052 403.75 145.5C403.75 144.948 403.302 144.5 402.75 144.5C402.198 144.5 401.75 144.948 401.75 145.5C401.75 146.052 402.198 146.5 402.75 146.5Z" fill="#1CACA5" stroke="#1CACA5" stroke-width="0.8" stroke-miterlimit="10"></path><path d="M410.75 163.5C411.302 163.5 411.75 163.052 411.75 162.5C411.75 161.948 411.302 161.5 410.75 161.5C410.198 161.5 409.75 161.948 409.75 162.5C409.75 163.052 410.198 163.5 410.75 163.5Z" fill="#1CACA5" stroke="#1CACA5" stroke-width="0.8" stroke-miterlimit="10"></path><path d="M409.75 131.5C410.302 131.5 410.75 131.052 410.75 130.5C410.75 129.948 410.302 129.5 409.75 129.5C409.198 129.5 408.75 129.948 408.75 130.5C408.75 131.052 409.198 131.5 409.75 131.5Z" fill="#1CACA5" stroke="#1CACA5" stroke-width="0.8" stroke-miterlimit="10"></path><path d="M415.75 143.5C416.302 143.5 416.75 143.052 416.75 142.5C416.75 141.948 416.302 141.5 415.75 141.5C415.198 141.5 414.75 141.948 414.75 142.5C414.75 143.052 415.198 143.5 415.75 143.5Z" fill="#1CACA5" stroke="#1CACA5" stroke-width="0.8" stroke-miterlimit="10"></path><path d="M424.75 180.5C425.302 180.5 425.75 180.052 425.75 179.5C425.75 178.948 425.302 178.5 424.75 178.5C424.198 178.5 423.75 178.948 423.75 179.5C423.75 180.052 424.198 180.5 424.75 180.5Z" fill="#1CACA5" stroke="#1CACA5" stroke-width="0.8" stroke-miterlimit="10"></path><path d="M437.75 172.5C438.302 172.5 438.75 172.052 438.75 171.5C438.75 170.948 438.302 170.5 437.75 170.5C437.198 170.5 436.75 170.948 436.75 171.5C436.75 172.052 437.198 172.5 437.75 172.5Z" fill="#1CACA5" stroke="#1CACA5" stroke-width="0.8" stroke-miterlimit="10"></path><path d="M467.25 109.5C467.802 109.5 468.25 109.052 468.25 108.5C468.25 107.948 467.802 107.5 467.25 107.5C466.698 107.5 466.25 107.948 466.25 108.5C466.25 109.052 466.698 109.5 467.25 109.5Z" fill="#1CACA5" stroke="#1CACA5" stroke-width="0.8" stroke-miterlimit="10"></path><path d="M479.75 130.5C480.302 130.5 480.75 130.052 480.75 129.5C480.75 128.948 480.302 128.5 479.75 128.5C479.198 128.5 478.75 128.948 478.75 129.5C478.75 130.052 479.198 130.5 479.75 130.5Z" fill="#1CACA5" stroke="#1CACA5" stroke-width="0.8" stroke-miterlimit="10"></path><path d="M479.75 157.5C480.302 157.5 480.75 157.052 480.75 156.5C480.75 155.948 480.302 155.5 479.75 155.5C479.198 155.5 478.75 155.948 478.75 156.5C478.75 157.052 479.198 157.5 479.75 157.5Z" fill="#1CACA5" stroke="#1CACA5" stroke-width="0.8" stroke-miterlimit="10"></path><path d="M472.75 118.5C473.302 118.5 473.75 118.052 473.75 117.5C473.75 116.948 473.302 116.5 472.75 116.5C472.198 116.5 471.75 116.948 471.75 117.5C471.75 118.052 472.198 118.5 472.75 118.5Z" fill="#1CACA5" stroke="#1CACA5" stroke-width="0.8" stroke-miterlimit="10"></path><path d="M467.75 143.5C468.302 143.5 468.75 143.052 468.75 142.5C468.75 141.948 468.302 141.5 467.75 141.5C467.198 141.5 466.75 141.948 466.75 142.5C466.75 143.052 467.198 143.5 467.75 143.5Z" fill="#1CACA5" stroke="#1CACA5" stroke-width="0.8" stroke-miterlimit="10"></path><path d="M445.75 202.5C446.302 202.5 446.75 202.052 446.75 201.5C446.75 200.948 446.302 200.5 445.75 200.5C445.198 200.5 444.75 200.948 444.75 201.5C444.75 202.052 445.198 202.5 445.75 202.5Z" fill="#1CACA5" stroke="#1CACA5" stroke-width="0.8" stroke-miterlimit="10"></path><path d="M458.75 206.5C459.302 206.5 459.75 206.052 459.75 205.5C459.75 204.948 459.302 204.5 458.75 204.5C458.198 204.5 457.75 204.948 457.75 205.5C457.75 206.052 458.198 206.5 458.75 206.5Z" fill="#1CACA5" stroke="#1CACA5" stroke-width="0.8" stroke-miterlimit="10"></path><path d="M558.75 202.5C559.302 202.5 559.75 202.052 559.75 201.5C559.75 200.948 559.302 200.5 558.75 200.5C558.198 200.5 557.75 200.948 557.75 201.5C557.75 202.052 558.198 202.5 558.75 202.5Z" fill="#1CACA5" stroke="#1CACA5" stroke-width="0.8" stroke-miterlimit="10"></path><path d="M607.75 261.5C608.302 261.5 608.75 261.052 608.75 260.5C608.75 259.948 608.302 259.5 607.75 259.5C607.198 259.5 606.75 259.948 606.75 260.5C606.75 261.052 607.198 261.5 607.75 261.5Z" fill="#1CACA5" stroke="#1CACA5" stroke-width="0.8" stroke-miterlimit="10"></path><path d="M637.75 237.5C638.302 237.5 638.75 237.052 638.75 236.5C638.75 235.948 638.302 235.5 637.75 235.5C637.198 235.5 636.75 235.948 636.75 236.5C636.75 237.052 637.198 237.5 637.75 237.5Z" fill="#1CACA5" stroke="#1CACA5" stroke-width="0.8" stroke-miterlimit="10"></path><path d="M650.75 255.5C651.302 255.5 651.75 255.052 651.75 254.5C651.75 253.948 651.302 253.5 650.75 253.5C650.198 253.5 649.75 253.948 649.75 254.5C649.75 255.052 650.198 255.5 650.75 255.5Z" fill="#1CACA5" stroke="#1CACA5" stroke-width="0.8" stroke-miterlimit="10"></path><path d="M693.75 230.5C694.302 230.5 694.75 230.052 694.75 229.5C694.75 228.948 694.302 228.5 693.75 228.5C693.198 228.5 692.75 228.948 692.75 229.5C692.75 230.052 693.198 230.5 693.75 230.5Z" fill="#1CACA5" stroke="#1CACA5" stroke-width="0.8" stroke-miterlimit="10"></path><path d="M829.75 188.5C830.302 188.5 830.75 188.052 830.75 187.5C830.75 186.948 830.302 186.5 829.75 186.5C829.198 186.5 828.75 186.948 828.75 187.5C828.75 188.052 829.198 188.5 829.75 188.5Z" fill="#1CACA5" stroke="#1CACA5" stroke-width="0.8" stroke-miterlimit="10"></path><path d="M850.75 134.5C851.302 134.5 851.75 134.052 851.75 133.5C851.75 132.948 851.302 132.5 850.75 132.5C850.198 132.5 849.75 132.948 849.75 133.5C849.75 134.052 850.198 134.5 850.75 134.5Z" fill="#1CACA5" stroke="#1CACA5" stroke-width="0.8" stroke-miterlimit="10"></path><path d="M850.75 202.5C851.302 202.5 851.75 202.052 851.75 201.5C851.75 200.948 851.302 200.5 850.75 200.5C850.198 200.5 849.75 200.948 849.75 201.5C849.75 202.052 850.198 202.5 850.75 202.5Z" fill="#1CACA5" stroke="#1CACA5" stroke-width="0.8" stroke-miterlimit="10"></path><path d="M863.75 153.5C864.302 153.5 864.75 153.052 864.75 152.5C864.75 151.948 864.302 151.5 863.75 151.5C863.198 151.5 862.75 151.948 862.75 152.5C862.75 153.052 863.198 153.5 863.75 153.5Z" fill="#1CACA5" stroke="#1CACA5" stroke-width="0.8" stroke-miterlimit="10"></path><path d="M878.75 156.5C879.302 156.5 879.75 156.052 879.75 155.5C879.75 154.948 879.302 154.5 878.75 154.5C878.198 154.5 877.75 154.948 877.75 155.5C877.75 156.052 878.198 156.5 878.75 156.5Z" fill="#1CACA5" stroke="#1CACA5" stroke-width="0.8" stroke-miterlimit="10"></path><path d="M914.75 166.5C915.302 166.5 915.75 166.052 915.75 165.5C915.75 164.948 915.302 164.5 914.75 164.5C914.198 164.5 913.75 164.948 913.75 165.5C913.75 166.052 914.198 166.5 914.75 166.5Z" fill="#1CACA5" stroke="#1CACA5" stroke-width="0.8" stroke-miterlimit="10"></path><path d="M927.75 183.5C928.302 183.5 928.75 183.052 928.75 182.5C928.75 181.948 928.302 181.5 927.75 181.5C927.198 181.5 926.75 181.948 926.75 182.5C926.75 183.052 927.198 183.5 927.75 183.5Z" fill="#1CACA5" stroke="#1CACA5" stroke-width="0.8" stroke-miterlimit="10"></path><path d="M957.75 215.5C958.302 215.5 958.75 215.052 958.75 214.5C958.75 213.948 958.302 213.5 957.75 213.5C957.198 213.5 956.75 213.948 956.75 214.5C956.75 215.052 957.198 215.5 957.75 215.5Z" fill="#1CACA5" stroke="#1CACA5" stroke-width="0.8" stroke-miterlimit="10"></path><path d="M963.75 202.5C964.302 202.5 964.75 202.052 964.75 201.5C964.75 200.948 964.302 200.5 963.75 200.5C963.198 200.5 962.75 200.948 962.75 201.5C962.75 202.052 963.198 202.5 963.75 202.5Z" fill="#1CACA5" stroke="#1CACA5" stroke-width="0.8" stroke-miterlimit="10"></path><path d="M978.75 141.5C979.302 141.5 979.75 141.052 979.75 140.5C979.75 139.948 979.302 139.5 978.75 139.5C978.198 139.5 977.75 139.948 977.75 140.5C977.75 141.052 978.198 141.5 978.75 141.5Z" fill="#1CACA5" stroke="#1CACA5" stroke-width="0.8" stroke-miterlimit="10"></path><path d="M991.75 155.5C992.302 155.5 992.75 155.052 992.75 154.5C992.75 153.948 992.302 153.5 991.75 153.5C991.198 153.5 990.75 153.948 990.75 154.5C990.75 155.052 991.198 155.5 991.75 155.5Z" fill="#1CACA5" stroke="#1CACA5" stroke-width="0.8" stroke-miterlimit="10"></path><path d="M978.75 172.5C979.302 172.5 979.75 172.052 979.75 171.5C979.75 170.948 979.302 170.5 978.75 170.5C978.198 170.5 977.75 170.948 977.75 171.5C977.75 172.052 978.198 172.5 978.75 172.5Z" fill="#1CACA5" stroke="#1CACA5" stroke-width="0.8" stroke-miterlimit="10"></path><path d="M914.75 202.5C915.302 202.5 915.75 202.052 915.75 201.5C915.75 200.948 915.302 200.5 914.75 200.5C914.198 200.5 913.75 200.948 913.75 201.5C913.75 202.052 914.198 202.5 914.75 202.5Z" fill="#1CACA5" stroke="#1CACA5" stroke-width="0.8" stroke-miterlimit="10"></path><path d="M863.75 194.5C864.302 194.5 864.75 194.052 864.75 193.5C864.75 192.948 864.302 192.5 863.75 192.5C863.198 192.5 862.75 192.948 862.75 193.5C862.75 194.052 863.198 194.5 863.75 194.5Z" fill="#1CACA5" stroke="#1CACA5" stroke-width="0.8" stroke-miterlimit="10"></path><path d="M857 173C857.552 173 858 172.552 858 172C858 171.448 857.552 171 857 171C856.448 171 856 171.448 856 172C856 172.552 856.448 173 857 173Z" fill="#1CACA5" stroke="#1CACA5" stroke-width="0.8" stroke-miterlimit="10"></path><path d="M857 187C857.552 187 858 186.552 858 186C858 185.448 857.552 185 857 185C856.448 185 856 185.448 856 186C856 186.552 856.448 187 857 187Z" fill="#1CACA5" stroke="#1CACA5" stroke-width="0.8" stroke-miterlimit="10"></path><path d="M850.75 149.5C851.302 149.5 851.75 149.052 851.75 148.5C851.75 147.948 851.302 147.5 850.75 147.5C850.198 147.5 849.75 147.948 849.75 148.5C849.75 149.052 850.198 149.5 850.75 149.5Z" fill="#1CACA5" stroke="#1CACA5" stroke-width="0.8" stroke-miterlimit="10"></path><path d="M644.75 277.5C645.302 277.5 645.75 277.052 645.75 276.5C645.75 275.948 645.302 275.5 644.75 275.5C644.198 275.5 643.75 275.948 643.75 276.5C643.75 277.052 644.198 277.5 644.75 277.5Z" fill="#1CACA5" stroke="#1CACA5" stroke-width="0.8" stroke-miterlimit="10"></path><path d="M650.75 294.5C651.302 294.5 651.75 294.052 651.75 293.5C651.75 292.948 651.302 292.5 650.75 292.5C650.198 292.5 649.75 292.948 649.75 293.5C649.75 294.052 650.198 294.5 650.75 294.5Z" fill="#1CACA5" stroke="#1CACA5" stroke-width="0.8" stroke-miterlimit="10"></path><path d="M665.75 305.5C666.302 305.5 666.75 305.052 666.75 304.5C666.75 303.948 666.302 303.5 665.75 303.5C665.198 303.5 664.75 303.948 664.75 304.5C664.75 305.052 665.198 305.5 665.75 305.5Z" fill="#1CACA5" stroke="#1CACA5" stroke-width="0.8" stroke-miterlimit="10"></path><path d="M637.75 306.5C638.302 306.5 638.75 306.052 638.75 305.5C638.75 304.948 638.302 304.5 637.75 304.5C637.198 304.5 636.75 304.948 636.75 305.5C636.75 306.052 637.198 306.5 637.75 306.5Z" fill="#1CACA5" stroke="#1CACA5" stroke-width="0.8" stroke-miterlimit="10"></path><path d="M637.75 268.5C638.302 268.5 638.75 268.052 638.75 267.5C638.75 266.948 638.302 266.5 637.75 266.5C637.198 266.5 636.75 266.948 636.75 267.5C636.75 268.052 637.198 268.5 637.75 268.5Z" fill="#1CACA5" stroke="#1CACA5" stroke-width="0.8" stroke-miterlimit="10"></path><path d="M643.75 246.5C644.302 246.5 644.75 246.052 644.75 245.5C644.75 244.948 644.302 244.5 643.75 244.5C643.198 244.5 642.75 244.948 642.75 245.5C642.75 246.052 643.198 246.5 643.75 246.5Z" fill="#1CACA5" stroke="#1CACA5" stroke-width="0.8" stroke-miterlimit="10"></path><path d="M594.75 253.5C595.302 253.5 595.75 253.052 595.75 252.5C595.75 251.948 595.302 251.5 594.75 251.5C594.198 251.5 593.75 251.948 593.75 252.5C593.75 253.052 594.198 253.5 594.75 253.5Z" fill="#1CACA5" stroke="#1CACA5" stroke-width="0.8" stroke-miterlimit="10"></path><path d="M402.75 179.5C403.302 179.5 403.75 179.052 403.75 178.5C403.75 177.948 403.302 177.5 402.75 177.5C402.198 177.5 401.75 177.948 401.75 178.5C401.75 179.052 402.198 179.5 402.75 179.5Z" fill="#1CACA5" stroke="#1CACA5" stroke-width="0.8" stroke-miterlimit="10"></path><path d="M317.75 159.5C318.302 159.5 318.75 159.052 318.75 158.5C318.75 157.948 318.302 157.5 317.75 157.5C317.198 157.5 316.75 157.948 316.75 158.5C316.75 159.052 317.198 159.5 317.75 159.5Z" fill="#1CACA5" stroke="#1CACA5" stroke-width="0.8" stroke-miterlimit="10"></path><path d="M330.75 175.5C331.302 175.5 331.75 175.052 331.75 174.5C331.75 173.948 331.302 173.5 330.75 173.5C330.198 173.5 329.75 173.948 329.75 174.5C329.75 175.052 330.198 175.5 330.75 175.5Z" fill="#1CACA5" stroke="#1CACA5" stroke-width="0.8" stroke-miterlimit="10"></path><path d="M318 192C318.552 192 319 191.552 319 191C319 190.448 318.552 190 318 190C317.448 190 317 190.448 317 191C317 191.552 317.448 192 318 192Z" fill="#1CACA5" stroke="#1CACA5" stroke-width="0.8" stroke-miterlimit="10"></path><path d="M330.75 206.5C331.302 206.5 331.75 206.052 331.75 205.5C331.75 204.948 331.302 204.5 330.75 204.5C330.198 204.5 329.75 204.948 329.75 205.5C329.75 206.052 330.198 206.5 330.75 206.5Z" fill="#1CACA5" stroke="#1CACA5" stroke-width="0.8" stroke-miterlimit="10"></path><path d="M324.75 221.5C325.302 221.5 325.75 221.052 325.75 220.5C325.75 219.948 325.302 219.5 324.75 219.5C324.198 219.5 323.75 219.948 323.75 220.5C323.75 221.052 324.198 221.5 324.75 221.5Z" fill="#1CACA5" stroke="#1CACA5" stroke-width="0.8" stroke-miterlimit="10"></path><path d="M266.75 191.5C267.302 191.5 267.75 191.052 267.75 190.5C267.75 189.948 267.302 189.5 266.75 189.5C266.198 189.5 265.75 189.948 265.75 190.5C265.75 191.052 266.198 191.5 266.75 191.5Z" fill="#1CACA5" stroke="#1CACA5" stroke-width="0.8" stroke-miterlimit="10"></path><path d="M211.75 174.5C212.302 174.5 212.75 174.052 212.75 173.5C212.75 172.948 212.302 172.5 211.75 172.5C211.198 172.5 210.75 172.948 210.75 173.5C210.75 174.052 211.198 174.5 211.75 174.5Z" fill="#1CACA5" stroke="#1CACA5" stroke-width="0.8" stroke-miterlimit="10"></path><path d="M224.75 157.5C225.302 157.5 225.75 157.052 225.75 156.5C225.75 155.948 225.302 155.5 224.75 155.5C224.198 155.5 223.75 155.948 223.75 156.5C223.75 157.052 224.198 157.5 224.75 157.5Z" fill="#1CACA5" stroke="#1CACA5" stroke-width="0.8" stroke-miterlimit="10"></path><path d="M211 147C211.552 147 212 146.552 212 146C212 145.448 211.552 145 211 145C210.448 145 210 145.448 210 146C210 146.552 210.448 147 211 147Z" fill="#1CACA5" stroke="#1CACA5" stroke-width="0.8" stroke-miterlimit="10"></path><path d="M189.75 232.5C190.302 232.5 190.75 232.052 190.75 231.5C190.75 230.948 190.302 230.5 189.75 230.5C189.198 230.5 188.75 230.948 188.75 231.5C188.75 232.052 189.198 232.5 189.75 232.5Z" fill="#1CACA5" stroke="#1CACA5" stroke-width="0.8" stroke-miterlimit="10"></path><path d="M96.75 205.5C97.3023 205.5 97.75 205.052 97.75 204.5C97.75 203.948 97.3023 203.5 96.75 203.5C96.1977 203.5 95.75 203.948 95.75 204.5C95.75 205.052 96.1977 205.5 96.75 205.5Z" fill="#1CACA5" stroke="#1CACA5" stroke-width="0.8" stroke-miterlimit="10"></path><path d="M89.75 197.5C90.3023 197.5 90.75 197.052 90.75 196.5C90.75 195.948 90.3023 195.5 89.75 195.5C89.1977 195.5 88.75 195.948 88.75 196.5C88.75 197.052 89.1977 197.5 89.75 197.5Z" fill="#1CACA5" stroke="#1CACA5" stroke-width="0.8" stroke-miterlimit="10"></path><path d="M89.75 229.5C90.3023 229.5 90.75 229.052 90.75 228.5C90.75 227.948 90.3023 227.5 89.75 227.5C89.1977 227.5 88.75 227.948 88.75 228.5C88.75 229.052 89.1977 229.5 89.75 229.5Z" fill="#1CACA5" stroke="#1CACA5" stroke-width="0.8" stroke-miterlimit="10"></path><path d="M96.75 245.5C97.3023 245.5 97.75 245.052 97.75 244.5C97.75 243.948 97.3023 243.5 96.75 243.5C96.1977 243.5 95.75 243.948 95.75 244.5C95.75 245.052 96.1977 245.5 96.75 245.5Z" fill="#1CACA5" stroke="#1CACA5" stroke-width="0.8" stroke-miterlimit="10"></path><path d="M67.75 151.5C68.3023 151.5 68.75 151.052 68.75 150.5C68.75 149.948 68.3023 149.5 67.75 149.5C67.1977 149.5 66.75 149.948 66.75 150.5C66.75 151.052 67.1977 151.5 67.75 151.5Z" fill="#1CACA5" stroke="#1CACA5" stroke-width="0.8" stroke-miterlimit="10"></path><path d="M394.5 116.5L382.5 126L394.5 142.5" stroke="#163156" stroke-width="0.8"></path><path d="M531.5 175.5L543.5 184.5" stroke="#163156" stroke-width="0.8"></path><path d="M383 127C383.552 127 384 126.552 384 126C384 125.448 383.552 125 383 125C382.448 125 382 125.448 382 126C382 126.552 382.448 127 383 127Z" fill="#163156" stroke="#163156" stroke-width="0.8" stroke-miterlimit="10"></path><path d="M160.5 214L148 231L160.5 242L148 259.5" stroke="#163156" stroke-width="0.8"></path><path d="M160 243C160.552 243 161 242.552 161 242C161 241.448 160.552 241 160 241C159.448 241 159 241.448 159 242C159 242.552 159.448 243 160 243Z" fill="#163156" stroke="#163156" stroke-width="0.8" stroke-miterlimit="10"></path><path d="M139 276C139.552 276 140 275.552 140 275C140 274.448 139.552 274 139 274C138.448 274 138 274.448 138 275C138 275.552 138.448 276 139 276Z" fill="#163156" stroke="#163156" stroke-width="0.8" stroke-miterlimit="10"></path><path d="M126 298C126.552 298 127 297.552 127 297C127 296.448 126.552 296 126 296C125.448 296 125 296.448 125 297C125 297.552 125.448 298 126 298Z" fill="#163156" stroke="#163156" stroke-width="0.8" stroke-miterlimit="10"></path><path d="M148 232C148.552 232 149 231.552 149 231C149 230.448 148.552 230 148 230C147.448 230 147 230.448 147 231C147 231.552 147.448 232 148 232Z" fill="#163156" stroke="#163156" stroke-width="0.8" stroke-miterlimit="10"></path><path d="M723 227C723.552 227 724 226.552 724 226C724 225.448 723.552 225 723 225C722.448 225 722 225.448 722 226C722 226.552 722.448 227 723 227Z" fill="#163156" stroke="#163156" stroke-width="0.8" stroke-miterlimit="10"></path><path d="M735 167C735.552 167 736 166.552 736 166C736 165.448 735.552 165 735 165C734.448 165 734 165.448 734 166C734 166.552 734.448 167 735 167Z" fill="#163156" stroke="#163156" stroke-width="0.8" stroke-miterlimit="10"></path><path d="M744.5 174C745.052 174 745.5 173.552 745.5 173C745.5 172.448 745.052 172 744.5 172C743.948 172 743.5 172.448 743.5 173C743.5 173.552 743.948 174 744.5 174Z" fill="#163156" stroke="#163156" stroke-width="0.8" stroke-miterlimit="10"></path><path d="M744.5 199C745.052 199 745.5 198.552 745.5 198C745.5 197.448 745.052 197 744.5 197C743.948 197 743.5 197.448 743.5 198C743.5 198.552 743.948 199 744.5 199Z" fill="#163156" stroke="#163156" stroke-width="0.8" stroke-miterlimit="10"></path><path d="M757 211C757.552 211 758 210.552 758 210C758 209.448 757.552 209 757 209C756.448 209 756 209.448 756 210C756 210.552 756.448 211 757 211Z" fill="#163156" stroke="#163156" stroke-width="0.8" stroke-miterlimit="10"></path><path d="M766 209C766.552 209 767 208.552 767 208C767 207.448 766.552 207 766 207C765.448 207 765 207.448 765 208C765 208.552 765.448 209 766 209Z" fill="#163156" stroke="#163156" stroke-width="0.8" stroke-miterlimit="10"></path><path d="M766 176C766.552 176 767 175.552 767 175C767 174.448 766.552 174 766 174C765.448 174 765 174.448 765 175C765 175.552 765.448 176 766 176Z" fill="#163156" stroke="#163156" stroke-width="0.8" stroke-miterlimit="10"></path><path d="M778 159C778.552 159 779 158.552 779 158C779 157.448 778.552 157 778 157C777.448 157 777 157.448 777 158C777 158.552 777.448 159 778 159Z" fill="#163156" stroke="#163156" stroke-width="0.8" stroke-miterlimit="10"></path><path d="M155.59 247.87L149 238L151.4 261.85L155.59 247.87Z" fill="#D2EEED" stroke="#49BDB7" stroke-width="0.8" stroke-miterlimit="10"></path></g><defs><clipPath id="clip0_387_6126"><rect width="1080" height="360" fill="white"></rect></clipPath></defs></svg> 