<?xml version="1.0" encoding="UTF-8"?> <svg xmlns="http://www.w3.org/2000/svg" width="620" height="384" viewBox="0 0 620 384" fill="none"><g clip-path="url(#clip0_235_4297)"><path d="M367.606 334L405.144 275.911L339.332 254.452L347.996 278.855C295.679 297.387 238.031 269.972 219.47 217.739C200.909 165.505 228.367 107.948 280.684 89.417C333.001 70.8857 390.649 98.3 409.21 150.534L440 139.621C415.424 70.4366 339.049 34.1226 269.754 58.6757C200.476 83.2288 164.104 159.467 188.68 228.651C213.272 297.836 289.631 334.15 358.926 309.597L367.606 334Z" fill="#BBE6E4"></path><g filter="url(#filter0_dd_235_4297)"><path d="M399.66 124.443H241C238.791 124.443 237 126.233 237 128.442V271.548C237 273.757 238.791 275.548 241 275.548H399.66C401.869 275.548 403.66 273.757 403.66 271.548V128.443C403.66 126.233 401.869 124.443 399.66 124.443Z" fill="white"></path></g><path d="M250.348 139.559C250.357 138.68 251.071 137.972 251.949 137.971L279.006 137.919C279.903 137.917 280.627 138.651 280.613 139.547C280.6 140.422 279.888 141.126 279.012 141.127L251.956 141.179C251.062 141.181 250.339 140.453 250.348 139.559Z" fill="#163156"></path><path d="M289.583 163.561C289.591 162.685 290.303 161.979 291.178 161.978L309.846 161.948C310.74 161.947 311.461 162.678 311.447 163.571C311.434 164.443 310.724 165.144 309.851 165.145L291.184 165.175C290.293 165.176 289.574 164.451 289.583 163.561Z" fill="#A4DEDB"></path><path d="M314.848 163.525C314.857 162.65 315.568 161.944 316.444 161.943L327.744 161.925C328.634 161.923 329.354 162.649 329.345 163.539C329.336 164.415 328.624 165.12 327.749 165.122L316.449 165.14C315.559 165.141 314.839 164.415 314.848 163.525Z" fill="#163156"></path><path d="M343.553 260.135C343.562 259.259 344.274 258.554 345.149 258.552L356.449 258.534C357.339 258.533 358.059 259.259 358.05 260.149C358.041 261.024 357.329 261.73 356.454 261.731L345.154 261.749C344.264 261.751 343.544 261.025 343.553 260.135Z" fill="#163156"></path><path d="M250.348 224.182C250.357 223.304 251.071 222.596 251.949 222.594L263.235 222.576C264.128 222.575 264.85 223.306 264.836 224.199C264.823 225.072 264.114 225.772 263.241 225.774L251.956 225.802C251.062 225.804 250.339 225.075 250.348 224.182Z" fill="#163156"></path><path d="M332.209 163.519C332.209 162.637 332.923 161.922 333.805 161.92L365.618 161.868C366.508 161.866 367.228 162.592 367.219 163.482C367.21 164.358 366.498 165.063 365.623 165.065L333.81 165.118C332.926 165.119 332.209 164.403 332.209 163.519Z" fill="#A4DEDB"></path><path d="M250.356 212.041C250.37 211.169 251.079 210.469 251.951 210.467L271.25 210.417C272.144 210.414 272.866 211.146 272.853 212.039C272.84 212.911 272.131 213.611 271.259 213.614L251.959 213.664C251.065 213.666 250.343 212.935 250.356 212.041Z" fill="#B9C1CC"></path><path d="M310.919 236.102C310.932 235.227 311.645 234.523 312.521 234.522L331.823 234.502C332.713 234.501 333.432 235.227 333.424 236.117C333.415 236.993 332.703 237.699 331.827 237.7L312.525 237.73C311.629 237.732 310.906 236.998 310.919 236.102Z" fill="#A4DEDB"></path><path d="M281.838 236.159C281.838 235.276 282.554 234.56 283.436 234.56H293.992C294.884 234.56 295.604 235.291 295.59 236.183C295.577 237.056 294.865 237.757 293.992 237.757H283.436C282.554 237.757 281.838 237.042 281.838 236.159Z" fill="#A4DEDB"></path><path d="M250.356 236.19C250.37 235.318 251.08 234.617 251.953 234.616L275.975 234.585C276.868 234.584 277.59 235.312 277.581 236.205C277.573 237.084 276.858 237.792 275.979 237.793L251.956 237.813C251.064 237.814 250.343 237.083 250.356 236.19Z" fill="#1CACA5"></path><path d="M250.348 248.241C250.357 247.365 251.068 246.66 251.944 246.658L263.749 246.63C264.643 246.628 265.366 247.357 265.357 248.25C265.348 249.128 264.634 249.836 263.756 249.838L251.95 249.856C251.059 249.857 250.339 249.131 250.348 248.241Z" fill="#A4DEDB"></path><path d="M287.224 139.493C287.237 138.617 287.95 137.914 288.826 137.913L307.104 137.893C307.987 137.892 308.704 138.609 308.704 139.492C308.704 140.374 307.99 141.09 307.108 141.091L288.83 141.121C287.934 141.122 287.21 140.389 287.224 139.493Z" fill="#1CACA5"></path><path d="M286.862 175.605C286.871 174.729 287.582 174.023 288.458 174.022L306.758 173.992C307.651 173.991 308.372 174.722 308.358 175.615C308.345 176.487 307.635 177.188 306.763 177.189L288.463 177.219C287.573 177.221 286.853 176.495 286.862 175.605Z" fill="#163156"></path><path d="M276.014 187.652C276.023 186.775 276.736 186.069 277.613 186.069H283.6C284.483 186.069 285.199 186.785 285.199 187.668C285.199 188.551 284.483 189.266 283.6 189.266H277.613C276.724 189.266 276.005 188.541 276.014 187.652Z" fill="#A4DEDB"></path><path d="M266.726 199.883C266.739 199.01 267.449 198.309 268.322 198.308L285.742 198.289C286.632 198.288 287.351 199.014 287.342 199.903C287.333 200.779 286.621 201.485 285.745 201.486L268.326 201.505C267.433 201.506 266.712 200.776 266.726 199.883Z" fill="#1CACA5"></path><path d="M290.462 199.85C290.47 198.984 291.174 198.286 292.04 198.284L317.326 198.233C318.216 198.231 318.936 198.956 318.927 199.846C318.918 200.722 318.206 201.427 317.331 201.428L292.045 201.448C291.164 201.449 290.453 200.731 290.462 199.85Z" fill="#163156"></path><path d="M250.356 187.782C250.37 186.909 251.08 186.208 251.953 186.207L270.237 186.188C271.12 186.187 271.837 186.903 271.837 187.786C271.837 188.668 271.123 189.384 270.24 189.385L251.956 189.404C251.064 189.405 250.343 188.675 250.356 187.782Z" fill="#163156"></path><path d="M250.348 199.909C250.357 199.042 251.061 198.344 251.927 198.342L261.476 198.315C262.369 198.313 263.09 199.043 263.076 199.936C263.063 200.808 262.352 201.508 261.48 201.508H251.931C251.051 201.508 250.339 200.789 250.348 199.909Z" fill="#163156"></path><g filter="url(#filter1_dd_235_4297)"><path d="M289.518 187.746C289.518 186.864 290.231 186.149 291.113 186.147L299.949 186.13C300.839 186.129 301.559 186.855 301.55 187.745C301.541 188.62 300.83 189.326 299.955 189.327L291.119 189.344C290.235 189.346 289.518 188.63 289.518 187.746Z" fill="#F04E23"></path><path d="M289.518 187.746C289.518 186.864 290.231 186.149 291.113 186.147L299.949 186.13C300.839 186.129 301.559 186.855 301.55 187.745C301.541 188.62 300.83 189.326 299.955 189.327L291.119 189.344C290.235 189.346 289.518 188.63 289.518 187.746Z" stroke="white" stroke-width="0.0285126" stroke-miterlimit="10"></path></g><g filter="url(#filter2_dd_235_4297)"><path d="M250.348 260.284C250.357 259.409 251.067 258.704 251.942 258.701L260.793 258.676C261.684 258.673 262.405 259.399 262.396 260.29C262.388 261.165 261.677 261.87 260.803 261.873L251.951 261.898C251.06 261.901 250.339 261.175 250.348 260.284Z" fill="#F04E23"></path><path d="M250.348 260.284C250.357 259.409 251.067 258.704 251.942 258.701L260.793 258.676C261.684 258.673 262.405 259.399 262.396 260.29C262.388 261.165 261.677 261.87 260.803 261.873L251.951 261.898C251.06 261.901 250.339 261.175 250.348 260.284Z" stroke="white" stroke-width="0.0285126" stroke-miterlimit="10"></path></g><path d="M250.332 163.635C250.332 162.753 251.046 162.038 251.928 162.036L270.212 162.006C271.105 162.005 271.826 162.736 271.813 163.629C271.8 164.501 271.09 165.202 270.217 165.203L251.933 165.233C251.049 165.235 250.332 164.518 250.332 163.635Z" fill="#1CACA5"></path><path d="M269.5 224.17C269.5 223.288 270.214 222.572 271.096 222.571L289.374 222.541C290.271 222.54 290.994 223.273 290.981 224.169C290.968 225.045 290.255 225.748 289.379 225.749L271.101 225.769C270.217 225.77 269.5 225.053 269.5 224.17Z" fill="#1CACA5"></path><path d="M269.524 248.205C269.537 247.33 270.251 246.626 271.126 246.625L289.42 246.606C290.31 246.605 291.03 247.33 291.021 248.22C291.012 249.096 290.301 249.802 289.425 249.803L271.131 249.833C270.234 249.835 269.511 249.101 269.524 248.205Z" fill="#1CACA5"></path><path d="M307.72 248.146C307.733 247.271 308.446 246.567 309.322 246.566L327.624 246.547C328.517 246.546 329.237 247.276 329.224 248.169C329.211 249.042 328.501 249.743 327.628 249.744L309.326 249.774C308.43 249.776 307.706 249.042 307.72 248.146Z" fill="#1CACA5"></path><path d="M250.332 175.678C250.332 174.797 251.046 174.081 251.928 174.08L279.372 174.028C280.262 174.026 280.982 174.752 280.974 175.642C280.965 176.518 280.254 177.223 279.378 177.225L251.934 177.277C251.05 177.278 250.332 176.562 250.332 175.678Z" fill="#1CACA5"></path><path d="M317.15 260.186C317.15 259.304 317.864 258.589 318.746 258.587L337.03 258.558C337.923 258.556 338.645 259.287 338.631 260.18C338.618 261.052 337.908 261.753 337.035 261.755L318.752 261.784C317.868 261.786 317.15 261.07 317.15 260.186Z" fill="#1CACA5"></path><path d="M314.487 139.453C314.5 138.587 315.205 137.892 316.071 137.89L340.271 137.838C341.161 137.837 341.881 138.562 341.872 139.452C341.863 140.328 341.152 141.033 340.276 141.034L316.077 141.065C315.19 141.066 314.474 140.34 314.487 139.453Z" fill="#163156"></path><path d="M267.165 260.252C267.173 259.376 267.886 258.67 268.762 258.67L292.95 258.649C293.843 258.648 294.563 259.379 294.55 260.272C294.536 261.145 293.826 261.845 292.953 261.846L268.764 261.867C267.875 261.868 267.156 261.142 267.165 260.252Z" fill="#163156"></path><path d="M362.651 260.104C362.664 259.232 363.375 258.531 364.248 258.53L388.436 258.499C389.326 258.498 390.045 259.224 390.036 260.113C390.027 260.989 389.316 261.695 388.44 261.696L364.252 261.727C363.359 261.728 362.638 260.997 362.651 260.104Z" fill="#B9C1CC"></path><path d="M358.674 236.068C358.674 235.183 359.39 234.465 360.275 234.463L384.427 234.412C385.321 234.41 386.044 235.139 386.035 236.032C386.026 236.911 385.313 237.619 384.434 237.621L360.282 237.672C359.394 237.674 358.674 236.955 358.674 236.068Z" fill="#163156"></path><path d="M351.602 175.511C351.611 174.636 352.322 173.93 353.197 173.928L377.385 173.877C378.279 173.875 379 174.606 378.987 175.5C378.974 176.372 378.264 177.072 377.392 177.074L353.204 177.125C352.314 177.127 351.593 176.401 351.602 175.511Z" fill="#163156"></path><g filter="url(#filter3_dd_235_4297)"><path d="M299.872 236.135C299.88 235.261 300.588 234.556 301.462 234.551L304.187 234.535C305.086 234.53 305.813 235.263 305.799 236.161C305.786 237.035 305.076 237.737 304.203 237.74L301.478 237.751C300.586 237.754 299.863 237.027 299.872 236.135Z" fill="#F04E23"></path><path d="M299.872 236.135C299.88 235.261 300.588 234.556 301.462 234.551L304.187 234.535C305.086 234.53 305.813 235.263 305.799 236.161C305.786 237.035 305.076 237.737 304.203 237.74L301.478 237.751C300.586 237.754 299.863 237.027 299.872 236.135Z" stroke="white" stroke-width="0.0285126" stroke-miterlimit="10"></path></g><g filter="url(#filter4_dd_235_4297)"><path d="M362.129 139.385C362.138 138.506 362.853 137.798 363.732 137.797L387.914 137.777C388.807 137.776 389.528 138.507 389.514 139.4C389.501 140.273 388.791 140.973 387.918 140.975L363.735 141.005C362.843 141.007 362.121 140.278 362.129 139.385Z" fill="#1CACA5"></path><path d="M362.129 139.385C362.138 138.506 362.853 137.798 363.732 137.797L387.914 137.777C388.807 137.776 389.528 138.507 389.514 139.4C389.501 140.273 388.791 140.973 387.918 140.975L363.735 141.005C362.843 141.007 362.121 140.278 362.129 139.385Z" stroke="white" stroke-width="0.0285126" stroke-miterlimit="10"></path></g><g filter="url(#filter5_dd_235_4297)"><path d="M330.544 175.545C330.552 174.67 331.263 173.965 332.138 173.963L344.998 173.935C345.892 173.933 346.613 174.664 346.6 175.557C346.587 176.429 345.877 177.13 345.005 177.132L332.145 177.16C331.255 177.162 330.535 176.436 330.544 175.545Z" fill="#F04E23"></path><path d="M330.544 175.545C330.552 174.67 331.263 173.965 332.138 173.963L344.998 173.935C345.892 173.933 346.613 174.664 346.6 175.557C346.587 176.429 345.877 177.13 345.005 177.132L332.145 177.16C331.255 177.162 330.535 176.436 330.544 175.545Z" stroke="white" stroke-width="0.0285126" stroke-miterlimit="10"></path></g><g filter="url(#filter6_dd_235_4297)"><path d="M317.489 224.24C317.498 223.362 318.212 222.654 319.09 222.653L331.944 222.634C332.837 222.633 333.559 223.364 333.545 224.257C333.532 225.129 332.822 225.83 331.95 225.832L319.096 225.86C318.203 225.862 317.48 225.134 317.489 224.24Z" fill="#77CDC9"></path><path d="M317.489 224.24C317.498 223.362 318.212 222.654 319.09 222.653L331.944 222.634C332.837 222.633 333.559 223.364 333.545 224.257C333.532 225.129 332.822 225.83 331.95 225.832L319.096 225.86C318.203 225.862 317.48 225.134 317.489 224.24Z" stroke="white" stroke-width="0.0285126" stroke-miterlimit="10"></path></g><path d="M346.945 139.427C346.945 138.546 347.658 137.831 348.539 137.828L355.361 137.804C356.258 137.801 356.983 138.534 356.969 139.431C356.956 140.306 356.245 141.009 355.37 141.011L348.548 141.026C347.664 141.028 346.945 140.312 346.945 139.427Z" fill="#F04E23"></path><path d="M314.145 175.585C314.145 174.703 314.858 173.988 315.739 173.986L322.575 173.97C323.465 173.968 324.186 174.694 324.177 175.585C324.168 176.46 323.457 177.165 322.582 177.167L315.747 177.183C314.862 177.185 314.145 176.469 314.145 175.585Z" fill="#A4DEDB"></path><path d="M250.356 151.594C250.37 150.719 251.082 150.016 251.958 150.015L264.427 149.996C265.311 149.995 266.029 150.711 266.029 151.595C266.029 152.477 265.315 153.192 264.433 153.194L251.964 153.222C251.067 153.224 250.343 152.491 250.356 151.594Z" fill="#163156"></path><path d="M292.183 212.076C292.196 211.204 292.905 210.504 293.776 210.501L302.956 210.475C303.847 210.473 304.568 211.199 304.559 212.09C304.55 212.965 303.84 213.67 302.965 213.672L293.785 213.698C292.891 213.701 292.169 212.969 292.183 212.076Z" fill="#163156"></path><path d="M270.461 151.583C270.461 150.703 271.171 149.989 272.05 149.983L273.912 149.97C274.81 149.964 275.538 150.698 275.525 151.596C275.512 152.469 274.803 153.171 273.93 153.175L272.069 153.183C271.182 153.187 270.461 152.47 270.461 151.583Z" fill="#163156"></path><path d="M333.328 248.142C333.328 247.26 334.043 246.544 334.925 246.543L389.587 246.488C390.471 246.488 391.187 247.203 391.187 248.087C391.187 248.969 390.473 249.685 389.59 249.685L334.928 249.74C334.045 249.741 333.328 249.025 333.328 248.142Z" fill="#F04E23"></path><g filter="url(#filter7_dd_235_4297)"><path d="M279.255 151.539C279.268 150.662 279.982 149.959 280.859 149.959H282.81C283.703 149.959 284.423 150.687 284.415 151.579C284.406 152.459 283.69 153.167 282.81 153.167H280.859C279.964 153.167 279.241 152.434 279.255 151.539Z" fill="#F04E23"></path><path d="M279.255 151.539C279.268 150.662 279.982 149.959 280.859 149.959H282.81C283.703 149.959 284.423 150.687 284.415 151.579C284.406 152.459 283.69 153.167 282.81 153.167H280.859C279.964 153.167 279.241 152.434 279.255 151.539Z" stroke="white" stroke-width="0.0285126" stroke-miterlimit="10"></path></g><path d="M356.85 151.431C356.859 150.551 357.575 149.843 358.454 149.843H368.934C369.83 149.843 370.552 150.576 370.538 151.471C370.525 152.348 369.811 153.051 368.934 153.051H358.454C357.562 153.051 356.841 152.323 356.85 151.431Z" fill="#163156"></path><g filter="url(#filter8_dd_235_4297)"><path d="M370.419 163.443C370.427 162.568 371.138 161.863 372.013 161.86L382.512 161.834C383.403 161.831 384.124 162.558 384.115 163.448C384.106 164.323 383.396 165.028 382.521 165.031L372.021 165.057C371.13 165.06 370.41 164.334 370.419 163.443Z" fill="#F04E23"></path><path d="M370.419 163.443C370.427 162.568 371.138 161.863 372.013 161.86L382.512 161.834C383.403 161.831 384.124 162.558 384.115 163.448C384.106 164.323 383.396 165.028 382.521 165.031L372.021 165.057C371.13 165.06 370.41 164.334 370.419 163.443Z" stroke="white" stroke-width="0.0285126" stroke-miterlimit="10"></path></g><g filter="url(#filter9_dd_235_4297)"><path d="M339.153 236.081C339.162 235.205 339.873 234.5 340.748 234.498L351.258 234.471C352.145 234.469 352.865 235.187 352.865 236.075C352.865 236.959 352.149 237.677 351.265 237.678L340.755 237.696C339.864 237.698 339.144 236.971 339.153 236.081Z" fill="#F04E23"></path><path d="M339.153 236.081C339.162 235.205 339.873 234.5 340.748 234.498L351.258 234.471C352.145 234.469 352.865 235.187 352.865 236.075C352.865 236.959 352.149 237.677 351.265 237.678L340.755 237.696C339.864 237.698 339.144 236.971 339.153 236.081Z" stroke="white" stroke-width="0.0285126" stroke-miterlimit="10"></path></g><g filter="url(#filter10_dd_235_4297)"><path d="M299.086 260.212C299.086 259.329 299.802 258.614 300.684 258.614H311.208C312.1 258.614 312.82 259.344 312.806 260.236C312.793 261.11 312.081 261.811 311.208 261.811H300.684C299.802 261.811 299.086 261.095 299.086 260.212Z" fill="#F04E23"></path><path d="M299.086 260.212C299.086 259.329 299.802 258.614 300.684 258.614H311.208C312.1 258.614 312.82 259.344 312.806 260.236C312.793 261.11 312.081 261.811 311.208 261.811H300.684C299.802 261.811 299.086 261.095 299.086 260.212Z" stroke="white" stroke-width="0.0285126" stroke-miterlimit="10"></path></g><path d="M324.096 151.486C324.105 150.607 324.819 149.899 325.697 149.898L351.594 149.846C352.488 149.844 353.21 150.573 353.201 151.466C353.193 152.345 352.479 153.053 351.6 153.055L325.704 153.106C324.81 153.108 324.087 152.379 324.096 151.486Z" fill="#163156"></path><path d="M296.27 224.27C296.279 223.394 296.99 222.689 297.866 222.687L311.68 222.659C312.576 222.657 313.3 223.39 313.286 224.286C313.273 225.162 312.561 225.865 311.685 225.866L297.871 225.885C296.981 225.886 296.261 225.16 296.27 224.27Z" fill="#163156"></path><path d="M294.95 248.173C294.963 247.302 295.672 246.601 296.543 246.598L301.868 246.576C302.766 246.572 303.491 247.306 303.478 248.203C303.465 249.077 302.754 249.78 301.879 249.782L296.554 249.797C295.659 249.799 294.937 249.068 294.95 248.173Z" fill="#163156"></path><path d="M309.936 151.53C309.936 150.649 310.648 149.934 311.529 149.931L318.367 149.907C319.264 149.904 319.989 150.637 319.976 151.534C319.963 152.409 319.251 153.112 318.376 153.114L311.539 153.129C310.654 153.132 309.936 152.415 309.936 151.53Z" fill="#1CACA5"></path><g filter="url(#filter11_dd_235_4297)"><path d="M276.092 163.582C276.101 162.707 276.812 162.002 277.687 162L284.498 161.984C285.392 161.982 286.114 162.713 286.1 163.606C286.087 164.478 285.378 165.179 284.506 165.181L277.694 165.197C276.804 165.199 276.083 164.473 276.092 163.582Z" fill="#F04E23"></path><path d="M276.092 163.582C276.101 162.707 276.812 162.002 277.687 162L284.498 161.984C285.392 161.982 286.114 162.713 286.1 163.606C286.087 164.478 285.378 165.179 284.506 165.181L277.694 165.197C276.804 165.199 276.083 164.473 276.092 163.582Z" stroke="white" stroke-width="0.0285126" stroke-miterlimit="10"></path></g><g filter="url(#filter12_dd_235_4297)"><path d="M277.614 212.089C277.623 211.212 278.336 210.506 279.212 210.506H286.023C286.916 210.506 287.635 211.236 287.622 212.129C287.609 213.002 286.897 213.703 286.023 213.703H279.212C278.323 213.703 277.605 212.978 277.614 212.089Z" fill="#F04E23"></path><path d="M277.614 212.089C277.623 211.212 278.336 210.506 279.212 210.506H286.023C286.916 210.506 287.635 211.236 287.622 212.129C287.609 213.002 286.897 213.703 286.023 213.703H279.212C278.323 213.703 277.605 212.978 277.614 212.089Z" stroke="white" stroke-width="0.0285126" stroke-miterlimit="10"></path></g><path d="M288.663 151.537C288.676 150.662 289.389 149.958 290.265 149.957L304.518 149.938C305.412 149.937 306.133 150.668 306.119 151.561C306.106 152.434 305.396 153.135 304.524 153.136L290.27 153.165C289.373 153.167 288.65 152.433 288.663 151.537Z" fill="#163156"></path><path d="M178.328 254.947C178.369 254.967 178.369 254.967 178.328 254.947V254.947Z" fill="#2E4667"></path><path d="M353 265.548L378.273 290.907C379.107 291.743 380.24 292.214 381.421 292.214H441.885" stroke="#163156" stroke-width="1.11107"></path><path d="M353 220.999L378.273 195.64C379.107 194.803 380.24 194.333 381.421 194.333H441.885" stroke="#77CDC9" stroke-width="1.11107"></path><path d="M353 133.331L378.273 107.972C379.107 107.135 380.24 106.665 381.421 106.665H441.885" stroke="#F04E23" stroke-width="1.11107"></path><path d="M271.547 146.664L246.273 121.305C245.44 120.468 244.307 119.998 243.126 119.998H182.661" stroke="#163156" stroke-width="1.11107"></path><path d="M267.104 240.998L241.83 266.356C240.996 267.193 239.864 267.663 238.682 267.663H178.218" stroke="#49BDB7" stroke-width="1.11107"></path><g filter="url(#filter13_dd_235_4297)"><path d="M169.774 74.4443H103.332C101.123 74.4443 99.332 76.2352 99.332 78.4443V160.441C99.332 162.65 101.123 164.441 103.332 164.441H169.774C171.983 164.441 173.774 162.65 173.774 160.441V78.4443C173.774 76.2352 171.983 74.4443 169.774 74.4443Z" fill="white"></path></g><path d="M164.885 81.1105H108.22C106.993 81.1105 105.998 82.1054 105.998 83.3326V91.1101C105.998 92.3373 106.993 93.3322 108.22 93.3322H164.885C166.112 93.3322 167.107 92.3373 167.107 91.1101V83.3326C167.107 82.1054 166.112 81.1105 164.885 81.1105Z" fill="#B9C1CC"></path><path d="M164.885 97.7767H141.552C140.325 97.7767 139.33 98.7716 139.33 99.9989V155.552C139.33 156.78 140.325 157.774 141.552 157.774H164.885C166.112 157.774 167.107 156.78 167.107 155.552V99.9989C167.107 98.7716 166.112 97.7767 164.885 97.7767Z" fill="#B9C1CC"></path><path d="M132.664 97.7767H108.22C106.993 97.7767 105.998 98.7716 105.998 99.9989V102.221C105.998 103.448 106.993 104.443 108.22 104.443H132.664C133.891 104.443 134.886 103.448 134.886 102.221V99.9989C134.886 98.7716 133.891 97.7767 132.664 97.7767Z" fill="#163156"></path><path d="M132.664 108.888H108.22C106.993 108.888 105.998 109.883 105.998 111.11V113.332C105.998 114.559 106.993 115.554 108.22 115.554H132.664C133.891 115.554 134.886 114.559 134.886 113.332V111.11C134.886 109.883 133.891 108.888 132.664 108.888Z" fill="#163156"></path><path d="M132.664 119.998H108.22C106.993 119.998 105.998 120.993 105.998 122.22V124.442C105.998 125.67 106.993 126.665 108.22 126.665H132.664C133.891 126.665 134.886 125.67 134.886 124.442V122.22C134.886 120.993 133.891 119.998 132.664 119.998Z" fill="#163156"></path><path d="M132.664 131.109H108.22C106.993 131.109 105.998 132.104 105.998 133.331V155.552C105.998 156.779 106.993 157.774 108.22 157.774H132.664C133.891 157.774 134.886 156.779 134.886 155.552V133.331C134.886 132.104 133.891 131.109 132.664 131.109Z" fill="#B9C1CC"></path><g filter="url(#filter14_dd_235_4297)"><path d="M520.442 267H454C451.791 267 450 268.791 450 271V352.997C450 355.206 451.791 356.997 454 356.997H520.442C522.651 356.997 524.442 355.206 524.442 352.997V271C524.442 268.791 522.651 267 520.442 267Z" fill="white"></path></g><path d="M458.889 350.33H515.553C516.781 350.33 517.775 349.335 517.775 348.108V340.331C517.775 339.103 516.781 338.108 515.553 338.108H458.889C457.662 338.108 456.667 339.103 456.667 340.331V348.108C456.667 349.335 457.662 350.33 458.889 350.33Z" fill="#B9C1CC"></path><path d="M458.889 333.664H482.221C483.448 333.664 484.443 332.669 484.443 331.442V275.888C484.443 274.661 483.448 273.666 482.221 273.666H458.889C457.662 273.666 456.667 274.661 456.667 275.888V331.442C456.667 332.669 457.662 333.664 458.889 333.664Z" fill="#B9C1CC"></path><path d="M491.11 333.664H515.553C516.781 333.664 517.775 332.669 517.775 331.442V329.22C517.775 327.992 516.781 326.998 515.553 326.998H491.11C489.882 326.998 488.888 327.992 488.888 329.22V331.442C488.888 332.669 489.882 333.664 491.11 333.664Z" fill="#163156"></path><path d="M491.11 322.553H515.553C516.781 322.553 517.775 321.558 517.775 320.331V318.109C517.775 316.881 516.781 315.887 515.553 315.887H491.11C489.882 315.887 488.888 316.881 488.888 318.109V320.331C488.888 321.558 489.882 322.553 491.11 322.553Z" fill="#163156"></path><path d="M491.11 311.443H515.553C516.781 311.443 517.775 310.448 517.775 309.22V306.998C517.775 305.771 516.781 304.776 515.553 304.776H491.11C489.882 304.776 488.888 305.771 488.888 306.998V309.22C488.888 310.448 489.882 311.443 491.11 311.443Z" fill="#163156"></path><path d="M491.11 300.332H515.553C516.781 300.332 517.775 299.337 517.775 298.11V275.889C517.775 274.661 516.781 273.666 515.553 273.666H491.11C489.882 273.666 488.888 274.661 488.888 275.889V298.11C488.888 299.337 489.882 300.332 491.11 300.332Z" fill="#B9C1CC"></path><g filter="url(#filter15_dd_235_4297)"><path d="M481.984 173.329H454.43C452.221 173.329 450.43 175.12 450.43 177.329V210.439C450.43 212.648 452.221 214.439 454.43 214.439H481.984C484.193 214.439 485.984 212.648 485.984 210.439V177.329C485.984 175.12 484.193 173.329 481.984 173.329Z" fill="white"></path></g><path d="M477.095 179.996H459.318C458.091 179.996 457.096 180.991 457.096 182.218C457.096 183.445 458.091 184.44 459.318 184.44H477.095C478.322 184.44 479.317 183.445 479.317 182.218C479.317 180.991 478.322 179.996 477.095 179.996Z" fill="#77CDC9"></path><path d="M477.095 187.774H459.318C458.091 187.774 457.096 188.768 457.096 189.996C457.096 191.223 458.091 192.218 459.318 192.218H477.095C478.322 192.218 479.317 191.223 479.317 189.996C479.317 188.768 478.322 187.774 477.095 187.774Z" fill="#77CDC9"></path><path d="M477.095 195.551H459.318C458.091 195.551 457.096 196.546 457.096 197.773C457.096 199 458.091 199.995 459.318 199.995H477.095C478.322 199.995 479.317 199 479.317 197.773C479.317 196.546 478.322 195.551 477.095 195.551Z" fill="#77CDC9"></path><path d="M477.095 203.328H459.318C458.091 203.328 457.096 204.323 457.096 205.551C457.096 206.778 458.091 207.773 459.318 207.773H477.095C478.322 207.773 479.317 206.778 479.317 205.551C479.317 204.323 478.322 203.328 477.095 203.328Z" fill="#77CDC9"></path><g filter="url(#filter16_dd_235_4297)"><rect x="450" y="18" width="138.356" height="88.5479" rx="4.86747" fill="white"></rect></g><path d="M517.448 92.0204H492.198C491.434 92.0204 490.814 92.6398 490.814 93.4039C490.814 94.1681 491.434 94.7875 492.198 94.7875H517.448C518.212 94.7875 518.832 94.1681 518.832 93.4039C518.832 92.6398 518.212 92.0204 517.448 92.0204Z" fill="#A4DEDB"></path><path d="M517.448 97.5547H492.198C491.434 97.5547 490.814 98.1741 490.814 98.9382C490.814 99.7024 491.434 100.322 492.198 100.322H517.448C518.212 100.322 518.832 99.7024 518.832 98.9382C518.832 98.1741 518.212 97.5547 517.448 97.5547Z" fill="#A4DEDB"></path><path d="M550.136 92.0205H524.886C524.121 92.0205 523.502 92.6399 523.502 93.4041C523.502 94.1682 524.121 94.7876 524.886 94.7876H550.136C550.9 94.7876 551.519 94.1682 551.519 93.4041C551.519 92.6399 550.9 92.0205 550.136 92.0205Z" fill="#A4DEDB"></path><path d="M550.136 97.5547H524.886C524.121 97.5547 523.502 98.1741 523.502 98.9382C523.502 99.7024 524.121 100.322 524.886 100.322H550.136C550.9 100.322 551.519 99.7024 551.519 98.9382C551.519 98.1741 550.9 97.5547 550.136 97.5547Z" fill="#A4DEDB"></path><path d="M582.821 92.0204H557.571C556.807 92.0204 556.188 92.6398 556.188 93.4039C556.188 94.1681 556.807 94.7875 557.571 94.7875H582.821C583.585 94.7875 584.205 94.1681 584.205 93.4039C584.205 92.6398 583.585 92.0204 582.821 92.0204Z" fill="#A4DEDB"></path><path d="M582.821 97.5547H557.571C556.807 97.5547 556.188 98.1741 556.188 98.9382C556.188 99.7024 556.807 100.322 557.571 100.322H582.821C583.585 100.322 584.205 99.7024 584.205 98.9382C584.205 98.1741 583.585 97.5547 582.821 97.5547Z" fill="#A4DEDB"></path><rect x="454.15" y="22.1506" width="32.5137" height="65.0274" rx="3.06627" fill="#EFF6FF"></rect><rect x="490.814" y="22.1506" width="93.3904" height="65.0274" rx="3.06627" fill="#EFF6FF"></rect><path d="M496.35 59.507H509.339H528.379H547.422H566.462H578.672" stroke="#B9C1CC" stroke-width="0.147948" stroke-linecap="round" stroke-linejoin="round"></path><path d="M496.35 51.8972H509.339H528.379H547.422H566.462H578.672" stroke="#B9C1CC" stroke-width="0.147948" stroke-linecap="round" stroke-linejoin="round"></path><path d="M496.35 44.2877H578.672" stroke="#B9C1CC" stroke-width="0.147948" stroke-linecap="round" stroke-linejoin="round"></path><path d="M496.35 36.6781H578.672" stroke="#B9C1CC" stroke-width="0.147948" stroke-linecap="round" stroke-linejoin="round"></path><path d="M496.35 29.0686H578.672" stroke="#B9C1CC" stroke-width="0.147948" stroke-linecap="round" stroke-linejoin="round"></path><path d="M496.35 66.4248H509.339H528.379H547.422H566.462H578.672" stroke="#B9C1CC" stroke-width="0.147948" stroke-linecap="round" stroke-linejoin="round"></path><path d="M496.35 74.0343H509.339H528.379H547.422H566.462H578.672" stroke="#B9C1CC" stroke-width="0.147948" stroke-linecap="round" stroke-linejoin="round"></path><path d="M531.631 27.6851V46.281V55.121V63.9641V72.804V81.644" stroke="#B9C1CC" stroke-width="0.147948" stroke-linecap="round" stroke-linejoin="round"></path><path d="M566.912 27.6849V46.2809V55.1208V63.964V72.8039V81.6438" stroke="#B9C1CC" stroke-width="0.147948" stroke-linecap="round" stroke-linejoin="round"></path><path d="M543.391 27.6849V46.2809V55.1208V63.964V72.8039V81.6438" stroke="#B9C1CC" stroke-width="0.147948" stroke-linecap="round" stroke-linejoin="round"></path><path d="M578.672 27.6849V46.2809V55.1208V63.964V72.8039V81.6438" stroke="#B9C1CC" stroke-width="0.147948" stroke-linecap="round" stroke-linejoin="round"></path><path d="M519.869 27.6849V46.2809V55.1208V63.964V72.8039V81.6438" stroke="#B9C1CC" stroke-width="0.147948" stroke-linecap="round" stroke-linejoin="round"></path><path d="M555.15 27.6849V46.2809V55.1208V63.964V72.8039V81.6438" stroke="#B9C1CC" stroke-width="0.147948" stroke-linecap="round" stroke-linejoin="round"></path><path d="M508.109 27.6849V46.2809V55.1208V63.964V72.8039V81.6438" stroke="#B9C1CC" stroke-width="0.147948" stroke-linecap="round" stroke-linejoin="round"></path><path d="M508.109 74.0344H531.63L543.39 59.507H566.911" stroke="#F04E23" stroke-width="0.691781" stroke-linecap="round" stroke-linejoin="round"></path><path d="M496.35 27.6849V81.6438H578.672" stroke="#B9C1CC" stroke-width="0.147948" stroke-linecap="round" stroke-linejoin="round"></path><path d="M519.87 67.8084C520.634 67.8084 521.253 67.1889 521.253 66.4248C521.253 65.6607 520.634 65.0413 519.87 65.0413C519.106 65.0413 518.486 65.6607 518.486 66.4248C518.486 67.1889 519.106 67.8084 519.87 67.8084Z" fill="#163156"></path><path d="M508.11 60.8905C508.874 60.8905 509.494 60.2711 509.494 59.507C509.494 58.7429 508.874 58.1234 508.11 58.1234C507.346 58.1234 506.727 58.7429 506.727 59.507C506.727 60.2711 507.346 60.8905 508.11 60.8905Z" fill="#163156"></path><path d="M508.109 59.5069L519.87 66.4247L531.63 59.5069L543.39 44.2877L555.15 51.8973L566.911 44.2877" stroke="#163156" stroke-width="0.691781" stroke-linecap="round" stroke-linejoin="round"></path><path d="M531.63 60.8905C532.394 60.8905 533.013 60.2711 533.013 59.507C533.013 58.7429 532.394 58.1234 531.63 58.1234C530.866 58.1234 530.246 58.7429 530.246 59.507C530.246 60.2711 530.866 60.8905 531.63 60.8905Z" fill="#163156"></path><path d="M543.391 45.6713C544.155 45.6713 544.775 45.0519 544.775 44.2877C544.775 43.5236 544.155 42.9042 543.391 42.9042C542.627 42.9042 542.008 43.5236 542.008 44.2877C542.008 45.0519 542.627 45.6713 543.391 45.6713Z" fill="#163156"></path><path d="M566.911 45.6713C567.675 45.6713 568.294 45.0519 568.294 44.2877C568.294 43.5236 567.675 42.9042 566.911 42.9042C566.147 42.9042 565.527 43.5236 565.527 44.2877C565.527 45.0519 566.147 45.6713 566.911 45.6713Z" fill="#163156"></path><path d="M555.151 53.2808C555.915 53.2808 556.535 52.6614 556.535 51.8972C556.535 51.1331 555.915 50.5137 555.151 50.5137C554.387 50.5137 553.768 51.1331 553.768 51.8972C553.768 52.6614 554.387 53.2808 555.151 53.2808Z" fill="#163156"></path><path d="M566.911 60.8905C567.675 60.8905 568.294 60.2711 568.294 59.507C568.294 58.7429 567.675 58.1234 566.911 58.1234C566.147 58.1234 565.527 58.7429 565.527 59.507C565.527 60.2711 566.147 60.8905 566.911 60.8905Z" fill="#F04E23"></path><path d="M508.11 75.4179C508.874 75.4179 509.494 74.7984 509.494 74.0343C509.494 73.2702 508.874 72.6508 508.11 72.6508C507.346 72.6508 506.727 73.2702 506.727 74.0343C506.727 74.7984 507.346 75.4179 508.11 75.4179Z" fill="#F04E23"></path><path d="M531.63 75.4179C532.394 75.4179 533.013 74.7984 533.013 74.0343C533.013 73.2702 532.394 72.6508 531.63 72.6508C530.866 72.6508 530.246 73.2702 530.246 74.0343C530.246 74.7984 530.866 75.4179 531.63 75.4179Z" fill="#F04E23"></path><path d="M543.391 60.8905C544.155 60.8905 544.775 60.2711 544.775 59.507C544.775 58.7429 544.155 58.1234 543.391 58.1234C542.627 58.1234 542.008 58.7429 542.008 59.507C542.008 60.2711 542.627 60.8905 543.391 60.8905Z" fill="#F04E23"></path><path d="M483.206 24.9178H457.61C457.228 24.9178 456.918 25.2276 456.918 25.6096C456.918 25.9917 457.228 26.3014 457.61 26.3014H483.206C483.588 26.3014 483.897 25.9917 483.897 25.6096C483.897 25.2276 483.588 24.9178 483.206 24.9178Z" fill="#A4DEDB"></path><path d="M483.206 29.0686H457.61C457.228 29.0686 456.918 29.3783 456.918 29.7604C456.918 30.1424 457.228 30.4522 457.61 30.4522H483.206C483.588 30.4522 483.897 30.1424 483.897 29.7604C483.897 29.3783 483.588 29.0686 483.206 29.0686Z" fill="#A4DEDB"></path><path d="M483.206 33.2192H457.61C457.228 33.2192 456.918 33.529 456.918 33.911C456.918 34.2931 457.228 34.6028 457.61 34.6028H483.206C483.588 34.6028 483.897 34.2931 483.897 33.911C483.897 33.529 483.588 33.2192 483.206 33.2192Z" fill="#A4DEDB"></path><path d="M483.206 37.3699H457.61C457.228 37.3699 456.918 37.6796 456.918 38.0617C456.918 38.4437 457.228 38.7534 457.61 38.7534H483.206C483.588 38.7534 483.897 38.4437 483.897 38.0617C483.897 37.6796 483.588 37.3699 483.206 37.3699Z" fill="#A4DEDB"></path><path d="M483.206 41.5206H457.61C457.228 41.5206 456.918 41.8304 456.918 42.2124C456.918 42.5945 457.228 42.9042 457.61 42.9042H483.206C483.588 42.9042 483.897 42.5945 483.897 42.2124C483.897 41.8304 483.588 41.5206 483.206 41.5206Z" fill="#A4DEDB"></path><path d="M483.206 45.6713H457.61C457.228 45.6713 456.918 45.981 456.918 46.363C456.918 46.7451 457.228 47.0548 457.61 47.0548H483.206C483.588 47.0548 483.897 46.7451 483.897 46.363C483.897 45.981 483.588 45.6713 483.206 45.6713Z" fill="#A4DEDB"></path><path d="M483.206 49.822H457.61C457.228 49.822 456.918 50.1317 456.918 50.5138C456.918 50.8959 457.228 51.2056 457.61 51.2056H483.206C483.588 51.2056 483.897 50.8959 483.897 50.5138C483.897 50.1317 483.588 49.822 483.206 49.822Z" fill="#A4DEDB"></path><path d="M483.206 53.9727H457.61C457.228 53.9727 456.918 54.2824 456.918 54.6644C456.918 55.0465 457.228 55.3562 457.61 55.3562H483.206C483.588 55.3562 483.897 55.0465 483.897 54.6644C483.897 54.2824 483.588 53.9727 483.206 53.9727Z" fill="#A4DEDB"></path><path d="M483.206 58.1234H457.61C457.228 58.1234 456.918 58.4331 456.918 58.8152C456.918 59.1973 457.228 59.507 457.61 59.507H483.206C483.588 59.507 483.897 59.1973 483.897 58.8152C483.897 58.4331 483.588 58.1234 483.206 58.1234Z" fill="#A4DEDB"></path><path d="M483.206 62.274H457.61C457.228 62.274 456.918 62.5838 456.918 62.9658C456.918 63.3479 457.228 63.6576 457.61 63.6576H483.206C483.588 63.6576 483.897 63.3479 483.897 62.9658C483.897 62.5838 483.588 62.274 483.206 62.274Z" fill="#A4DEDB"></path><path d="M483.206 66.4248H457.61C457.228 66.4248 456.918 66.7345 456.918 67.1166C456.918 67.4986 457.228 67.8084 457.61 67.8084H483.206C483.588 67.8084 483.897 67.4986 483.897 67.1166C483.897 66.7345 483.588 66.4248 483.206 66.4248Z" fill="#A4DEDB"></path><path d="M483.206 70.5753H457.61C457.228 70.5753 456.918 70.885 456.918 71.2671C456.918 71.6492 457.228 71.9589 457.61 71.9589H483.206C483.588 71.9589 483.897 71.6492 483.897 71.2671C483.897 70.885 483.588 70.5753 483.206 70.5753Z" fill="#A4DEDB"></path><path d="M483.206 74.726H457.61C457.228 74.726 456.918 75.0357 456.918 75.4177C456.918 75.7998 457.228 76.1095 457.61 76.1095H483.206C483.588 76.1095 483.897 75.7998 483.897 75.4177C483.897 75.0357 483.588 74.726 483.206 74.726Z" fill="#A4DEDB"></path><path d="M483.206 78.8767H457.61C457.228 78.8767 456.918 79.1864 456.918 79.5685C456.918 79.9505 457.228 80.2603 457.61 80.2603H483.206C483.588 80.2603 483.897 79.9505 483.897 79.5685C483.897 79.1864 483.588 78.8767 483.206 78.8767Z" fill="#A4DEDB"></path><path d="M483.206 83.0273H457.61C457.228 83.0273 456.918 83.3371 456.918 83.7191C456.918 84.1012 457.228 84.4109 457.61 84.4109H483.206C483.588 84.4109 483.897 84.1012 483.897 83.7191C483.897 83.3371 483.588 83.0273 483.206 83.0273Z" fill="#A4DEDB"></path><g filter="url(#filter17_dd_235_4297)"><rect x="32" y="268" width="138.356" height="88.5479" rx="4.86747" fill="white"></rect></g><path d="M164.822 342.021H105.329C104.565 342.021 103.945 342.64 103.945 343.404C103.945 344.168 104.565 344.788 105.329 344.788H164.822C165.586 344.788 166.206 344.168 166.206 343.404C166.206 342.64 165.586 342.021 164.822 342.021Z" fill="#A4DEDB"></path><path d="M164.822 347.555H105.329C104.565 347.555 103.945 348.174 103.945 348.938C103.945 349.703 104.565 350.322 105.329 350.322H164.822C165.586 350.322 166.206 349.703 166.206 348.938C166.206 348.174 165.586 347.555 164.822 347.555Z" fill="#A4DEDB"></path><path d="M97.0271 342.021H37.534C36.7698 342.021 36.1504 342.64 36.1504 343.404C36.1504 344.168 36.7698 344.788 37.534 344.788H97.0271C97.7912 344.788 98.4107 344.168 98.4107 343.404C98.4107 342.64 97.7912 342.021 97.0271 342.021Z" fill="#A4DEDB"></path><path d="M97.0271 347.555H37.534C36.7698 347.555 36.1504 348.174 36.1504 348.938C36.1504 349.702 36.7698 350.322 37.534 350.322H97.0271C97.7912 350.322 98.4107 349.702 98.4107 348.938C98.4107 348.174 97.7912 347.555 97.0271 347.555Z" fill="#A4DEDB"></path><rect x="36.1504" y="272.151" width="62.2603" height="65.0274" rx="3.06627" fill="#EFF6FF"></rect><rect x="103.945" y="272.151" width="62.2603" height="65.0274" rx="3.06627" fill="#EFF6FF"></rect><path d="M108.096 310.89H116.61H129.09H141.572H154.052H162.055" stroke="#B9C1CC" stroke-width="0.147948" stroke-linecap="round" stroke-linejoin="round"></path><path d="M108.096 303.281H116.61H129.09H141.572H154.052H162.055" stroke="#B9C1CC" stroke-width="0.147948" stroke-linecap="round" stroke-linejoin="round"></path><path d="M108.096 295.671H162.055" stroke="#B9C1CC" stroke-width="0.147948" stroke-linecap="round" stroke-linejoin="round"></path><path d="M108.096 288.062H162.055" stroke="#B9C1CC" stroke-width="0.147948" stroke-linecap="round" stroke-linejoin="round"></path><path d="M108.096 280.452H162.055" stroke="#B9C1CC" stroke-width="0.147948" stroke-linecap="round" stroke-linejoin="round"></path><path d="M108.096 317.808H116.61H129.09H141.572H154.052H162.055" stroke="#B9C1CC" stroke-width="0.147948" stroke-linecap="round" stroke-linejoin="round"></path><path d="M108.096 325.418H116.61H129.09H141.572H154.052H162.055" stroke="#B9C1CC" stroke-width="0.147948" stroke-linecap="round" stroke-linejoin="round"></path><path d="M108.096 276.301V333.027H162.055" stroke="#B9C1CC" stroke-width="0.147948" stroke-linecap="round" stroke-linejoin="round"></path><path d="M71.2037 277.313C70.0179 277.102 68.8161 276.995 67.6118 276.993C56.3446 276.993 47.2188 285.975 47.2188 297.057C47.2188 308.139 56.3493 317.116 67.6118 317.116C77.9751 317.116 86.531 309.511 87.8333 299.666" stroke="#F04E23" stroke-width="2.76712" stroke-linecap="round"></path><path d="M61.3414 284.074C58.7164 285.212 56.4785 287.088 54.8996 289.474C53.3207 291.861 52.4687 294.654 52.4473 297.515C52.4473 305.677 59.2928 312.295 67.742 312.295C70.2514 312.309 72.7261 311.71 74.9513 310.55C77.1765 309.39 79.085 307.704 80.5109 305.64" stroke="#1CACA5" stroke-width="2.76712" stroke-linecap="round"></path><path d="M78.8317 296.718C78.8317 302.349 74.1088 306.915 68.2875 306.915C62.4663 306.915 57.748 302.349 57.748 296.718C57.748 291.087 62.4663 286.521 68.2875 286.521C74.1088 286.521 78.8317 291.091 78.8317 296.718Z" stroke="#163156" stroke-width="2.76712" stroke-linecap="round"></path><path d="M92.8781 329.568H41.6863C40.9222 329.568 40.3027 330.188 40.3027 330.952C40.3027 331.716 40.9222 332.336 41.6863 332.336H92.8781C93.6422 332.336 94.2616 331.716 94.2616 330.952C94.2616 330.188 93.6422 329.568 92.8781 329.568Z" fill="#163156"></path><path d="M92.8781 324.034H41.6863C40.9222 324.034 40.3027 324.654 40.3027 325.418C40.3027 326.182 40.9222 326.801 41.6863 326.801H92.8781C93.6422 326.801 94.2616 326.182 94.2616 325.418C94.2616 324.654 93.6422 324.034 92.8781 324.034Z" fill="#163156"></path><path d="M113.631 330.952L113.631 310.199C113.631 309.435 113.011 308.815 112.247 308.815C111.483 308.815 110.864 309.435 110.864 310.199L110.864 330.952C110.864 331.716 111.483 332.336 112.247 332.336C113.011 332.336 113.631 331.716 113.631 330.952Z" fill="#A4DEDB"></path><path d="M132.309 330.952L132.309 299.822C132.309 299.058 131.689 298.438 130.925 298.438C130.161 298.438 129.541 299.058 129.541 299.822L129.541 330.952C129.541 331.716 130.161 332.336 130.925 332.336C131.689 332.336 132.309 331.716 132.309 330.952Z" fill="#F04E23"></path><path d="M150.986 330.952L150.986 310.89C150.986 310.126 150.367 309.507 149.603 309.507C148.839 309.507 148.219 310.126 148.219 310.89L148.219 330.952C148.219 331.716 148.839 332.335 149.603 332.335C150.367 332.335 150.986 331.716 150.986 330.952Z" fill="#163156"></path><path d="M121.932 330.952L121.932 310.199C121.932 309.435 121.312 308.815 120.548 308.815C119.784 308.815 119.165 309.435 119.165 310.199L119.165 330.952C119.165 331.716 119.784 332.336 120.548 332.336C121.312 332.336 121.932 331.716 121.932 330.952Z" fill="#163156"></path><path d="M140.609 330.952L140.609 299.822C140.609 299.058 139.99 298.438 139.226 298.438C138.462 298.438 137.842 299.058 137.842 299.822L137.842 330.952C137.842 331.716 138.462 332.336 139.226 332.336C139.99 332.336 140.609 331.716 140.609 330.952Z" fill="#A4DEDB"></path><path d="M159.287 330.952L159.287 320.575C159.287 319.811 158.668 319.192 157.904 319.192C157.139 319.192 156.52 319.811 156.52 320.575L156.52 330.952C156.52 331.716 157.139 332.335 157.904 332.335C158.668 332.335 159.287 331.716 159.287 330.952Z" fill="#A4DEDB"></path><path d="M117.781 330.952L117.781 301.897C117.781 301.133 117.162 300.514 116.398 300.514C115.634 300.514 115.014 301.133 115.014 301.897L115.014 330.952C115.014 331.716 115.634 332.336 116.398 332.336C117.162 332.336 117.781 331.716 117.781 330.952Z" fill="#F04E23"></path><path d="M136.459 330.952L136.459 288.062C136.459 287.297 135.84 286.678 135.075 286.678C134.311 286.678 133.692 287.297 133.692 288.062L133.692 330.952C133.692 331.716 134.311 332.336 135.075 332.336C135.84 332.336 136.459 331.716 136.459 330.952Z" fill="#163156"></path><path d="M155.137 330.952L155.137 316.425C155.137 315.66 154.517 315.041 153.753 315.041C152.989 315.041 152.37 315.66 152.37 316.425L152.37 330.952C152.37 331.716 152.989 332.336 153.753 332.336C154.517 332.336 155.137 331.716 155.137 330.952Z" fill="#F04E23"></path></g><defs><filter id="filter0_dd_235_4297" x="217" y="124.443" width="206.66" height="191.105" filterUnits="userSpaceOnUse" color-interpolation-filters="sRGB"><feFlood flood-opacity="0" result="BackgroundImageFix"></feFlood><feColorMatrix in="SourceAlpha" type="matrix" values="0 0 0 0 0 0 0 0 0 0 0 0 0 0 0 0 0 0 127 0" result="hardAlpha"></feColorMatrix><feMorphology radius="4" operator="erode" in="SourceAlpha" result="effect1_dropShadow_235_4297"></feMorphology><feOffset dy="8"></feOffset><feGaussianBlur stdDeviation="4"></feGaussianBlur><feColorMatrix type="matrix" values="0 0 0 0 0.0627451 0 0 0 0 0.0941176 0 0 0 0 0.156863 0 0 0 0.03 0"></feColorMatrix><feBlend mode="normal" in2="BackgroundImageFix" result="effect1_dropShadow_235_4297"></feBlend><feColorMatrix in="SourceAlpha" type="matrix" values="0 0 0 0 0 0 0 0 0 0 0 0 0 0 0 0 0 0 127 0" result="hardAlpha"></feColorMatrix><feMorphology radius="4" operator="erode" in="SourceAlpha" result="effect2_dropShadow_235_4297"></feMorphology><feOffset dy="20"></feOffset><feGaussianBlur stdDeviation="12"></feGaussianBlur><feColorMatrix type="matrix" values="0 0 0 0 0.0627451 0 0 0 0 0.0941176 0 0 0 0 0.156863 0 0 0 0.08 0"></feColorMatrix><feBlend mode="normal" in2="effect1_dropShadow_235_4297" result="effect2_dropShadow_235_4297"></feBlend><feBlend mode="normal" in="SourceGraphic" in2="effect2_dropShadow_235_4297" result="shape"></feBlend></filter><filter id="filter1_dd_235_4297" x="269.504" y="186.116" width="52.0605" height="43.2426" filterUnits="userSpaceOnUse" color-interpolation-filters="sRGB"><feFlood flood-opacity="0" result="BackgroundImageFix"></feFlood><feColorMatrix in="SourceAlpha" type="matrix" values="0 0 0 0 0 0 0 0 0 0 0 0 0 0 0 0 0 0 127 0" result="hardAlpha"></feColorMatrix><feMorphology radius="4" operator="erode" in="SourceAlpha" result="effect1_dropShadow_235_4297"></feMorphology><feOffset dy="8"></feOffset><feGaussianBlur stdDeviation="4"></feGaussianBlur><feColorMatrix type="matrix" values="0 0 0 0 0.0627451 0 0 0 0 0.0941176 0 0 0 0 0.156863 0 0 0 0.03 0"></feColorMatrix><feBlend mode="normal" in2="BackgroundImageFix" result="effect1_dropShadow_235_4297"></feBlend><feColorMatrix in="SourceAlpha" type="matrix" values="0 0 0 0 0 0 0 0 0 0 0 0 0 0 0 0 0 0 127 0" result="hardAlpha"></feColorMatrix><feMorphology radius="4" operator="erode" in="SourceAlpha" result="effect2_dropShadow_235_4297"></feMorphology><feOffset dy="20"></feOffset><feGaussianBlur stdDeviation="12"></feGaussianBlur><feColorMatrix type="matrix" values="0 0 0 0 0.0627451 0 0 0 0 0.0941176 0 0 0 0 0.156863 0 0 0 0.08 0"></feColorMatrix><feBlend mode="normal" in2="effect1_dropShadow_235_4297" result="effect2_dropShadow_235_4297"></feBlend><feBlend mode="normal" in="SourceGraphic" in2="effect2_dropShadow_235_4297" result="shape"></feBlend></filter><filter id="filter2_dd_235_4297" x="230.334" y="258.661" width="52.0762" height="43.2511" filterUnits="userSpaceOnUse" color-interpolation-filters="sRGB"><feFlood flood-opacity="0" result="BackgroundImageFix"></feFlood><feColorMatrix in="SourceAlpha" type="matrix" values="0 0 0 0 0 0 0 0 0 0 0 0 0 0 0 0 0 0 127 0" result="hardAlpha"></feColorMatrix><feMorphology radius="4" operator="erode" in="SourceAlpha" result="effect1_dropShadow_235_4297"></feMorphology><feOffset dy="8"></feOffset><feGaussianBlur stdDeviation="4"></feGaussianBlur><feColorMatrix type="matrix" values="0 0 0 0 0.0627451 0 0 0 0 0.0941176 0 0 0 0 0.156863 0 0 0 0.03 0"></feColorMatrix><feBlend mode="normal" in2="BackgroundImageFix" result="effect1_dropShadow_235_4297"></feBlend><feColorMatrix in="SourceAlpha" type="matrix" values="0 0 0 0 0 0 0 0 0 0 0 0 0 0 0 0 0 0 127 0" result="hardAlpha"></feColorMatrix><feMorphology radius="4" operator="erode" in="SourceAlpha" result="effect2_dropShadow_235_4297"></feMorphology><feOffset dy="20"></feOffset><feGaussianBlur stdDeviation="12"></feGaussianBlur><feColorMatrix type="matrix" values="0 0 0 0 0.0627451 0 0 0 0 0.0941176 0 0 0 0 0.156863 0 0 0 0.08 0"></feColorMatrix><feBlend mode="normal" in2="effect1_dropShadow_235_4297" result="effect2_dropShadow_235_4297"></feBlend><feBlend mode="normal" in="SourceGraphic" in2="effect2_dropShadow_235_4297" result="shape"></feBlend></filter><filter id="filter3_dd_235_4297" x="279.857" y="234.521" width="45.957" height="43.2445" filterUnits="userSpaceOnUse" color-interpolation-filters="sRGB"><feFlood flood-opacity="0" result="BackgroundImageFix"></feFlood><feColorMatrix in="SourceAlpha" type="matrix" values="0 0 0 0 0 0 0 0 0 0 0 0 0 0 0 0 0 0 127 0" result="hardAlpha"></feColorMatrix><feMorphology radius="4" operator="erode" in="SourceAlpha" result="effect1_dropShadow_235_4297"></feMorphology><feOffset dy="8"></feOffset><feGaussianBlur stdDeviation="4"></feGaussianBlur><feColorMatrix type="matrix" values="0 0 0 0 0.0627451 0 0 0 0 0.0941176 0 0 0 0 0.156863 0 0 0 0.03 0"></feColorMatrix><feBlend mode="normal" in2="BackgroundImageFix" result="effect1_dropShadow_235_4297"></feBlend><feColorMatrix in="SourceAlpha" type="matrix" values="0 0 0 0 0 0 0 0 0 0 0 0 0 0 0 0 0 0 127 0" result="hardAlpha"></feColorMatrix><feMorphology radius="4" operator="erode" in="SourceAlpha" result="effect2_dropShadow_235_4297"></feMorphology><feOffset dy="20"></feOffset><feGaussianBlur stdDeviation="12"></feGaussianBlur><feColorMatrix type="matrix" values="0 0 0 0 0.0627451 0 0 0 0 0.0941176 0 0 0 0 0.156863 0 0 0 0.08 0"></feColorMatrix><feBlend mode="normal" in2="effect1_dropShadow_235_4297" result="effect2_dropShadow_235_4297"></feBlend><feBlend mode="normal" in="SourceGraphic" in2="effect2_dropShadow_235_4297" result="shape"></feBlend></filter><filter id="filter4_dd_235_4297" x="342.115" y="137.763" width="67.4141" height="43.257" filterUnits="userSpaceOnUse" color-interpolation-filters="sRGB"><feFlood flood-opacity="0" result="BackgroundImageFix"></feFlood><feColorMatrix in="SourceAlpha" type="matrix" values="0 0 0 0 0 0 0 0 0 0 0 0 0 0 0 0 0 0 127 0" result="hardAlpha"></feColorMatrix><feMorphology radius="4" operator="erode" in="SourceAlpha" result="effect1_dropShadow_235_4297"></feMorphology><feOffset dy="8"></feOffset><feGaussianBlur stdDeviation="4"></feGaussianBlur><feColorMatrix type="matrix" values="0 0 0 0 0.0627451 0 0 0 0 0.0941176 0 0 0 0 0.156863 0 0 0 0.03 0"></feColorMatrix><feBlend mode="normal" in2="BackgroundImageFix" result="effect1_dropShadow_235_4297"></feBlend><feColorMatrix in="SourceAlpha" type="matrix" values="0 0 0 0 0 0 0 0 0 0 0 0 0 0 0 0 0 0 127 0" result="hardAlpha"></feColorMatrix><feMorphology radius="4" operator="erode" in="SourceAlpha" result="effect2_dropShadow_235_4297"></feMorphology><feOffset dy="20"></feOffset><feGaussianBlur stdDeviation="12"></feGaussianBlur><feColorMatrix type="matrix" values="0 0 0 0 0.0627451 0 0 0 0 0.0941176 0 0 0 0 0.156863 0 0 0 0.08 0"></feColorMatrix><feBlend mode="normal" in2="effect1_dropShadow_235_4297" result="effect2_dropShadow_235_4297"></feBlend><feBlend mode="normal" in="SourceGraphic" in2="effect2_dropShadow_235_4297" result="shape"></feBlend></filter><filter id="filter5_dd_235_4297" x="310.529" y="173.921" width="56.084" height="43.2534" filterUnits="userSpaceOnUse" color-interpolation-filters="sRGB"><feFlood flood-opacity="0" result="BackgroundImageFix"></feFlood><feColorMatrix in="SourceAlpha" type="matrix" values="0 0 0 0 0 0 0 0 0 0 0 0 0 0 0 0 0 0 127 0" result="hardAlpha"></feColorMatrix><feMorphology radius="4" operator="erode" in="SourceAlpha" result="effect1_dropShadow_235_4297"></feMorphology><feOffset dy="8"></feOffset><feGaussianBlur stdDeviation="4"></feGaussianBlur><feColorMatrix type="matrix" values="0 0 0 0 0.0627451 0 0 0 0 0.0941176 0 0 0 0 0.156863 0 0 0 0.03 0"></feColorMatrix><feBlend mode="normal" in2="BackgroundImageFix" result="effect1_dropShadow_235_4297"></feBlend><feColorMatrix in="SourceAlpha" type="matrix" values="0 0 0 0 0 0 0 0 0 0 0 0 0 0 0 0 0 0 127 0" result="hardAlpha"></feColorMatrix><feMorphology radius="4" operator="erode" in="SourceAlpha" result="effect2_dropShadow_235_4297"></feMorphology><feOffset dy="20"></feOffset><feGaussianBlur stdDeviation="12"></feGaussianBlur><feColorMatrix type="matrix" values="0 0 0 0 0.0627451 0 0 0 0 0.0941176 0 0 0 0 0.156863 0 0 0 0.08 0"></feColorMatrix><feBlend mode="normal" in2="effect1_dropShadow_235_4297" result="effect2_dropShadow_235_4297"></feBlend><feBlend mode="normal" in="SourceGraphic" in2="effect2_dropShadow_235_4297" result="shape"></feBlend></filter><filter id="filter6_dd_235_4297" x="297.475" y="222.62" width="56.084" height="43.2546" filterUnits="userSpaceOnUse" color-interpolation-filters="sRGB"><feFlood flood-opacity="0" result="BackgroundImageFix"></feFlood><feColorMatrix in="SourceAlpha" type="matrix" values="0 0 0 0 0 0 0 0 0 0 0 0 0 0 0 0 0 0 127 0" result="hardAlpha"></feColorMatrix><feMorphology radius="4" operator="erode" in="SourceAlpha" result="effect1_dropShadow_235_4297"></feMorphology><feOffset dy="8"></feOffset><feGaussianBlur stdDeviation="4"></feGaussianBlur><feColorMatrix type="matrix" values="0 0 0 0 0.0627451 0 0 0 0 0.0941176 0 0 0 0 0.156863 0 0 0 0.03 0"></feColorMatrix><feBlend mode="normal" in2="BackgroundImageFix" result="effect1_dropShadow_235_4297"></feBlend><feColorMatrix in="SourceAlpha" type="matrix" values="0 0 0 0 0 0 0 0 0 0 0 0 0 0 0 0 0 0 127 0" result="hardAlpha"></feColorMatrix><feMorphology radius="4" operator="erode" in="SourceAlpha" result="effect2_dropShadow_235_4297"></feMorphology><feOffset dy="20"></feOffset><feGaussianBlur stdDeviation="12"></feGaussianBlur><feColorMatrix type="matrix" values="0 0 0 0 0.0627451 0 0 0 0 0.0941176 0 0 0 0 0.156863 0 0 0 0.08 0"></feColorMatrix><feBlend mode="normal" in2="effect1_dropShadow_235_4297" result="effect2_dropShadow_235_4297"></feBlend><feBlend mode="normal" in="SourceGraphic" in2="effect2_dropShadow_235_4297" result="shape"></feBlend></filter><filter id="filter7_dd_235_4297" x="259.24" y="149.944" width="45.1895" height="43.2372" filterUnits="userSpaceOnUse" color-interpolation-filters="sRGB"><feFlood flood-opacity="0" result="BackgroundImageFix"></feFlood><feColorMatrix in="SourceAlpha" type="matrix" values="0 0 0 0 0 0 0 0 0 0 0 0 0 0 0 0 0 0 127 0" result="hardAlpha"></feColorMatrix><feMorphology radius="4" operator="erode" in="SourceAlpha" result="effect1_dropShadow_235_4297"></feMorphology><feOffset dy="8"></feOffset><feGaussianBlur stdDeviation="4"></feGaussianBlur><feColorMatrix type="matrix" values="0 0 0 0 0.0627451 0 0 0 0 0.0941176 0 0 0 0 0.156863 0 0 0 0.03 0"></feColorMatrix><feBlend mode="normal" in2="BackgroundImageFix" result="effect1_dropShadow_235_4297"></feBlend><feColorMatrix in="SourceAlpha" type="matrix" values="0 0 0 0 0 0 0 0 0 0 0 0 0 0 0 0 0 0 127 0" result="hardAlpha"></feColorMatrix><feMorphology radius="4" operator="erode" in="SourceAlpha" result="effect2_dropShadow_235_4297"></feMorphology><feOffset dy="20"></feOffset><feGaussianBlur stdDeviation="12"></feGaussianBlur><feColorMatrix type="matrix" values="0 0 0 0 0.0627451 0 0 0 0 0.0941176 0 0 0 0 0.156863 0 0 0 0.08 0"></feColorMatrix><feBlend mode="normal" in2="effect1_dropShadow_235_4297" result="effect2_dropShadow_235_4297"></feBlend><feBlend mode="normal" in="SourceGraphic" in2="effect2_dropShadow_235_4297" result="shape"></feBlend></filter><filter id="filter8_dd_235_4297" x="350.404" y="161.819" width="53.7246" height="43.2522" filterUnits="userSpaceOnUse" color-interpolation-filters="sRGB"><feFlood flood-opacity="0" result="BackgroundImageFix"></feFlood><feColorMatrix in="SourceAlpha" type="matrix" values="0 0 0 0 0 0 0 0 0 0 0 0 0 0 0 0 0 0 127 0" result="hardAlpha"></feColorMatrix><feMorphology radius="4" operator="erode" in="SourceAlpha" result="effect1_dropShadow_235_4297"></feMorphology><feOffset dy="8"></feOffset><feGaussianBlur stdDeviation="4"></feGaussianBlur><feColorMatrix type="matrix" values="0 0 0 0 0.0627451 0 0 0 0 0.0941176 0 0 0 0 0.156863 0 0 0 0.03 0"></feColorMatrix><feBlend mode="normal" in2="BackgroundImageFix" result="effect1_dropShadow_235_4297"></feBlend><feColorMatrix in="SourceAlpha" type="matrix" values="0 0 0 0 0 0 0 0 0 0 0 0 0 0 0 0 0 0 127 0" result="hardAlpha"></feColorMatrix><feMorphology radius="4" operator="erode" in="SourceAlpha" result="effect2_dropShadow_235_4297"></feMorphology><feOffset dy="20"></feOffset><feGaussianBlur stdDeviation="12"></feGaussianBlur><feColorMatrix type="matrix" values="0 0 0 0 0.0627451 0 0 0 0 0.0941176 0 0 0 0 0.156863 0 0 0 0.08 0"></feColorMatrix><feBlend mode="normal" in2="effect1_dropShadow_235_4297" result="effect2_dropShadow_235_4297"></feBlend><feBlend mode="normal" in="SourceGraphic" in2="effect2_dropShadow_235_4297" result="shape"></feBlend></filter><filter id="filter9_dd_235_4297" x="319.139" y="234.457" width="53.7402" height="43.2535" filterUnits="userSpaceOnUse" color-interpolation-filters="sRGB"><feFlood flood-opacity="0" result="BackgroundImageFix"></feFlood><feColorMatrix in="SourceAlpha" type="matrix" values="0 0 0 0 0 0 0 0 0 0 0 0 0 0 0 0 0 0 127 0" result="hardAlpha"></feColorMatrix><feMorphology radius="4" operator="erode" in="SourceAlpha" result="effect1_dropShadow_235_4297"></feMorphology><feOffset dy="8"></feOffset><feGaussianBlur stdDeviation="4"></feGaussianBlur><feColorMatrix type="matrix" values="0 0 0 0 0.0627451 0 0 0 0 0.0941176 0 0 0 0 0.156863 0 0 0 0.03 0"></feColorMatrix><feBlend mode="normal" in2="BackgroundImageFix" result="effect1_dropShadow_235_4297"></feBlend><feColorMatrix in="SourceAlpha" type="matrix" values="0 0 0 0 0 0 0 0 0 0 0 0 0 0 0 0 0 0 127 0" result="hardAlpha"></feColorMatrix><feMorphology radius="4" operator="erode" in="SourceAlpha" result="effect2_dropShadow_235_4297"></feMorphology><feOffset dy="20"></feOffset><feGaussianBlur stdDeviation="12"></feGaussianBlur><feColorMatrix type="matrix" values="0 0 0 0 0.0627451 0 0 0 0 0.0941176 0 0 0 0 0.156863 0 0 0 0.08 0"></feColorMatrix><feBlend mode="normal" in2="effect1_dropShadow_235_4297" result="effect2_dropShadow_235_4297"></feBlend><feBlend mode="normal" in="SourceGraphic" in2="effect2_dropShadow_235_4297" result="shape"></feBlend></filter><filter id="filter10_dd_235_4297" x="279.072" y="258.599" width="53.748" height="43.2256" filterUnits="userSpaceOnUse" color-interpolation-filters="sRGB"><feFlood flood-opacity="0" result="BackgroundImageFix"></feFlood><feColorMatrix in="SourceAlpha" type="matrix" values="0 0 0 0 0 0 0 0 0 0 0 0 0 0 0 0 0 0 127 0" result="hardAlpha"></feColorMatrix><feMorphology radius="4" operator="erode" in="SourceAlpha" result="effect1_dropShadow_235_4297"></feMorphology><feOffset dy="8"></feOffset><feGaussianBlur stdDeviation="4"></feGaussianBlur><feColorMatrix type="matrix" values="0 0 0 0 0.0627451 0 0 0 0 0.0941176 0 0 0 0 0.156863 0 0 0 0.03 0"></feColorMatrix><feBlend mode="normal" in2="BackgroundImageFix" result="effect1_dropShadow_235_4297"></feBlend><feColorMatrix in="SourceAlpha" type="matrix" values="0 0 0 0 0 0 0 0 0 0 0 0 0 0 0 0 0 0 127 0" result="hardAlpha"></feColorMatrix><feMorphology radius="4" operator="erode" in="SourceAlpha" result="effect2_dropShadow_235_4297"></feMorphology><feOffset dy="20"></feOffset><feGaussianBlur stdDeviation="12"></feGaussianBlur><feColorMatrix type="matrix" values="0 0 0 0 0.0627451 0 0 0 0 0.0941176 0 0 0 0 0.156863 0 0 0 0.08 0"></feColorMatrix><feBlend mode="normal" in2="effect1_dropShadow_235_4297" result="effect2_dropShadow_235_4297"></feBlend><feBlend mode="normal" in="SourceGraphic" in2="effect2_dropShadow_235_4297" result="shape"></feBlend></filter><filter id="filter11_dd_235_4297" x="256.078" y="161.97" width="50.0371" height="43.2413" filterUnits="userSpaceOnUse" color-interpolation-filters="sRGB"><feFlood flood-opacity="0" result="BackgroundImageFix"></feFlood><feColorMatrix in="SourceAlpha" type="matrix" values="0 0 0 0 0 0 0 0 0 0 0 0 0 0 0 0 0 0 127 0" result="hardAlpha"></feColorMatrix><feMorphology radius="4" operator="erode" in="SourceAlpha" result="effect1_dropShadow_235_4297"></feMorphology><feOffset dy="8"></feOffset><feGaussianBlur stdDeviation="4"></feGaussianBlur><feColorMatrix type="matrix" values="0 0 0 0 0.0627451 0 0 0 0 0.0941176 0 0 0 0 0.156863 0 0 0 0.03 0"></feColorMatrix><feBlend mode="normal" in2="BackgroundImageFix" result="effect1_dropShadow_235_4297"></feBlend><feColorMatrix in="SourceAlpha" type="matrix" values="0 0 0 0 0 0 0 0 0 0 0 0 0 0 0 0 0 0 127 0" result="hardAlpha"></feColorMatrix><feMorphology radius="4" operator="erode" in="SourceAlpha" result="effect2_dropShadow_235_4297"></feMorphology><feOffset dy="20"></feOffset><feGaussianBlur stdDeviation="12"></feGaussianBlur><feColorMatrix type="matrix" values="0 0 0 0 0.0627451 0 0 0 0 0.0941176 0 0 0 0 0.156863 0 0 0 0.08 0"></feColorMatrix><feBlend mode="normal" in2="effect1_dropShadow_235_4297" result="effect2_dropShadow_235_4297"></feBlend><feBlend mode="normal" in="SourceGraphic" in2="effect2_dropShadow_235_4297" result="shape"></feBlend></filter><filter id="filter12_dd_235_4297" x="257.6" y="210.492" width="50.0371" height="43.2256" filterUnits="userSpaceOnUse" color-interpolation-filters="sRGB"><feFlood flood-opacity="0" result="BackgroundImageFix"></feFlood><feColorMatrix in="SourceAlpha" type="matrix" values="0 0 0 0 0 0 0 0 0 0 0 0 0 0 0 0 0 0 127 0" result="hardAlpha"></feColorMatrix><feMorphology radius="4" operator="erode" in="SourceAlpha" result="effect1_dropShadow_235_4297"></feMorphology><feOffset dy="8"></feOffset><feGaussianBlur stdDeviation="4"></feGaussianBlur><feColorMatrix type="matrix" values="0 0 0 0 0.0627451 0 0 0 0 0.0941176 0 0 0 0 0.156863 0 0 0 0.03 0"></feColorMatrix><feBlend mode="normal" in2="BackgroundImageFix" result="effect1_dropShadow_235_4297"></feBlend><feColorMatrix in="SourceAlpha" type="matrix" values="0 0 0 0 0 0 0 0 0 0 0 0 0 0 0 0 0 0 127 0" result="hardAlpha"></feColorMatrix><feMorphology radius="4" operator="erode" in="SourceAlpha" result="effect2_dropShadow_235_4297"></feMorphology><feOffset dy="20"></feOffset><feGaussianBlur stdDeviation="12"></feGaussianBlur><feColorMatrix type="matrix" values="0 0 0 0 0.0627451 0 0 0 0 0.0941176 0 0 0 0 0.156863 0 0 0 0.08 0"></feColorMatrix><feBlend mode="normal" in2="effect1_dropShadow_235_4297" result="effect2_dropShadow_235_4297"></feBlend><feBlend mode="normal" in="SourceGraphic" in2="effect2_dropShadow_235_4297" result="shape"></feBlend></filter><filter id="filter13_dd_235_4297" x="79.332" y="74.4443" width="114.441" height="129.997" filterUnits="userSpaceOnUse" color-interpolation-filters="sRGB"><feFlood flood-opacity="0" result="BackgroundImageFix"></feFlood><feColorMatrix in="SourceAlpha" type="matrix" values="0 0 0 0 0 0 0 0 0 0 0 0 0 0 0 0 0 0 127 0" result="hardAlpha"></feColorMatrix><feMorphology radius="4" operator="erode" in="SourceAlpha" result="effect1_dropShadow_235_4297"></feMorphology><feOffset dy="8"></feOffset><feGaussianBlur stdDeviation="4"></feGaussianBlur><feColorMatrix type="matrix" values="0 0 0 0 0.0627451 0 0 0 0 0.0941176 0 0 0 0 0.156863 0 0 0 0.03 0"></feColorMatrix><feBlend mode="normal" in2="BackgroundImageFix" result="effect1_dropShadow_235_4297"></feBlend><feColorMatrix in="SourceAlpha" type="matrix" values="0 0 0 0 0 0 0 0 0 0 0 0 0 0 0 0 0 0 127 0" result="hardAlpha"></feColorMatrix><feMorphology radius="4" operator="erode" in="SourceAlpha" result="effect2_dropShadow_235_4297"></feMorphology><feOffset dy="20"></feOffset><feGaussianBlur stdDeviation="12"></feGaussianBlur><feColorMatrix type="matrix" values="0 0 0 0 0.0627451 0 0 0 0 0.0941176 0 0 0 0 0.156863 0 0 0 0.08 0"></feColorMatrix><feBlend mode="normal" in2="effect1_dropShadow_235_4297" result="effect2_dropShadow_235_4297"></feBlend><feBlend mode="normal" in="SourceGraphic" in2="effect2_dropShadow_235_4297" result="shape"></feBlend></filter><filter id="filter14_dd_235_4297" x="430" y="267" width="114.441" height="129.997" filterUnits="userSpaceOnUse" color-interpolation-filters="sRGB"><feFlood flood-opacity="0" result="BackgroundImageFix"></feFlood><feColorMatrix in="SourceAlpha" type="matrix" values="0 0 0 0 0 0 0 0 0 0 0 0 0 0 0 0 0 0 127 0" result="hardAlpha"></feColorMatrix><feMorphology radius="4" operator="erode" in="SourceAlpha" result="effect1_dropShadow_235_4297"></feMorphology><feOffset dy="8"></feOffset><feGaussianBlur stdDeviation="4"></feGaussianBlur><feColorMatrix type="matrix" values="0 0 0 0 0.0627451 0 0 0 0 0.0941176 0 0 0 0 0.156863 0 0 0 0.03 0"></feColorMatrix><feBlend mode="normal" in2="BackgroundImageFix" result="effect1_dropShadow_235_4297"></feBlend><feColorMatrix in="SourceAlpha" type="matrix" values="0 0 0 0 0 0 0 0 0 0 0 0 0 0 0 0 0 0 127 0" result="hardAlpha"></feColorMatrix><feMorphology radius="4" operator="erode" in="SourceAlpha" result="effect2_dropShadow_235_4297"></feMorphology><feOffset dy="20"></feOffset><feGaussianBlur stdDeviation="12"></feGaussianBlur><feColorMatrix type="matrix" values="0 0 0 0 0.0627451 0 0 0 0 0.0941176 0 0 0 0 0.156863 0 0 0 0.08 0"></feColorMatrix><feBlend mode="normal" in2="effect1_dropShadow_235_4297" result="effect2_dropShadow_235_4297"></feBlend><feBlend mode="normal" in="SourceGraphic" in2="effect2_dropShadow_235_4297" result="shape"></feBlend></filter><filter id="filter15_dd_235_4297" x="430.43" y="173.329" width="75.5547" height="81.1095" filterUnits="userSpaceOnUse" color-interpolation-filters="sRGB"><feFlood flood-opacity="0" result="BackgroundImageFix"></feFlood><feColorMatrix in="SourceAlpha" type="matrix" values="0 0 0 0 0 0 0 0 0 0 0 0 0 0 0 0 0 0 127 0" result="hardAlpha"></feColorMatrix><feMorphology radius="4" operator="erode" in="SourceAlpha" result="effect1_dropShadow_235_4297"></feMorphology><feOffset dy="8"></feOffset><feGaussianBlur stdDeviation="4"></feGaussianBlur><feColorMatrix type="matrix" values="0 0 0 0 0.0627451 0 0 0 0 0.0941176 0 0 0 0 0.156863 0 0 0 0.03 0"></feColorMatrix><feBlend mode="normal" in2="BackgroundImageFix" result="effect1_dropShadow_235_4297"></feBlend><feColorMatrix in="SourceAlpha" type="matrix" values="0 0 0 0 0 0 0 0 0 0 0 0 0 0 0 0 0 0 127 0" result="hardAlpha"></feColorMatrix><feMorphology radius="4" operator="erode" in="SourceAlpha" result="effect2_dropShadow_235_4297"></feMorphology><feOffset dy="20"></feOffset><feGaussianBlur stdDeviation="12"></feGaussianBlur><feColorMatrix type="matrix" values="0 0 0 0 0.0627451 0 0 0 0 0.0941176 0 0 0 0 0.156863 0 0 0 0.08 0"></feColorMatrix><feBlend mode="normal" in2="effect1_dropShadow_235_4297" result="effect2_dropShadow_235_4297"></feBlend><feBlend mode="normal" in="SourceGraphic" in2="effect2_dropShadow_235_4297" result="shape"></feBlend></filter><filter id="filter16_dd_235_4297" x="437.831" y="18" width="162.693" height="112.885" filterUnits="userSpaceOnUse" color-interpolation-filters="sRGB"><feFlood flood-opacity="0" result="BackgroundImageFix"></feFlood><feColorMatrix in="SourceAlpha" type="matrix" values="0 0 0 0 0 0 0 0 0 0 0 0 0 0 0 0 0 0 127 0" result="hardAlpha"></feColorMatrix><feMorphology radius="2.43373" operator="erode" in="SourceAlpha" result="effect1_dropShadow_235_4297"></feMorphology><feOffset dy="4.86747"></feOffset><feGaussianBlur stdDeviation="2.43373"></feGaussianBlur><feColorMatrix type="matrix" values="0 0 0 0 0.0627451 0 0 0 0 0.0941176 0 0 0 0 0.156863 0 0 0 0.03 0"></feColorMatrix><feBlend mode="normal" in2="BackgroundImageFix" result="effect1_dropShadow_235_4297"></feBlend><feColorMatrix in="SourceAlpha" type="matrix" values="0 0 0 0 0 0 0 0 0 0 0 0 0 0 0 0 0 0 127 0" result="hardAlpha"></feColorMatrix><feMorphology radius="2.43373" operator="erode" in="SourceAlpha" result="effect2_dropShadow_235_4297"></feMorphology><feOffset dy="12.1687"></feOffset><feGaussianBlur stdDeviation="7.3012"></feGaussianBlur><feColorMatrix type="matrix" values="0 0 0 0 0.0627451 0 0 0 0 0.0941176 0 0 0 0 0.156863 0 0 0 0.08 0"></feColorMatrix><feBlend mode="normal" in2="effect1_dropShadow_235_4297" result="effect2_dropShadow_235_4297"></feBlend><feBlend mode="normal" in="SourceGraphic" in2="effect2_dropShadow_235_4297" result="shape"></feBlend></filter><filter id="filter17_dd_235_4297" x="19.8313" y="268" width="162.693" height="112.885" filterUnits="userSpaceOnUse" color-interpolation-filters="sRGB"><feFlood flood-opacity="0" result="BackgroundImageFix"></feFlood><feColorMatrix in="SourceAlpha" type="matrix" values="0 0 0 0 0 0 0 0 0 0 0 0 0 0 0 0 0 0 127 0" result="hardAlpha"></feColorMatrix><feMorphology radius="2.43373" operator="erode" in="SourceAlpha" result="effect1_dropShadow_235_4297"></feMorphology><feOffset dy="4.86747"></feOffset><feGaussianBlur stdDeviation="2.43373"></feGaussianBlur><feColorMatrix type="matrix" values="0 0 0 0 0.0627451 0 0 0 0 0.0941176 0 0 0 0 0.156863 0 0 0 0.03 0"></feColorMatrix><feBlend mode="normal" in2="BackgroundImageFix" result="effect1_dropShadow_235_4297"></feBlend><feColorMatrix in="SourceAlpha" type="matrix" values="0 0 0 0 0 0 0 0 0 0 0 0 0 0 0 0 0 0 127 0" result="hardAlpha"></feColorMatrix><feMorphology radius="2.43373" operator="erode" in="SourceAlpha" result="effect2_dropShadow_235_4297"></feMorphology><feOffset dy="12.1687"></feOffset><feGaussianBlur stdDeviation="7.3012"></feGaussianBlur><feColorMatrix type="matrix" values="0 0 0 0 0.0627451 0 0 0 0 0.0941176 0 0 0 0 0.156863 0 0 0 0.08 0"></feColorMatrix><feBlend mode="normal" in2="effect1_dropShadow_235_4297" result="effect2_dropShadow_235_4297"></feBlend><feBlend mode="normal" in="SourceGraphic" in2="effect2_dropShadow_235_4297" result="shape"></feBlend></filter><clipPath id="clip0_235_4297"><rect width="620" height="384" fill="white"></rect></clipPath></defs></svg> 