<?xml version="1.0" encoding="UTF-8"?> <svg xmlns="http://www.w3.org/2000/svg" width="768" height="384" viewBox="0 0 768 384" fill="none"><g clip-path="url(#clip0_217_31361)"><g filter="url(#filter0_dd_217_31361)"><rect width="131.436" height="171.093" rx="8" transform="matrix(1 0 0 -1 32 350.093)" fill="white"></rect></g><path d="M70.76 333.701H46.7459C45.0261 333.701 43.6318 332.307 43.6318 330.587V301.92C43.6318 300.2 45.0261 298.806 46.7459 298.806H70.76C72.4798 298.806 73.874 300.2 73.874 301.92V330.587C73.874 332.307 72.4798 333.701 70.76 333.701Z" fill="#F04E23"></path><path d="M110.307 333.701H85.1297C83.4098 333.701 82.0156 332.307 82.0156 330.587V301.92C82.0156 300.2 83.4098 298.806 85.1297 298.806H110.307C112.027 298.806 113.421 300.2 113.421 301.92V330.587C113.421 332.307 112.027 333.701 110.307 333.701Z" fill="#163156"></path><path d="M148.692 333.701H124.678C122.958 333.701 121.563 332.307 121.563 330.587V301.92C121.563 300.2 122.958 298.806 124.678 298.806H148.692C150.411 298.806 151.806 300.2 151.806 301.92V330.587C151.806 332.307 150.411 333.701 148.692 333.701Z" fill="#D0D6DD"></path><path d="M149.995 256.932H45.4429C44.4427 256.932 43.6318 257.743 43.6318 258.743C43.6318 259.744 44.4427 260.554 45.4429 260.554H149.995C150.995 260.554 151.806 259.744 151.806 258.743C151.806 257.743 150.995 256.932 149.995 256.932Z" fill="#A2ADBB"></path><path d="M149.995 267.401H45.4429C44.4427 267.401 43.6318 268.212 43.6318 269.212C43.6318 270.212 44.4427 271.023 45.4429 271.023H149.995C150.995 271.023 151.806 270.212 151.806 269.212C151.806 268.212 150.995 267.401 149.995 267.401Z" fill="#A2ADBB"></path><path d="M149.995 277.869H45.4429C44.4427 277.869 43.6318 278.68 43.6318 279.68C43.6318 280.681 44.4427 281.491 45.4429 281.491H149.995C150.995 281.491 151.806 280.681 151.806 279.68C151.806 278.68 150.995 277.869 149.995 277.869Z" fill="#A2ADBB"></path><path d="M149.995 288.338H45.4429C44.4427 288.338 43.6318 289.148 43.6318 290.149C43.6318 291.149 44.4427 291.96 45.4429 291.96H149.995C150.995 291.96 151.806 291.149 151.806 290.149C151.806 289.148 150.995 288.338 149.995 288.338Z" fill="#A2ADBB"></path><rect width="108.174" height="54.6686" rx="3.46805" transform="matrix(1 0 0 -1 43.6318 249.953)" fill="#49BDB7"></rect><path d="M113.499 236L75.499 269.5L136.999 307" stroke="#2E4667" stroke-width="0.6" stroke-linecap="round" stroke-linejoin="round"></path><circle cx="136.688" cy="307.653" r="4.65265" fill="white"></circle><circle cx="136.691" cy="307.653" r="3.10177" fill="#D0D6DD"></circle><circle cx="74.6526" cy="268.653" r="4.65265" fill="white"></circle><circle cx="74.6555" cy="268.653" r="3.10177" fill="#F04E23"></circle><circle cx="113.653" cy="235.653" r="4.65265" fill="white"></circle><circle cx="113.655" cy="235.653" r="3.10177" fill="#49BDB7"></circle><g filter="url(#filter1_dd_217_31361)"><rect width="131.436" height="171.093" rx="8" transform="matrix(1 0 0 -1 222.998 252.093)" fill="white"></rect></g><rect x="233.861" y="191.477" width="109.571" height="49.805" rx="2.25114" fill="#EFF6FF"></rect><path d="M311.738 174.271H235.672C234.672 174.271 233.861 173.46 233.861 172.46C233.861 171.46 234.672 170.649 235.672 170.649H311.738C312.739 170.649 313.549 171.46 313.549 172.46C313.549 173.46 312.739 174.271 311.738 174.271Z" fill="#A2ADBB"></path><path d="M311.738 185.138H235.672C234.672 185.138 233.861 184.327 233.861 183.327C233.861 182.327 234.672 181.516 235.672 181.516H311.738C312.739 181.516 313.549 182.327 313.549 183.327C313.549 184.327 312.739 185.138 311.738 185.138Z" fill="#A2ADBB"></path><path d="M335.284 228.604H242.013C241.013 228.604 240.202 227.793 240.202 226.793C240.202 225.793 241.013 224.982 242.013 224.982H335.284C336.285 224.982 337.096 225.793 337.096 226.793C337.096 227.793 336.285 228.604 335.284 228.604Z" fill="#A4DEDB"></path><path d="M262.841 228.604H242.013C241.013 228.604 240.202 227.793 240.202 226.793C240.202 225.793 241.013 224.982 242.013 224.982H262.841C263.841 224.982 264.652 225.793 264.652 226.793C264.652 227.793 263.841 228.604 262.841 228.604Z" fill="#F04E23"></path><path d="M324.693 235.416V234.898L325.903 233.779C326.005 233.679 326.092 233.59 326.161 233.51C326.232 233.43 326.286 233.352 326.322 233.276C326.359 233.199 326.377 233.115 326.377 233.026C326.377 232.926 326.354 232.84 326.309 232.769C326.264 232.696 326.202 232.64 326.123 232.601C326.045 232.561 325.956 232.541 325.856 232.541C325.752 232.541 325.662 232.562 325.584 232.604C325.507 232.646 325.447 232.707 325.405 232.785C325.363 232.864 325.342 232.957 325.342 233.065H324.66C324.66 232.843 324.71 232.65 324.811 232.487C324.912 232.323 325.053 232.196 325.234 232.107C325.415 232.017 325.624 231.972 325.861 231.972C326.104 231.972 326.316 232.015 326.496 232.102C326.678 232.187 326.819 232.305 326.919 232.457C327.02 232.608 327.07 232.782 327.07 232.978C327.07 233.106 327.045 233.232 326.994 233.357C326.944 233.482 326.855 233.621 326.727 233.774C326.599 233.925 326.418 234.107 326.185 234.32L325.689 234.806V234.829H327.115V235.416H324.693ZM328.876 235.462C328.642 235.462 328.433 235.419 328.249 235.333C328.067 235.247 327.922 235.128 327.815 234.976C327.707 234.825 327.652 234.651 327.647 234.456H328.344C328.352 234.587 328.407 234.694 328.51 234.776C328.613 234.857 328.735 234.898 328.876 234.898C328.989 234.898 329.089 234.874 329.175 234.824C329.262 234.773 329.33 234.703 329.379 234.613C329.429 234.522 329.454 234.418 329.454 234.301C329.454 234.182 329.428 234.077 329.377 233.986C329.328 233.895 329.258 233.825 329.17 233.774C329.081 233.723 328.98 233.697 328.866 233.696C328.767 233.696 328.67 233.716 328.576 233.757C328.483 233.798 328.411 233.854 328.359 233.925L327.72 233.81L327.881 232.019H329.958V232.606H328.473L328.385 233.457H328.405C328.465 233.373 328.555 233.303 328.676 233.248C328.796 233.193 328.931 233.165 329.08 233.165C329.285 233.165 329.467 233.213 329.628 233.309C329.788 233.406 329.915 233.538 330.008 233.706C330.101 233.873 330.146 234.065 330.145 234.283C330.146 234.512 330.093 234.715 329.986 234.893C329.88 235.07 329.731 235.21 329.54 235.311C329.35 235.412 329.128 235.462 328.876 235.462ZM332.506 234.779V234.6C332.506 234.464 332.535 234.339 332.592 234.225C332.651 234.11 332.735 234.018 332.846 233.95C332.958 233.88 333.094 233.845 333.254 233.845C333.416 233.845 333.553 233.879 333.664 233.948C333.775 234.016 333.859 234.108 333.916 234.223C333.973 234.337 334.002 234.463 334.002 234.6V234.779C334.002 234.915 333.973 235.041 333.916 235.156C333.858 235.269 333.774 235.361 333.662 235.429C333.55 235.499 333.414 235.534 333.254 235.534C333.091 235.534 332.955 235.499 332.844 235.429C332.734 235.361 332.65 235.269 332.592 235.156C332.535 235.041 332.506 234.915 332.506 234.779ZM332.988 234.6V234.779C332.988 234.857 333.007 234.932 333.045 235.001C333.084 235.071 333.153 235.106 333.254 235.106C333.355 235.106 333.423 235.071 333.46 235.003C333.497 234.934 333.516 234.86 333.516 234.779V234.6C333.516 234.519 333.498 234.444 333.463 234.374C333.427 234.305 333.358 234.27 333.254 234.27C333.154 234.27 333.085 234.305 333.047 234.374C333.008 234.444 332.988 234.519 332.988 234.6ZM330.762 232.835V232.656C330.762 232.519 330.792 232.393 330.85 232.279C330.909 232.164 330.994 232.072 331.104 232.004C331.216 231.935 331.351 231.901 331.509 231.901C331.673 231.901 331.81 231.935 331.92 232.004C332.031 232.072 332.115 232.164 332.172 232.279C332.23 232.393 332.259 232.519 332.259 232.656V232.835C332.259 232.972 332.229 233.098 332.171 233.211C332.113 233.325 332.029 233.417 331.917 233.485C331.806 233.553 331.67 233.586 331.509 233.586C331.347 233.586 331.211 233.552 331.099 233.483C330.989 233.414 330.904 233.323 330.847 233.21C330.791 233.096 330.762 232.971 330.762 232.835ZM331.248 232.656V232.835C331.248 232.916 331.267 232.99 331.305 233.059C331.344 233.127 331.412 233.162 331.509 233.162C331.611 233.162 331.68 233.127 331.716 233.059C331.754 232.99 331.773 232.916 331.773 232.835V232.656C331.773 232.575 331.755 232.5 331.72 232.43C331.684 232.36 331.614 232.326 331.509 232.326C331.41 232.326 331.342 232.361 331.305 232.432C331.267 232.503 331.248 232.577 331.248 232.656ZM330.981 235.416L333.317 232.019H333.752L331.416 235.416H330.981Z" fill="#163156"></path><path d="M335.284 213.211H242.013C241.013 213.211 240.202 212.4 240.202 211.399C240.202 210.399 241.013 209.588 242.013 209.588H335.284C336.285 209.588 337.096 210.399 337.096 211.399C337.096 212.4 336.285 213.211 335.284 213.211Z" fill="#A4DEDB"></path><path d="M310.835 213.211H242.013C241.013 213.211 240.202 212.4 240.202 211.399C240.202 210.399 241.013 209.588 242.013 209.588H310.835C311.835 209.588 312.646 210.399 312.646 211.399C312.646 212.4 311.835 213.211 310.835 213.211Z" fill="#F04E23"></path><path d="M325.732 220.021L327.14 217.234V217.211H325.5V216.624H327.883V217.219L326.473 220.021H325.732ZM329.571 220.068C329.336 220.068 329.127 220.024 328.944 219.938C328.761 219.852 328.616 219.733 328.509 219.582C328.402 219.43 328.346 219.256 328.342 219.061H329.038C329.046 219.192 329.101 219.299 329.204 219.381C329.307 219.463 329.429 219.504 329.571 219.504C329.684 219.504 329.783 219.479 329.869 219.429C329.957 219.378 330.025 219.308 330.073 219.218C330.123 219.128 330.148 219.024 330.148 218.906C330.148 218.787 330.123 218.682 330.072 218.591C330.022 218.501 329.953 218.43 329.864 218.379C329.776 218.328 329.675 218.302 329.561 218.301C329.461 218.301 329.365 218.321 329.271 218.362C329.178 218.403 329.105 218.459 329.053 218.53L328.415 218.415L328.576 216.624H330.652V217.211H329.168L329.08 218.062H329.1C329.159 217.978 329.25 217.908 329.37 217.853C329.491 217.798 329.626 217.77 329.775 217.77C329.979 217.77 330.162 217.818 330.322 217.914C330.483 218.011 330.609 218.143 330.702 218.311C330.795 218.478 330.841 218.67 330.84 218.888C330.841 219.117 330.788 219.321 330.681 219.499C330.574 219.676 330.426 219.815 330.234 219.917C330.044 220.017 329.823 220.068 329.571 220.068ZM333.2 219.384V219.205C333.2 219.069 333.229 218.944 333.286 218.83C333.345 218.715 333.43 218.623 333.54 218.555C333.652 218.485 333.788 218.45 333.948 218.45C334.111 218.45 334.247 218.485 334.358 218.553C334.47 218.622 334.554 218.713 334.61 218.828C334.668 218.942 334.696 219.068 334.696 219.205V219.384C334.696 219.52 334.668 219.646 334.61 219.761C334.553 219.875 334.468 219.966 334.356 220.034C334.245 220.104 334.109 220.139 333.948 220.139C333.786 220.139 333.649 220.104 333.539 220.034C333.428 219.966 333.344 219.875 333.286 219.761C333.229 219.646 333.2 219.52 333.2 219.384ZM333.683 219.205V219.384C333.683 219.463 333.702 219.537 333.739 219.606C333.778 219.676 333.848 219.711 333.948 219.711C334.049 219.711 334.118 219.677 334.154 219.608C334.192 219.54 334.21 219.465 334.21 219.384V219.205C334.21 219.124 334.193 219.049 334.157 218.979C334.122 218.91 334.052 218.875 333.948 218.875C333.849 218.875 333.78 218.91 333.741 218.979C333.702 219.049 333.683 219.124 333.683 219.205ZM331.457 217.44V217.261C331.457 217.124 331.486 216.998 331.545 216.884C331.603 216.769 331.688 216.678 331.799 216.609C331.91 216.54 332.045 216.506 332.203 216.506C332.367 216.506 332.504 216.54 332.615 216.609C332.725 216.678 332.809 216.769 332.867 216.884C332.924 216.998 332.953 217.124 332.953 217.261V217.44C332.953 217.577 332.924 217.703 332.865 217.817C332.808 217.931 332.723 218.022 332.611 218.09C332.501 218.158 332.365 218.191 332.203 218.191C332.042 218.191 331.905 218.157 331.794 218.089C331.683 218.019 331.599 217.928 331.541 217.815C331.485 217.701 331.457 217.576 331.457 217.44ZM331.943 217.261V217.44C331.943 217.521 331.962 217.595 331.999 217.664C332.038 217.733 332.106 217.767 332.203 217.767C332.305 217.767 332.374 217.733 332.411 217.664C332.448 217.595 332.467 217.521 332.467 217.44V217.261C332.467 217.18 332.449 217.105 332.414 217.035C332.379 216.966 332.308 216.931 332.203 216.931C332.105 216.931 332.037 216.966 331.999 217.037C331.962 217.108 331.943 217.182 331.943 217.261ZM331.676 220.021L334.011 216.624H334.446L332.11 220.021H331.676Z" fill="#163156"></path><path d="M276.646 198.265V197.475H280.366V198.265H278.979V202.005H278.033V198.265H276.646ZM285.308 199.74C285.308 200.234 285.214 200.654 285.027 201C284.841 201.347 284.588 201.612 284.266 201.794C283.946 201.976 283.587 202.067 283.187 202.067C282.784 202.067 282.423 201.975 282.103 201.792C281.783 201.609 281.53 201.345 281.345 200.998C281.159 200.652 281.066 200.232 281.066 199.74C281.066 199.246 281.159 198.826 281.345 198.479C281.53 198.133 281.783 197.869 282.103 197.687C282.423 197.504 282.784 197.413 283.187 197.413C283.587 197.413 283.946 197.504 284.266 197.687C284.588 197.869 284.841 198.133 285.027 198.479C285.214 198.826 285.308 199.246 285.308 199.74ZM284.337 199.74C284.337 199.42 284.289 199.15 284.193 198.93C284.099 198.711 283.966 198.544 283.793 198.43C283.621 198.317 283.419 198.26 283.187 198.26C282.956 198.26 282.754 198.317 282.581 198.43C282.408 198.544 282.274 198.711 282.178 198.93C282.084 199.15 282.037 199.42 282.037 199.74C282.037 200.06 282.084 200.33 282.178 200.549C282.274 200.769 282.408 200.936 282.581 201.049C282.754 201.163 282.956 201.219 283.187 201.219C283.419 201.219 283.621 201.163 283.793 201.049C283.966 200.936 284.099 200.769 284.193 200.549C284.289 200.33 284.337 200.06 284.337 199.74ZM286.391 202.005V197.475H288.178C288.522 197.475 288.814 197.541 289.056 197.672C289.298 197.802 289.482 197.982 289.609 198.214C289.737 198.444 289.802 198.709 289.802 199.01C289.802 199.311 289.737 199.576 289.607 199.806C289.477 200.036 289.289 200.215 289.043 200.344C288.798 200.472 288.502 200.536 288.154 200.536H287.015V199.769H287.999C288.183 199.769 288.335 199.737 288.455 199.673C288.576 199.609 288.666 199.519 288.724 199.406C288.785 199.291 288.815 199.159 288.815 199.01C288.815 198.86 288.785 198.728 288.724 198.616C288.666 198.503 288.576 198.415 288.455 198.353C288.334 198.29 288.18 198.258 287.995 198.258H287.349V202.005H286.391ZM291.755 197.475V202.005H290.797V197.475H291.755ZM296.913 199.061H295.944C295.927 198.935 295.891 198.824 295.836 198.727C295.781 198.628 295.711 198.544 295.626 198.475C295.54 198.405 295.442 198.352 295.33 198.315C295.219 198.279 295.099 198.26 294.969 198.26C294.735 198.26 294.53 198.318 294.356 198.435C294.182 198.55 294.048 198.718 293.952 198.939C293.856 199.159 293.808 199.426 293.808 199.74C293.808 200.063 293.856 200.334 293.952 200.554C294.049 200.773 294.185 200.939 294.359 201.051C294.533 201.163 294.734 201.219 294.962 201.219C295.091 201.219 295.209 201.202 295.319 201.169C295.429 201.135 295.527 201.085 295.613 201.02C295.698 200.954 295.769 200.874 295.825 200.779C295.882 200.685 295.922 200.577 295.944 200.456L296.913 200.461C296.888 200.669 296.825 200.869 296.725 201.062C296.626 201.254 296.493 201.426 296.325 201.578C296.158 201.728 295.959 201.848 295.728 201.936C295.498 202.023 295.237 202.067 294.947 202.067C294.543 202.067 294.182 201.975 293.863 201.792C293.546 201.609 293.296 201.345 293.111 200.998C292.928 200.652 292.837 200.232 292.837 199.74C292.837 199.246 292.93 198.826 293.116 198.479C293.301 198.133 293.554 197.869 293.872 197.687C294.191 197.504 294.549 197.413 294.947 197.413C295.209 197.413 295.453 197.45 295.677 197.524C295.902 197.597 296.102 197.705 296.276 197.847C296.45 197.987 296.592 198.158 296.701 198.362C296.811 198.565 296.882 198.798 296.913 199.061Z" fill="#163156"></path><path d="M311.738 163.405H235.672C234.672 163.405 233.861 162.594 233.861 161.594C233.861 160.594 234.672 159.783 235.672 159.783H311.738C312.739 159.783 313.549 160.594 313.549 161.594C313.549 162.594 312.739 163.405 311.738 163.405Z" fill="#A2ADBB"></path><path d="M311.738 152.538H235.672C234.672 152.538 233.861 151.727 233.861 150.727C233.861 149.727 234.672 148.916 235.672 148.916H311.738C312.739 148.916 313.549 149.727 313.549 150.727C313.549 151.727 312.739 152.538 311.738 152.538Z" fill="#A2ADBB"></path><path d="M279.141 153.443H268.274C266.774 153.443 265.558 152.227 265.558 150.727C265.558 149.226 266.774 148.01 268.274 148.01H279.141C280.641 148.01 281.857 149.226 281.857 150.727C281.857 152.227 280.641 153.443 279.141 153.443Z" fill="#F04E23"></path><path d="M256.505 175.176H245.639C244.138 175.176 242.922 173.96 242.922 172.46C242.922 170.959 244.138 169.743 245.639 169.743H256.505C258.005 169.743 259.222 170.959 259.222 172.46C259.222 173.96 258.005 175.176 256.505 175.176Z" fill="#163156"></path><path d="M311.738 141.672H235.672C234.672 141.672 233.861 140.861 233.861 139.861C233.861 138.861 234.672 138.05 235.672 138.05H311.738C312.739 138.05 313.549 138.861 313.549 139.861C313.549 140.861 312.739 141.672 311.738 141.672Z" fill="#A2ADBB"></path><path d="M311.738 130.805H235.672C234.672 130.805 233.861 129.994 233.861 128.994C233.861 127.993 234.672 127.183 235.672 127.183H311.738C312.739 127.183 313.549 127.993 313.549 128.994C313.549 129.994 312.739 130.805 311.738 130.805Z" fill="#A2ADBB"></path><path d="M341.624 174.271H321.702C320.701 174.271 319.891 173.46 319.891 172.46C319.891 171.46 320.701 170.649 321.702 170.649H341.624C342.624 170.649 343.435 171.46 343.435 172.46C343.435 173.46 342.624 174.271 341.624 174.271Z" fill="#F04E23"></path><path d="M341.624 185.138H321.702C320.701 185.138 319.891 184.327 319.891 183.327C319.891 182.327 320.701 181.516 321.702 181.516H341.624C342.624 181.516 343.435 182.327 343.435 183.327C343.435 184.327 342.624 185.138 341.624 185.138Z" fill="#F04E23"></path><path d="M341.624 163.406H321.702C320.701 163.406 319.891 162.595 319.891 161.595C319.891 160.595 320.701 159.784 321.702 159.784H341.624C342.624 159.784 343.435 160.595 343.435 161.595C343.435 162.595 342.624 163.406 341.624 163.406Z" fill="#F04E23"></path><path d="M341.624 152.538H321.702C320.701 152.538 319.891 151.727 319.891 150.727C319.891 149.727 320.701 148.916 321.702 148.916H341.624C342.624 148.916 343.435 149.727 343.435 150.727C343.435 151.727 342.624 152.538 341.624 152.538Z" fill="#F04E23"></path><path d="M341.624 141.672H321.702C320.701 141.672 319.891 140.861 319.891 139.861C319.891 138.861 320.701 138.05 321.702 138.05H341.624C342.624 138.05 343.435 138.861 343.435 139.861C343.435 140.861 342.624 141.672 341.624 141.672Z" fill="#F04E23"></path><path d="M341.624 130.806H321.702C320.701 130.806 319.891 129.995 319.891 128.995C319.891 127.995 320.701 127.184 321.702 127.184H341.624C342.624 127.184 343.435 127.995 343.435 128.995C343.435 129.995 342.624 130.806 341.624 130.806Z" fill="#F04E23"></path><path d="M265.519 97.2706H264.278C264.243 97.0671 264.178 96.8869 264.082 96.7298C263.987 96.5706 263.869 96.4357 263.727 96.3251C263.586 96.2145 263.424 96.1316 263.243 96.0763C263.064 96.0188 262.87 95.99 262.663 95.99C262.293 95.99 261.966 96.0829 261.681 96.2687C261.395 96.4523 261.172 96.7221 261.01 97.0782C260.849 97.432 260.768 97.8644 260.768 98.3753C260.768 98.8951 260.849 99.333 261.01 99.6891C261.174 100.043 261.397 100.311 261.681 100.492C261.966 100.671 262.292 100.761 262.659 100.761C262.863 100.761 263.053 100.734 263.23 100.681C263.409 100.626 263.569 100.545 263.711 100.439C263.855 100.333 263.975 100.202 264.073 100.047C264.172 99.8926 264.241 99.7156 264.278 99.5166L265.519 99.5232C265.473 99.8461 265.372 100.149 265.217 100.432C265.064 100.715 264.864 100.965 264.617 101.182C264.369 101.397 264.079 101.565 263.747 101.686C263.416 101.806 263.047 101.865 262.643 101.865C262.045 101.865 261.512 101.727 261.044 101.451C260.575 101.174 260.205 100.775 259.936 100.253C259.666 99.7311 259.531 99.1052 259.531 98.3753C259.531 97.6433 259.667 97.0174 259.939 96.4976C260.211 95.9756 260.581 95.5764 261.05 95.3C261.519 95.0235 262.05 94.8853 262.643 94.8853C263.021 94.8853 263.372 94.9383 263.698 95.0445C264.023 95.1507 264.312 95.3066 264.567 95.5123C264.821 95.7158 265.03 95.9657 265.194 96.2621C265.36 96.5562 265.468 96.8924 265.519 97.2706ZM275.053 98.3753C275.053 99.1074 274.916 99.7344 274.641 100.256C274.369 100.776 273.998 101.174 273.527 101.451C273.058 101.727 272.526 101.865 271.931 101.865C271.336 101.865 270.803 101.727 270.332 101.451C269.863 101.172 269.491 100.773 269.217 100.253C268.945 99.7311 268.809 99.1052 268.809 98.3753C268.809 97.6433 268.945 97.0174 269.217 96.4976C269.491 95.9756 269.863 95.5764 270.332 95.3C270.803 95.0235 271.336 94.8853 271.931 94.8853C272.526 94.8853 273.058 95.0235 273.527 95.3C273.998 95.5764 274.369 95.9756 274.641 96.4976C274.916 97.0174 275.053 97.6433 275.053 98.3753ZM273.815 98.3753C273.815 97.86 273.735 97.4254 273.573 97.0715C273.414 96.7155 273.193 96.4467 272.91 96.2654C272.627 96.0818 272.3 95.99 271.931 95.99C271.562 95.99 271.235 96.0818 270.952 96.2654C270.669 96.4467 270.447 96.7155 270.285 97.0715C270.126 97.4254 270.047 97.86 270.047 98.3753C270.047 98.8907 270.126 99.3264 270.285 99.6825C270.447 100.036 270.669 100.305 270.952 100.489C271.235 100.67 271.562 100.761 271.931 100.761C272.3 100.761 272.627 100.67 272.91 100.489C273.193 100.305 273.414 100.036 273.573 99.6825C273.735 99.3264 273.815 98.8907 273.815 98.3753ZM284.135 94.9782V101.773H283.041L279.839 97.1445H279.783V101.773H278.552V94.9782H279.653L282.852 99.6095H282.911V94.9782H284.135ZM287.514 96.0099V94.9782H292.934V96.0099H290.834V101.773H289.614V96.0099H287.514ZM296.315 101.773V94.9782H300.734V96.0099H297.546V97.8545H300.505V98.8862H297.546V100.741H300.761V101.773H296.315ZM309.909 94.9782V101.773H308.814L305.613 97.1445H305.556V101.773H304.325V94.9782H305.427L308.625 99.6095H308.685V94.9782H309.909ZM313.287 96.0099V94.9782H318.708V96.0099H316.608V101.773H315.387V96.0099H313.287ZM248.035 112.773V105.978H252.454V107.01H249.265V108.854H252.225V109.886H249.265V111.741H252.48V112.773H248.035ZM261.628 105.978V112.773H260.533L257.332 108.145H257.276V112.773H256.045V105.978H257.146L260.344 110.609H260.404V105.978H261.628ZM265.305 112.773V105.978H267.853C268.375 105.978 268.813 106.069 269.167 106.25C269.523 106.432 269.791 106.686 269.973 107.013C270.156 107.338 270.248 107.718 270.248 108.151C270.248 108.587 270.155 108.965 269.969 109.286C269.786 109.604 269.515 109.851 269.157 110.026C268.798 110.198 268.358 110.284 267.836 110.284H266.022V109.263H267.67C267.976 109.263 268.226 109.221 268.42 109.136C268.615 109.05 268.759 108.925 268.851 108.762C268.947 108.596 268.994 108.392 268.994 108.151C268.994 107.91 268.947 107.704 268.851 107.534C268.756 107.362 268.611 107.231 268.417 107.143C268.222 107.052 267.971 107.007 267.664 107.007H266.536V112.773H265.305ZM268.815 109.694L270.497 112.773H269.123L267.471 109.694H268.815ZM274.947 105.978V112.773H273.717V105.978H274.947ZM284.432 108.271H283.191C283.155 108.067 283.09 107.887 282.995 107.73C282.9 107.571 282.782 107.436 282.64 107.325C282.499 107.215 282.337 107.132 282.156 107.076C281.977 107.019 281.783 106.99 281.575 106.99C281.206 106.99 280.878 107.083 280.593 107.269C280.308 107.452 280.084 107.722 279.923 108.078C279.762 108.432 279.681 108.864 279.681 109.375C279.681 109.895 279.762 110.333 279.923 110.689C280.087 111.043 280.31 111.311 280.593 111.492C280.878 111.671 281.205 111.761 281.572 111.761C281.775 111.761 281.965 111.734 282.142 111.681C282.322 111.626 282.482 111.545 282.623 111.439C282.767 111.333 282.888 111.202 282.985 111.047C283.085 110.893 283.153 110.716 283.191 110.517L284.432 110.523C284.385 110.846 284.284 111.149 284.13 111.432C283.977 111.715 283.777 111.965 283.529 112.182C283.281 112.397 282.992 112.565 282.66 112.686C282.328 112.806 281.96 112.865 281.555 112.865C280.958 112.865 280.425 112.727 279.956 112.451C279.487 112.174 279.118 111.775 278.848 111.253C278.578 110.731 278.443 110.105 278.443 109.375C278.443 108.643 278.579 108.017 278.851 107.498C279.123 106.976 279.494 106.576 279.963 106.3C280.432 106.023 280.962 105.885 281.555 105.885C281.933 105.885 282.285 105.938 282.61 106.045C282.935 106.151 283.225 106.307 283.479 106.512C283.734 106.716 283.943 106.966 284.106 107.262C284.272 107.556 284.381 107.892 284.432 108.271ZM287.894 112.773V105.978H289.125V108.854H292.273V105.978H293.508V112.773H292.273V109.886H289.125V112.773H287.894ZM297.182 105.978H298.688L300.705 110.901H300.785L302.802 105.978H304.308V112.773H303.127V108.105H303.064L301.186 112.753H300.304L298.426 108.095H298.363V112.773H297.182V105.978ZM307.984 112.773V105.978H312.403V107.01H309.215V108.854H312.174V109.886H309.215V111.741H312.429V112.773H307.984ZM321.577 105.978V112.773H320.483L317.281 108.145H317.225V112.773H315.994V105.978H317.095L320.294 110.609H320.353V105.978H321.577ZM324.956 107.01V105.978H330.376V107.01H328.276V112.773H327.056V107.01H324.956Z" fill="#163156"></path><path d="M256.505 142.577H245.639C244.138 142.577 242.922 141.361 242.922 139.861C242.922 138.36 244.138 137.144 245.639 137.144H256.505C258.005 137.144 259.222 138.36 259.222 139.861C259.222 141.361 258.005 142.577 256.505 142.577Z" fill="#1CACA5"></path><g filter="url(#filter2_dd_217_31361)"><rect width="131.436" height="171.093" rx="8" transform="matrix(1 0 0 -1 413.999 301.093)" fill="white"></rect></g><path d="M532.06 275.395H483.208C482.244 275.395 481.463 274.614 481.463 273.651C481.463 272.687 482.244 271.906 483.208 271.906H532.06C533.024 271.906 533.805 272.687 533.805 273.651C533.805 274.614 533.024 275.395 532.06 275.395Z" fill="#A4DEDB"></path><path d="M532.06 264.927H483.208C482.244 264.927 481.463 264.146 481.463 263.182C481.463 262.218 482.244 261.437 483.208 261.437H532.06C533.024 261.437 533.805 262.218 533.805 263.182C533.805 264.146 533.024 264.927 532.06 264.927Z" fill="#A4DEDB"></path><path d="M532.06 285.864H483.208C482.244 285.864 481.463 285.082 481.463 284.119C481.463 283.155 482.244 282.374 483.208 282.374H532.06C533.024 282.374 533.805 283.155 533.805 284.119C533.805 285.082 533.024 285.864 532.06 285.864Z" fill="#A4DEDB"></path><path d="M445.78 285.864H428.745C427.025 285.864 425.631 284.469 425.631 282.75V264.551C425.631 262.831 427.025 261.437 428.745 261.437H445.78C447.5 261.437 448.894 262.831 448.894 264.551V282.75C448.894 284.469 447.5 285.864 445.78 285.864Z" fill="#F3714F"></path><path d="M473.696 285.864H456.661C454.941 285.864 453.547 284.469 453.547 282.75V264.551C453.547 262.831 454.941 261.437 456.661 261.437H473.696C475.416 261.437 476.81 262.831 476.81 264.551V282.75C476.81 284.469 475.416 285.864 473.696 285.864Z" fill="#F3714F"></path><path d="M532.485 214.843H427.442C426.442 214.843 425.631 215.654 425.631 216.654C425.631 217.654 426.442 218.465 427.442 218.465H532.485C533.486 218.465 534.296 217.654 534.296 216.654C534.296 215.654 533.486 214.843 532.485 214.843Z" fill="#A2ADBB"></path><path d="M532.485 225.763H427.442C426.442 225.763 425.631 226.574 425.631 227.574C425.631 228.575 426.442 229.385 427.442 229.385H532.485C533.486 229.385 534.296 228.575 534.296 227.574C534.296 226.574 533.486 225.763 532.485 225.763Z" fill="#A2ADBB"></path><path d="M532.485 236.685H427.442C426.442 236.685 425.631 237.496 425.631 238.496C425.631 239.496 426.442 240.307 427.442 240.307H532.485C533.486 240.307 534.296 239.496 534.296 238.496C534.296 237.496 533.486 236.685 532.485 236.685Z" fill="#A2ADBB"></path><path d="M532.485 247.604H427.442C426.442 247.604 425.631 248.415 425.631 249.415C425.631 250.416 426.442 251.226 427.442 251.226H532.485C533.486 251.226 534.296 250.416 534.296 249.415C534.296 248.415 533.486 247.604 532.485 247.604Z" fill="#A2ADBB"></path><rect width="108.666" height="61.8849" rx="3.46805" transform="matrix(1 0 0 -1 425.631 205.843)" fill="#EFF6FF"></rect><path d="M435.345 153.21C435.351 152.42 435.992 151.782 436.782 151.78L453.642 151.736C454.445 151.733 455.094 152.388 455.086 153.191C455.077 153.979 454.437 154.614 453.649 154.616L436.789 154.66C435.989 154.663 435.34 154.011 435.345 153.21Z" fill="#163156"></path><path d="M460.467 174.757C460.472 173.97 461.111 173.335 461.898 173.333L473.29 173.308C474.09 173.306 474.736 173.959 474.728 174.759C474.719 175.544 474.081 176.176 473.296 176.178L461.905 176.203C461.107 176.205 460.461 175.555 460.467 174.757Z" fill="#77CDC9"></path><path d="M476.946 174.725C476.952 173.938 477.591 173.303 478.378 173.301L484.963 173.286C485.761 173.285 486.407 173.934 486.401 174.732C486.396 175.519 485.757 176.155 484.97 176.156L478.384 176.171C477.586 176.173 476.94 175.523 476.946 174.725Z" fill="#163156"></path><path d="M488.272 174.716C488.272 173.925 488.913 173.283 489.704 173.281L509.669 173.235C510.467 173.233 511.113 173.883 511.107 174.681C511.102 175.468 510.463 176.103 509.676 176.105L489.711 176.151C488.917 176.153 488.272 175.51 488.272 174.716Z" fill="#77CDC9"></path><path d="M458.927 153.154C458.936 152.366 459.576 151.731 460.364 151.73L471.5 151.713C472.294 151.712 472.938 152.355 472.938 153.149C472.938 153.941 472.297 154.583 471.505 154.584L460.37 154.609C459.567 154.611 458.918 153.956 458.927 153.154Z" fill="#1CACA5"></path><path d="M458.695 185.57C458.701 184.783 459.34 184.147 460.127 184.146L471.278 184.121C472.078 184.119 472.725 184.771 472.716 185.571C472.708 186.356 472.07 186.989 471.285 186.991L460.133 187.015C459.335 187.017 458.689 186.368 458.695 185.57Z" fill="#163156"></path><path d="M451.616 196.384C451.622 195.596 452.262 194.96 453.051 194.96H456.171C456.964 194.96 457.606 195.602 457.606 196.395C457.606 197.187 456.964 197.83 456.171 197.83H453.051C452.254 197.83 451.61 197.181 451.616 196.384Z" fill="#77CDC9"></path><path d="M435.269 196.503C435.277 195.718 435.916 195.085 436.702 195.084L447.842 195.067C448.636 195.066 449.28 195.709 449.28 196.502C449.28 197.294 448.638 197.936 447.847 197.937L436.706 197.954C435.906 197.955 435.26 197.303 435.269 196.503Z" fill="#163156"></path><path d="M460.425 196.464C460.425 195.673 461.065 195.031 461.856 195.029L466.834 195.016C467.632 195.014 468.279 195.663 468.273 196.461C468.267 197.248 467.629 197.883 466.842 197.886L461.864 197.899C461.07 197.901 460.425 197.258 460.425 196.464Z" fill="#F04E23"></path><path d="M435.357 174.819C435.357 174.028 435.998 173.386 436.789 173.384L447.93 173.359C448.73 173.357 449.377 174.01 449.368 174.81C449.36 175.595 448.722 176.227 447.936 176.229L436.796 176.254C436.002 176.256 435.357 175.613 435.357 174.819Z" fill="#1CACA5"></path><path d="M435.285 185.631C435.285 184.84 435.925 184.199 436.716 184.196L453.832 184.152C454.63 184.15 455.277 184.799 455.271 185.597C455.265 186.384 454.627 187.02 453.84 187.022L436.724 187.066C435.93 187.069 435.285 186.425 435.285 185.631Z" fill="#1CACA5"></path><path d="M476.711 153.118C476.72 152.339 477.353 151.711 478.132 151.708L493.135 151.664C493.932 151.662 494.579 152.311 494.573 153.109C494.567 153.896 493.928 154.531 493.141 154.533L478.139 154.559C477.345 154.56 476.702 153.912 476.711 153.118Z" fill="#163156"></path><path d="M500.919 185.484C500.924 184.697 501.563 184.062 502.349 184.06L517.341 184.016C518.142 184.014 518.789 184.666 518.78 185.467C518.772 186.251 518.134 186.884 517.35 186.886L502.358 186.93C501.56 186.932 500.913 186.282 500.919 185.484Z" fill="#163156"></path><path d="M507.784 153.055C507.79 152.265 508.432 151.627 509.222 151.626L524.209 151.608C525.008 151.608 525.654 152.26 525.646 153.06C525.637 153.845 524.999 154.478 524.213 154.479L509.226 154.506C508.426 154.507 507.778 153.856 507.784 153.055Z" fill="#F04E23"></path><path d="M487.187 185.516C487.193 184.729 487.831 184.093 488.618 184.091L496.221 184.068C497.021 184.066 497.669 184.719 497.66 185.519C497.651 186.304 497.014 186.936 496.229 186.938L488.627 186.961C487.828 186.963 487.181 186.314 487.187 185.516Z" fill="#F04E23"></path><path d="M497.882 153.088C497.882 152.297 498.521 151.655 499.311 151.652L502.974 151.634C503.778 151.63 504.429 152.285 504.42 153.089C504.411 153.876 503.773 154.51 502.986 154.512L499.323 154.524C498.528 154.526 497.882 153.883 497.882 153.088Z" fill="#77CDC9"></path><path d="M476.486 185.547C476.486 184.756 477.126 184.115 477.917 184.112L481.59 184.1C482.389 184.098 483.036 184.747 483.03 185.546C483.024 186.332 482.386 186.968 481.6 186.97L477.926 186.982C477.132 186.985 476.486 186.341 476.486 185.547Z" fill="#77CDC9"></path><path d="M435.269 164.017C435.277 163.229 435.917 162.595 436.705 162.593L444.052 162.578C444.847 162.576 445.491 163.22 445.491 164.014C445.491 164.805 444.851 165.447 444.06 165.449L436.713 165.472C435.91 165.474 435.26 164.82 435.269 164.017Z" fill="#163156"></path><path d="M447.998 163.999C447.998 163.211 448.633 162.57 449.422 162.562L449.85 162.558C450.655 162.551 451.31 163.206 451.301 164.012C451.292 164.796 450.657 165.429 449.872 165.434L449.444 165.436C448.647 165.442 447.998 164.797 447.998 163.999Z" fill="#163156"></path><path d="M453.73 163.969C453.738 163.18 454.381 162.544 455.17 162.544H455.655C456.455 162.544 457.101 163.196 457.095 163.995C457.089 164.786 456.446 165.425 455.655 165.425H455.17C454.368 165.425 453.721 164.77 453.73 163.969Z" fill="#F04E23"></path><path d="M504.345 163.87C504.35 163.078 504.993 162.44 505.785 162.44H511.832C512.634 162.44 513.281 163.094 513.273 163.896C513.264 164.685 512.622 165.32 511.832 165.32H505.785C504.985 165.32 504.339 164.669 504.345 163.87Z" fill="#163156"></path><path d="M513.191 174.65C513.197 173.863 513.835 173.228 514.621 173.225L520.685 173.204C521.483 173.201 522.13 173.851 522.125 174.65C522.119 175.436 521.481 176.071 520.695 176.074L514.631 176.095C513.833 176.098 513.185 175.448 513.191 174.65Z" fill="#F04E23"></path><path d="M482.975 163.918C482.981 163.128 483.622 162.49 484.412 162.488L500.515 162.444C501.316 162.442 501.965 163.093 501.959 163.894C501.953 164.684 501.313 165.322 500.523 165.324L484.419 165.368C483.618 165.371 482.97 164.719 482.975 163.918Z" fill="#163156"></path><path d="M473.746 163.953C473.746 163.162 474.385 162.52 475.175 162.517L478.849 162.499C479.652 162.495 480.303 163.15 480.295 163.954C480.286 164.74 479.647 165.375 478.86 165.377L475.187 165.389C474.392 165.391 473.746 164.748 473.746 163.953Z" fill="#1CACA5"></path><path d="M451.671 174.776C451.676 173.99 452.314 173.354 453.101 173.352L456.759 173.34C457.559 173.337 458.207 173.99 458.198 174.791C458.19 175.575 457.553 176.207 456.768 176.21L453.11 176.222C452.312 176.224 451.665 175.575 451.671 174.776Z" fill="#F04E23"></path><path d="M459.867 163.966C459.876 163.178 460.516 162.544 461.304 162.542L469.815 162.527C470.615 162.525 471.262 163.178 471.253 163.978C471.245 164.763 470.607 165.396 469.822 165.398L461.311 165.421C460.508 165.423 459.859 164.769 459.867 163.966Z" fill="#163156"></path><g filter="url(#filter3_dd_217_31361)"><rect width="131.436" height="171.093" rx="8" transform="matrix(1 0 0 -1 605 203.093)" fill="white"></rect></g><path d="M697.586 51.2588H663.854C662.891 51.2588 662.109 50.4776 662.109 49.514C662.109 48.5505 662.891 47.7693 663.854 47.7693H697.586C698.549 47.7693 699.331 48.5505 699.331 49.514C699.331 50.4776 698.549 51.2588 697.586 51.2588Z" fill="#77CDC9"></path><path d="M725.501 51.127H708.053C707.09 51.127 706.309 50.3458 706.309 49.3822C706.309 48.4186 707.09 47.6375 708.053 47.6375H725.501C726.464 47.6375 727.246 48.4186 727.246 49.3822C727.246 50.3458 726.464 51.127 725.501 51.127Z" fill="#F04E23"></path><path d="M652.016 86.0215H619.86C618.14 86.0215 616.746 84.6273 616.746 82.9074V50.7512C616.746 49.0314 618.14 47.6371 619.86 47.6371H652.016C653.736 47.6371 655.13 49.0314 655.13 50.7512V82.9074C655.13 84.6273 653.736 86.0215 652.016 86.0215Z" fill="#F9B8A7"></path><path d="M697.586 122.079H618.491C617.527 122.079 616.746 121.298 616.746 120.334C616.746 119.371 617.527 118.59 618.491 118.59H697.586C698.549 118.59 699.331 119.371 699.331 120.334C699.331 121.298 698.549 122.079 697.586 122.079Z" fill="#77CDC9"></path><path d="M697.586 98.8164H618.491C617.527 98.8164 616.746 98.0353 616.746 97.0717C616.746 96.1081 617.527 95.3269 618.491 95.3269H697.586C698.549 95.3269 699.331 96.1081 699.331 97.0717C699.331 98.0353 698.549 98.8164 697.586 98.8164Z" fill="#77CDC9"></path><path d="M697.586 145.343H618.491C617.527 145.343 616.746 144.562 616.746 143.598C616.746 142.634 617.527 141.853 618.491 141.853H697.586C698.549 141.853 699.331 142.634 699.331 143.598C699.331 144.562 698.549 145.343 697.586 145.343Z" fill="#77CDC9"></path><path d="M697.586 156.975H618.491C617.527 156.975 616.746 156.193 616.746 155.23C616.746 154.266 617.527 153.485 618.491 153.485H697.586C698.549 153.485 699.331 154.266 699.331 155.23C699.331 156.193 698.549 156.975 697.586 156.975Z" fill="#77CDC9"></path><path d="M697.586 63.0244H663.854C662.891 63.0244 662.109 62.2433 662.109 61.2797C662.109 60.3161 662.891 59.5349 663.854 59.5349H697.586C698.549 59.5349 699.331 60.3161 699.331 61.2797C699.331 62.2433 698.549 63.0244 697.586 63.0244Z" fill="#77CDC9"></path><path d="M725.501 62.7588H708.053C707.09 62.7588 706.309 61.9776 706.309 61.014C706.309 60.0505 707.09 59.2693 708.053 59.2693H725.501C726.464 59.2693 727.246 60.0505 727.246 61.014C727.246 61.9776 726.464 62.7588 725.501 62.7588Z" fill="#F04E23"></path><path d="M697.586 133.711H618.491C617.527 133.711 616.746 132.93 616.746 131.966C616.746 131.003 617.527 130.221 618.491 130.221H697.586C698.549 130.221 699.331 131.003 699.331 131.966C699.331 132.93 698.549 133.711 697.586 133.711Z" fill="#77CDC9"></path><path d="M697.586 110.448H618.491C617.527 110.448 616.746 109.667 616.746 108.703C616.746 107.74 617.527 106.959 618.491 106.959H697.586C698.549 106.959 699.331 107.74 699.331 108.703C699.331 109.667 698.549 110.448 697.586 110.448Z" fill="#77CDC9"></path><path d="M697.586 74.7871H663.854C662.891 74.7871 662.109 74.006 662.109 73.0424C662.109 72.0788 662.891 71.2976 663.854 71.2976H697.586C698.549 71.2976 699.331 72.0788 699.331 73.0424C699.331 74.006 698.549 74.7871 697.586 74.7871Z" fill="#77CDC9"></path><path d="M725.501 74.3896H708.053C707.09 74.3896 706.309 73.6085 706.309 72.6449C706.309 71.6813 707.09 70.9002 708.053 70.9002H725.501C726.464 70.9002 727.246 71.6813 727.246 72.6449C727.246 73.6085 726.464 74.3896 725.501 74.3896Z" fill="#F04E23"></path><path d="M697.586 86.5527H663.854C662.891 86.5527 662.109 85.7716 662.109 84.808C662.109 83.8444 662.891 83.0632 663.854 83.0632H697.586C698.549 83.0632 699.331 83.8444 699.331 84.808C699.331 85.7716 698.549 86.5527 697.586 86.5527Z" fill="#77CDC9"></path><path d="M725.501 86.0215H708.053C707.09 86.0215 706.309 85.2404 706.309 84.2768C706.309 83.3132 707.09 82.5321 708.053 82.5321H725.501C726.464 82.5321 727.246 83.3132 727.246 84.2768C727.246 85.2404 726.464 86.0215 725.501 86.0215Z" fill="#F04E23"></path><path d="M724.132 188.38H619.86C618.14 188.38 616.746 186.986 616.746 185.266V168.231C616.746 166.511 618.14 165.117 619.86 165.117H724.132C725.852 165.117 727.246 166.511 727.246 168.231V185.266C727.246 186.986 725.852 188.38 724.132 188.38Z" fill="#73839A"></path><path d="M724.131 156.974H709.423C707.703 156.974 706.309 155.58 706.309 153.86V143.804C706.309 142.084 707.703 140.69 709.423 140.69H724.131C725.851 140.69 727.246 142.084 727.246 143.804V153.86C727.246 155.58 725.851 156.974 724.131 156.974Z" fill="#49BDB7"></path><path d="M724.131 134.874H709.423C707.703 134.874 706.309 133.48 706.309 131.76V120.541C706.309 118.821 707.703 117.427 709.423 117.427H724.131C725.851 117.427 727.246 118.821 727.246 120.541V131.76C727.246 133.48 725.851 134.874 724.131 134.874Z" fill="#F04E23"></path><path d="M724.131 111.611H709.423C707.703 111.611 706.309 110.217 706.309 108.497V98.4409C706.309 96.721 707.703 95.3268 709.423 95.3268H724.131C725.851 95.3268 727.246 96.721 727.246 98.4409V108.497C727.246 110.217 725.851 111.611 724.131 111.611Z" fill="#163156"></path><path d="M163.436 264.547H282.716C286.03 264.547 288.716 261.86 288.716 258.547V252.093" stroke="#F04E23" stroke-linecap="round" stroke-dasharray="4 4"></path><path d="M354.434 166.546H378.216C381.53 166.546 384.216 169.232 384.216 172.546V209.546C384.216 212.86 386.902 215.546 390.216 215.546H413.998" stroke="#F04E23" stroke-linecap="round" stroke-dasharray="4 4"></path><path d="M545.435 215.546H664.718C668.032 215.546 670.718 212.86 670.718 209.546V203.093" stroke="#F04E23" stroke-linecap="round" stroke-dasharray="4 4"></path></g><defs><filter id="filter0_dd_217_31361" x="12" y="179" width="171.436" height="211.093" filterUnits="userSpaceOnUse" color-interpolation-filters="sRGB"><feFlood flood-opacity="0" result="BackgroundImageFix"></feFlood><feColorMatrix in="SourceAlpha" type="matrix" values="0 0 0 0 0 0 0 0 0 0 0 0 0 0 0 0 0 0 127 0" result="hardAlpha"></feColorMatrix><feMorphology radius="4" operator="erode" in="SourceAlpha" result="effect1_dropShadow_217_31361"></feMorphology><feOffset dy="8"></feOffset><feGaussianBlur stdDeviation="4"></feGaussianBlur><feColorMatrix type="matrix" values="0 0 0 0 0.0627451 0 0 0 0 0.0941176 0 0 0 0 0.156863 0 0 0 0.03 0"></feColorMatrix><feBlend mode="normal" in2="BackgroundImageFix" result="effect1_dropShadow_217_31361"></feBlend><feColorMatrix in="SourceAlpha" type="matrix" values="0 0 0 0 0 0 0 0 0 0 0 0 0 0 0 0 0 0 127 0" result="hardAlpha"></feColorMatrix><feMorphology radius="4" operator="erode" in="SourceAlpha" result="effect2_dropShadow_217_31361"></feMorphology><feOffset dy="20"></feOffset><feGaussianBlur stdDeviation="12"></feGaussianBlur><feColorMatrix type="matrix" values="0 0 0 0 0.0627451 0 0 0 0 0.0941176 0 0 0 0 0.156863 0 0 0 0.08 0"></feColorMatrix><feBlend mode="normal" in2="effect1_dropShadow_217_31361" result="effect2_dropShadow_217_31361"></feBlend><feBlend mode="normal" in="SourceGraphic" in2="effect2_dropShadow_217_31361" result="shape"></feBlend></filter><filter id="filter1_dd_217_31361" x="202.998" y="80.9996" width="171.436" height="211.093" filterUnits="userSpaceOnUse" color-interpolation-filters="sRGB"><feFlood flood-opacity="0" result="BackgroundImageFix"></feFlood><feColorMatrix in="SourceAlpha" type="matrix" values="0 0 0 0 0 0 0 0 0 0 0 0 0 0 0 0 0 0 127 0" result="hardAlpha"></feColorMatrix><feMorphology radius="4" operator="erode" in="SourceAlpha" result="effect1_dropShadow_217_31361"></feMorphology><feOffset dy="8"></feOffset><feGaussianBlur stdDeviation="4"></feGaussianBlur><feColorMatrix type="matrix" values="0 0 0 0 0.0627451 0 0 0 0 0.0941176 0 0 0 0 0.156863 0 0 0 0.03 0"></feColorMatrix><feBlend mode="normal" in2="BackgroundImageFix" result="effect1_dropShadow_217_31361"></feBlend><feColorMatrix in="SourceAlpha" type="matrix" values="0 0 0 0 0 0 0 0 0 0 0 0 0 0 0 0 0 0 127 0" result="hardAlpha"></feColorMatrix><feMorphology radius="4" operator="erode" in="SourceAlpha" result="effect2_dropShadow_217_31361"></feMorphology><feOffset dy="20"></feOffset><feGaussianBlur stdDeviation="12"></feGaussianBlur><feColorMatrix type="matrix" values="0 0 0 0 0.0627451 0 0 0 0 0.0941176 0 0 0 0 0.156863 0 0 0 0.08 0"></feColorMatrix><feBlend mode="normal" in2="effect1_dropShadow_217_31361" result="effect2_dropShadow_217_31361"></feBlend><feBlend mode="normal" in="SourceGraphic" in2="effect2_dropShadow_217_31361" result="shape"></feBlend></filter><filter id="filter2_dd_217_31361" x="393.999" y="130" width="171.436" height="211.093" filterUnits="userSpaceOnUse" color-interpolation-filters="sRGB"><feFlood flood-opacity="0" result="BackgroundImageFix"></feFlood><feColorMatrix in="SourceAlpha" type="matrix" values="0 0 0 0 0 0 0 0 0 0 0 0 0 0 0 0 0 0 127 0" result="hardAlpha"></feColorMatrix><feMorphology radius="4" operator="erode" in="SourceAlpha" result="effect1_dropShadow_217_31361"></feMorphology><feOffset dy="8"></feOffset><feGaussianBlur stdDeviation="4"></feGaussianBlur><feColorMatrix type="matrix" values="0 0 0 0 0.0627451 0 0 0 0 0.0941176 0 0 0 0 0.156863 0 0 0 0.03 0"></feColorMatrix><feBlend mode="normal" in2="BackgroundImageFix" result="effect1_dropShadow_217_31361"></feBlend><feColorMatrix in="SourceAlpha" type="matrix" values="0 0 0 0 0 0 0 0 0 0 0 0 0 0 0 0 0 0 127 0" result="hardAlpha"></feColorMatrix><feMorphology radius="4" operator="erode" in="SourceAlpha" result="effect2_dropShadow_217_31361"></feMorphology><feOffset dy="20"></feOffset><feGaussianBlur stdDeviation="12"></feGaussianBlur><feColorMatrix type="matrix" values="0 0 0 0 0.0627451 0 0 0 0 0.0941176 0 0 0 0 0.156863 0 0 0 0.08 0"></feColorMatrix><feBlend mode="normal" in2="effect1_dropShadow_217_31361" result="effect2_dropShadow_217_31361"></feBlend><feBlend mode="normal" in="SourceGraphic" in2="effect2_dropShadow_217_31361" result="shape"></feBlend></filter><filter id="filter3_dd_217_31361" x="585" y="31.9996" width="171.436" height="211.093" filterUnits="userSpaceOnUse" color-interpolation-filters="sRGB"><feFlood flood-opacity="0" result="BackgroundImageFix"></feFlood><feColorMatrix in="SourceAlpha" type="matrix" values="0 0 0 0 0 0 0 0 0 0 0 0 0 0 0 0 0 0 127 0" result="hardAlpha"></feColorMatrix><feMorphology radius="4" operator="erode" in="SourceAlpha" result="effect1_dropShadow_217_31361"></feMorphology><feOffset dy="8"></feOffset><feGaussianBlur stdDeviation="4"></feGaussianBlur><feColorMatrix type="matrix" values="0 0 0 0 0.0627451 0 0 0 0 0.0941176 0 0 0 0 0.156863 0 0 0 0.03 0"></feColorMatrix><feBlend mode="normal" in2="BackgroundImageFix" result="effect1_dropShadow_217_31361"></feBlend><feColorMatrix in="SourceAlpha" type="matrix" values="0 0 0 0 0 0 0 0 0 0 0 0 0 0 0 0 0 0 127 0" result="hardAlpha"></feColorMatrix><feMorphology radius="4" operator="erode" in="SourceAlpha" result="effect2_dropShadow_217_31361"></feMorphology><feOffset dy="20"></feOffset><feGaussianBlur stdDeviation="12"></feGaussianBlur><feColorMatrix type="matrix" values="0 0 0 0 0.0627451 0 0 0 0 0.0941176 0 0 0 0 0.156863 0 0 0 0.08 0"></feColorMatrix><feBlend mode="normal" in2="effect1_dropShadow_217_31361" result="effect2_dropShadow_217_31361"></feBlend><feBlend mode="normal" in="SourceGraphic" in2="effect2_dropShadow_217_31361" result="shape"></feBlend></filter><clipPath id="clip0_217_31361"><rect width="768" height="384" fill="white"></rect></clipPath></defs></svg> 